<?xml version="1.0" encoding="utf-8"?>
<!-- Generator: Adobe Illustrator 19.2.0, SVG Export Plug-In . SVG Version: 6.00 Build 0)  -->
<svg version="1.1" id="Layer_1" xmlns="http://www.w3.org/2000/svg" xmlns:xlink="http://www.w3.org/1999/xlink" x="0px" y="0px"
	 width="60.9px" height="157.8px" viewBox="0 0 60.9 157.8" enable-background="new 0 0 60.9 157.8" xml:space="preserve">
<g id="DOG_PERSON">
	<g id="aJNJBc.tif_1_">
		<g>
			<path d="M36.5,157.5c1.8,0.3,3.7,0.3,5.6,0c3.4-1.8,4.4-4.7,4.4-8.4c-0.1-18.7,0-37.5,0-56.2c0-14,0-28,0-42c0-0.3,0-0.7,0-1
				c0-1,0.4-1.8,1.5-1.9c1.2,0,1.6,0.8,1.6,1.9c0,4.4,0,8.7,0,13.1c0,7.3,0,14.6,0,21.8c0,3.5,2.2,5.9,5.5,6c3.3,0,5.7-2.3,5.7-5.8
				c0-13.7,0.1-27.3,0-41c-0.1-7.9-5.9-14.6-13.6-16.2c-1-0.2-2.1-0.3-3.2-0.3c-9.3,0-18.5,0-27.8,0c-7.9,0-15,6.3-16,14.1
				C0.1,43.1,0,44.5,0,46c0,12.7,0,25.4,0,38c0,0.9,0.1,1.8,0.3,2.6c0.7,2.7,3.1,4.4,5.9,4.2c2.8-0.2,4.9-2.2,5.1-5
				c0.1-1.2,0.1-2.3,0.1-3.5c0-10.6,0-21.1,0-31.7c0-1.8,0.6-2.8,1.5-2.7c1,0,1.5,1,1.5,2.8c0,32.9,0,65.8,0,98.6
				c0,3.6,1,6.6,4.5,8.3c1,0.3,1.9,0.3,2.9,0.1c0.7-0.1,1.4-0.1,2.1-0.2c4.1-1.7,5.1-4.9,5-8.7c-0.1-7.7,0-15.5,0-23.2
				c0-10.8-0.1-21.7-0.1-32.5c0-0.2,0-0.5,0-0.7c0-1.1,0.3-2.1,1.6-2.1c1.3,0,1.5,1,1.5,2.1c0,6.9,0,13.7,0,20.6
				c0,12.4,0.1,24.8,0.1,37.2C32,153.5,33.5,156,36.5,157.5z"/>
			<path d="M23.3,5c-1.7,0.2-3.1,1.7-3.8,3.3s-0.9,3.4-1.2,5.1s-0.8,3.5-1.9,4.8c-0.6,0.7-1.6,1.3-2.3,0.8c-0.5-0.4-0.7-1.1-0.7-1.8
				c-0.1-4.4,2-8.9,5.5-11.7C22.1,2.8,25.9,0,30.4,0c6.8,0,12.3,5.4,12.3,12.2c0,6.8-5.5,12.3-12.3,12.3c-6.8,0-12.2-5.4-12.2-12.3
				c0-3.4,1.3-6.4,3.5-8.6"/>
			<path d="M38.1,3.4c0.4-0.1,0.7,0.1,1.1,0.3c3.4,2.2,5.6,6,6.8,10c0.3,1.1,0.6,2.3,0.3,3.5c-0.3,1.1-1.5,2-2.5,1.6
				c-0.8-0.3-1.3-1.3-1.6-2.2c-1.4-3.7-2.8-7.4-4.2-11.1c-0.1-0.4-0.3-0.8-0.3-1.2S37.8,3.5,38.1,3.4z"/>
		</g>
	</g>
</g>
<g>
</g>
<g>
</g>
<g>
</g>
<g>
</g>
<g>
</g>
<g>
</g>
</svg>
