<svg xmlns="http://www.w3.org/2000/svg" viewBox="0 0 812.2 1189.8">
  <path fill="#7F3F98" d="M706.3 255.8c0 .1-.1.1-.3 0 .2-.1.3-.1.3 0z"/>
  <path fill="#FDB943" d="M1.2 0h810.1v46.6H1.2z"/>
  <path fill="none" d="M171.1 10.5h481.8v45.2H171.1z"/>
  <path fill="#FFF" d="M237.5 23.1l3.5 7.5c.3.7.6 1.1.8 1.4.2.2.6.4 1 .4.9.1 1.3.6 1.3 1.4 0 .9-.5 1.6-1.6 1.9-1.1.4-2.9.6-5.3.6-2.8 0-4.9-.1-6.2-.4-.6-.1-1.1-.3-1.5-.7-.4-.3-.5-.8-.5-1.2 0-.4.1-.7.3-.9.2-.2.5-.4 1.1-.6.6-.2.9-.5.9-1 0-.8-.5-1.3-1.5-1.5-1.1-.1-2.6-.2-4.5-.2-1.6 0-2.6.1-3 .3-.2.1-.4.3-.5.7-.1.3-.2.6-.2.9 0 .3.1.4.2.5.1.1.4.2 1 .4.8.2 1.1.7 1.1 1.3 0 1.5-1.8 2.2-5.3 2.2-2 0-3.5-.1-4.4-.4-.9-.3-1.3-.8-1.3-1.7 0-.4.1-.7.3-.9.2-.2.5-.4 1-.6.8-.3 1.4-.7 1.8-1.2.4-.5 1-1.6 1.8-3.3l2.6-5.7c1-2.1 1.6-3.7 1.9-4.7.3-1 .5-2.1.5-3.1 0-1.1.1-1.8.2-2.2.1-.4.4-.8.8-1.2.9-.9 1.9-1.3 3.3-1.3 1.2 0 2.4.5 3.6 1.5 1.5 1.4 3.8 5.3 6.8 11.8zm-12.9 2.3h3.6c.7 0 1-.1 1-.4 0-.4-.5-1.4-1.4-3-.4-.7-.7-1.2-1-1.5-.2-.2-.5-.4-.7-.4-.4 0-.8.4-1.1 1.2 0 .1-.2.6-.5 1.3-.5 1.3-.8 2-.8 2.3 0 .4.3.5.9.5z"/>
  <path fill="#FFF" d="M265 21.2v6c0 2.6 0 4.2.1 4.6.1.4.4.8.9 1 .5.2.8.4.9.6.2.2.2.4.2.7 0 .4-.1.8-.4 1.1-.3.3-.7.6-1.2.7-.9.3-2.4.4-4.5.4-2.4 0-4.1-.2-5-.5-.4-.2-.8-.4-1.1-.8-.3-.3-.4-.7-.4-1.1 0-.3.1-.5.2-.7.2-.2.5-.4 1-.6.5-.2.8-.8.9-1.7.2-1.6.3-3.9.3-6.9 0-3-.1-5-.3-5.8-.2-.9-.6-1.5-1.3-1.9-.5-.3-.9-.6-1.1-.8-.2-.3-.3-.6-.3-1 0-.6.3-1.1.9-1.6.6-.5 1.5-.9 2.8-1.3.9-.3 2-.5 3.3-.7 1.4-.2 2.4-.4 3-.4 1 0 1.5.6 1.5 1.8 0 .4-.1 1.3-.2 2.7-.1 2.3-.2 4.3-.2 6.2z"/>
  <path fill="#FFF" d="M278.6 18.7v10.8c0 .9.1 1.5.2 1.9.2.4.5.8.9 1.1.4.3.6.5.8.7.1.2.2.4.2.7 0 1.6-2 2.4-6.1 2.4-2.2 0-3.9-.2-5.2-.5-.4-.1-.8-.3-1-.6-.3-.3-.4-.7-.4-1.1 0-.3.1-.6.2-.8.1-.2.5-.5 1-.9.4-.3.7-.7.8-1.4.2-.6.2-1.6.2-2.9 0-.4 0-1.2-.1-2.3-.1-1.1-.1-1.8-.1-2-.1-.5-.4-.9-1-1.2-.8-.3-1.2-.8-1.2-1.5 0-.8.5-1.4 1.5-1.7 1.4-.5 2.9-1 4.5-1.4 1.6-.4 2.8-.6 3.7-.6.7.1 1.1.5 1.1 1.3zm-3.7-8.1c1.1 0 1.9.2 2.6.6.6.4.9.9.9 1.6 0 1-.5 1.7-1.4 2.3-1.5.9-3.3 1.3-5.5 1.3-.9 0-1.6-.2-2.2-.5-.7-.4-1.1-1.1-1.1-1.9 0-1.1.8-1.9 2.3-2.5 1.6-.6 3.1-.9 4.4-.9z"/>
  <path fill="#FFF" d="M292.8 22.3v6.3c0 .7.2 1.3.5 1.8.4.5.8.7 1.4.7.5 0 1.1-.2 1.9-.7.2-.1.4-.2.6-.2.3 0 .6.2.8.5.2.4.4.7.4 1.2 0 .8-.4 1.5-1.3 2.2-1.8 1.5-3.9 2.2-6.4 2.2-2 0-3.6-.6-4.8-1.7-1.2-1.1-1.8-2.6-1.8-4.4v-8.6c0-.3 0-.5-.1-.5-.1-.1-.2-.1-.5-.1h-1.9c-.4 0-.6-.1-.7-.2-.1-.1-.1-.4-.1-.8v-.8c0-.4.2-.6.4-.8l8.5-5.3c.2-.1.5-.2.8-.2h1.5c.3 0 .5.1.6.2.1.1.2.4.2.8v2.5c0 .4.1.6.2.7.1.1.4.2.8.2h3.4c.5 0 .8.1.9.3.1.2.2.5.2 1.1v1.1c0 .6-.1 1-.3 1.2-.2.2-.5.3-.9.3h-3.4c-.3 0-.6.1-.7.2-.1.2-.2.4-.2.8z"/>
  <path fill="#FFF" d="M310.4 22.3v6.3c0 .7.2 1.3.5 1.8.4.5.8.7 1.4.7.5 0 1.1-.2 1.9-.7.2-.1.4-.2.6-.2.3 0 .6.2.8.5.2.4.4.7.4 1.2 0 .8-.4 1.5-1.3 2.2-1.8 1.5-3.9 2.2-6.4 2.2-2 0-3.6-.6-4.8-1.7-1.2-1.1-1.8-2.6-1.8-4.4v-8.6c0-.3 0-.5-.1-.5-.1-.1-.2-.1-.5-.1h-1.9c-.4 0-.6-.1-.7-.2-.1-.1-.1-.4-.1-.8v-.8c0-.4.2-.6.4-.8l8.5-5.3c.2-.1.5-.2.8-.2h1.5c.3 0 .5.1.6.2.1.1.2.4.2.8v2.5c0 .4.1.6.2.7.1.1.4.2.8.2h3.4c.5 0 .8.1.9.3.1.2.2.5.2 1.1v1.1c0 .6-.1 1-.3 1.2-.2.2-.5.3-.9.3h-3.4c-.3 0-.6.1-.7.2-.1.2-.2.4-.2.8z"/>
  <path fill="#FFF" d="M327.6 21.2v6c0 2.6 0 4.2.1 4.6.1.4.4.8.9 1 .5.2.8.4.9.6.2.2.2.4.2.7 0 .4-.1.8-.4 1.1-.3.3-.7.6-1.2.7-.9.3-2.4.4-4.5.4-2.4 0-4.1-.2-5-.5-.4-.2-.8-.4-1.1-.8-.3-.3-.4-.7-.4-1.1 0-.3.1-.5.2-.7.2-.2.5-.4 1-.6.5-.2.8-.8.9-1.7.2-1.6.3-3.9.3-6.9 0-3-.1-5-.3-5.8-.2-.9-.6-1.5-1.3-1.9-.5-.3-.9-.6-1.1-.8-.2-.3-.3-.6-.3-1 0-.6.3-1.1.9-1.6.6-.5 1.5-.9 2.8-1.3.9-.3 2-.5 3.3-.7 1.4-.2 2.4-.4 3-.4 1 0 1.5.6 1.5 1.8 0 .4-.1 1.3-.2 2.7-.1 2.3-.2 4.3-.2 6.2z"/>
  <path fill="#FFF" d="M348 27.6h-8.7c-.4 0-.6.2-.6.5 0 .8.4 1.6 1.3 2.3.9.7 1.8 1.1 2.8 1.1.6 0 1.3-.1 2-.3.7-.2 1.3-.5 1.8-.8.4-.3.8-.4 1-.4.3 0 .6.2.9.6.3.4.5.8.5 1.2 0 .9-.6 1.8-1.7 2.6-2 1.5-4.2 2.2-6.8 2.2-2.6 0-4.8-.8-6.5-2.3-.9-.7-1.6-1.6-2.1-2.7-.7-1.4-1.1-2.9-1.1-4.4 0-2.1.6-3.9 1.9-5.6 1.1-1.4 2.5-2.5 4.2-3.2 1.3-.5 2.6-.8 4.1-.8 2.4 0 4.3.7 6 2 .8.7 1.5 1.5 2 2.4.6 1 .9 2.1.9 3 0 .8-.2 1.5-.5 2-.4.3-.9.6-1.4.6zm-8.2-3.5h1.9c.8 0 1.2-.4 1.2-1.1 0-.7-.2-1.2-.6-1.6-.4-.4-.9-.6-1.5-.6-.7 0-1.2.3-1.6.8-.4.5-.6 1-.6 1.5 0 .4.1.6.3.8.1.1.4.2.9.2z"/>
  <path fill="#FFF" d="M368.5 10.2c1.4 0 2.7.1 4 .4 1.7.3 2.5 1 2.5 2.1 0 .4-.1.6-.3.8-.2.2-.6.4-1.3.8-.6.3-.9.9-1.1 1.9-.2 1-.3 2.8-.3 5.6 0 4.7.1 7.7.4 8.8.1.4.2.6.4.8.2.2.5.4.9.6.8.4 1.2.9 1.2 1.6 0 1-.8 1.7-2.3 2-1.6.4-3.6.6-6 .6-4 0-6-.8-6-2.3 0-.6.4-1.1 1.2-1.6.6-.4 1-.9 1.1-1.5.2-1.4.4-4.4.4-9 0-3.2-.2-5.2-.5-6.1-.2-.5-.6-1-1.2-1.4-.5-.3-.8-.6-1-.8-.2-.2-.3-.5-.3-.9 0-.5.3-1 .8-1.3.5-.3 1.4-.6 2.7-.8 1.5-.2 3.1-.3 4.7-.3z"/>
  <path fill="#FFF" d="M398.7 24.3l.3 6.5c0 .5.1.9.2 1.1.1.2.5.7 1.1 1.4.2.2.3.5.3.8 0 .8-.5 1.4-1.5 1.7-1 .3-2.7.5-5.2.5-1.7 0-2.9-.1-3.6-.4-.7-.3-1.1-.8-1.1-1.5 0-.2 0-.4.1-.5.1-.1.3-.4.7-.9.5-.5.7-2.3.7-5.2 0-1.7-.2-3-.6-3.8-.3-.7-.9-1-1.8-1-.8 0-1.4.3-1.7.8-.3.5-.5 1.5-.5 2.9v3.7c0 .7 0 1.2.1 1.5.1.3.4.8.9 1.6.1.2.2.5.2.8 0 .7-.5 1.3-1.5 1.6-1 .3-2.6.5-4.8.5-3.4 0-5.2-.7-5.2-2.1 0-.3.1-.5.2-.7.1-.2.4-.4.8-.7.3-.2.5-.5.6-.8.1-.3.2-1 .2-2.2.1-1.4.1-2.9.1-4.4 0-.9-.1-1.4-.2-1.7-.1-.3-.5-.6-1.1-1-.5-.3-.8-.7-.8-1.2s.2-.9.6-1.2c.4-.3 1.3-.7 2.7-1.2 1.2-.4 2.3-.8 3.4-1.1 1.1-.3 1.9-.4 2.3-.4.4 0 .7.1.9.4.3.3.4.6.4 1v.8c0 .6.2.9.7.9.3 0 .6-.2.9-.7 1.1-1.5 2.6-2.3 4.6-2.3 1.6 0 2.9.4 4 1.2.8.6 1.3 1.3 1.6 2.1.8.5 1 1.6 1 3.2z"/>
  <path fill="#FFF" d="M412.7 22.3v6.3c0 .7.2 1.3.5 1.8.4.5.8.7 1.4.7.5 0 1.1-.2 1.9-.7.2-.1.4-.2.6-.2.3 0 .6.2.8.5.2.4.4.7.4 1.2 0 .8-.4 1.5-1.3 2.2-1.8 1.5-3.9 2.2-6.4 2.2-2 0-3.6-.6-4.8-1.7-1.2-1.1-1.8-2.6-1.8-4.4v-8.6c0-.3 0-.5-.1-.5-.1-.1-.2-.1-.5-.1h-1.9c-.4 0-.6-.1-.7-.2-.1-.1-.1-.4-.1-.8v-.8c0-.4.2-.6.4-.8l8.5-5.3c.2-.1.5-.2.8-.2h1.5c.3 0 .5.1.6.2.1.1.2.4.2.8v2.5c0 .4.1.6.2.7s.4.2.8.2h3.4c.5 0 .8.1.9.3.1.2.2.5.2 1.1v1.1c0 .6-.1 1-.3 1.2-.2.2-.5.3-.9.3h-3.4c-.3 0-.6.1-.7.2-.1.2-.2.4-.2.8z"/>
  <path fill="#FFF" d="M428 17.5c.7 0 1.1.1 1.2.3s.3.8.4 1.8c.1.5.3.8.6.8.2 0 .5-.2.7-.5 1-1.5 2.3-2.3 3.9-2.3 1.1 0 2 .4 2.8 1.1.3.4.6.8.9 1.4.2.6.3 1.1.3 1.6 0 .6-.1 1.2-.4 1.8-.3.6-.6 1.1-1.1 1.5-.8.8-1.8 1.1-2.9 1.1-.6 0-1.2-.1-1.6-.3s-1-.7-1.7-1.4c-.3-.3-.5-.4-.7-.4-.3 0-.6.2-.7.6s-.2 1.2-.2 2.5c0 1.9.1 3.1.2 3.8.1.4.2.6.4.8.2.1.5.3 1 .4 1.1.3 1.7.9 1.7 1.7 0 .5-.2.9-.5 1.3-.4.4-.8.6-1.4.8-1.2.2-2.9.4-5.2.4-2.2 0-3.9-.2-5-.6-1-.3-1.5-.9-1.5-1.8 0-.6.4-1.2 1.1-1.7.4-.2.6-.4.7-.6.1-.2.2-.5.3-.8.2-1.1.3-3.2.3-6.3 0-.6-.1-1-.2-1.2-.1-.2-.4-.4-.7-.6-.9-.3-1.3-.8-1.3-1.5 0-.6.3-1.1.9-1.5.6-.4 1.6-.9 3-1.3 1.7-.6 3.3-.9 4.7-.9z"/>
  <path fill="#FFF" d="M450.6 17.4c2.3 0 4.2.6 6 1.8 1.2.8 2.2 1.9 3 3.3.8 1.4 1.2 2.9 1.2 4.4 0 2.7-1.2 5-3.7 6.8-2.4 1.8-5 2.7-8.1 2.7-3 0-5.4-.8-7.2-2.5-1.8-1.6-2.7-3.8-2.7-6.4 0-2.9 1.1-5.3 3.3-7.2 2.2-1.9 5-2.9 8.2-2.9zm-1.4 4.3c-.5 0-1 .2-1.3.6-.3.4-.5.9-.5 1.6 0 .7.1 1.8.4 3s.6 2.4 1 3.4 1 1.5 1.9 1.5c1.1 0 1.7-.7 1.7-2.1 0-1-.1-2.2-.4-3.5-.3-1.3-.6-2.4-1-3.2-.5-.9-1.1-1.3-1.8-1.3z"/>
  <path fill="#FFF" d="M483.7 12v17c0 1 0 1.6.1 1.9.1.3.3.5.7.8.4.3.7.6.9.8.2.2.2.5.2.9 0 1-1 1.7-3 2.3-1.8.5-3.6.7-5.4.7-.4 0-.7-.1-.8-.2-.1-.1-.2-.4-.2-.8-.1-.6-.3-.9-.7-.9-.2 0-.5.2-1 .6-1.3 1-2.7 1.5-4.2 1.5-1.9 0-3.6-.7-5.2-2.1-.9-.9-1.6-1.8-2.2-3-.7-1.4-1.1-2.9-1.1-4.4 0-1.7.5-3.4 1.4-5 .9-1.5 2.1-2.6 3.6-3.5 1.3-.7 2.6-1 3.8-1 1.4 0 2.7.3 3.9 1 .2.1.3.1.4.1.4 0 .6-.5.6-1.6 0-.5-.1-.8-.3-1-.2-.2-.6-.4-1.2-.6-.8-.2-1.2-.7-1.2-1.3 0-.9.9-1.6 2.7-2.1 3.2-.9 5.3-1.3 6.4-1.3 1.3-.3 1.8.2 1.8 1.2zm-10.1 9.4c-.8 0-1.4.4-1.9 1.3-.6 1.1-.9 2.6-.9 4.5 0 1.7.3 3 .9 3.8.4.6 1 .9 1.8.9s1.4-.5 1.8-1.4c.4-.9.5-2.4.5-4.5 0-1.9-.2-3.2-.6-3.8-.4-.5-.9-.8-1.6-.8z"/>
  <path fill="#FFF" d="M496.9 18.5v10.1c0 2.2.7 3.2 2.1 3.2.4 0 .7-.1 1.1-.3.3-.2.6-.5.7-.8.3-.6.4-1.9.4-4 0-2-.1-3.4-.2-4.2 0-.3-.1-.5-.3-.7-.1-.1-.4-.3-.7-.5-.7-.4-1.1-.8-1.1-1.4 0-.8.6-1.3 1.8-1.6 2.3-.6 4.6-.9 6.8-.9 1.2 0 1.9.7 1.9 2v.8c0 .6 0 1.3-.1 2.2v8.2c0 .4.4.8 1.1 1.2.6.3.9.7.9 1.3 0 1.1-1.3 2-4 2.6-1.5.4-3 .5-4.5.5-.6 0-1-.1-1.2-.2-.2-.1-.3-.4-.4-.8-.1-.8-.3-1.2-.7-1.2-.1 0-.3 0-.4.1-.1.1-.5.3-1.1.8-1.2.9-2.6 1.3-4 1.3-2.4 0-4.1-.7-5-2.1-.8-1.2-1.2-3.1-1.2-5.8v-3.5c0-1.1-.1-1.8-.3-2.3-.2-.5-.5-.9-1-1.2-.5-.2-.8-.4-.9-.6-.1-.1-.2-.4-.2-.6 0-.9.7-1.6 2.1-1.9 2.4-.5 4.8-.8 7.3-.8.7.1 1.1.4 1.1 1.1z"/>
  <path fill="#FFF" d="M523.1 17.4c2.2 0 4.1.6 5.8 1.7 1.6 1.1 2.4 2.4 2.4 3.9 0 1.1-.4 1.9-1.1 2.6-.7.6-1.5.9-2.5.9s-1.8-.4-2.3-1.1c-.2-.2-.4-.8-.7-1.8-.3-1-1-1.6-1.9-1.6-.7 0-1.3.3-1.7.9-.5.6-.7 1.3-.7 2.2 0 1.5.5 2.8 1.6 4 .9.9 2 1.4 3.3 1.4.6 0 1.1-.1 1.6-.2.4-.1 1-.3 1.7-.6.2-.1.4-.1.6-.1.4 0 .8.2 1.1.6.3.4.5.9.5 1.4 0 .6-.2 1.1-.7 1.8-.5.6-1.1 1.1-1.8 1.6-1.6 1-3.5 1.5-5.7 1.5-2.5 0-4.7-.7-6.5-2.2-2.3-1.9-3.5-4.3-3.5-7.2 0-2.8 1.1-5.1 3.2-6.9 1.9-1.9 4.4-2.8 7.3-2.8z"/>
  <path fill="#FFF" d="M543.5 22.3v6.3c0 .7.2 1.3.5 1.8.4.5.8.7 1.4.7.5 0 1.1-.2 1.9-.7.2-.1.4-.2.6-.2.3 0 .6.2.8.5.2.4.4.7.4 1.2 0 .8-.4 1.5-1.3 2.2-1.8 1.5-3.9 2.2-6.4 2.2-2 0-3.6-.6-4.8-1.7-1.2-1.1-1.8-2.6-1.8-4.4v-8.6c0-.3 0-.5-.1-.5-.1-.1-.2-.1-.5-.1h-1.9c-.4 0-.6-.1-.7-.2-.1-.1-.1-.4-.1-.8v-.8c0-.4.2-.6.4-.8l8.5-5.3c.2-.1.5-.2.8-.2h1.5c.3 0 .5.1.6.2.1.1.2.4.2.8v2.5c0 .4.1.6.2.7.1.1.4.2.8.2h3.4c.5 0 .8.1.9.3.1.2.2.5.2 1.1v1.1c0 .6-.1 1-.3 1.2-.2.2-.5.3-.9.3h-3.4c-.3 0-.6.1-.7.2-.1.2-.2.4-.2.8z"/>
  <path fill="#FFF" d="M560.4 18.7v10.8c0 .9.1 1.5.2 1.9.2.4.5.8.9 1.1.4.3.6.5.8.7.1.2.2.4.2.7 0 1.6-2 2.4-6.1 2.4-2.2 0-3.9-.2-5.2-.5-.4-.1-.8-.3-1-.6-.3-.3-.4-.7-.4-1.1 0-.3.1-.6.2-.8.1-.2.5-.5 1-.9.4-.3.7-.7.8-1.4.2-.6.2-1.6.2-2.9 0-.4 0-1.2-.1-2.3-.1-1.1-.1-1.8-.1-2-.1-.5-.4-.9-1-1.2-.8-.3-1.2-.8-1.2-1.5 0-.8.5-1.4 1.5-1.7 1.4-.5 2.9-1 4.5-1.4 1.6-.4 2.8-.6 3.7-.6.8.1 1.1.5 1.1 1.3zm-3.7-8.1c1.1 0 1.9.2 2.6.6.6.4.9.9.9 1.6 0 1-.5 1.7-1.4 2.3-1.5.9-3.3 1.3-5.5 1.3-.9 0-1.6-.2-2.2-.5-.7-.4-1.1-1.1-1.1-1.9 0-1.1.8-1.9 2.3-2.5 1.6-.6 3.1-.9 4.4-.9z"/>
  <path fill="#FFF" d="M575.1 17.4c2.3 0 4.2.6 6 1.8 1.2.8 2.2 1.9 3 3.3.8 1.4 1.2 2.9 1.2 4.4 0 2.7-1.2 5-3.7 6.8-2.4 1.8-5 2.7-8.1 2.7-3 0-5.4-.8-7.2-2.5-1.8-1.6-2.7-3.8-2.7-6.4 0-2.9 1.1-5.3 3.3-7.2 2.2-1.9 5-2.9 8.2-2.9zm-1.5 4.3c-.5 0-1 .2-1.3.6-.3.4-.5.9-.5 1.6 0 .7.1 1.8.4 3 .3 1.3.6 2.4 1 3.4s1 1.5 1.9 1.5c1.1 0 1.7-.7 1.7-2.1 0-1-.1-2.2-.4-3.5-.3-1.3-.6-2.4-1-3.2-.5-.9-1-1.3-1.8-1.3z"/>
  <path fill="#FFF" d="M609 24.3l.3 6.5c0 .5.1.9.2 1.1.1.2.5.7 1.1 1.4.2.2.3.5.3.8 0 .8-.5 1.4-1.5 1.7-1 .3-2.7.5-5.2.5-1.7 0-2.9-.1-3.6-.4-.7-.3-1.1-.8-1.1-1.5 0-.2 0-.4.1-.5.1-.1.3-.4.7-.9.5-.5.7-2.3.7-5.2 0-1.7-.2-3-.6-3.8-.3-.7-.9-1-1.8-1-.8 0-1.4.3-1.7.8-.3.5-.5 1.5-.5 2.9v3.7c0 .7 0 1.2.1 1.5.1.3.4.8.9 1.6.1.2.2.5.2.8 0 .7-.5 1.3-1.5 1.6-1 .3-2.6.5-4.8.5-3.4 0-5.2-.7-5.2-2.1 0-.3.1-.5.2-.7.1-.2.4-.4.8-.7.3-.2.5-.5.6-.8.1-.3.2-1 .2-2.2.1-1.4.1-2.9.1-4.4 0-.9-.1-1.4-.2-1.7-.1-.3-.5-.6-1.1-1-.5-.3-.8-.7-.8-1.2s.2-.9.6-1.2c.4-.3 1.3-.7 2.7-1.2 1.2-.4 2.3-.8 3.4-1.1 1.1-.3 1.9-.4 2.3-.4.4 0 .7.1.9.4.3.3.4.6.4 1v.8c0 .6.2.9.7.9.3 0 .6-.2.9-.7 1.1-1.5 2.6-2.3 4.6-2.3 1.6 0 2.9.4 4 1.2.8.6 1.3 1.3 1.6 2.1.8.5.9 1.6 1 3.2z"/>
  <path fill="none" d="M338 99.8h9-9"/>
  <path fill="#FDB943" d="M1.2 295.8h811v135.8H1.2z"/>
  <path fill="#8E1923" stroke="#F9B943" stroke-width="2" stroke-miterlimit="10" d="M1.2 433.6h810.1v135.8H1.2z" stroke-linecap="round" stroke-linejoin="round"/>
  <path fill="#8E1923" stroke="#F9B943" stroke-width="2" stroke-miterlimit="10" d="M1.2 562.1h810.1v135.8H1.2z" stroke-linecap="round" stroke-linejoin="round"/>
  <path fill="#8E1923" stroke="#F9B943" stroke-width="2" stroke-miterlimit="10" d="M1.2 697.9h810.1v135.8H1.2z" stroke-linecap="round" stroke-linejoin="round"/>
  <path fill="#8E1923" stroke="#F9B943" stroke-width="2" stroke-miterlimit="10" d="M1 833.2h810.1V969H1z" stroke-linecap="round" stroke-linejoin="round"/>
  <path fill="#8E1923" stroke="#F9B943" stroke-width="2" stroke-miterlimit="10" d="M1.2 970h810.1v135.8H1.2z" stroke-linecap="round" stroke-linejoin="round"/>
  <g fill="#8E1923" stroke="#F9B943" stroke-width="2" stroke-miterlimit="10" stroke-linecap="round" stroke-linejoin="round">
    <path d="M33.5 330.1h14.3c2 0 4 .2 5.9.6 1.9.4 3.6 1.1 5 2 1.4.9 2.6 2.2 3.5 3.8.9 1.6 1.3 3.6 1.3 5.9 0 2.7-.5 4.8-1.4 6.5-.9 1.6-2.2 2.9-3.7 3.8s-3.4 1.5-5.4 1.8c-2.1.3-4.2.5-6.4.5H41v17.6h-7.6v-42.5zm12.1 18.5c1.1 0 2.2 0 3.4-.1 1.2-.1 2.2-.3 3.2-.7 1-.4 1.8-1 2.4-1.8.6-.8.9-1.9.9-3.4 0-1.3-.3-2.4-.8-3.1-.6-.8-1.3-1.4-2.2-1.8-.9-.4-1.9-.7-2.9-.8-1.1-.1-2.1-.2-3.1-.2H41v11.9h4.6z"/>
    <path d="M75.2 360.7c.2 2.2 1.1 3.8 2.5 5 1.4 1.2 3.2 1.8 5.2 1.8 1.8 0 3.3-.4 4.5-1.1 1.2-.7 2.3-1.7 3.2-2.8l5.2 3.9c-1.7 2.1-3.6 3.6-5.6 4.4-2.1.9-4.3 1.3-6.5 1.3s-4.2-.4-6.1-1.1c-1.9-.7-3.6-1.7-5-3.1-1.4-1.3-2.5-2.9-3.3-4.8-.8-1.9-1.2-3.9-1.2-6.2 0-2.3.4-4.4 1.2-6.2.8-1.9 1.9-3.5 3.3-4.8 1.4-1.3 3.1-2.3 5-3.1 1.9-.7 4-1.1 6.1-1.1 2 0 3.8.4 5.5 1 1.7.7 3.1 1.7 4.3 3 1.2 1.3 2.1 3 2.8 4.9.7 1.9 1 4.2 1 6.7v2H75.2zm14.8-5.4c0-2.1-.7-3.8-2-5-1.3-1.2-3.1-1.8-5.3-1.8-2.2 0-3.9.6-5.1 1.9-1.3 1.2-2 2.9-2.3 5H90z"/>
    <path d="M100.6 349.9v-6.1h5.9v-8.3h7.2v8.3h7.9v6.1h-7.9v12.6c0 1.4.3 2.6.8 3.4.5.8 1.6 1.3 3.2 1.3.6 0 1.3-.1 2.1-.2s1.4-.4 1.8-.7v6.1c-.8.4-1.7.6-2.8.8-1.1.1-2.1.2-2.9.2-1.9 0-3.5-.2-4.7-.6-1.2-.4-2.2-1.1-2.9-1.9-.7-.9-1.2-1.9-1.4-3.2-.3-1.3-.4-2.8-.4-4.4v-13.2h-5.9z"/>
    <path d="M142.6 351.8c-1.4-2-3.3-2.9-5.6-2.9-1 0-1.9.2-2.8.7-.9.5-1.4 1.3-1.4 2.3 0 .9.4 1.5 1.1 1.9.8.4 1.7.7 2.9 1 1.2.3 2.4.6 3.8.9 1.3.3 2.6.8 3.8 1.4 1.2.6 2.1 1.5 2.9 2.5.8 1.1 1.1 2.6 1.1 4.4 0 1.7-.4 3.2-1.1 4.4-.7 1.2-1.7 2.1-2.9 2.9-1.2.7-2.5 1.2-4 1.6-1.5.3-3 .5-4.4.5-2.2 0-4.3-.3-6.2-1-1.9-.6-3.6-1.8-5-3.5l4.8-4.5c.9 1 1.9 1.9 3 2.6 1.1.7 2.3 1 3.9 1 .5 0 1.1-.1 1.6-.2.6-.1 1.1-.3 1.6-.6s.9-.6 1.2-1c.3-.4.4-.9.4-1.5 0-1-.4-1.7-1.1-2.2-.8-.5-1.7-.9-2.9-1.2-1.2-.3-2.4-.6-3.8-.8-1.3-.3-2.6-.7-3.8-1.3-1.2-.6-2.1-1.4-2.9-2.4-.8-1-1.1-2.5-1.1-4.3 0-1.6.3-3 1-4.2.7-1.2 1.5-2.1 2.6-2.9 1.1-.8 2.3-1.3 3.7-1.7 1.4-.4 2.8-.5 4.3-.5 1.9 0 3.8.3 5.7 1 1.9.7 3.4 1.8 4.6 3.4l-5 4.2z"/>
    <path d="M170.2 358.2c0-2.3.4-4.4 1.2-6.2.8-1.9 1.9-3.5 3.3-4.8 1.4-1.3 3.1-2.3 5-3.1 1.9-.7 4-1.1 6.1-1.1 2.2 0 4.2.4 6.1 1.1 1.9.7 3.6 1.7 5 3.1 1.4 1.3 2.5 2.9 3.3 4.8.8 1.9 1.2 3.9 1.2 6.2 0 2.3-.4 4.4-1.2 6.2-.8 1.9-1.9 3.4-3.3 4.8-1.4 1.3-3.1 2.3-5 3.1-1.9.7-4 1.1-6.1 1.1-2.2 0-4.2-.4-6.1-1.1-1.9-.7-3.6-1.7-5-3.1-1.4-1.3-2.5-2.9-3.3-4.8-.8-1.8-1.2-3.9-1.2-6.2zm7.2 0c0 1.1.2 2.2.6 3.2.4 1 .9 2 1.7 2.8.7.8 1.6 1.4 2.7 1.9 1 .5 2.2.7 3.5.7 1.3 0 2.5-.2 3.5-.7 1-.5 1.9-1.1 2.7-1.9.7-.8 1.3-1.7 1.7-2.8.4-1 .6-2.1.6-3.2s-.2-2.2-.6-3.2c-.4-1-.9-2-1.7-2.8-.7-.8-1.6-1.4-2.7-1.9-1-.5-2.2-.7-3.5-.7-1.3 0-2.5.2-3.5.7-1 .5-1.9 1.1-2.7 1.9-.7.8-1.3 1.7-1.7 2.8-.4 1-.6 2.1-.6 3.2z"/>
    <path d="M204.4 343.8h7.8l6.2 20.2h.1l5.8-20.2h7.8l6.2 20.2h.1l6-20.2h7.3l-9.8 28.8h-7.1l-6.8-19.7h-.1l-6.1 19.7h-7.4l-10-28.8z"/>
    <path d="M256 343.8h6.8v4.6h.1c.7-1.4 1.7-2.7 3.1-3.8 1.4-1.1 3.3-1.6 5.7-1.6 1.9 0 3.5.3 4.9 1 1.3.6 2.4 1.5 3.3 2.5.8 1 1.4 2.2 1.8 3.6.4 1.4.5 2.8.5 4.3v18.2H275V358c0-.8 0-1.7-.1-2.7-.1-1-.3-1.9-.6-2.8-.3-.9-.9-1.6-1.6-2.2-.7-.6-1.7-.9-2.9-.9s-2.2.2-3 .6c-.8.4-1.5.9-2 1.6-.5.7-.9 1.5-1.2 2.3-.2.9-.4 1.8-.4 2.8v15.7H256v-28.6z"/>
    <path d="M296.2 360.7c.2 2.2 1.1 3.8 2.5 5 1.4 1.2 3.2 1.8 5.2 1.8 1.8 0 3.3-.4 4.5-1.1 1.2-.7 2.3-1.7 3.2-2.8l5.2 3.9c-1.7 2.1-3.6 3.6-5.6 4.4-2.1.9-4.3 1.3-6.5 1.3s-4.2-.4-6.1-1.1c-1.9-.7-3.6-1.7-5-3.1-1.4-1.3-2.5-2.9-3.3-4.8-.8-1.9-1.2-3.9-1.2-6.2 0-2.3.4-4.4 1.2-6.2.8-1.9 1.9-3.5 3.3-4.8 1.4-1.3 3.1-2.3 5-3.1 1.9-.7 4-1.1 6.1-1.1 2 0 3.8.4 5.5 1 1.7.7 3.1 1.7 4.3 3s2.1 3 2.8 4.9c.7 1.9 1 4.2 1 6.7v2h-22.1zm14.8-5.4c0-2.1-.7-3.8-2-5-1.3-1.2-3.1-1.8-5.3-1.8-2.2 0-3.9.6-5.1 1.9-1.3 1.2-2 2.9-2.3 5H311z"/>
    <path d="M347.7 368.3h-.1c-1 1.8-2.4 3-4.2 3.8s-3.7 1.2-5.7 1.2c-2.2 0-4.2-.4-6-1.2-1.7-.8-3.2-1.8-4.5-3.2-1.2-1.4-2.2-3-2.8-4.8-.6-1.8-1-3.8-1-5.9 0-2.1.3-4.1 1-5.9.7-1.8 1.6-3.4 2.8-4.8 1.2-1.4 2.7-2.4 4.4-3.2 1.7-.8 3.6-1.2 5.6-1.2 1.4 0 2.6.1 3.6.4 1 .3 2 .6 2.8 1.1.8.4 1.5.9 2 1.4.6.5 1 1 1.4 1.5h.2v-20.2h7.2v45.4h-6.8v-4.4zm-17-10.1c0 1.1.2 2.2.6 3.2.4 1 .9 2 1.7 2.8.7.8 1.6 1.4 2.7 1.9s2.2.7 3.5.7c1.3 0 2.5-.2 3.5-.7s1.9-1.1 2.7-1.9c.7-.8 1.3-1.7 1.7-2.8.4-1 .6-2.1.6-3.2s-.2-2.2-.6-3.2c-.4-1-.9-2-1.7-2.8-.7-.8-1.6-1.4-2.7-1.9s-2.2-.7-3.5-.7c-1.3 0-2.5.2-3.5.7s-1.9 1.1-2.7 1.9c-.7.8-1.3 1.7-1.7 2.8-.4 1-.6 2.1-.6 3.2z"/>
    <path d="M379.6 334c0-1.2.4-2.2 1.3-3 .9-.9 2-1.3 3.3-1.3 1.3 0 2.4.4 3.3 1.2.9.8 1.3 1.9 1.3 3.1 0 1.2-.5 2.3-1.3 3.1-.9.8-2 1.2-3.3 1.2-1.3 0-2.4-.4-3.3-1.3-.9-.8-1.3-1.8-1.3-3zm1 9.8h7.2v28.8h-7.2v-28.8z"/>
    <path d="M396.1 343.8h6.8v4.6h.1c.7-1.4 1.7-2.7 3.1-3.8 1.4-1.1 3.3-1.6 5.7-1.6 1.9 0 3.5.3 4.9 1 1.3.6 2.4 1.5 3.3 2.5.8 1 1.4 2.2 1.8 3.6.4 1.4.5 2.8.5 4.3v18.2h-7.2V358c0-.8 0-1.7-.1-2.7-.1-1-.3-1.9-.6-2.8-.3-.9-.9-1.6-1.6-2.2-.7-.6-1.7-.9-2.9-.9s-2.2.2-3 .6c-.8.4-1.5.9-2 1.6-.5.7-.9 1.5-1.2 2.3-.2.9-.4 1.8-.4 2.8v15.7h-7.2v-28.6z"/>
    <path d="M482.9 357c0 2.6-.4 4.9-1.3 6.9-.9 2.1-2.1 3.8-3.6 5.2-1.5 1.4-3.3 2.5-5.4 3.3-2.1.8-4.3 1.2-6.8 1.2-2.4 0-4.7-.4-6.8-1.2-2.1-.8-3.9-1.9-5.4-3.3-1.5-1.4-2.7-3.2-3.6-5.2-.9-2.1-1.3-4.4-1.3-6.9v-26.9h7.6v26.6c0 1 .2 2.1.5 3.3.3 1.1.8 2.2 1.6 3.1.7 1 1.7 1.8 2.9 2.4 1.2.6 2.7.9 4.5.9s3.3-.3 4.5-.9c1.2-.6 2.2-1.4 2.9-2.4s1.3-2 1.6-3.1c.3-1.1.5-2.2.5-3.3v-26.6h7.6V357z"/>
    <path d="M513.1 339.3c-.8-1.2-1.9-2-3.2-2.6s-2.8-.8-4.2-.8c-.9 0-1.7.1-2.5.3-.8.2-1.6.5-2.2 1-.7.4-1.2 1-1.6 1.7-.4.7-.6 1.5-.6 2.5 0 1.4.5 2.5 1.5 3.3 1 .8 2.2 1.4 3.7 2 1.5.6 3.1 1.1 4.9 1.6 1.8.5 3.4 1.2 4.9 2.2 1.5.9 2.7 2.1 3.7 3.7 1 1.5 1.5 3.5 1.5 6.1 0 2.3-.4 4.3-1.3 6-.8 1.7-2 3.1-3.4 4.2s-3.1 2-5 2.5c-1.9.6-3.9.8-5.9.8-2.6 0-5.2-.4-7.6-1.3-2.4-.9-4.5-2.4-6.3-4.4l5.7-5.5c.9 1.4 2.1 2.5 3.6 3.3 1.5.8 3.1 1.2 4.8 1.2.9 0 1.8-.1 2.6-.4.9-.2 1.7-.6 2.4-1.1s1.3-1.1 1.7-1.8c.4-.7.7-1.6.7-2.6 0-1.6-.5-2.8-1.5-3.6-1-.8-2.2-1.5-3.7-2.1-1.5-.6-3.1-1.1-4.9-1.6-1.8-.5-3.4-1.2-4.9-2.1-1.5-.9-2.7-2.1-3.7-3.6s-1.5-3.5-1.5-6c0-2.2.5-4.1 1.3-5.7.9-1.6 2.1-2.9 3.5-4 1.5-1.1 3.1-1.8 5-2.4 1.9-.5 3.8-.8 5.8-.8 2.2 0 4.4.3 6.5 1 2.1.7 4 1.8 5.7 3.4l-5.5 5.6z"/>
    <path d="M556.4 331.8l-.1.2c-2.4 3.4-4.3 7.1-5.6 11.1-1.4 4-2 8.1-2 12.2 0 4.2.7 8.2 2 12.3 1.4 4 3.2 7.7 5.6 11.1l-5 3.3c-2.8-3.8-4.9-8-6.4-12.5s-2.3-9.2-2.3-14.2c0-4.9.8-9.6 2.3-14.1 1.5-4.5 3.7-8.7 6.4-12.5l5.1 3.1z"/>
    <path d="M561.2 343.8h6.8v4.5h.1c.6-1.4 1.7-2.6 3.1-3.6 1.4-1.1 3.3-1.6 5.7-1.6 4.5 0 7.5 1.8 9 5.3 1-1.8 2.3-3.2 3.9-4 1.6-.9 3.4-1.3 5.6-1.3 1.9 0 3.5.3 4.9 1 1.3.6 2.4 1.5 3.2 2.6.8 1.1 1.4 2.4 1.8 3.9s.5 3.1.5 4.8v17.2h-7.2v-16.3c0-.9-.1-1.7-.2-2.6-.2-.8-.4-1.5-.8-2.2-.4-.6-.9-1.1-1.6-1.5s-1.6-.5-2.6-.5c-1.1 0-2.1.2-2.8.6-.8.4-1.4 1-1.9 1.7s-.9 1.5-1.1 2.4c-.2.9-.3 1.8-.3 2.7v15.6H580v-17.2c0-1.8-.4-3.2-1.1-4.3-.8-1.1-2-1.6-3.8-1.6-1.2 0-2.2.2-3 .6-.8.4-1.5.9-2 1.6-.5.7-.9 1.5-1.2 2.3-.2.9-.4 1.8-.4 2.8v15.7h-7.2v-28.6z"/>
    <path d="M612.8 334c0-1.2.4-2.2 1.3-3 .9-.9 2-1.3 3.3-1.3 1.3 0 2.4.4 3.3 1.2.9.8 1.3 1.9 1.3 3.1 0 1.2-.5 2.3-1.3 3.1-.9.8-2 1.2-3.3 1.2-1.3 0-2.4-.4-3.3-1.3-.8-.8-1.3-1.8-1.3-3zm1.1 9.8h7.2v28.8h-7.2v-28.8z"/>
    <path d="M629.5 327.3h7.2v45.4h-7.2v-45.4z"/>
    <path d="M645.1 327.3h7.2v45.4h-7.2v-45.4z"/>
    <path d="M659.8 334c0-1.2.4-2.2 1.3-3 .9-.9 2-1.3 3.3-1.3 1.3 0 2.4.4 3.3 1.2.9.8 1.3 1.9 1.3 3.1 0 1.2-.5 2.3-1.3 3.1-.9.8-2 1.2-3.3 1.2-1.3 0-2.4-.4-3.3-1.3-.9-.8-1.3-1.8-1.3-3zm1 9.8h7.2v28.8h-7.2v-28.8z"/>
    <path d="M674.8 358.2c0-2.3.4-4.4 1.2-6.2.8-1.9 1.9-3.5 3.3-4.8 1.4-1.3 3.1-2.3 5-3.1 1.9-.7 4-1.1 6.1-1.1s4.2.4 6.1 1.1c1.9.7 3.6 1.7 5 3.1 1.4 1.3 2.5 2.9 3.3 4.8.8 1.9 1.2 3.9 1.2 6.2 0 2.3-.4 4.4-1.2 6.2-.8 1.9-1.9 3.4-3.3 4.8-1.4 1.3-3.1 2.3-5 3.1-1.9.7-4 1.1-6.1 1.1s-4.2-.4-6.1-1.1c-1.9-.7-3.6-1.7-5-3.1-1.4-1.3-2.5-2.9-3.3-4.8-.8-1.8-1.2-3.9-1.2-6.2zm7.2 0c0 1.1.2 2.2.6 3.2.4 1 .9 2 1.7 2.8.7.8 1.6 1.4 2.7 1.9s2.2.7 3.5.7c1.3 0 2.5-.2 3.5-.7s1.9-1.1 2.7-1.9c.7-.8 1.3-1.7 1.7-2.8.4-1 .6-2.1.6-3.2s-.2-2.2-.6-3.2c-.4-1-.9-2-1.7-2.8-.7-.8-1.6-1.4-2.7-1.9s-2.2-.7-3.5-.7c-1.3 0-2.5.2-3.5.7s-1.9 1.1-2.7 1.9c-.7.8-1.3 1.7-1.7 2.8-.4 1-.6 2.1-.6 3.2z"/>
    <path d="M712.9 343.8h6.8v4.6h.1c.7-1.4 1.7-2.7 3.1-3.8 1.4-1.1 3.3-1.6 5.7-1.6 1.9 0 3.5.3 4.9 1 1.3.6 2.4 1.5 3.3 2.5.8 1 1.4 2.2 1.8 3.6.4 1.4.5 2.8.5 4.3v18.2h-7.2V358c0-.8 0-1.7-.1-2.7-.1-1-.3-1.9-.6-2.8-.3-.9-.9-1.6-1.6-2.2-.7-.6-1.7-.9-2.9-.9s-2.2.2-3 .6c-.8.4-1.5.9-2 1.6-.5.7-.9 1.5-1.2 2.3-.2.9-.4 1.8-.4 2.8v15.7h-7.2v-28.6z"/>
    <path d="M762.7 351.8c-1.4-2-3.3-2.9-5.6-2.9-1 0-1.9.2-2.8.7-.9.5-1.4 1.3-1.4 2.3 0 .9.4 1.5 1.1 1.9.8.4 1.7.7 2.9 1 1.2.3 2.4.6 3.8.9 1.3.3 2.6.8 3.8 1.4 1.2.6 2.1 1.5 2.9 2.5.8 1.1 1.1 2.6 1.1 4.4 0 1.7-.4 3.2-1.1 4.4-.7 1.2-1.7 2.1-2.9 2.9-1.2.7-2.5 1.2-4 1.6-1.5.3-3 .5-4.4.5-2.2 0-4.3-.3-6.2-1-1.9-.6-3.6-1.8-5-3.5l4.8-4.5c.9 1 1.9 1.9 3 2.6s2.3 1 3.9 1c.5 0 1.1-.1 1.6-.2.6-.1 1.1-.3 1.6-.6s.9-.6 1.2-1c.3-.4.5-.9.5-1.5 0-1-.4-1.7-1.1-2.2s-1.7-.9-2.9-1.2c-1.2-.3-2.4-.6-3.8-.8-1.3-.3-2.6-.7-3.8-1.3-1.2-.6-2.1-1.4-2.9-2.4-.8-1-1.1-2.5-1.1-4.3 0-1.6.3-3 1-4.2.7-1.2 1.5-2.1 2.6-2.9 1.1-.8 2.3-1.3 3.7-1.7s2.8-.5 4.3-.5c1.9 0 3.8.3 5.7 1 1.9.7 3.4 1.8 4.6 3.4l-5.1 4.2z"/>
    <path d="M770.9 378.9l.1-.2c2.4-3.4 4.3-7 5.6-11.1 1.4-4 2-8.1 2-12.2 0-4.2-.7-8.2-2-12.2-1.4-4-3.2-7.7-5.6-11l5-3.4c2.8 3.8 4.9 8 6.5 12.5 1.5 4.5 2.3 9.2 2.3 14.2 0 4.9-.8 9.6-2.3 14.1-1.5 4.5-3.7 8.7-6.5 12.5l-5.1-3.2z"/>
  </g>
  <path fill="#FDB943" d="M780 514.8c-4.9 4.3-5.7 11.8-4.4 18.2 1.3 6.4 4.2 12.4 5.4 18.8 2.4 11.8-1.5 24.7-9.9 33.4S749.9 598 738 596c-.8-.1-1.6-.3-2.4-.7-4.6 21.1-13.2 35.2-22.9 35.2-14.8 0-26.8-32.5-26.8-72.6 0-40.1 12-72.6 26.8-72.6s26.7 32.5 26.7 72.6c0 11.3-1 21.9-2.6 31.5 1-.4 2.1-.6 3.1-.7 9.9-1.3 19.3-6.6 25.4-14.5 6.1-7.9 9.1-18.2 7.9-28.2-.9-7.4-3.9-14.4-4.4-21.8-.5-7.4 2.4-16 9.5-18.5 2.4-.8 5.7-.4 6.5 2 1 2.8-2.5 5-4.8 7.1z"/>
  <path fill="#FDB943" d="M754.8 452.2v.1l-18.3 32.1c-2.8 4.9-5.9 9.8-8.7 14.7-2.5 4.4-4 9.8-8.4 12.8-2 1.5-4.5 2.2-7 2.4-19.7 1.5-25.6-25-31.6-38.7-2-4.4-3.6-9-5.3-13.5-.5-1.4-1.1-2.7-1.6-4.1-1.2-2.9-2.4-5.8-3.9-8.6 1.1 0 2.3-.1 3.4-.1 3.1-7.7 13-32.1 13.9-32.4.9 0 5.6 24.1 7.1 32.1 9.1-.1 18.2-.1 27.3-.2h5c2.1-9.1 8-33.1 9-32.8 1.1.3 13 24 17.5 32.9.8 1.7 1.4 2.9 1.6 3.3z"/>
  <path fill="#F8993C" d="M754.8 452.3h-.1c0-.1.1-.1.1 0 0-.1 0 0 0 0z"/>
  <path fill="#8E1923" d="M716.8 483.2l-6.2 9-6.8-9.1c-.8-.4 13 .1 13 .1z"/>
  <path fill="none" stroke="#F9B943" stroke-miterlimit="10" d="M670.6 495.1c-.4.2-.8.3-1.2.5 6.4-6 16.8-7.3 24.4-2.9 2.8 1.6 5.4 3.9 8.6 4.5-1-1.6-1.7.2-3.5.1-1.9-.1-3.8.5-5.5 1.2-5.5 2.2-10.5 5.7-14.5 10.2" stroke-linecap="round" stroke-linejoin="round"/>
  <path fill="none" stroke="#F9B943" stroke-miterlimit="10" d="M750.6 492.5c.4-.1.7-.3 1.1-.4-9.6-2.1-20 .1-27.9 5.8 6.6 1.4 11.1 5.8 16.6 9.5" stroke-linecap="round" stroke-linejoin="round"/>
  <path fill="#FDB943" stroke="#8E1923" stroke-miterlimit="10" d="M674 626.7c-3.1-1.4-2.2-3.3-.5-8.4 1.3-4 3-8.1 5.1-11.7 1.8-3.1 4.6-8.1 8.8-7.9 8.9.4 14.1 21.8 14.1 28.5 0-2.7-22.9.9-25.3.2-.9-.3-1.6-.5-2.2-.7z"/>
  <path fill="#FDB943" stroke="#8E1923" stroke-miterlimit="10" d="M724.4 628.7c-5-1.7 2.7-17.4 4.6-20.6 4.1-7.2 10.6-12.2 15.8-2.4 3.5 6.6 7.5 15.3 7.3 22.8-8.9-1-17.7.1-26.6.4-.4 0-.8-.1-1.1-.2z"/>
  <ellipse cx="702.1" cy="470.5" fill="#8E1923" rx="2.8" ry="3.2"/>
  <ellipse cx="719.3" cy="470.5" fill="#8E1923" rx="2.8" ry="3.2"/>
  <path fill="#8E1923" stroke="#F9B943" stroke-width="4" stroke-miterlimit="10" d="M673.4 458h77.3l3.3-5.2-19-33.1-9 30.1-32.2.2-7-28.7-17.3 29z" stroke-linecap="round" stroke-linejoin="round"/>
  <path stroke="#F8993C" stroke-width=".75" stroke-miterlimit="10" d="M83.3 685.5c-6-3.6-11.1-8.9-15-15.4 8.5.8 14.1 13.3 15 15.4z"/>
  <path stroke="#F8993C" stroke-width=".75" stroke-miterlimit="10" d="M96 653.3c-.1 7.8-3.8 14-8.2 14-4.4-.1-7.9-6.4-7.8-14.2.1-7.8 3.8-14 8.2-14 4.4.1 7.9 6.4 7.8 14.2z"/>
  <path stroke="#F8993C" stroke-width=".75" stroke-miterlimit="10" d="M120 653.7c-.1 7.8-3.8 14-8.2 14-4.4 0-7.9-6.4-7.8-14.2.1-7.8 3.8-14 8.2-14 4.4 0 7.9 6.4 7.8 14.2z"/>
  <path stroke="#F8993C" stroke-width=".75" stroke-miterlimit="10" d="M133.3 670.9c-4 6.2-9.1 11.3-14.9 14.7l-1.7-.8c6.2-10.6 11.8-14 16.6-13.9z"/>
  <path fill="#FDB943" stroke="#8E1923" stroke-miterlimit="10" d="M155.6 607.4c-1.7-14.1-9.9-26.6-19-37.5-4.6-5.2-18.8-9.1-35.7-9.4-19-.3-34.7 4.2-37.2 10.3h-.2c-9.4 10.7-18 22.9-20 37-.8 5.6.1 12.5 5.2 14.9 3.8 1.8 8.6.2 11.6-2.8 2.9-2.8 4.6-6.7 6.1-10.5.1.6.3 1.1.5 1.7 4.2 13.7 16.9 23.7 32 23.9 16.7.2 30.7-11.6 33.8-27.4.1-.6.2-1.2.3-1.9 2.8 4.2 5.1 9 6.7 14.1 2.9 2.5 7.1 3.8 10.5 2.2 5-2.1 6.1-9 5.4-14.6zm-67.8-4.9c-2.2 0-3.9-3.1-3.8-6.9 0-1.4.3-2.6.7-3.7.7-1.9 1.9-3.1 3.3-3.1.6 0 1.2.3 1.7.7 1.3 1.1 2.1 3.4 2.1 6.1 0 3.9-1.8 7-4 6.9zm11.5 15.8l-8.8-9.9c-1.2-.4 16.8.2 16.8.2l-8 9.7zm8.4-15.5c-2.1 0-3.8-3.1-3.8-6.9 0-3.8 1.8-6.8 4-6.8s3.8 3.1 3.8 6.9c-.1 3.8-1.8 6.8-4 6.8z"/>
  <path fill="#8E1923" stroke="#F9B943" stroke-miterlimit="10" d="M53.5 595.5h92s-7.9-20.6-15.5-27.1-63.3-24.1-76.5 27.1z" stroke-linecap="round" stroke-linejoin="round"/>
  <path fill="#F9B943" stroke="#8E1923" stroke-width=".75" stroke-miterlimit="10" d="M139.5 619.9c-1.6-5.2-3.9-9.9-6.7-14.1l-.3 1.9c-3 15.8-17.1 27.6-33.8 27.4-15.1-.2-27.8-10.2-32-23.9-4.1 7.9-6.5 17.2-6.7 27.3-.2 11.9 2.9 22.9 8.2 31.7 8.6.8 14.2 13.3 15 15.4 5.2 3.1 11 4.9 17.2 5 6.4.1 12.4-1.6 17.9-4.8l-1.7-.8c6.2-10.6 11.9-14.1 16.6-13.9 5.5-8.6 8.9-19.5 9-31.4.2-7.1-.8-13.7-2.7-19.8zm-51.6 47.4c-4.4-.1-7.9-6.4-7.8-14.2.1-7.8 3.8-14 8.2-14 4.4.1 7.9 6.4 7.8 14.2-.2 7.8-3.8 14.1-8.2 14zm23.9.3c-4.4 0-7.9-6.4-7.8-14.2.1-7.8 3.8-14 8.2-14 4.4 0 7.9 6.4 7.8 14.2-.1 7.9-3.8 14.1-8.2 14z"/>
  <path fill="#F9B943" stroke="#8E1923" stroke-width=".75" stroke-miterlimit="10" d="M96 653.3c-.1 7.8-3.8 14-8.2 14-4.4-.1-7.9-6.4-7.8-14.2.1-7.8 3.8-14 8.2-14 4.4.1 7.9 6.4 7.8 14.2z"/>
  <path fill="#F9B943" stroke="#8E1923" stroke-width=".75" stroke-miterlimit="10" d="M120 653.7c-.1 7.8-3.8 14-8.2 14-4.4 0-7.9-6.4-7.8-14.2.1-7.8 3.8-14 8.2-14 4.4 0 7.9 6.4 7.8 14.2z"/>
  <path fill="#F9B943" stroke="#8E1923" stroke-width=".75" stroke-miterlimit="10" d="M53.9 685.3L51 684c6.5-11.1 12.3-14.4 17.2-13.9 8.6.8 14.2 13.3 15 15.4.1.2.1.3.1.3s-30.8-1.7-29.4-.5z"/>
  <path fill="#F9B943" stroke="#8E1923" stroke-width=".75" stroke-miterlimit="10" d="M119.5 686.2l-1.2-.5-1.7-.8c6.2-10.6 11.9-14.1 16.6-13.9 9.7.3 15.7 15.7 15.7 15.7s-30.8-1.8-29.4-.5z"/>
  <path fill="#F8993C" d="M142.3 652.1c-.4.1-.8.1-1.1.2 5.7-.7 11-4.7 13.1-10 .4 4.9-.6 9.9-2.8 14.3-.6 1.2-1.4 2.5-2.7 2.9-1.4.5-3-.3-4-1.5-.9-1.2-1.4-2.7-1.8-4.1"/>
  <path fill="#8E1923" stroke="#F9B943" stroke-miterlimit="10" d="M92.2 594.9c-.1 6-3.1 10.9-6.7 10.8-3.6-.1-6.4-5-6.4-11 .1-6 3.1-10.8 6.7-10.8 3.7 0 6.5 5 6.4 11z"/>
  <path fill="#8E1923" stroke="#F9B943" stroke-miterlimit="10" d="M116 595c-.1 5.9-3 10.6-6.5 10.6-3.5-.1-6.3-4.9-6.2-10.7.1-5.9 3-10.6 6.5-10.5 3.5 0 6.3 4.8 6.2 10.6z"/>
  <g fill="#8E1923" stroke="#F9B943" stroke-width="4" stroke-miterlimit="10" stroke-linecap="round" stroke-linejoin="round">
    <path d="M692.3 810.7c-12.1 2.8-24.3 5.6-36.6 5.6-12.4.1-25.2-2.7-35-10.2l1.7-.3c29.1-5.4 58.1-17.5 77.9-40.1 8.9-10.2 16.6-21.4 26.1-30.9 16.7-16.8 41.5-27.8 61.9-10.1 10.8 9.4 13.4 24.2 2.2 34.1 4.1 1.1 8.1 2.3 12.2 3.4l-9.9 6.6c4.3.4 8.5.8 12.8 1.3-4.8 4.9-12.5 6.8-19 4.6-9.1 17.2-24.4 31.1-42.5 38.3s-33.3 4-51.8-2.3z"/>
    <path d="M668.9 754.8c-10.7 2.4-22.7-1.3-30-9.5 5.3 12.7 18 22 31.8 23.1 13.7 1.1 27.8-6 35.1-17.7-12.7-11.1-25.5-22.4-35.3-36.2-9.8-13.7-16.5-30.3-15.7-47.2-5.7 13.2-6.7 28.4-3 42.3 3.7 13.9 12.2 26.5 23.7 35.2-16-7.8-28.8-22-34.7-38.8.3 10.2 1.2 20.7 5.4 30.1 4.2 9.3 12.6 17.3 22.7 18.7z"/>
  </g>
  <path fill="#F9B943" d="M638.9 802.6h123.4s-25.4 25.7-70 8.1c0 0-43.8 15.6-71.7-4.5 0 0 14.6-2.9 18.3-3.6z"/>
  <path fill="#8E1923" stroke="#F9B943" stroke-width="4" stroke-miterlimit="10" d="M760.6 1030.2h-23.3v-11.9c0-4.3.4-8.2 1.2-11.6.8-3.5 2-6.6 3.6-9.4 1.6-2.8 3.5-5.5 5.7-8.1 2.2-2.6 4.7-5.2 7.6-7.8l9.2-8.7c3.6-3.1 6.7-6.6 9-10.3 2.4-3.7 3.6-8.5 3.6-14.3 0-7.9-2.5-14.3-7.6-19-5-4.7-11.5-7.1-19.5-7.1-8.3 0-14.9 2.6-19.8 7.9-5 5.3-7.9 11.7-8.7 19.3l-23.8-2.7c1-7.1 3.1-13.5 6.2-19.2 3.1-5.7 7.1-10.5 11.8-14.5s10.1-7 16.2-9c6.1-2.1 12.6-3.1 19.6-3.1 6.9 0 13.4 1 19.5 3 6 2 11.4 4.9 16 8.8 4.6 3.9 8.3 8.7 10.9 14.4 2.6 5.7 4 12.3 4 19.7 0 5.3-.6 9.9-1.7 13.9-1.2 4-2.8 7.6-4.8 10.8-2.1 3.2-4.6 6.2-7.6 9s-6.2 5.7-9.7 8.7c-3.3 2.8-6.1 5.3-8.4 7.6-2.3 2.2-4.1 4.5-5.5 6.8-1.3 2.3-2.3 4.9-2.9 7.7-.6 2.8-.9 6.3-.9 10.4v8.7zm6.2 34.9c0 4.3-1.6 8.1-4.7 11.4-3.1 3.3-7.1 5-11.9 5-4.6 0-8.6-1.6-11.8-4.8-3.2-3.2-4.8-7-4.8-11.3 0-4.5 1.6-8.3 4.7-11.5 3.1-3.2 7.1-4.8 11.9-4.8 4.8 0 8.8 1.6 11.9 4.7 3.2 3.1 4.7 6.9 4.7 11.3z"/>
  <path fill="#8E1923" stroke="#F9B943" stroke-width="4" stroke-miterlimit="10" d="M776.7 1096.6h-47.9c-1.4 0-2.5-1.1-2.5-2.5v-49.8c0-1.4 1.1-2.5 2.5-2.5h47.9c1.4 0 2.5 1.1 2.5 2.5v49.8c0 1.4-1.1 2.5-2.5 2.5z"/>
  <path fill="#8E1923" stroke="#F9B943" stroke-width="4" stroke-miterlimit="10" d="M142.2 834.3c-1.5-5.9-4-10.3-2.8-16.8 1-5.1 3.6-10.6 1.3-15.3-1-2.1-2.9-3.6-4.7-5-7.6-6-15.1-12-22.7-18l-2.7 32.5c-.2 2.4-.4 5 .6 7.3 2.2 5.1 8.7 6.7 12 11 3.5 4.6 2.9 12.2-.6 16.6-3.7 4.6-11 6.2-16 3s-6.6-10.9-2.9-15.6c.6-.8 1.4-1.6 1.7-2.6s-.2-2.3-1.2-2.5c-1.3-.2-2 1.6-2.4 2.9s-2.3 2.5-2.9 1.3c.4-2.3.7-5-.6-6.9-1.4-1.9-5.1-2-5.6.3-.6 2.9 4.2 5.4 2.7 7.9-.9 1.5-3 1.2-4.7.9-1.7-.3-4 .1-4.2 1.8-.1 1.4 1.4 2.3 2.8 2.4s2.8-.3 4.1 0c1.8.4 3.1 2.2 3.8 3.9.6 1.8.8 3.7 1.4 5.5 1.1 3.8 4 6.8 7.6 8.4 1.8.8 3.8 1.2 5.7 1.3 1.2 0 4.5-1.1 5.3-.1.2.2.2.5.3.8 3.1 14.2 1.5 28.8-6.9 41-1.9 2.7-4.2 5.2-6.6 7.5.8-2.9 1.1-6.1.5-9.1-.6-3.1-2.8-6-5.8-6.6-4-.8-7.6 2.4-10.6 5.1s-7.4 5.3-10.9 3.2c-2.5-1.5-3.3-5-2.4-7.8.9-2.8 3.2-5 5.6-6.7 1.6-1.1 3.4-2.3 4-4.1.6-1.9-1.4-4.3-3.1-3.3-1.8 1-1.1 4.5-3.1 5.1-1.6.5-2.8-1.7-2.6-3.4.3-1.7 1.3-3.2 1.1-4.9-.2-2.1-2.5-3.7-4.5-3.2s-3.3 3-2.5 5c.5 1.2 1.5 2 2.3 3 .7 1 1.1 2.6.2 3.5-2.1 2.2-5.9-3.2-8.5-1.4-1.4 1-.8 3.2.4 4.3 1.3 1.1 3 1.6 4.2 2.8 3.9 3.6 1.2 10.7 4.5 14.8 2.1 2.6 5.9 3.1 9.1 2.1s5.8-3.2 8.3-5.3c-3.8 7.4-3.3 16.8 1.2 23.7-7.6 3.1-15 10.4-22 14.7-7 4.3-15.2 7.7-23.3 6.2-5.8-1-11.1-4.6-14.8-9.2-6.1-7.6-8.1-18.5-4.2-27.4-6.7 7.7-9 19-5.8 28.7s11.6 17.5 21.6 19.8c13.2 3.1 26.7-3.1 38.5-9.6s24.3-13.9 37.8-13.4c1.2 0 2.4.2 3.4.8 1.5 1 2 3.1 1.7 5s-1.4 3.4-2.3 5c-1.5 2.4-2.9 5-3.1 7.9-.2 2.8 1.1 6 3.7 7.1 2.2.9 4.6.2 7 .5 2.3.2 4.9 2.3 4 4.5-1 2.5-5.5 2.3-6 4.9-.3 1.9 2.3 3.3 4.1 2.6 1.8-.7 3-2.5 3.9-4.2.3 2.3.9 4.8 2.7 6.2 1.9 1.4 5.3.4 5.2-1.9 0-1.4-1.3-2.4-2.2-3.4-1-1-1.7-2.6-.9-3.7 2-2.7 6.8 3.4 9 .9 1.3-1.5-.7-3.8-2.7-4-2-.2-4.1.5-6-.4-2.5-1.2-3-4.6-5.1-6.5-2.1-1.9-5.5-1.7-7.6-3.5-2.4-2.1-2.2-6.1-.8-9s3.6-5.5 4.6-8.5c1.1-3.1.5-7.1-2.4-8.5 10.9-8.5 18-21.3 20.5-34.8 1.1-5.8 1.3-11.8.5-17.6-.3-2.4-.8-4.8-1.4-7.2-.5-2.1-2.2-4-1.9-6.3.2-1.1.9-2.1 1.9-2.7 3-1.8 6.5.5 8.9 2.3 4.2 3.1 8.8 6.5 14 6.4 3.8-.1 7.5-2.1 9.6-5.3 2.1-3.2 2.5-7.4 1.2-10.9-.6-1.7-1.6-3.5-1-5.1 1.3-3.4 7.6-2.5 8.5-6.1.5-2.1-2.2-4.2-4.1-3-1 .6-1.7 1.9-2.9 2.2-1.5.3-2.7-1.4-2.7-2.8-.1-1.5.5-2.9.7-4.4s-.5-3.3-1.9-3.6c-1.4-.3-2.7.9-3.1 2.3s0 2.8.3 4.2c.3 1.4.5 2.9-.1 4.2-1.1-3.1-4.3-5.4-7.6-5.4-.4 2.8 1.5 5.3 3.2 7.5 1.7 2.2 3.3 5 2.4 7.7-1.1 3-4.9 4-8.1 4.1-5.4.1-11-1.3-15.4-4.5-5.1-3.7-7.2-6.3-8.6-12.2-.1-.8-.1-.8-.1-.9z" stroke-linecap="round" stroke-linejoin="round"/>
  <path fill="#F9B943" d="M30.7 950.3h45.2c-.1 0-29.2 18.7-45.2 0z"/>
  <path fill="#F9B943" d="M149.6 964.2c-.6-1.6-2.6-1.4-2.6-1.4l-7.5-1.7-4.7-6-8.3-4.3h-8c-.2.7-.5 1.4-.8 2.1h1l1.1 3.1s.3 1.1.3 1.6c0 .4 1.7 1.9 1.7 1.9l3.2.3s4.6.4 6.7 1.4c2.2 1 2.3 2.9 2.3 2.9l-1.3 1.3-1.4 1.9s-4.2 2.2-3.2 4.2 4.6-.6 5.2-.7c.6-.1.4-.7.9-1.1.4-.4 1.7-3.7 1.7-3.7v1.1s.6 3.2.6 3.6c0 .4 1.6 3.2 1.6 3.2s3.6.9 4 .4c.4-.4.6-2.3.6-2.3l-1.4-2.7-1.5-2.5s-1.3-1.9.7-2.6c2-.7 6.3 3 7.2 3.3.8.2 2.5-1.7 1.9-3.3z"/>
  <path fill="#F9B943" d="M778 1095.2h-50.4c-.7 0-1.2-.5-1.2-1.2v-22.9c0-.7.5-1.2 1.2-1.2H778c.7 0 1.2.5 1.2 1.2v22.9c0 .7-.6 1.2-1.2 1.2z"/>
  <g fill="#FFF">
    <path d="M279.7 482.1c3.9 0 7.7.9 11.3 2.6 1.7.8 2.9 1.2 3.6 1.2.5 0 1.3-.1 2.3-.4.3-.1.7-.1 1.2-.1 1.4 0 2.6.6 3.6 1.9 2.6 3.1 3.8 6.9 3.8 11.5 0 3.2-1.1 5.6-3.3 7.1-1.2.8-2.5 1.2-4 1.2-1.4 0-2.5-.3-3.3-.9-.9-.6-1.7-1.6-2.5-3.1-1.1-2.1-2.1-3.6-2.8-4.5s-1.6-1.8-2.6-2.5c-2.6-1.8-5.3-2.7-8.1-2.7-2.7 0-4.9 1-6.5 3-1.6 2-2.4 4.7-2.4 8 0 4.6 1.2 8.8 3.5 12.6 3.1 5.1 7.7 7.6 13.5 7.6 2.2 0 4.3-.4 6.4-1.1s3.8-1.7 4.9-2.8c1-1 1.8-1.4 2.5-1.4.9 0 1.7.4 2.4 1.3s1 1.9 1 3.1c0 1.5-.5 3.3-1.4 5.2-.9 1.9-2.1 3.4-3.4 4.5-.6.5-1.7.9-3.5 1.2-1 .2-2.4.7-4 1.5-4 1.9-8.1 2.8-12.3 2.8-4.5 0-8.9-1-13.3-3-5.2-2.3-9.2-5.9-12.2-10.7-2.9-4.7-4.4-9.6-4.4-14.7 0-5.9 1.8-11.3 5.5-16.2 3.2-4.2 7.4-7.5 12.5-9.7 3.8-1.6 7.8-2.5 12-2.5z"/>
    <path d="M331 498c4.6 0 8.6 1.2 11.8 3.5 1.7 1.3 2.9 2.7 3.6 4.3s1 3.8 1 6.7l-.1 6c0 4.1.3 6.8.9 8 .3.6.6 1 .8 1.1.3.2.8.3 1.7.4.9.1 1.3.7 1.3 1.7 0 1.3-.5 2.6-1.5 4s-2.4 2.5-4 3.5c-2 1.2-4.1 1.8-6.3 1.8-2.8 0-5-1-6.6-2.9-.6-.7-1.1-1-1.6-1s-1.2.3-2.1 1c-2.7 1.9-5.7 2.9-9.1 2.9-3.5 0-6.3-.7-8.5-2.2-1.4-1-2.5-2.3-3.4-3.9-.8-1.6-1.2-3.2-1.2-5 0-2.8 1.1-5.2 3.4-7.4 3.5-3.4 8.7-5.1 15.7-5.1 1.5 0 2.5-.2 2.9-.5s.6-1 .6-2.1c0-2.8-.3-4.9-.9-6.1-.6-1.3-1.5-1.9-2.9-1.9-.8 0-1.5.2-2.1.7-.6.5-1.4 1.4-2.3 2.6-2.4 3.4-4.9 5.1-7.4 5.1-1.3 0-2.4-.4-3.2-1.2-.8-.8-1.2-1.8-1.2-3 0-1.3.5-2.6 1.5-3.8 1-1.3 2.4-2.4 4.2-3.4 4.7-2.5 9.7-3.8 15-3.8zm-2.7 23.2c-1.2 0-2.2.5-3.1 1.4-.9 1-1.3 2.1-1.3 3.4 0 1.3.3 2.3.9 3.1.6.8 1.4 1.2 2.4 1.2 2.1 0 3.2-1.8 3.2-5.4 0-1.5-.2-2.5-.5-3-.2-.5-.7-.7-1.6-.7z"/>
    <path d="M378.4 508.5V522c0 1.6.4 2.9 1.2 3.9.8 1 1.8 1.5 3 1.5 1 0 2.4-.5 4.1-1.4.4-.2.8-.4 1.2-.4.6 0 1.2.4 1.8 1.2.5.8.8 1.6.8 2.5 0 1.7-.9 3.2-2.7 4.8-3.8 3.2-8.4 4.8-13.8 4.8-4.3 0-7.7-1.2-10.3-3.6-2.6-2.4-3.9-5.6-3.9-9.5v-18.5c0-.6-.1-1-.2-1.1-.1-.1-.5-.2-1.1-.2h-4.1c-.8 0-1.3-.1-1.5-.4-.2-.3-.3-.8-.3-1.8V502c0-.8.3-1.4.9-1.8l18.3-11.5c.5-.2 1-.4 1.7-.4h3.2c.7 0 1.1.2 1.3.5.2.3.3.9.3 1.8v5.4c0 .8.1 1.3.4 1.6.3.2.8.4 1.6.4h7.4c1 0 1.6.2 1.9.5.3.4.4 1.1.4 2.3v2.4c0 1.3-.2 2.2-.6 2.7-.4.5-1.1.7-2 .7h-7.2c-.7 0-1.3.1-1.5.4-.2.2-.3.8-.3 1.5z"/>
    <path d="M404.1 496.9c2.6 0 4.8.9 6.6 2.7s2.7 4 2.7 6.6c0 2.8-.9 5.1-2.8 6.9-1.9 1.8-4.1 2.6-6.6 2.6s-4.7-.9-6.6-2.6c-1.9-1.8-2.8-4.1-2.8-6.9 0-2.5.8-4.5 2.4-6.2 1.9-2 4.2-3.1 7.1-3.1zm0 23.2c2.6 0 4.8.9 6.6 2.7s2.7 4 2.7 6.6c0 2.8-.9 5.1-2.8 6.9-1.9 1.8-4.1 2.6-6.6 2.6s-4.7-.9-6.6-2.6c-1.9-1.8-2.8-4.1-2.8-6.9 0-2.5.8-4.5 2.4-6.2 1.9-2.1 4.2-3.1 7.1-3.1z"/>
    <path d="M440.2 487.2c5.6 0 10.8.9 15.5 2.8 2.6 1 4.7 2.6 6.3 4.7 1.2 1.5 1.8 3.3 1.8 5.3 0 3.2-1.7 5.8-5.2 8-1 .7-1.6 1.2-1.6 1.6 0 .4.6 1 1.9 1.8 1.7 1.2 3.1 2.8 4.2 4.7s1.6 3.9 1.6 6c0 3.1-1.1 6.1-3.4 9-4 5.2-10.3 7.8-18.9 7.8-6 0-11.2-1.1-15.9-3.2-3.1-1.4-5.6-3.4-7.3-6-1.3-1.9-2-4.1-2-6.6 0-3.4 1.6-6.3 4.8-8.5 1.2-.9 1.8-1.5 1.8-1.9 0-.3-.5-1-1.5-2-2.5-2.4-3.8-5.3-3.8-8.7 0-4.7 2.3-8.4 7-11.3 3.9-2.3 8.9-3.5 14.7-3.5zm-7.7 31.2c-.6 0-1.1.3-1.5.9s-.5 1.3-.5 2.2c0 1 .3 2.2.8 3.4.5 1.2 1.2 2.2 2 3 1.9 1.9 4.3 2.9 7 2.9 1.6 0 2.9-.4 3.9-1.1s1.5-1.7 1.5-2.8c0-1.3-.5-2.4-1.4-3.2-.9-.8-2.9-1.9-5.8-3.3-2.9-1.3-4.9-2-6-2zm9.5-23.8c-1.2 0-2.2.3-2.9.9s-1.2 1.3-1.2 2.2c0 1.4 1 2.8 2.9 4.2 2.2 1.6 3.9 2.4 5.3 2.4.7 0 1.3-.5 1.9-1.4.6-.9.8-2 .8-3.2 0-1.6-.6-2.8-1.8-3.6-1.4-1-3.1-1.5-5-1.5z"/>
    <path d="M485.3 485.8c1.1 0 3 .4 5.6 1.2 1.4.5 2.6 1 3.6 1.6s1.4 1.2 1.4 1.7c0 .4-.2.8-.5 1.2s-1.3 1.6-2.9 3.4c-1.1 1.1-2 2.5-2.9 4.2-.8 1.6-1.3 2.9-1.3 3.7 0 .4.1.7.4 1s.5.4.9.4c.3 0 1.3-.3 2.9-.9 2.2-.8 4.3-1.2 6.2-1.2 3.4 0 6.4 1.1 9.2 3.2 3.9 3 5.8 7 5.8 12 0 4-1.2 7.8-3.5 11.5-4.3 6.7-10.7 10-19.2 10-7 0-12.7-2-17.1-6.1-2.4-2.3-4.3-5.1-5.6-8.6-1.1-2.9-1.6-5.7-1.6-8.6 0-6.8 2.7-13.7 8.1-20.7 2.6-3.3 4.6-5.7 6.2-7.1 1.7-1.2 3.1-1.9 4.3-1.9zm4.4 27.8c-1.2 0-2.1.4-2.8 1.3s-1 2-1 3.4c0 2.2.8 4.4 2.4 6.6 1.6 2.2 3.2 3.3 4.8 3.3 1.1 0 2-.3 2.6-1 .7-.7 1-1.5 1-2.6 0-1.8-.4-3.6-1.2-5.6s-1.8-3.4-2.9-4.3c-.9-.7-1.8-1.1-2.9-1.1z"/>
  </g>
  <g fill="#FFF">
    <path d="M259.4 659.5h-2.9c-1.7 0-3.6.1-5.6.2-1.3.1-2.2.2-2.7.2-1.8 0-3.2-.4-4.4-1.2-1.1-.8-1.7-1.9-1.7-3.2 0-.9.2-1.7.7-2.2.5-.5 1.3-.9 2.4-1.3 1.1-.3 1.8-.7 2.2-1.3.4-.6.7-1.8.9-3.5.2-2 .4-5.9.6-11.7.2-5.8.3-11.5.3-17.3 0-2.2-.2-3.7-.5-4.5-.3-.7-1.2-1.3-2.4-1.8-1.8-.7-2.8-1.9-2.8-3.6 0-1.3.6-2.3 1.9-3.1 1.3-.7 3-1.1 5.3-1.1h2.6c2.2.1 3.9.1 4.9.1 3.8 0 8.1-.1 12.9-.4 1-.1 2.3-.1 3.8-.1 6.1 0 10.9.7 14.5 2.1 5.3 2.1 9.3 5.6 11.9 10.5 2.4 4.3 3.6 9.5 3.6 15.5 0 3-.4 6-1.3 9.1-.9 3-2.1 5.7-3.6 7.9-3.1 4.5-7.4 7.6-12.8 9.4-3.2 1.1-6.6 1.6-10.2 1.6l-4.8-.2-4.2-.1c-3.3.1-6.1 0-8.6 0zm8.4-43.4v31c0 1.7.4 2.9 1.1 3.6s1.9 1.1 3.6 1.1c7.8 0 11.7-5.9 11.7-17.8 0-6.5-.9-11.6-2.7-15.2-2-4-5.4-6-10.2-6-1.3 0-2.2.3-2.7.8s-.8 1.3-.8 2.5z"/>
    <path d="M333.1 619.6c4.9 0 9.2 1.3 12.9 3.8 2.6 1.8 4.8 4.2 6.4 7.1 1.7 3 2.5 6.2 2.5 9.5 0 5.8-2.7 10.7-8 14.8-5.1 3.9-10.9 5.8-17.4 5.8-6.4 0-11.5-1.8-15.5-5.4-3.8-3.5-5.8-8.1-5.8-13.8 0-6.3 2.3-11.5 7-15.5 4.9-4.2 10.9-6.3 17.9-6.3zm-3.2 9.3c-1.2 0-2.1.4-2.8 1.3-.7.9-1.1 2-1.1 3.5 0 1.6.3 3.8.9 6.5.6 2.8 1.3 5.2 2.1 7.3.8 2.2 2.2 3.3 4 3.3 2.4 0 3.6-1.5 3.6-4.5 0-2.2-.3-4.8-.9-7.6-.6-2.9-1.3-5.2-2.2-7-.8-1.8-2-2.8-3.6-2.8z"/>
    <path d="M400.3 617.5c.7 0 1.3.4 1.8 1.1.5.8.8 1.6.8 2.7s-.3 2.3-1 3.7c-.7 1.4-1.5 2.5-2.5 3.3-.6.5-.9 1-.9 1.3 0 .1 0 .4.1 1s.1 1.1.1 1.5c0 3.2-1.1 5.8-3.2 8-1.9 1.9-4.4 3.4-7.4 4.5s-6.4 1.6-10 1.6c-.9 0-1.7-.1-2.6-.2-.7-.1-1.2-.1-1.6-.1-1.4 0-2.1.7-2.1 2.1 0 .9.5 1.6 1.4 2.1.9.5 2.2.8 3.7.8 1.1 0 2.6-.1 4.7-.4 4.4-.6 7.6-.9 9.7-.9 3.1 0 5.6.5 7.3 1.6 1.4.8 2.5 1.9 3.3 3.4.8 1.4 1.2 3 1.2 4.6 0 2.7-1 5.3-3 7.8-2.3 3-5.8 5.2-10.4 6.6-3.6 1.1-7.7 1.7-12.4 1.7-5.9 0-10.7-.9-14.4-2.7-1.7-.9-3.1-2-4.1-3.4-1-1.4-1.5-2.8-1.5-4.3 0-1 .3-2 .9-2.9s1.3-1.5 2.2-1.9c.8-.3 1.2-.7 1.2-1 0-.3-.3-.7-1-1.3-2.1-1.8-3.2-3.6-3.2-5.6 0-1.3.5-2.6 1.5-4s2.3-2.4 3.8-3.2c.6-.3 1-.6 1-1s-.4-.9-1.2-1.7c-2.8-2.5-4.1-5.5-4.1-8.9 0-1.8.5-3.5 1.5-5.1 1-1.6 2.3-3 4.1-4.2 4.3-2.8 9.1-4.2 14.3-4.2 2.1 0 4.4.3 7 .8 2.4.5 4.1.7 5 .7 2.9 0 5.8-1.1 8.7-3.4.4-.3.9-.5 1.3-.5zm-30.5 44.7c-.7 0-1 .4-1 1.2 0 1.6.9 2.8 2.6 3.8 1.7 1 3.9 1.5 6.6 1.5 2.6 0 4.7-.3 6.1-1 1.5-.7 2.2-1.7 2.2-2.9 0-.7-.3-1.2-.8-1.7s-1.3-.7-2.1-.7c-.4 0-1 .1-1.8.2-1.5.2-3.2.4-5 .4-1.4 0-2.7-.1-3.9-.2-.9-.1-1.7-.2-2.3-.3-.3-.2-.5-.3-.6-.3zm8.7-36.4c-1.3 0-2.4.5-3.2 1.5-.8 1-1.2 2.4-1.2 4 0 2.9.4 5.2 1.3 6.9.9 1.7 2 2.6 3.5 2.6 1.4 0 2.5-.5 3.4-1.6.8-1.1 1.2-2.5 1.2-4.3 0-2.9-.4-5.1-1.3-6.7-.9-1.5-2.1-2.4-3.7-2.4z"/>
    <path d="M416.1 618.6c2.6 0 4.8.9 6.6 2.7 1.8 1.8 2.7 4 2.7 6.6 0 2.8-.9 5.1-2.8 6.9-1.9 1.8-4.1 2.6-6.6 2.6s-4.7-.9-6.6-2.6c-1.9-1.8-2.8-4.1-2.8-6.9 0-2.5.8-4.5 2.4-6.2 1.8-2.1 4.2-3.1 7.1-3.1zm0 23.1c2.6 0 4.8.9 6.6 2.7 1.8 1.8 2.7 4 2.7 6.6 0 2.8-.9 5.1-2.8 6.9-1.9 1.8-4.1 2.6-6.6 2.6s-4.7-.9-6.6-2.6c-1.9-1.8-2.8-4.1-2.8-6.9 0-2.5.8-4.5 2.4-6.2 1.8-2 4.2-3.1 7.1-3.1z"/>
    <path d="M475 618.9l-16.3 49.2c-.2.7-.7 1.1-1.2 1.4-.6.2-1.6.4-3 .4-3.1 0-5.9-.5-8.4-1.4-2.5-.9-3.8-1.9-3.8-3 0-.3.1-.6.3-1l14.9-28.5c1.1-2.1 1.6-3.6 1.6-4.4 0-1-.6-1.7-1.9-2.1-1.3-.4-3.6-.6-7-.6-4.1 0-7 .3-8.7.8-.7.2-1.4.7-2 1.5-.7 1-1.4 1.7-2 2.1-.6.4-1.4.5-2.3.5-1.8 0-3.3-.8-4.2-2.3-1-1.5-1.5-3.7-1.5-6.6 0-3.5.6-6.5 1.9-8.9.6-1.1 1.4-2.1 2.4-2.9 1-.8 1.9-1.1 2.8-1.1.6 0 2 .5 4 1.4 1.3.5 3 .8 5 .8h25.7c2.5 0 3.8 1 3.8 2.9.2.6.1 1.2-.1 1.8z"/>
    <path d="M501.3 608.8c5.6 0 10.8.9 15.5 2.8 2.6 1 4.7 2.6 6.3 4.7 1.2 1.5 1.8 3.3 1.8 5.3 0 3.2-1.7 5.8-5.2 8-1 .7-1.6 1.2-1.6 1.6 0 .4.6 1 1.9 1.8 1.7 1.2 3.1 2.8 4.2 4.7s1.6 3.9 1.6 6c0 3.1-1.1 6.1-3.4 9-4 5.2-10.3 7.8-18.9 7.8-6 0-11.2-1.1-15.9-3.2-3.1-1.4-5.6-3.4-7.3-6-1.3-1.9-2-4.1-2-6.6 0-3.4 1.6-6.3 4.8-8.5 1.2-.9 1.8-1.5 1.8-1.9 0-.3-.5-1-1.5-2-2.5-2.4-3.8-5.3-3.8-8.7 0-4.7 2.3-8.4 7-11.3 4-2.3 8.9-3.5 14.7-3.5zm-7.7 31.2c-.6 0-1.1.3-1.5.9-.4.6-.5 1.3-.5 2.2 0 1 .3 2.2.8 3.4.5 1.2 1.2 2.2 2 3 1.9 1.9 4.3 2.9 7 2.9 1.6 0 2.9-.4 3.9-1.1s1.5-1.7 1.5-2.8c0-1.3-.5-2.4-1.4-3.2-.9-.8-2.9-1.9-5.8-3.3-2.8-1.3-4.8-1.9-6-2zm9.5-23.8c-1.2 0-2.2.3-2.9.9-.8.6-1.2 1.3-1.2 2.2 0 1.4 1 2.8 2.9 4.2 2.2 1.6 3.9 2.4 5.3 2.4.7 0 1.3-.5 1.9-1.4.6-.9.8-2 .8-3.2 0-1.6-.6-2.8-1.8-3.6-1.4-1-3-1.5-5-1.5z"/>
  </g>
  <g fill="#FFF">
    <path d="M263.9 802.6h-5.4c-3.8.1-6.5.1-8.2.2-1.5.1-2.7.2-3.3.2-1.6 0-2.9-.4-3.9-1.2-.9-.8-1.4-1.8-1.4-3 0-.7.2-1.3.5-1.8.3-.4 1.2-1.1 2.5-2 .8-.5 1.3-1.4 1.6-2.5.3-1.1.6-3.6 1-7.3.5-5.8.8-13 .8-21.5 0-3.1-.2-5.2-.6-6.2-.4-1-1.4-1.9-2.9-2.5-1.8-.7-2.6-1.8-2.6-3.3 0-1.2.5-2.1 1.6-2.9 1.1-.7 2.4-1.1 4.1-1.1.9 0 2.1 0 3.5.1 2.3.1 4.9.2 7.6.2 2 0 5.9-.1 11.8-.2 1.8-.1 3.5-.1 5-.1 3.5 0 6.4.3 8.6.9 2.2.6 4.1 1.5 5.7 2.9 2.6 2.2 3.9 5.2 3.9 8.9 0 1.8-.4 3.6-1.2 5.4-.8 1.7-1.8 3.1-3.1 4.2-.9.7-1.4 1.4-1.4 2 0 .7.6 1.2 1.7 1.7 2.2.9 4.2 2.4 6 4.4 1.8 2.2 2.8 4.9 2.8 8.1 0 3.8-1.4 7.4-4.2 10.5-3.7 4.2-9.2 6.3-16.5 6.3-1 0-3.4-.1-7.3-.2-3.7-.1-5.8-.2-6.7-.2zm2.8-43.4v8.2c0 1.3.2 2.2.5 2.8.3.5.9.8 1.7.8 2 0 3.4-.6 4.4-1.8.9-1.2 1.4-3.1 1.4-5.7 0-2.5-.5-4.5-1.4-5.8s-2.3-2.1-4.1-2.1c-.9 0-1.6.3-1.9.8-.4.5-.6 1.4-.6 2.8zm0 23v3.8c0 3.5.3 5.8.8 7 .5 1.1 1.5 1.7 3.1 1.7 4.1 0 6.1-2.4 6.1-7.1 0-5.9-2.3-8.9-6.8-8.9-1.2 0-2 .3-2.4.8-.6.5-.8 1.4-.8 2.7z"/>
    <path d="M323.2 765.5v23.3c0 1.8.2 3.2.5 4 .3.9 1 1.6 2 2.4.8.6 1.4 1.1 1.7 1.5s.4.9.4 1.6c0 3.4-4.4 5.2-13.1 5.2-4.7 0-8.4-.4-11.2-1.1-.9-.3-1.7-.7-2.3-1.4-.6-.7-.9-1.4-.9-2.3 0-.7.1-1.3.4-1.7.3-.4 1-1 2.2-1.9.8-.6 1.4-1.6 1.8-3 .3-1.4.5-3.5.5-6.2 0-.9-.1-2.5-.2-4.9-.1-2.4-.2-3.8-.3-4.2-.2-1.1-.9-1.9-2.2-2.5-1.7-.7-2.5-1.8-2.5-3.2 0-1.7 1.1-2.9 3.2-3.8 3-1.1 6.2-2.1 9.6-2.9 3.4-.8 6.1-1.2 7.9-1.2 1.8-.2 2.5.7 2.5 2.3zm-7.9-17.5c2.3 0 4.2.4 5.5 1.3s2 2 2 3.5c0 2.1-1 3.7-3.1 4.9-3.3 1.9-7.2 2.8-11.8 2.8-1.9 0-3.5-.4-4.6-1.1-1.5-1-2.3-2.3-2.3-4 0-2.3 1.6-4.1 4.9-5.4 3.4-1.3 6.5-2 9.4-2z"/>
    <path d="M348.9 763c1.4 0 2.3.2 2.6.6.3.4.6 1.7.8 3.8.1 1.2.5 1.8 1.2 1.8.5 0 1-.4 1.5-1.2 2.1-3.3 4.9-5 8.4-5 2.4 0 4.4.8 6 2.4.7.8 1.4 1.8 1.8 3 .5 1.2.7 2.4.7 3.5 0 1.3-.3 2.5-.9 3.9-.6 1.3-1.3 2.4-2.3 3.3-1.7 1.6-3.8 2.4-6.3 2.4-1.4 0-2.5-.2-3.4-.7s-2.1-1.5-3.6-2.9c-.6-.6-1.1-.8-1.6-.8-.7 0-1.2.4-1.5 1.3-.2.8-.3 2.6-.3 5.3 0 4 .1 6.8.4 8.2.2.8.4 1.4.8 1.7.3.3 1 .6 2.1.9 2.4.7 3.6 2 3.6 3.8 0 1.1-.4 2-1.2 2.9-.8.8-1.8 1.4-3.1 1.6-2.6.5-6.3.8-11.3.8-4.7 0-8.3-.4-10.8-1.2-2.2-.7-3.3-2-3.3-3.9 0-1.4.8-2.6 2.4-3.7.8-.5 1.3-1 1.6-1.4.3-.4.5-1 .6-1.7.4-2.4.6-6.9.6-13.5 0-1.2-.1-2.1-.4-2.6-.3-.5-.8-.9-1.6-1.3-1.9-.7-2.8-1.8-2.8-3.2 0-1.3.7-2.4 2-3.3 1.3-.9 3.5-1.8 6.6-2.7 4.3-1.4 7.8-2.1 10.7-2.1z"/>
    <path d="M420.1 751.2v36.6c0 2.1.1 3.4.3 4 .2.6.7 1.2 1.5 1.7 1 .7 1.6 1.3 1.9 1.8.3.5.5 1.1.5 1.8 0 2.1-2.1 3.8-6.4 4.9-3.9 1-7.7 1.5-11.6 1.5-.9 0-1.4-.1-1.7-.4-.3-.3-.4-.9-.5-1.8-.1-1.4-.6-2-1.4-2-.5 0-1.2.4-2.1 1.2-2.7 2.2-5.8 3.3-9.1 3.3-4.1 0-7.9-1.5-11.2-4.6-1.9-1.8-3.5-4-4.7-6.4-1.6-3.1-2.4-6.3-2.4-9.5 0-3.8 1-7.4 3.1-10.9 1.9-3.2 4.5-5.7 7.8-7.4 2.8-1.4 5.5-2.2 8.2-2.2 3.1 0 5.9.7 8.3 2.1.4.2.7.3 1 .3.9 0 1.3-1.1 1.3-3.4 0-1-.2-1.7-.7-2.3-.5-.5-1.3-1-2.5-1.3-1.7-.5-2.5-1.5-2.5-2.8 0-1.9 1.9-3.5 5.8-4.6 6.8-1.9 11.4-2.8 13.7-2.8 2.2-.1 3.4 1 3.4 3.2zm-21.8 20.1c-1.7 0-3.1.9-4.1 2.8-1.4 2.5-2 5.7-2 9.7 0 3.6.7 6.4 2 8.2.9 1.3 2.2 2 3.8 2 1.7 0 3-1 3.8-3 .8-2 1.2-5.3 1.2-9.7 0-4.1-.5-6.8-1.4-8.2-.8-1.2-1.9-1.7-3.3-1.8z"/>
    <path d="M437.5 761.7c2.6 0 4.8.9 6.6 2.7s2.7 4 2.7 6.6c0 2.8-.9 5.1-2.8 6.9-1.9 1.8-4.1 2.6-6.6 2.6s-4.7-.9-6.6-2.6c-1.9-1.8-2.8-4.1-2.8-6.9 0-2.5.8-4.5 2.4-6.2 1.9-2.1 4.3-3.1 7.1-3.1zm0 23.1c2.6 0 4.8.9 6.6 2.7s2.7 4 2.7 6.6c0 2.8-.9 5.1-2.8 6.9-1.9 1.8-4.1 2.6-6.6 2.6s-4.7-.9-6.6-2.6c-1.9-1.8-2.8-4.1-2.8-6.9 0-2.5.8-4.5 2.4-6.2 1.9-2 4.3-3.1 7.1-3.1z"/>
    <path d="M456.3 794.8c.4 0 1.3.1 2.6.3.6.1 1.1.2 1.5.2 2.3 0 3.6-1.8 3.9-5.4.2-2 .3-7.8.3-17.3 0-1.4-.3-2.4-.9-3-.6-.6-1.7-.8-3.2-.8-.4 0-.9 0-1.6.1-.5.1-1 .1-1.4.1-.9 0-1.6-.2-2.2-.7-.6-.5-.8-1.1-.8-1.9 0-.9.4-1.7 1.3-2.5s2-1.6 3.6-2.2c7.6-3.2 15.6-4.8 24.1-4.8 2.3 0 4 .3 5.1.8s1.6 1.4 1.6 2.6c0 .7-.2 1.2-.5 1.6-.3.4-1 .8-2.1 1.3-1.7.7-2.6 1.6-2.8 2.6s-.4 5.1-.6 12.2c.2 7.2.3 11 .4 11.5 0 .5.1 1.2.3 2.1.3 1.4.9 2.4 1.8 2.9s2.4.9 4.6 1c2.5.1 3.8 1.1 3.8 3.1s-1.8 3.4-5.3 4c-4.9.9-10 1.3-15.2 1.3-3.4 0-6.6-.2-9.7-.6-3.8-.5-6.8-1.2-8.9-2-2.1-.7-3.1-1.9-3.1-3.4 0-.8.3-1.5 1-2.1.6-.6 1.4-.9 2.4-1z"/>
    <path d="M516.2 750.6c1.1 0 3 .4 5.6 1.2 1.4.5 2.6 1 3.6 1.6s1.4 1.2 1.4 1.7c0 .4-.2.8-.5 1.2-.3.4-1.3 1.6-2.9 3.4-1.1 1.1-2 2.5-2.9 4.2-.8 1.6-1.3 2.9-1.3 3.7 0 .4.1.7.4 1 .2.3.5.4.9.4.3 0 1.3-.3 2.9-.9 2.2-.8 4.3-1.2 6.2-1.2 3.4 0 6.4 1.1 9.2 3.2 3.9 3 5.8 7 5.8 12 0 4-1.2 7.8-3.5 11.5-4.3 6.7-10.7 10-19.2 10-7 0-12.7-2-17.1-6.1-2.4-2.3-4.3-5.1-5.6-8.6-1.1-2.9-1.6-5.7-1.6-8.6 0-6.8 2.7-13.7 8.1-20.7 2.6-3.3 4.6-5.7 6.2-7.1 1.6-1.3 3-1.9 4.3-1.9zm4.3 27.7c-1.2 0-2.1.4-2.8 1.3-.7.8-1 2-1 3.4 0 2.2.8 4.4 2.4 6.6 1.6 2.2 3.2 3.3 4.8 3.3 1.1 0 2-.3 2.6-1 .7-.7 1-1.5 1-2.6 0-1.8-.4-3.6-1.2-5.6s-1.8-3.4-2.9-4.3c-.9-.7-1.8-1-2.9-1.1z"/>
  </g>
  <g fill="#FFF">
    <path d="M261.9 916c-1 0-1.7.3-1.9.9-.3.6-.4 2-.4 4.3 0 3.4.2 6 .6 7.9.1.5.3.9.6 1.2.3.3.8.7 1.5 1.1 1.6.9 2.4 2 2.4 3.5 0 1.8-1.1 3-3.3 3.7-2.2.7-6 1.1-11.3 1.1-9.9 0-14.8-1.9-14.8-5.6 0-.6.1-1.2.4-1.5.3-.4 1-.9 2-1.6 1.2-.8 2-1.7 2.4-2.7.4-1.1.7-2.9.9-5.5.1-1.9.2-8.7.2-20.4 0-3.7-.2-6.2-.6-7.6-.4-1.3-1.2-2.3-2.4-2.9-1.2-.6-2-1.1-2.4-1.5-.4-.5-.6-1.1-.6-1.8 0-1 .4-1.8 1.1-2.6.8-.7 1.8-1.3 3.2-1.6 1.1-.3 2.7-.4 4.7-.4.9 0 3.1.1 6.6.4.7.1 1.7.1 3.2.1 2.4 0 5.6-.2 9.6-.5 2.5-.2 4.3-.3 5.3-.3 5.7 0 10.4 1.4 14.2 4.1 3.4 2.5 5 5.9 5 10.3 0 2.5-.6 4.7-1.8 6.7-1.2 2-2.8 3.5-4.8 4.5-.9.4-1.3.9-1.3 1.5 0 .8.7 1.4 2 1.9 2.8 1 4.9 2.5 6.2 4.6 1.3 2.1 2.2 5.2 2.8 9.4.2 1.8.6 2.9 1 3.4.5.5 1.5 1 3.2 1.5.5.2.9.5 1.3 1 .3.5.5 1.1.5 1.7 0 .8-.3 1.7-1 2.5s-1.5 1.5-2.5 2c-2.2 1-5.3 1.6-9.2 1.6-5.2 0-8.9-1.4-11.2-4.1-1-1.2-1.9-2.8-2.6-4.6s-1.5-4.8-2.5-8.7c-.6-2.5-1.4-4.3-2.3-5.4-.8-1-2.2-1.6-4-1.6zm-2.3-20.5l-.4 9.3v.4c0 1 .1 1.6.4 1.9.3.3.8.5 1.7.5 2.3 0 4.1-.6 5.1-1.8 1.1-1.2 1.6-3.2 1.6-5.8 0-5.2-1.8-7.7-5.5-7.7-1 0-1.8.2-2.2.7-.4.4-.6 1.3-.7 2.5z"/>
    <path d="M335.1 921h-18.8c-.8 0-1.2.4-1.2 1.1 0 1.7.9 3.4 2.8 4.9 1.9 1.5 3.9 2.3 6.1 2.3 1.3 0 2.7-.2 4.3-.7 1.6-.5 2.8-1.1 3.9-1.8.9-.6 1.6-1 2.2-1 .7 0 1.4.4 2 1.3.7.9 1 1.7 1 2.6 0 1.9-1.2 3.8-3.6 5.6-4.2 3.2-9.1 4.8-14.7 4.8s-10.3-1.6-14.1-4.9c-1.8-1.6-3.4-3.5-4.6-5.8-1.6-3-2.4-6.2-2.4-9.5 0-4.5 1.4-8.5 4.1-12.1 2.3-3.1 5.3-5.4 9-6.9 2.7-1.1 5.7-1.7 8.8-1.7 5.1 0 9.4 1.4 12.9 4.3 1.8 1.4 3.2 3.1 4.3 5.1 1.3 2.2 1.9 4.4 1.9 6.6 0 1.7-.4 3.2-1.1 4.3-.7.9-1.6 1.5-2.8 1.5zm-17.7-7.5h4c1.7 0 2.6-.8 2.6-2.4 0-1.4-.4-2.6-1.2-3.5-.8-.9-1.9-1.4-3.2-1.4-1.5 0-2.7.6-3.5 1.8-.8 1.1-1.2 2.2-1.2 3.3 0 .8.2 1.4.6 1.7.2.3.9.5 1.9.5z"/>
    <path d="M361.2 899.3c1.6 0 2.6.1 3 .4s.6 1 .6 2.1c0 1 .3 1.5 1 1.5.3 0 1.2-.5 2.7-1.5 1.1-.8 2.6-1.4 4.4-1.9 1.8-.5 3.4-.8 4.8-.8 3.4 0 6.4 1.2 9.1 3.5 2 1.8 3.6 4 4.7 6.8 1.2 2.9 1.8 5.9 1.8 9 0 6.7-2.3 12.3-6.8 16.6-3.5 3.4-7.5 5.1-11.9 5.1-2.3 0-4.6-.5-7-1.6-.5-.2-.9-.3-1.2-.3-.8 0-1.2.8-1.2 2.4 0 2.1.7 3.6 2.1 4.6 1.3.9 2.1 1.5 2.3 1.8s.4.8.4 1.5c0 1.6-.9 2.8-2.7 3.7-1.8.9-4.3 1.3-7.6 1.3-5.8 0-10.9-1.2-15.2-3.5-2.2-1.2-3.3-2.6-3.3-4.4 0-.8.2-1.4.5-1.8.3-.4 1-.8 1.9-1.3 1.4-.6 2.2-1.8 2.5-3.5.3-1.7.5-6.5.7-14.5-.2-6.6-.4-10.2-.7-11.1-.1-.3-.3-.4-.5-.5-.2-.1-.9-.2-2-.4-.9-.2-1.5-.6-2.1-1.2-.5-.6-.8-1.4-.8-2.3 0-1.1.4-2 1.1-2.8.7-.8 2-1.6 3.6-2.4 6.8-3 12-4.5 15.8-4.5zm4 15.1l-.6 11v1.3c0 .8.4 1.5 1.1 2s1.7.8 2.9.8c3.7 0 5.5-3 5.5-9.1 0-3.9-.8-6.7-2.3-8.3-1-1-2.1-1.5-3.4-1.5-2 0-3 1.3-3.2 3.8z"/>
    <path d="M419.5 909.5V923c0 1.6.4 2.9 1.2 3.9.8 1 1.8 1.5 3 1.5 1 0 2.4-.5 4.1-1.4.4-.2.8-.4 1.2-.4.6 0 1.2.4 1.8 1.2.5.8.8 1.6.8 2.5 0 1.7-.9 3.2-2.7 4.8-3.8 3.2-8.4 4.8-13.8 4.8-4.3 0-7.7-1.2-10.3-3.6-2.6-2.4-3.9-5.6-3.9-9.5v-18.5c0-.6-.1-1-.2-1.1-.1-.1-.5-.2-1.1-.2h-4.1c-.8 0-1.3-.1-1.5-.4-.2-.3-.3-.8-.3-1.8V903c0-.8.3-1.4.9-1.8l18.3-11.5c.5-.2 1-.4 1.7-.4h3.2c.7 0 1.1.2 1.3.5.2.3.3.9.3 1.8v5.4c0 .8.1 1.3.4 1.6.3.2.8.4 1.6.4h7.4c1 0 1.6.2 1.9.5.3.4.4 1.1.4 2.3v2.4c0 1.3-.2 2.2-.6 2.7-.4.5-1.1.7-2 .7h-7.2c-.7 0-1.3.1-1.5.4-.1.3-.3.8-.3 1.5z"/>
    <path d="M456 901.8v23.3c0 1.8.2 3.2.5 4s1 1.6 2 2.4c.8.6 1.4 1.1 1.7 1.5.3.4.4.9.4 1.6 0 3.4-4.4 5.2-13.1 5.2-4.7 0-8.4-.4-11.2-1.1-.9-.3-1.7-.7-2.3-1.4s-.9-1.4-.9-2.3c0-.7.1-1.3.4-1.7.3-.4 1-1 2.2-1.9.8-.6 1.4-1.6 1.8-3 .3-1.4.5-3.5.5-6.2 0-.9-.1-2.5-.2-4.9-.1-2.4-.2-3.8-.3-4.2-.2-1.1-.9-1.9-2.2-2.5-1.7-.7-2.5-1.8-2.5-3.2 0-1.7 1.1-2.9 3.2-3.8 3-1.1 6.2-2.1 9.6-2.9 3.4-.8 6.1-1.2 7.9-1.2 1.7-.2 2.5.7 2.5 2.3zm-8-17.5c2.3 0 4.2.4 5.5 1.3 1.4.9 2 2 2 3.5 0 2.1-1 3.7-3.1 4.9-3.3 1.9-7.2 2.8-11.8 2.8-1.9 0-3.5-.4-4.6-1.1-1.5-1-2.3-2.3-2.3-4 0-2.3 1.6-4.1 4.9-5.4 3.4-1.4 6.5-2 9.4-2z"/>
    <path d="M485.8 907.2V920c0 5.7.1 9 .3 9.9.2.9.8 1.7 2 2.2 1 .4 1.6.8 2 1.2s.5.9.5 1.6c0 .9-.3 1.7-.9 2.4-.6.7-1.5 1.2-2.5 1.5-1.9.6-5.2.9-9.7.9-5.2 0-8.8-.4-10.9-1.2-1-.3-1.7-.9-2.4-1.6-.6-.7-.9-1.5-.9-2.3 0-.6.2-1.1.5-1.5.3-.3 1.1-.8 2.2-1.2 1-.5 1.7-1.7 1.9-3.7.4-3.5.6-8.4.6-14.8 0-6.5-.2-10.7-.6-12.6-.4-1.9-1.3-3.3-2.8-4.2-1.1-.6-1.9-1.2-2.3-1.8-.4-.6-.6-1.3-.6-2.1 0-1.3.6-2.4 1.9-3.4 1.3-1 3.3-1.9 6-2.7 1.8-.6 4.2-1.1 7.2-1.6 2.9-.5 5.1-.8 6.4-.8 2.1 0 3.2 1.3 3.2 3.9 0 .9-.1 2.8-.4 5.9-.4 4.8-.6 9.2-.7 13.2z"/>
    <path d="M529.9 921h-18.8c-.8 0-1.2.4-1.2 1.1 0 1.7.9 3.4 2.8 4.9 1.9 1.5 3.9 2.3 6.1 2.3 1.3 0 2.7-.2 4.3-.7 1.6-.5 2.8-1.1 3.9-1.8.9-.6 1.6-1 2.2-1 .7 0 1.4.4 2 1.3.7.9 1 1.7 1 2.6 0 1.9-1.2 3.8-3.6 5.6-4.2 3.2-9.1 4.8-14.7 4.8s-10.3-1.6-14.1-4.9c-1.8-1.6-3.4-3.5-4.6-5.8-1.6-3-2.4-6.2-2.4-9.5 0-4.5 1.4-8.5 4.1-12.1 2.3-3.1 5.3-5.4 9-6.9 2.7-1.1 5.7-1.7 8.8-1.7 5.1 0 9.4 1.4 12.9 4.3 1.8 1.4 3.2 3.1 4.3 5.1 1.3 2.2 1.9 4.4 1.9 6.6 0 1.7-.4 3.2-1.1 4.3-.7.9-1.7 1.5-2.8 1.5zm-17.8-7.5h4c1.7 0 2.6-.8 2.6-2.4 0-1.4-.4-2.6-1.2-3.5-.8-.9-1.9-1.4-3.2-1.4-1.5 0-2.7.6-3.5 1.8-.8 1.1-1.2 2.2-1.2 3.3 0 .8.2 1.4.6 1.7.3.3.9.5 1.9.5z"/>
    <path d="M547.3 898c2.6 0 4.8.9 6.6 2.7 1.8 1.8 2.7 4 2.7 6.6 0 2.8-.9 5.1-2.8 6.9-1.9 1.8-4.1 2.6-6.6 2.6s-4.7-.9-6.6-2.6c-1.9-1.8-2.8-4.1-2.8-6.9 0-2.5.8-4.5 2.4-6.2 1.9-2.1 4.2-3.1 7.1-3.1zm0 23.1c2.6 0 4.8.9 6.6 2.7 1.8 1.8 2.7 4 2.7 6.6 0 2.8-.9 5.1-2.8 6.9-1.9 1.8-4.1 2.6-6.6 2.6s-4.7-.9-6.6-2.6c-1.9-1.8-2.8-4.1-2.8-6.9 0-2.5.8-4.5 2.4-6.2 1.9-2 4.2-3.1 7.1-3.1z"/>
    <path d="M566.1 931.1c.4 0 1.3.1 2.6.3.6.1 1.1.2 1.5.2 2.3 0 3.6-1.8 3.9-5.4.2-2 .3-7.8.3-17.3 0-1.4-.3-2.4-.9-3-.6-.6-1.7-.8-3.2-.8-.4 0-.9 0-1.6.1-.5.1-1 .1-1.4.1-.9 0-1.6-.2-2.2-.7-.6-.5-.8-1.1-.8-1.9 0-.9.4-1.7 1.3-2.5s2-1.6 3.6-2.2c7.6-3.2 15.6-4.8 24.1-4.8 2.3 0 4 .3 5.1.8 1.1.5 1.6 1.4 1.6 2.6 0 .7-.2 1.2-.5 1.6-.3.4-1 .8-2.1 1.3-1.7.7-2.6 1.6-2.8 2.6s-.4 5.1-.6 12.2c.2 7.2.3 11 .4 11.5 0 .5.1 1.2.3 2.1.3 1.4.9 2.4 1.8 2.9s2.4.9 4.6 1c2.5.1 3.8 1.1 3.8 3.1s-1.8 3.4-5.3 4c-4.9.9-10 1.3-15.2 1.3-3.4 0-6.6-.2-9.7-.6-3.8-.5-6.8-1.2-8.9-2-2.1-.7-3.1-1.9-3.1-3.4 0-.8.3-1.5 1-2.1.6-.6 1.4-.9 2.4-1z"/>
    <path d="M628.9 893c5.2 0 9.8.9 13.7 2.8 1.6.8 2.8 1.8 3.7 3.2.9 1.4 1.4 2.8 1.4 4.4 0 2.9-1.5 5.5-4.5 7.9-.9.7-1.3 1.2-1.3 1.6 0 .8.8 1.3 2.3 1.6 7.2 1.3 10.8 5.3 10.8 12 0 4.2-1.5 8-4.4 11.5-2.8 3.3-6.9 5.8-12.3 7.4-3.9 1.1-8.2 1.7-12.9 1.7-5.5 0-10.2-.8-14.1-2.3-2.5-1-3.7-2.4-3.7-4.2 0-1.1.4-2.1 1.3-2.9.8-.8 1.9-1.2 3.1-1.2.7 0 2.5.3 5.4 1 1 .2 2.3.4 4.1.4 3.2 0 5.8-.7 7.6-2.2 2-1.6 3-3.4 3-5.4 0-1.9-.8-3.5-2.3-4.7-1.5-1.2-3.5-1.8-6-1.8-1.5 0-2.9.2-4.1.5-.7.2-1.2.3-1.6.3-.7 0-1.4-.7-2.1-2.1s-1.1-2.8-1.1-4.1c0-.6.2-1.1.5-1.3.3-.2 1.5-.7 3.3-1.3 1.7-.6 3.3-1.6 4.8-3.2 1.2-1.2 1.8-2.5 1.8-3.9 0-1.5-.6-2.8-1.8-3.9-1.2-1.1-2.6-1.7-4.3-1.7-1 0-1.9.1-2.6.4s-2 .9-3.9 1.9c-.6.3-1 .4-1.3.4-.7 0-1.3-.5-1.9-1.4-.6-.9-.9-1.9-.9-3 0-1.8 1.6-3.5 4.8-5.1 2-1 4.4-1.8 7.2-2.5 2.9-.5 5.6-.8 8.3-.8z"/>
  </g>
  <g fill="#FFF">
    <path d="M273 1024.2c6.9 0 12.9 2 18 5.9 3.5 2.7 6.3 6.2 8.4 10.5 2.1 4.3 3.2 8.5 3.2 12.8 0 6.3-2.1 11.9-6.2 16.9-3.5 4.2-8.1 7.2-13.8 9.1-3.5 1.1-7 1.7-10.5 1.7-4.6 0-9-1-13.3-2.9-5.1-2.3-9.1-5.8-12-10.5-2.8-4.5-4.2-9.5-4.2-15 0-6.4 1.8-12 5.4-16.8 3.2-4.3 7.5-7.5 12.9-9.5 3.6-1.5 7.7-2.2 12.1-2.2zm-3.8 11.5c-2.2 0-4 1-5.3 3-1 1.5-1.5 3.3-1.5 5.3 0 3 .6 6.5 1.8 10.5 1.2 4 2.8 7.5 4.6 10.5.8 1.3 1.8 2.3 3.1 3.1 1.2.8 2.4 1.2 3.7 1.2 2 0 3.7-.8 4.9-2.3 1.2-1.5 1.9-3.5 1.9-6 0-3.2-.5-6.7-1.6-10.5-1-3.7-2.4-6.9-4-9.6-1-1.6-2.2-2.9-3.5-3.8-1.4-.9-2.7-1.3-4.1-1.4z"/>
    <path d="M329.8 1050.6v13.5c0 1.6.4 2.9 1.2 3.9.8 1 1.8 1.5 3 1.5 1 0 2.4-.5 4.1-1.4.4-.2.8-.4 1.2-.4.6 0 1.2.4 1.8 1.2.5.8.8 1.6.8 2.5 0 1.7-.9 3.2-2.7 4.8-3.8 3.2-8.4 4.8-13.8 4.8-4.3 0-7.7-1.2-10.3-3.6-2.6-2.4-3.9-5.6-3.9-9.5v-18.5c0-.6-.1-1-.2-1.1s-.5-.2-1.1-.2h-4.1c-.8 0-1.3-.1-1.5-.4-.2-.3-.3-.8-.3-1.8v-1.8c0-.8.3-1.4.9-1.8l18.3-11.5c.5-.2 1-.4 1.7-.4h3.2c.7 0 1.1.2 1.3.5.2.3.3.9.3 1.8v5.4c0 .8.1 1.3.4 1.6.3.2.8.4 1.6.4h7.4c1 0 1.6.2 1.9.5.3.4.4 1.1.4 2.3v2.4c0 1.3-.2 2.2-.6 2.7-.4.5-1.1.7-2 .7h-7.2c-.7 0-1.3.1-1.5.4-.2.2-.3.7-.3 1.5z"/>
    <path d="M366.5 1027.3l-.5 16.8c-.1 2 .6 3 1.8 3 .6 0 1.3-.4 1.9-1.3 2.6-3.8 6-5.6 10.4-5.6 4.2 0 7.6 1.3 10.1 3.9 1.1 1.1 1.9 2.5 2.4 4.1.5 1.6.7 3.8.8 6.8l.4 14.5c0 1.3.2 2.2.5 2.8.3.6 1 1.3 2.1 2.2.8.6 1.2 1.3 1.2 2.2 0 2.9-4.4 4.3-13.1 4.3-7.7 0-11.6-1.3-11.6-4 0-.5.1-.8.2-1 .1-.2.6-.9 1.4-1.9 1.1-1.5 1.7-5.1 1.7-11 0-3.5-.3-6.1-1-7.8-.9-2.2-2.5-3.3-4.7-3.3-1.6 0-2.8.6-3.6 1.8-.6.9-.8 2.5-.8 4.8v7.7c.2 3.4.3 5.4.5 5.8.1.5.7 1.3 1.8 2.5.5.6.8 1.2.8 2 0 3-3.9 4.5-11.8 4.5-9.2 0-13.8-1.6-13.8-4.7 0-.7.1-1.3.4-1.7.3-.4 1-1 2.2-1.8 1-.7 1.7-2.7 2.1-5.8.4-3.2.6-8.4.6-15.7 0-5.7-.2-9.7-.5-11.9-.1-.8-.3-1.4-.6-1.8-.3-.4-.8-.8-1.6-1.2-1.7-.9-2.5-1.8-2.5-3 0-1.3.6-2.4 1.9-3.2 1.3-.8 3.7-1.7 7.2-2.7 4.8-1.3 8.6-2 11.5-2 1.5-.3 2.2.4 2.2 1.7z"/>
    <path d="M436.9 1062h-18.8c-.8 0-1.2.4-1.2 1.1 0 1.7.9 3.4 2.8 4.9 1.9 1.5 3.9 2.3 6.1 2.3 1.3 0 2.7-.2 4.3-.7 1.6-.5 2.8-1.1 3.9-1.8.9-.6 1.6-1 2.2-1 .7 0 1.4.4 2 1.3.7.9 1 1.7 1 2.6 0 1.9-1.2 3.8-3.6 5.6-4.2 3.2-9.1 4.8-14.7 4.8s-10.3-1.6-14.1-4.9c-1.8-1.6-3.4-3.5-4.6-5.8-1.6-3-2.4-6.2-2.4-9.5 0-4.5 1.4-8.5 4.1-12.1 2.3-3.1 5.3-5.4 9-6.9 2.7-1.1 5.7-1.7 8.8-1.7 5.1 0 9.4 1.4 12.9 4.3 1.8 1.4 3.2 3.2 4.3 5.1 1.3 2.2 1.9 4.4 1.9 6.6 0 1.7-.4 3.2-1.1 4.3s-1.7 1.5-2.8 1.5zm-17.8-7.4h4c1.7 0 2.6-.8 2.6-2.4 0-1.4-.4-2.6-1.2-3.5-.8-.9-1.9-1.4-3.2-1.4-1.5 0-2.7.6-3.5 1.8-.8 1.1-1.2 2.2-1.2 3.3 0 .8.2 1.4.6 1.7.3.3.9.5 1.9.5z"/>
    <path d="M462.1 1040.3c1.4 0 2.3.2 2.6.6.3.4.6 1.7.8 3.8.1 1.2.5 1.8 1.2 1.8.5 0 1-.4 1.5-1.2 2.1-3.3 4.9-5 8.4-5 2.4 0 4.4.8 6 2.4.7.8 1.4 1.8 1.8 3s.7 2.4.7 3.5c0 1.3-.3 2.5-.9 3.9-.6 1.3-1.3 2.4-2.3 3.3-1.7 1.6-3.8 2.4-6.3 2.4-1.4 0-2.5-.2-3.4-.7-.9-.5-2.1-1.5-3.6-2.9-.6-.6-1.1-.8-1.6-.8-.7 0-1.2.4-1.5 1.3-.2.8-.3 2.6-.3 5.3 0 4 .1 6.8.4 8.2.2.8.4 1.4.8 1.7.3.3 1 .6 2.1.9 2.4.7 3.6 2 3.6 3.8 0 1.1-.4 2-1.2 2.9-.8.8-1.8 1.4-3.1 1.6-2.6.5-6.3.8-11.3.8-4.7 0-8.3-.4-10.8-1.2-2.2-.7-3.3-2-3.3-3.9 0-1.4.8-2.6 2.4-3.7.8-.5 1.3-1 1.6-1.4.3-.4.5-1 .6-1.7.4-2.4.6-6.9.6-13.5 0-1.2-.1-2.1-.4-2.6-.3-.5-.8-.9-1.6-1.3-1.9-.7-2.8-1.8-2.8-3.2 0-1.3.7-2.4 2-3.3 1.3-.9 3.5-1.8 6.6-2.7 4.3-1.4 7.8-2 10.7-2.1z"/>
    <path d="M512.9 1072.2c.4 0 1.3.1 2.6.3.6.1 1.1.2 1.5.2 2.3 0 3.6-1.8 3.9-5.4.2-2 .3-7.8.3-17.3 0-1.4-.3-2.4-.9-3-.6-.6-1.7-.8-3.2-.8-.4 0-.9 0-1.6.1-.5.1-1 .1-1.4.1-.9 0-1.6-.2-2.2-.7-.6-.5-.8-1.1-.8-1.9 0-.9.4-1.7 1.3-2.5s2-1.6 3.6-2.2c7.6-3.2 15.6-4.8 24.1-4.8 2.3 0 4 .3 5.1.8s1.6 1.4 1.6 2.6c0 .7-.2 1.2-.5 1.6-.3.4-1 .8-2.1 1.3-1.7.7-2.6 1.6-2.8 2.6s-.4 5.1-.6 12.2c.2 7.2.3 11 .4 11.5 0 .5.1 1.2.3 2.1.3 1.4.9 2.4 1.8 2.9s2.4.9 4.6 1c2.5.1 3.8 1.1 3.8 3.1s-1.8 3.4-5.3 4c-4.9.9-10 1.3-15.2 1.3-3.4 0-6.6-.2-9.7-.6-3.8-.5-6.8-1.2-8.9-2-2.1-.7-3.1-1.9-3.1-3.4 0-.8.3-1.5 1-2.1.6-.7 1.4-1 2.4-1z"/>
    <path d="M572.7 1027.9c1.1 0 3 .4 5.6 1.2 1.4.5 2.6 1 3.6 1.6s1.4 1.2 1.4 1.7c0 .4-.2.8-.5 1.2-.3.4-1.3 1.6-2.9 3.4-1.1 1.1-2 2.5-2.9 4.2-.8 1.6-1.3 2.9-1.3 3.7 0 .4.1.7.4 1s.5.4.9.4c.3 0 1.3-.3 2.9-.9 2.2-.8 4.3-1.2 6.2-1.2 3.4 0 6.4 1.1 9.2 3.2 3.9 3 5.8 7 5.8 12 0 4-1.2 7.8-3.5 11.5-4.3 6.7-10.7 10-19.2 10-7 0-12.7-2-17.1-6.1-2.4-2.3-4.3-5.1-5.6-8.6-1.1-2.9-1.6-5.7-1.6-8.6 0-6.8 2.7-13.7 8.1-20.7 2.6-3.3 4.6-5.7 6.2-7.1 1.7-1.2 3.1-1.9 4.3-1.9zm4.4 27.8c-1.2 0-2.1.4-2.8 1.3-.7.8-1 2-1 3.4 0 2.2.8 4.4 2.4 6.6 1.6 2.2 3.2 3.3 4.8 3.3 1.1 0 2-.3 2.6-1 .7-.7 1-1.5 1-2.6 0-1.8-.4-3.6-1.2-5.6s-1.8-3.4-2.9-4.3c-.9-.7-1.9-1.1-2.9-1.1z"/>
  </g>
  <path fill="#7F3F98" d="M589.8 520.3c.1 0 .1.1.2.1"/>
  <path fill="#FDB943" stroke="#FDB943" stroke-width="4" stroke-miterlimit="10" d="M210.6 153.6c0 24.4-11.5 46.1-29.4 60-12.9 10-29 16-46.6 16-41.9 0-75.9-34-75.9-75.9 0-40.4 31.5-73.4 71.2-75.8 1.6-.1 3.1-.1 4.7-.1 42-.1 76 33.9 76 75.8z"/>
  <path fill="#FFF" stroke="#FDB943" stroke-width="4" stroke-miterlimit="10" d="M210.6 151.4c0 24.1-11.5 45.5-29.4 59.3L130 155.6V76.5c1.6-.1 3.1-.1 4.7-.1 41.9 0 75.9 33.6 75.9 75z"/>
  <g fill="#F9B943">
    <path d="M244.7 212.3c0 1.7-.3 3.2-.9 4.6-.6 1.4-1.4 2.6-2.5 3.7-1.1 1-2.3 1.8-3.7 2.4-1.4.6-3 .9-4.6.9-1.7 0-3.2-.3-4.6-.9-1.4-.6-2.7-1.4-3.7-2.4s-1.9-2.2-2.5-3.7c-.6-1.4-.9-3-.9-4.6 0-1.7.3-3.2.9-4.6.6-1.4 1.4-2.6 2.5-3.6 1-1 2.3-1.8 3.7-2.4s3-.9 4.6-.9c1.7 0 3.2.3 4.6.9s2.7 1.4 3.7 2.4c1.1 1 1.9 2.2 2.5 3.6.6 1.3.9 2.9.9 4.6zm-4.5 0c0-1-.2-2-.5-3-.3-.9-.8-1.8-1.4-2.5s-1.4-1.3-2.3-1.7c-.9-.4-1.9-.6-3.1-.6-1.2 0-2.2.2-3.1.6-.9.4-1.7 1-2.3 1.7s-1.1 1.6-1.4 2.5c-.3.9-.5 1.9-.5 3 0 1 .2 2 .5 3 .3.9.8 1.8 1.4 2.5s1.4 1.3 2.3 1.7c.9.4 1.9.6 3.1.6 1.2 0 2.2-.2 3.1-.6.9-.4 1.7-1 2.3-1.7s1.1-1.6 1.4-2.5c.3-1 .5-2 .5-3z"/>
    <path d="M261 205h-5.1v18.3h-4.3V205h-4.3v-3.5h4.3v-4.6c0-1.3.1-2.5.4-3.6.3-1.1.8-2 1.4-2.8.7-.8 1.5-1.4 2.5-1.9s2.3-.7 3.7-.7c1 0 1.9.1 2.7.3l-.5 3.7c-.3-.1-.7-.2-1-.2-.3-.1-.7-.1-1.1-.1-.8 0-1.5.1-2 .4-.5.3-.9.7-1.2 1.2-.3.5-.5 1.1-.6 1.7-.1.6-.1 1.3-.1 2v4.6h5.1v3.5z"/>
    <path d="M290.2 224c-2.1 0-4-.4-5.6-1.1-1.6-.7-2.9-1.7-4-2.9-1-1.2-1.8-2.6-2.3-4.1-.5-1.5-.8-3.2-.8-4.8v-20.5h4.6v20.2c0 1.1.1 2.2.4 3.3.3 1.1.7 2.1 1.4 2.9.6.9 1.5 1.5 2.5 2.1 1 .5 2.3.8 3.8.8s2.8-.3 3.8-.8 1.9-1.2 2.5-2.1c.6-.9 1.1-1.8 1.4-2.9.3-1.1.4-2.2.4-3.3v-20.2h4.6v20.5c0 1.7-.3 3.3-.8 4.8s-1.3 2.9-2.3 4.1c-1 1.2-2.4 2.2-4 2.9-1.6.8-3.4 1.1-5.6 1.1z"/>
    <path d="M326.7 196.7c-.6-.9-1.5-1.6-2.6-2.2-1.1-.6-2.3-.9-3.7-.9-.7 0-1.5.1-2.2.3-.8.2-1.4.5-2 1-.6.4-1.1 1-1.5 1.7-.4.7-.6 1.4-.6 2.4 0 .9.2 1.6.5 2.2.4.6.8 1.1 1.4 1.5.6.4 1.3.8 2.1 1.1.8.3 1.7.6 2.6.9 1.1.3 2.2.7 3.4 1.1 1.1.4 2.2 1 3.1 1.7.9.7 1.7 1.6 2.3 2.6.6 1.1.9 2.4.9 4 0 1.7-.3 3.2-.9 4.4-.6 1.2-1.5 2.3-2.5 3.1-1 .8-2.2 1.4-3.6 1.8-1.4.4-2.8.6-4.2.6-2.1 0-4-.4-6-1.2-1.9-.8-3.5-2-4.8-3.5l3.5-3c.8 1.1 1.8 2.1 3.1 2.8 1.3.7 2.7 1.1 4.2 1.1.8 0 1.5-.1 2.3-.3.8-.2 1.5-.6 2.1-1 .6-.5 1.1-1 1.5-1.7.4-.7.6-1.5.6-2.5s-.2-1.8-.6-2.5c-.4-.7-1-1.2-1.7-1.7s-1.5-.9-2.5-1.2c-.9-.3-1.9-.7-3-1-1-.3-2.1-.7-3.1-1.1-1-.4-1.9-1-2.7-1.7-.8-.7-1.4-1.5-1.9-2.6-.5-1-.7-2.3-.7-3.8 0-1.6.3-3 1-4.2.7-1.2 1.5-2.1 2.6-2.9 1.1-.8 2.3-1.3 3.6-1.7 1.3-.4 2.7-.5 4-.5 1.9 0 3.7.3 5.3 1 1.7.7 3 1.6 4 2.7l-3.3 3.2z"/>
    <path d="M352.5 204.7c.5-1.1 1.4-2 2.7-2.8 1.3-.8 2.7-1.1 4.2-1.1 1.4 0 2.6.2 3.6.7 1 .5 1.9 1.1 2.5 1.9.7.8 1.2 1.7 1.5 2.8.3 1.1.5 2.2.5 3.5v13.5h-4.3v-12.1c0-.9-.1-1.7-.2-2.5s-.4-1.5-.8-2.1c-.4-.6-.9-1.1-1.5-1.5-.6-.4-1.4-.6-2.5-.6-1.7 0-3.1.7-4.2 2s-1.7 3.1-1.7 5.2v11.6H348v-34.8h4.3l.2 16.3z"/>
    <path d="M396.9 212.3c0 1.7-.3 3.2-.9 4.6-.6 1.4-1.4 2.6-2.5 3.7-1.1 1-2.3 1.8-3.7 2.4-1.4.6-3 .9-4.6.9-1.7 0-3.2-.3-4.6-.9-1.4-.6-2.7-1.4-3.7-2.4s-1.9-2.2-2.5-3.7c-.6-1.4-.9-3-.9-4.6 0-1.7.3-3.2.9-4.6.6-1.4 1.4-2.6 2.5-3.6 1-1 2.3-1.8 3.7-2.4s3-.9 4.6-.9c1.7 0 3.2.3 4.6.9s2.7 1.4 3.7 2.4c1.1 1 1.9 2.2 2.5 3.6.6 1.3.9 2.9.9 4.6zm-4.5 0c0-1-.2-2-.5-3-.3-.9-.8-1.8-1.4-2.5s-1.4-1.3-2.3-1.7c-.9-.4-1.9-.6-3.1-.6-1.2 0-2.2.2-3.1.6-.9.4-1.7 1-2.3 1.7s-1.1 1.6-1.4 2.5c-.3.9-.5 1.9-.5 3 0 1 .2 2 .5 3 .3.9.8 1.8 1.4 2.5s1.4 1.3 2.3 1.7c.9.4 1.9.6 3.1.6 1.2 0 2.2-.2 3.1-.6.9-.4 1.7-1 2.3-1.7s1.1-1.6 1.4-2.5c.4-1 .5-2 .5-3z"/>
    <path d="M418.3 223.2c-.1-.6-.1-1.2-.1-1.9v-1.7h-.2c-.6 1.2-1.5 2.2-2.8 3-1.3.8-2.8 1.2-4.3 1.2-1.4 0-2.6-.2-3.7-.7-1-.5-1.9-1.1-2.5-1.9-.7-.8-1.1-1.8-1.5-2.8-.3-1.1-.5-2.2-.5-3.4v-13.5h4.3v12.1c0 .9.1 1.7.2 2.6.1.8.4 1.5.8 2.1.4.6.9 1.1 1.5 1.5.6.4 1.5.6 2.5.6 1.7 0 3.2-.7 4.2-2 1.1-1.3 1.6-3 1.6-5.2v-11.6h4.3V221c0 .9.1 1.7.1 2.4h-3.9z"/>
    <path d="M441.5 206.9c-.5-.8-1.2-1.4-2.1-2-.9-.5-1.9-.8-3-.8-.5 0-1 .1-1.5.2s-.9.3-1.3.5-.7.5-.9.9c-.2.4-.3.8-.3 1.3 0 .9.4 1.6 1.2 2 .8.4 2.1.9 3.7 1.2 1 .2 2 .5 2.9.9.9.3 1.7.8 2.3 1.3.7.5 1.2 1.1 1.5 1.8.4.7.6 1.5.6 2.5 0 1.3-.2 2.4-.7 3.3-.5.9-1.1 1.6-2 2.2-.8.6-1.7 1-2.8 1.2-1 .2-2.1.4-3.2.4-1.7 0-3.3-.3-4.9-1-1.6-.6-2.9-1.6-3.9-2.9l3.1-2.6c.6.9 1.4 1.6 2.4 2.2 1 .6 2.2.9 3.4.9.6 0 1.1-.1 1.6-.2s1-.3 1.4-.5c.4-.2.7-.6 1-1 .2-.4.4-.9.4-1.5 0-1-.5-1.8-1.4-2.3-1-.5-2.4-1-4.3-1.4-.7-.2-1.5-.4-2.2-.7-.8-.3-1.4-.6-2-1.1-.6-.5-1.1-1-1.5-1.7-.4-.7-.6-1.5-.6-2.6 0-1.2.2-2.2.7-3 .5-.8 1.1-1.5 1.9-2.1.8-.5 1.6-.9 2.6-1.2 1-.3 2-.4 3-.4 1.6 0 3.1.3 4.5.9 1.5.6 2.6 1.5 3.4 2.7l-3 2.6z"/>
    <path d="M470.5 212.1v1.4h-17.3c0 .9.2 1.8.6 2.6.4.8.9 1.5 1.5 2.1.6.6 1.4 1.1 2.2 1.4.8.3 1.7.5 2.7.5 1.5 0 2.7-.3 3.8-1 1.1-.6 1.9-1.4 2.5-2.3l3 2.4c-1.2 1.5-2.5 2.7-4.1 3.4-1.6.7-3.3 1.1-5.3 1.1-1.7 0-3.2-.3-4.6-.8-1.4-.6-2.6-1.3-3.6-2.3-1-1-1.8-2.2-2.4-3.6-.6-1.4-.9-3-.9-4.7 0-1.7.3-3.2.9-4.7.6-1.4 1.4-2.6 2.4-3.7 1-1 2.2-1.8 3.6-2.4s2.9-.9 4.5-.9 3 .3 4.4.8c1.3.5 2.4 1.3 3.3 2.3.9 1 1.6 2.2 2.1 3.6.4 1.5.7 3.1.7 4.8zm-4.4-1.7c0-.9-.2-1.7-.4-2.4-.3-.8-.6-1.4-1.2-2-.5-.6-1.1-1-1.9-1.3-.8-.3-1.6-.5-2.6-.5-.9 0-1.8.2-2.6.5s-1.5.8-2.1 1.3c-.6.6-1.1 1.2-1.5 2-.4.8-.6 1.6-.7 2.4h13z"/>
    <path d="M481 204.7c.5-1.1 1.4-2 2.7-2.8 1.3-.8 2.7-1.1 4.2-1.1 1.4 0 2.6.2 3.6.7 1 .5 1.9 1.1 2.5 1.9s1.2 1.7 1.5 2.8c.3 1.1.5 2.2.5 3.5v13.5h-4.3v-12.1c0-.9-.1-1.7-.2-2.5s-.4-1.5-.8-2.1c-.4-.6-.9-1.1-1.5-1.5-.6-.4-1.4-.6-2.5-.6-1.7 0-3.1.7-4.2 2s-1.7 3.1-1.7 5.2v11.6h-4.3v-34.8h4.3l.2 16.3z"/>
    <path d="M525.4 212.3c0 1.7-.3 3.2-.9 4.6-.6 1.4-1.4 2.6-2.5 3.7-1.1 1-2.3 1.8-3.7 2.4-1.4.6-3 .9-4.6.9-1.7 0-3.2-.3-4.6-.9-1.4-.6-2.7-1.4-3.7-2.4s-1.9-2.2-2.5-3.7c-.6-1.4-.9-3-.9-4.6 0-1.7.3-3.2.9-4.6.6-1.4 1.4-2.6 2.5-3.6 1-1 2.3-1.8 3.7-2.4s3-.9 4.6-.9c1.7 0 3.2.3 4.6.9s2.7 1.4 3.7 2.4c1.1 1 1.9 2.2 2.5 3.6.6 1.3.9 2.9.9 4.6zm-4.5 0c0-1-.2-2-.5-3-.3-.9-.8-1.8-1.4-2.5s-1.4-1.3-2.3-1.7c-.9-.4-1.9-.6-3.1-.6s-2.2.2-3.1.6-1.7 1-2.3 1.7-1.1 1.6-1.4 2.5c-.3.9-.5 1.9-.5 3 0 1 .2 2 .5 3 .3.9.8 1.8 1.4 2.5s1.4 1.3 2.3 1.7c.9.4 1.9.6 3.1.6s2.2-.2 3.1-.6c.9-.4 1.7-1 2.3-1.7s1.1-1.6 1.4-2.5c.3-1 .5-2 .5-3z"/>
    <path d="M535.8 223.2h-4.3v-34.8h4.3v34.8z"/>
    <path d="M560.7 219.8c-.8 1.3-2 2.3-3.4 3-1.4.7-2.9 1-4.5 1-1.7 0-3.2-.3-4.6-.9-1.4-.6-2.5-1.4-3.5-2.5-1-1-1.7-2.3-2.2-3.7-.5-1.4-.8-2.9-.8-4.5s.3-3.1.8-4.5 1.3-2.6 2.2-3.7c1-1 2.1-1.9 3.5-2.4 1.3-.6 2.8-.9 4.5-.9 1.8 0 3.3.4 4.6 1.1 1.3.8 2.4 1.7 3.1 2.7h.1v-16.2h4.3v34.8h-4.2l.1-3.3zm-14.3-7.5c0 1 .2 2 .5 2.9.3.9.8 1.8 1.4 2.5s1.4 1.3 2.3 1.8c.9.4 1.9.7 3.1.7 1.1 0 2.1-.2 3-.6.9-.4 1.7-1 2.3-1.7.6-.7 1.1-1.6 1.5-2.5.4-.9.5-1.9.5-3 0-1-.2-2-.5-3-.4-.9-.9-1.8-1.5-2.5s-1.4-1.3-2.3-1.7c-.9-.4-1.9-.6-3-.6-1.2 0-2.2.2-3.1.6-.9.4-1.6 1-2.3 1.7s-1.1 1.6-1.4 2.5c-.4.9-.5 1.9-.5 2.9z"/>
    <path d="M606.1 212.3c0 1.7-.3 3.2-.9 4.6-.6 1.4-1.4 2.6-2.5 3.7-1.1 1-2.3 1.8-3.7 2.4-1.4.6-3 .9-4.6.9-1.7 0-3.2-.3-4.6-.9-1.4-.6-2.7-1.4-3.7-2.4s-1.9-2.2-2.5-3.7c-.6-1.4-.9-3-.9-4.6 0-1.7.3-3.2.9-4.6.6-1.4 1.4-2.6 2.5-3.6 1-1 2.3-1.8 3.7-2.4s3-.9 4.6-.9c1.7 0 3.2.3 4.6.9s2.7 1.4 3.7 2.4c1.1 1 1.9 2.2 2.5 3.6.6 1.3.9 2.9.9 4.6zm-4.5 0c0-1-.2-2-.5-3-.3-.9-.8-1.8-1.4-2.5s-1.4-1.3-2.3-1.7c-.9-.4-1.9-.6-3.1-.6s-2.2.2-3.1.6-1.7 1-2.3 1.7-1.1 1.6-1.4 2.5c-.3.9-.5 1.9-.5 3 0 1 .2 2 .5 3 .3.9.8 1.8 1.4 2.5s1.4 1.3 2.3 1.7c.9.4 1.9.6 3.1.6s2.2-.2 3.1-.6c.9-.4 1.7-1 2.3-1.7s1.1-1.6 1.4-2.5c.4-1 .5-2 .5-3z"/>
    <path d="M613.7 201.4l4.9 16.7h.1l5.2-16.7h4.6l5.3 16.7h.1l4.9-16.7h4.6l-7.2 21.8h-4.5l-5.4-16.4h-.1l-5.3 16.4h-4.5l-7.3-21.8h4.6z"/>
    <path d="M651.6 201.4c.1.6.1 1.2.1 1.9v1.7h.1c.3-.6.7-1.1 1.1-1.6.5-.5 1-1 1.6-1.3.6-.4 1.3-.7 2-.9.7-.2 1.5-.3 2.3-.3 1.4 0 2.6.2 3.6.7 1 .5 1.9 1.1 2.5 1.9.7.8 1.2 1.7 1.5 2.8.3 1.1.5 2.2.5 3.5v13.5h-4.3v-12.1c0-.9-.1-1.7-.2-2.5s-.4-1.5-.8-2.1c-.4-.6-.9-1.1-1.5-1.5-.6-.4-1.5-.6-2.5-.6-1.7 0-3.1.7-4.2 2s-1.6 3-1.6 5.2v11.6h-4.3v-19.4c0-.9-.1-1.7-.1-2.4h4.2z"/>
    <path d="M699.5 209.1c0-1.6-.5-2.8-1.5-3.6-1-.8-2.3-1.2-3.9-1.2-1.2 0-2.4.2-3.5.7-1.1.5-2 1.1-2.7 1.8l-2.3-2.8c1.1-1 2.4-1.8 3.9-2.4 1.5-.6 3.2-.9 5-.9 1.6 0 2.9.2 4.1.7 1.1.4 2.1 1.1 2.8 1.8.7.8 1.3 1.7 1.7 2.7.4 1 .6 2.2.6 3.4v9.5c0 .7 0 1.5.1 2.3 0 .8.1 1.5.3 2h-3.9c-.2-1-.4-2.1-.4-3.1h-.1c-.8 1.2-1.8 2.1-3 2.7-1.2.6-2.6 1-4.3 1-.9 0-1.8-.1-2.7-.3s-1.8-.6-2.6-1.1c-.8-.5-1.4-1.2-1.9-2.1-.5-.9-.8-1.9-.8-3.2 0-1.7.4-3 1.3-3.9.9-1 2.1-1.7 3.5-2.2 1.4-.5 3.1-.8 4.9-1 1.8-.2 3.6-.2 5.5-.2v-.6zm-1 3.7c-1.1 0-2.2 0-3.3.1-1.2.1-2.2.3-3.1.6-.9.3-1.7.7-2.3 1.2-.6.6-.9 1.3-.9 2.2 0 .6.1 1.2.4 1.6.3.4.6.8 1 1.1.4.3.9.5 1.4.6.5.1 1.1.2 1.6.2 2 0 3.6-.6 4.7-1.8 1.1-1.2 1.6-2.7 1.6-4.6v-1.1h-1.1z"/>
    <path d="M726.7 234.3h-4.3v-32.8h4.2v3.4h.1c.7-1.2 1.7-2.1 3.1-2.9 1.4-.8 2.9-1.1 4.7-1.1 1.6 0 3.1.3 4.4.9 1.3.6 2.5 1.4 3.4 2.4 1 1 1.7 2.3 2.2 3.7.5 1.4.8 2.9.8 4.5s-.3 3.1-.8 4.5-1.3 2.6-2.2 3.7-2.1 1.9-3.4 2.5c-1.3.6-2.9.9-4.5.9s-3-.3-4.4-1c-1.4-.7-2.5-1.6-3.3-2.9h-.1v14.2zm14.3-22c0-1-.2-2-.5-2.9-.3-1-.8-1.8-1.4-2.5-.6-.7-1.4-1.3-2.3-1.7-.9-.4-2-.6-3.2-.6-1.1 0-2.1.2-3 .6-.9.4-1.7 1-2.3 1.7-.6.7-1.1 1.6-1.5 2.5-.4 1-.5 1.9-.5 3 0 1 .2 2 .5 3 .4 1 .9 1.8 1.5 2.5s1.4 1.3 2.3 1.7c.9.4 1.9.6 3 .6 1.2 0 2.2-.2 3.2-.7.9-.4 1.7-1 2.3-1.8.6-.7 1.1-1.6 1.4-2.5.4-.9.5-1.9.5-2.9z"/>
    <path d="M771.9 212.1v1.4h-17.3c0 .9.2 1.8.6 2.6.4.8.9 1.5 1.5 2.1.6.6 1.4 1.1 2.2 1.4.8.3 1.7.5 2.7.5 1.5 0 2.7-.3 3.8-1 1.1-.6 1.9-1.4 2.5-2.3l3 2.4c-1.2 1.5-2.5 2.7-4.1 3.4-1.6.7-3.3 1.1-5.3 1.1-1.7 0-3.2-.3-4.6-.8-1.4-.6-2.6-1.3-3.6-2.3-1-1-1.8-2.2-2.4-3.6-.6-1.4-.9-3-.9-4.7 0-1.7.3-3.2.9-4.7.6-1.4 1.4-2.6 2.4-3.7 1-1 2.2-1.8 3.6-2.4s2.9-.9 4.5-.9 3 .3 4.4.8c1.3.5 2.4 1.3 3.3 2.3.9 1 1.6 2.2 2.1 3.6.5 1.5.7 3.1.7 4.8zm-4.4-1.7c0-.9-.2-1.7-.4-2.4-.3-.8-.6-1.4-1.2-2-.5-.6-1.1-1-1.9-1.3-.8-.3-1.6-.5-2.6-.5-.9 0-1.8.2-2.6.5s-1.5.8-2.1 1.3c-.6.6-1.1 1.2-1.5 2-.4.8-.6 1.6-.7 2.4h13z"/>
    <path d="M788.6 205h-5.8v11.3c0 1.3.2 2.3.7 2.8.5.6 1.3.8 2.3.8.4 0 .8 0 1.3-.1s.9-.2 1.2-.4l.1 3.5c-.5.2-1.1.3-1.7.4-.6.1-1.3.2-2 .2-2.1 0-3.6-.6-4.7-1.7s-1.6-2.8-1.6-5.1V205h-4.2v-3.5h4.2v-6.3h4.3v6.3h5.8v3.5z"/>
  </g>
  <path fill="none" d="M232.7 107.2H436v176.6H232.7z"/>
  <path fill="#FDB943" d="M255.8 110.2c1.3 0 3.5.5 6.5 1.4 1.6.5 3 1.2 4.1 1.9s1.7 1.4 1.7 2c0 .5-.2.9-.5 1.4s-1.5 1.8-3.4 4c-1.2 1.3-2.3 2.9-3.3 4.8s-1.5 3.3-1.5 4.3c0 .5.1.9.4 1.2.3.3.6.5 1 .5.3 0 1.5-.3 3.3-1 2.6-.9 5-1.4 7.2-1.4 3.9 0 7.4 1.2 10.6 3.7 4.5 3.5 6.7 8.1 6.7 13.9 0 4.6-1.4 9-4.1 13.3-5 7.8-12.4 11.6-22.2 11.6-8.2 0-14.8-2.3-19.8-7.1-2.8-2.6-4.9-5.9-6.4-9.9-1.3-3.3-1.9-6.6-1.9-10 0-7.8 3.1-15.8 9.4-24 3-3.9 5.4-6.6 7.2-8.2 1.9-1.6 3.6-2.4 5-2.4zm5 32.2c-1.4 0-2.4.5-3.2 1.5-.8 1-1.2 2.3-1.2 4 0 2.6.9 5.1 2.7 7.6 1.8 2.5 3.7 3.8 5.6 3.8 1.3 0 2.3-.4 3.1-1.1.8-.8 1.2-1.8 1.2-3 0-2.1-.5-4.2-1.4-6.5-.9-2.2-2.1-3.9-3.4-5-1-.8-2.1-1.2-3.4-1.3z"/>
  <path fill="#FDB943" d="M326.3 170.6h-31.6c-2.8 0-4.2-.8-4.2-2.4 0-.8.3-1.6.9-2.2.6-.7 2.5-2.6 5.7-5.6 6-5.6 10.4-10.9 13.3-15.7 1.5-2.5 2.2-4.6 2.2-6.4 0-1.5-.4-2.8-1.3-3.7-.9-.9-2.1-1.4-3.6-1.4-1.4 0-2.5.2-3.2.6s-2.4 1.6-4.9 3.8c-.7.6-1.6.8-2.7.8-1.5 0-2.8-.6-4-1.7-1.2-1.1-1.8-2.4-1.8-3.7 0-1.2.6-2.6 1.7-4.1 1.1-1.5 2.6-3 4.4-4.3 6.7-4.8 14.1-7.2 22.2-7.2 6.2 0 11.3 1.2 15.4 3.6 1.8 1.1 3.3 2.6 4.4 4.5s1.7 4 1.7 6.1c0 5.4-3.7 11.3-11.2 17.6-2.7 2.2-4 3.9-4 5 0 .9.4 1.6 1.2 2.2.8.6 1.8.9 2.9.9 2.7 0 5.1-1.1 7.3-3.2 1.1-1.1 1.8-1.7 2.2-1.9.4-.2.8-.3 1.5-.3 2.7 0 4.1 2.3 4.1 7 0 2.3-.4 4.7-1.3 7.1-.9 2.4-2.1 4.4-3.6 6.2-1.6 1.9-3.4 2.8-5.3 2.8-.8 0-1.4-.2-1.9-.5s-1-.9-1.6-1.8c-.6-.9-1.1-1.4-1.6-1.7-.8-.3-1.8-.4-3.3-.4z"/>
  <path fill="#FDB943" d="M367.9 106.3c3.9 0 7.4 1.2 10.6 3.7 4.1 3.2 6.2 7.1 6.2 11.7 0 2.3-.6 4.5-1.7 6.7s-2.7 4-4.7 5.6c-3.8 3-8.2 4.5-13.3 4.5-5.2 0-9.4-1.5-12.6-4.5-2.9-2.8-4.4-6.3-4.4-10.5 0-5 1.8-9 5.3-12.1 1.8-1.5 4-2.8 6.6-3.7 2.6-1 5.3-1.4 8-1.4zm-3.2 7.2c-.8 0-1.5.3-2 1-.5.6-.8 1.5-.8 2.5 0 3.1.6 6.2 1.9 9.5.6 1.5 1.2 2.6 1.7 3.1.5.6 1.2.9 2.1.9 1.7 0 2.6-1.2 2.6-3.6 0-3.6-.7-6.9-2.1-10.2-.8-2.1-2-3.2-3.4-3.2zm11.3 34l14.1-23.8c3.7-6.5 6.3-11.1 7.6-13.8.8-1.6 1.5-2.6 2.2-3.2s1.8-.8 3.1-.8c2.9 0 4.4.7 4.4 2.2 0 1-1.2 3.3-3.6 6.9-1.8 2.6-4.3 6.7-7.7 12.2l-14.3 24.3c-3 5.4-5.7 10.5-8.3 15.1-.8 1.7-1.6 2.9-2.2 3.5s-1.5.9-2.6.9c-1.6 0-2.9-.2-3.9-.7-1-.5-1.5-1.1-1.5-1.8 0-.6.3-1.4 1-2.3.9-1.3 3.5-5.3 7.7-12l4-6.7zm29.7-8.7c3.9 0 7.4 1.2 10.6 3.7 4.1 3.2 6.2 7.1 6.2 11.7 0 2.3-.6 4.5-1.7 6.7s-2.7 4-4.7 5.6c-3.8 3-8.2 4.5-13.3 4.5-5.2 0-9.4-1.5-12.6-4.5-2.9-2.8-4.4-6.3-4.4-10.5 0-5 1.8-9 5.3-12.1 1.8-1.5 4-2.8 6.6-3.7 2.7-.9 5.3-1.4 8-1.4zm-3.2 7.2c-.8 0-1.5.3-2 1-.5.6-.8 1.5-.8 2.5 0 3.1.6 6.3 1.9 9.5.6 1.5 1.2 2.6 1.7 3.1.5.6 1.2.9 2.1.9 1.7 0 2.6-1.2 2.6-3.6 0-3.6-.7-6.9-2-10.2-.9-2.1-2-3.1-3.5-3.2z"/>
</svg>
