<?xml version="1.0" encoding="utf-8"?>
<!-- Generator: Adobe Illustrator 19.2.0, SVG Export Plug-In . SVG Version: 6.00 Build 0)  -->
<svg version="1.1" xmlns="http://www.w3.org/2000/svg" xmlns:xlink="http://www.w3.org/1999/xlink" x="0px" y="0px" width="812.2px"
	 height="1189.8px" viewBox="0 0 812.2 1189.8" enable-background="new 0 0 812.2 1189.8" xml:space="preserve">
<g id="a-little-introduction">
	<path fill="#7F3F98" d="M706.3,255.8c0,0.1-0.1,0.1-0.3,0C706.2,255.7,706.3,255.7,706.3,255.8z"/>
	<rect x="1.2" fill="#FDB943" width="810.1" height="46.6"/>
	<g>
		<rect x="171.1" y="10.5" fill="none" width="481.8" height="45.2"/>
		<path fill="#FFFFFF" d="M237.5,23.1l3.5,7.5c0.3,0.7,0.6,1.1,0.8,1.4c0.2,0.2,0.6,0.4,1,0.4c0.9,0.1,1.3,0.6,1.3,1.4
			c0,0.9-0.5,1.6-1.6,1.9c-1.1,0.4-2.9,0.6-5.3,0.6c-2.8,0-4.9-0.1-6.2-0.4c-0.6-0.1-1.1-0.3-1.5-0.7c-0.4-0.3-0.5-0.8-0.5-1.2
			c0-0.4,0.1-0.7,0.3-0.9c0.2-0.2,0.5-0.4,1.1-0.6c0.6-0.2,0.9-0.5,0.9-1c0-0.8-0.5-1.3-1.5-1.5c-1.1-0.1-2.6-0.2-4.5-0.2
			c-1.6,0-2.6,0.1-3,0.3c-0.2,0.1-0.4,0.3-0.5,0.7c-0.1,0.3-0.2,0.6-0.2,0.9c0,0.3,0.1,0.4,0.2,0.5c0.1,0.1,0.4,0.2,1,0.4
			c0.8,0.2,1.1,0.7,1.1,1.3c0,1.5-1.8,2.2-5.3,2.2c-2,0-3.5-0.1-4.4-0.4c-0.9-0.3-1.3-0.8-1.3-1.7c0-0.4,0.1-0.7,0.3-0.9
			c0.2-0.2,0.5-0.4,1-0.6c0.8-0.3,1.4-0.7,1.8-1.2c0.4-0.5,1-1.6,1.8-3.3l2.6-5.7c1-2.1,1.6-3.7,1.9-4.7c0.3-1,0.5-2.1,0.5-3.1
			c0-1.1,0.1-1.8,0.2-2.2c0.1-0.4,0.4-0.8,0.8-1.2c0.9-0.9,1.9-1.3,3.3-1.3c1.2,0,2.4,0.5,3.6,1.5C232.2,12.7,234.5,16.6,237.5,23.1
			z M224.6,25.4h3.6c0.7,0,1-0.1,1-0.4c0-0.4-0.5-1.4-1.4-3c-0.4-0.7-0.7-1.2-1-1.5c-0.2-0.2-0.5-0.4-0.7-0.4
			c-0.4,0-0.8,0.4-1.1,1.2c0,0.1-0.2,0.6-0.5,1.3c-0.5,1.3-0.8,2-0.8,2.3C223.7,25.3,224,25.4,224.6,25.4z"/>
		<path fill="#FFFFFF" d="M265,21.2v6c0,2.6,0,4.2,0.1,4.6c0.1,0.4,0.4,0.8,0.9,1c0.5,0.2,0.8,0.4,0.9,0.6c0.2,0.2,0.2,0.4,0.2,0.7
			c0,0.4-0.1,0.8-0.4,1.1c-0.3,0.3-0.7,0.6-1.2,0.7c-0.9,0.3-2.4,0.4-4.5,0.4c-2.4,0-4.1-0.2-5-0.5c-0.4-0.2-0.8-0.4-1.1-0.8
			c-0.3-0.3-0.4-0.7-0.4-1.1c0-0.3,0.1-0.5,0.2-0.7c0.2-0.2,0.5-0.4,1-0.6c0.5-0.2,0.8-0.8,0.9-1.7c0.2-1.6,0.3-3.9,0.3-6.9
			c0-3-0.1-5-0.3-5.8c-0.2-0.9-0.6-1.5-1.3-1.9c-0.5-0.3-0.9-0.6-1.1-0.8c-0.2-0.3-0.3-0.6-0.3-1c0-0.6,0.3-1.1,0.9-1.6
			c0.6-0.5,1.5-0.9,2.8-1.3c0.9-0.3,2-0.5,3.3-0.7c1.4-0.2,2.4-0.4,3-0.4c1,0,1.5,0.6,1.5,1.8c0,0.4-0.1,1.3-0.2,2.7
			C265.1,17.3,265,19.3,265,21.2z"/>
		<path fill="#FFFFFF" d="M278.6,18.7v10.8c0,0.9,0.1,1.5,0.2,1.9c0.2,0.4,0.5,0.8,0.9,1.1c0.4,0.3,0.6,0.5,0.8,0.7
			c0.1,0.2,0.2,0.4,0.2,0.7c0,1.6-2,2.4-6.1,2.4c-2.2,0-3.9-0.2-5.2-0.5c-0.4-0.1-0.8-0.3-1-0.6c-0.3-0.3-0.4-0.7-0.4-1.1
			c0-0.3,0.1-0.6,0.2-0.8c0.1-0.2,0.5-0.5,1-0.9c0.4-0.3,0.7-0.7,0.8-1.4c0.2-0.6,0.2-1.6,0.2-2.9c0-0.4,0-1.2-0.1-2.3
			c-0.1-1.1-0.1-1.8-0.1-2c-0.1-0.5-0.4-0.9-1-1.2c-0.8-0.3-1.2-0.8-1.2-1.5c0-0.8,0.5-1.4,1.5-1.7c1.4-0.5,2.9-1,4.5-1.4
			c1.6-0.4,2.8-0.6,3.7-0.6C278.2,17.5,278.6,17.9,278.6,18.7z M274.9,10.6c1.1,0,1.9,0.2,2.6,0.6c0.6,0.4,0.9,0.9,0.9,1.6
			c0,1-0.5,1.7-1.4,2.3c-1.5,0.9-3.3,1.3-5.5,1.3c-0.9,0-1.6-0.2-2.2-0.5c-0.7-0.4-1.1-1.1-1.1-1.9c0-1.1,0.8-1.9,2.3-2.5
			C272.1,10.9,273.6,10.6,274.9,10.6z"/>
		<path fill="#FFFFFF" d="M292.8,22.3v6.3c0,0.7,0.2,1.3,0.5,1.8c0.4,0.5,0.8,0.7,1.4,0.7c0.5,0,1.1-0.2,1.9-0.7
			c0.2-0.1,0.4-0.2,0.6-0.2c0.3,0,0.6,0.2,0.8,0.5c0.2,0.4,0.4,0.7,0.4,1.2c0,0.8-0.4,1.5-1.3,2.2c-1.8,1.5-3.9,2.2-6.4,2.2
			c-2,0-3.6-0.6-4.8-1.7c-1.2-1.1-1.8-2.6-1.8-4.4v-8.6c0-0.3,0-0.5-0.1-0.5c-0.1-0.1-0.2-0.1-0.5-0.1h-1.9c-0.4,0-0.6-0.1-0.7-0.2
			c-0.1-0.1-0.1-0.4-0.1-0.8v-0.8c0-0.4,0.2-0.6,0.4-0.8l8.5-5.3c0.2-0.1,0.5-0.2,0.8-0.2h1.5c0.3,0,0.5,0.1,0.6,0.2
			c0.1,0.1,0.2,0.4,0.2,0.8v2.5c0,0.4,0.1,0.6,0.2,0.7c0.1,0.1,0.4,0.2,0.8,0.2h3.4c0.5,0,0.8,0.1,0.9,0.3c0.1,0.2,0.2,0.5,0.2,1.1
			v1.1c0,0.6-0.1,1-0.3,1.2c-0.2,0.2-0.5,0.3-0.9,0.3h-3.4c-0.3,0-0.6,0.1-0.7,0.2C292.9,21.7,292.8,21.9,292.8,22.3z"/>
		<path fill="#FFFFFF" d="M310.4,22.3v6.3c0,0.7,0.2,1.3,0.5,1.8c0.4,0.5,0.8,0.7,1.4,0.7c0.5,0,1.1-0.2,1.9-0.7
			c0.2-0.1,0.4-0.2,0.6-0.2c0.3,0,0.6,0.2,0.8,0.5c0.2,0.4,0.4,0.7,0.4,1.2c0,0.8-0.4,1.5-1.3,2.2c-1.8,1.5-3.9,2.2-6.4,2.2
			c-2,0-3.6-0.6-4.8-1.7c-1.2-1.1-1.8-2.6-1.8-4.4v-8.6c0-0.3,0-0.5-0.1-0.5c-0.1-0.1-0.2-0.1-0.5-0.1h-1.9c-0.4,0-0.6-0.1-0.7-0.2
			c-0.1-0.1-0.1-0.4-0.1-0.8v-0.8c0-0.4,0.2-0.6,0.4-0.8l8.5-5.3c0.2-0.1,0.5-0.2,0.8-0.2h1.5c0.3,0,0.5,0.1,0.6,0.2
			c0.1,0.1,0.2,0.4,0.2,0.8v2.5c0,0.4,0.1,0.6,0.2,0.7c0.1,0.1,0.4,0.2,0.8,0.2h3.4c0.5,0,0.8,0.1,0.9,0.3c0.1,0.2,0.2,0.5,0.2,1.1
			v1.1c0,0.6-0.1,1-0.3,1.2c-0.2,0.2-0.5,0.3-0.9,0.3h-3.4c-0.3,0-0.6,0.1-0.7,0.2C310.5,21.7,310.4,21.9,310.4,22.3z"/>
		<path fill="#FFFFFF" d="M327.6,21.2v6c0,2.6,0,4.2,0.1,4.6c0.1,0.4,0.4,0.8,0.9,1c0.5,0.2,0.8,0.4,0.9,0.6
			c0.2,0.2,0.2,0.4,0.2,0.7c0,0.4-0.1,0.8-0.4,1.1c-0.3,0.3-0.7,0.6-1.2,0.7c-0.9,0.3-2.4,0.4-4.5,0.4c-2.4,0-4.1-0.2-5-0.5
			c-0.4-0.2-0.8-0.4-1.1-0.8c-0.3-0.3-0.4-0.7-0.4-1.1c0-0.3,0.1-0.5,0.2-0.7c0.2-0.2,0.5-0.4,1-0.6c0.5-0.2,0.8-0.8,0.9-1.7
			c0.2-1.6,0.3-3.9,0.3-6.9c0-3-0.1-5-0.3-5.8c-0.2-0.9-0.6-1.5-1.3-1.9c-0.5-0.3-0.9-0.6-1.1-0.8c-0.2-0.3-0.3-0.6-0.3-1
			c0-0.6,0.3-1.1,0.9-1.6c0.6-0.5,1.5-0.9,2.8-1.3c0.9-0.3,2-0.5,3.3-0.7c1.4-0.2,2.4-0.4,3-0.4c1,0,1.5,0.6,1.5,1.8
			c0,0.4-0.1,1.3-0.2,2.7C327.7,17.3,327.6,19.3,327.6,21.2z"/>
		<path fill="#FFFFFF" d="M348,27.6h-8.7c-0.4,0-0.6,0.2-0.6,0.5c0,0.8,0.4,1.6,1.3,2.3c0.9,0.7,1.8,1.1,2.8,1.1
			c0.6,0,1.3-0.1,2-0.3c0.7-0.2,1.3-0.5,1.8-0.8c0.4-0.3,0.8-0.4,1-0.4c0.3,0,0.6,0.2,0.9,0.6c0.3,0.4,0.5,0.8,0.5,1.2
			c0,0.9-0.6,1.8-1.7,2.6c-2,1.5-4.2,2.2-6.8,2.2c-2.6,0-4.8-0.8-6.5-2.3c-0.9-0.7-1.6-1.6-2.1-2.7c-0.7-1.4-1.1-2.9-1.1-4.4
			c0-2.1,0.6-3.9,1.9-5.6c1.1-1.4,2.5-2.5,4.2-3.2c1.3-0.5,2.6-0.8,4.1-0.8c2.4,0,4.3,0.7,6,2c0.8,0.7,1.5,1.5,2,2.4
			c0.6,1,0.9,2.1,0.9,3c0,0.8-0.2,1.5-0.5,2C349,27.3,348.5,27.6,348,27.6z M339.8,24.1h1.9c0.8,0,1.2-0.4,1.2-1.1
			c0-0.7-0.2-1.2-0.6-1.6c-0.4-0.4-0.9-0.6-1.5-0.6c-0.7,0-1.2,0.3-1.6,0.8c-0.4,0.5-0.6,1-0.6,1.5c0,0.4,0.1,0.6,0.3,0.8
			C339,24,339.3,24.1,339.8,24.1z"/>
		<path fill="#FFFFFF" d="M368.5,10.2c1.4,0,2.7,0.1,4,0.4c1.7,0.3,2.5,1,2.5,2.1c0,0.4-0.1,0.6-0.3,0.8c-0.2,0.2-0.6,0.4-1.3,0.8
			c-0.6,0.3-0.9,0.9-1.1,1.9c-0.2,1-0.3,2.8-0.3,5.6c0,4.7,0.1,7.7,0.4,8.8c0.1,0.4,0.2,0.6,0.4,0.8c0.2,0.2,0.5,0.4,0.9,0.6
			c0.8,0.4,1.2,0.9,1.2,1.6c0,1-0.8,1.7-2.3,2c-1.6,0.4-3.6,0.6-6,0.6c-4,0-6-0.8-6-2.3c0-0.6,0.4-1.1,1.2-1.6
			c0.6-0.4,1-0.9,1.1-1.5c0.2-1.4,0.4-4.4,0.4-9c0-3.2-0.2-5.2-0.5-6.1c-0.2-0.5-0.6-1-1.2-1.4c-0.5-0.3-0.8-0.6-1-0.8
			c-0.2-0.2-0.3-0.5-0.3-0.9c0-0.5,0.3-1,0.8-1.3c0.5-0.3,1.4-0.6,2.7-0.8C365.3,10.3,366.9,10.2,368.5,10.2z"/>
		<path fill="#FFFFFF" d="M398.7,24.3l0.3,6.5c0,0.5,0.1,0.9,0.2,1.1c0.1,0.2,0.5,0.7,1.1,1.4c0.2,0.2,0.3,0.5,0.3,0.8
			c0,0.8-0.5,1.4-1.5,1.7c-1,0.3-2.7,0.5-5.2,0.5c-1.7,0-2.9-0.1-3.6-0.4c-0.7-0.3-1.1-0.8-1.1-1.5c0-0.2,0-0.4,0.1-0.5
			c0.1-0.1,0.3-0.4,0.7-0.9c0.5-0.5,0.7-2.3,0.7-5.2c0-1.7-0.2-3-0.6-3.8c-0.3-0.7-0.9-1-1.8-1c-0.8,0-1.4,0.3-1.7,0.8
			c-0.3,0.5-0.5,1.5-0.5,2.9v3.7c0,0.7,0,1.2,0.1,1.5c0.1,0.3,0.4,0.8,0.9,1.6c0.1,0.2,0.2,0.5,0.2,0.8c0,0.7-0.5,1.3-1.5,1.6
			c-1,0.3-2.6,0.5-4.8,0.5c-3.4,0-5.2-0.7-5.2-2.1c0-0.3,0.1-0.5,0.2-0.7c0.1-0.2,0.4-0.4,0.8-0.7c0.3-0.2,0.5-0.5,0.6-0.8
			c0.1-0.3,0.2-1,0.2-2.2c0.1-1.4,0.1-2.9,0.1-4.4c0-0.9-0.1-1.4-0.2-1.7c-0.1-0.3-0.5-0.6-1.1-1c-0.5-0.3-0.8-0.7-0.8-1.2
			c0-0.5,0.2-0.9,0.6-1.2c0.4-0.3,1.3-0.7,2.7-1.2c1.2-0.4,2.3-0.8,3.4-1.1c1.1-0.3,1.9-0.4,2.3-0.4c0.4,0,0.7,0.1,0.9,0.4
			c0.3,0.3,0.4,0.6,0.4,1c0,0,0,0.2,0,0.5c0,0.1,0,0.2,0,0.3c0,0.6,0.2,0.9,0.7,0.9c0.3,0,0.6-0.2,0.9-0.7c1.1-1.5,2.6-2.3,4.6-2.3
			c1.6,0,2.9,0.4,4,1.2c0.8,0.6,1.3,1.3,1.6,2.1C398.5,21.6,398.7,22.7,398.7,24.3z"/>
		<path fill="#FFFFFF" d="M412.7,22.3v6.3c0,0.7,0.2,1.3,0.5,1.8c0.4,0.5,0.8,0.7,1.4,0.7c0.5,0,1.1-0.2,1.9-0.7
			c0.2-0.1,0.4-0.2,0.6-0.2c0.3,0,0.6,0.2,0.8,0.5c0.2,0.4,0.4,0.7,0.4,1.2c0,0.8-0.4,1.5-1.3,2.2c-1.8,1.5-3.9,2.2-6.4,2.2
			c-2,0-3.6-0.6-4.8-1.7c-1.2-1.1-1.8-2.6-1.8-4.4v-8.6c0-0.3,0-0.5-0.1-0.5c-0.1-0.1-0.2-0.1-0.5-0.1h-1.9c-0.4,0-0.6-0.1-0.7-0.2
			c-0.1-0.1-0.1-0.4-0.1-0.8v-0.8c0-0.4,0.2-0.6,0.4-0.8l8.5-5.3c0.2-0.1,0.5-0.2,0.8-0.2h1.5c0.3,0,0.5,0.1,0.6,0.2
			c0.1,0.1,0.2,0.4,0.2,0.8v2.5c0,0.4,0.1,0.6,0.2,0.7s0.4,0.2,0.8,0.2h3.4c0.5,0,0.8,0.1,0.9,0.3c0.1,0.2,0.2,0.5,0.2,1.1v1.1
			c0,0.6-0.1,1-0.3,1.2c-0.2,0.2-0.5,0.3-0.9,0.3h-3.4c-0.3,0-0.6,0.1-0.7,0.2C412.8,21.7,412.7,21.9,412.7,22.3z"/>
		<path fill="#FFFFFF" d="M428,17.5c0.7,0,1.1,0.1,1.2,0.3s0.3,0.8,0.4,1.8c0.1,0.5,0.3,0.8,0.6,0.8c0.2,0,0.5-0.2,0.7-0.5
			c1-1.5,2.3-2.3,3.9-2.3c1.1,0,2,0.4,2.8,1.1c0.3,0.4,0.6,0.8,0.9,1.4c0.2,0.6,0.3,1.1,0.3,1.6c0,0.6-0.1,1.2-0.4,1.8
			c-0.3,0.6-0.6,1.1-1.1,1.5c-0.8,0.8-1.8,1.1-2.9,1.1c-0.6,0-1.2-0.1-1.6-0.3s-1-0.7-1.7-1.4c-0.3-0.3-0.5-0.4-0.7-0.4
			c-0.3,0-0.6,0.2-0.7,0.6s-0.2,1.2-0.2,2.5c0,1.9,0.1,3.1,0.2,3.8c0.1,0.4,0.2,0.6,0.4,0.8c0.2,0.1,0.5,0.3,1,0.4
			c1.1,0.3,1.7,0.9,1.7,1.7c0,0.5-0.2,0.9-0.5,1.3c-0.4,0.4-0.8,0.6-1.4,0.8c-1.2,0.2-2.9,0.4-5.2,0.4c-2.2,0-3.9-0.2-5-0.6
			c-1-0.3-1.5-0.9-1.5-1.8c0-0.6,0.4-1.2,1.1-1.7c0.4-0.2,0.6-0.4,0.7-0.6c0.1-0.2,0.2-0.5,0.3-0.8c0.2-1.1,0.3-3.2,0.3-6.3
			c0-0.6-0.1-1-0.2-1.2c-0.1-0.2-0.4-0.4-0.7-0.6c-0.9-0.3-1.3-0.8-1.3-1.5c0-0.6,0.3-1.1,0.9-1.5c0.6-0.4,1.6-0.9,3-1.3
			C425,17.8,426.6,17.5,428,17.5z"/>
		<path fill="#FFFFFF" d="M450.6,17.4c2.3,0,4.2,0.6,6,1.8c1.2,0.8,2.2,1.9,3,3.3c0.8,1.4,1.2,2.9,1.2,4.4c0,2.7-1.2,5-3.7,6.8
			c-2.4,1.8-5,2.7-8.1,2.7c-3,0-5.4-0.8-7.2-2.5c-1.8-1.6-2.7-3.8-2.7-6.4c0-2.9,1.1-5.3,3.3-7.2C444.6,18.4,447.4,17.4,450.6,17.4z
			 M449.2,21.7c-0.5,0-1,0.2-1.3,0.6c-0.3,0.4-0.5,0.9-0.5,1.6c0,0.7,0.1,1.8,0.4,3s0.6,2.4,1,3.4c0.4,1,1,1.5,1.9,1.5
			c1.1,0,1.7-0.7,1.7-2.1c0-1-0.1-2.2-0.4-3.5c-0.3-1.3-0.6-2.4-1-3.2C450.5,22.1,449.9,21.7,449.2,21.7z"/>
		<path fill="#FFFFFF" d="M483.7,12V29c0,1,0,1.6,0.1,1.9c0.1,0.3,0.3,0.5,0.7,0.8c0.4,0.3,0.7,0.6,0.9,0.8c0.2,0.2,0.2,0.5,0.2,0.9
			c0,1-1,1.7-3,2.3c-1.8,0.5-3.6,0.7-5.4,0.7c-0.4,0-0.7-0.1-0.8-0.2c-0.1-0.1-0.2-0.4-0.2-0.8c-0.1-0.6-0.3-0.9-0.7-0.9
			c-0.2,0-0.5,0.2-1,0.6c-1.3,1-2.7,1.5-4.2,1.5c-1.9,0-3.6-0.7-5.2-2.1c-0.9-0.9-1.6-1.8-2.2-3c-0.7-1.4-1.1-2.9-1.1-4.4
			c0-1.7,0.5-3.4,1.4-5c0.9-1.5,2.1-2.6,3.6-3.5c1.3-0.7,2.6-1,3.8-1c1.4,0,2.7,0.3,3.9,1c0.2,0.1,0.3,0.1,0.4,0.1
			c0.4,0,0.6-0.5,0.6-1.6c0-0.5-0.1-0.8-0.3-1c-0.2-0.2-0.6-0.4-1.2-0.6c-0.8-0.2-1.2-0.7-1.2-1.3c0-0.9,0.9-1.6,2.7-2.1
			c3.2-0.9,5.3-1.3,6.4-1.3C483.2,10.5,483.7,11,483.7,12z M473.6,21.4c-0.8,0-1.4,0.4-1.9,1.3c-0.6,1.1-0.9,2.6-0.9,4.5
			c0,1.7,0.3,3,0.9,3.8c0.4,0.6,1,0.9,1.8,0.9c0.8,0,1.4-0.5,1.8-1.4c0.4-0.9,0.5-2.4,0.5-4.5c0-1.9-0.2-3.2-0.6-3.8
			C474.8,21.7,474.3,21.4,473.6,21.4z"/>
		<path fill="#FFFFFF" d="M496.9,18.5v10.1c0,2.2,0.7,3.2,2.1,3.2c0.4,0,0.7-0.1,1.1-0.3c0.3-0.2,0.6-0.5,0.7-0.8
			c0.3-0.6,0.4-1.9,0.4-4c0-2-0.1-3.4-0.2-4.2c0-0.3-0.1-0.5-0.3-0.7c-0.1-0.1-0.4-0.3-0.7-0.5c-0.7-0.4-1.1-0.8-1.1-1.4
			c0-0.8,0.6-1.3,1.8-1.6c2.3-0.6,4.6-0.9,6.8-0.9c1.2,0,1.9,0.7,1.9,2c0,0.1,0,0.4,0,0.8c0,0.6,0,1.3-0.1,2.2v8.2
			c0,0.4,0.4,0.8,1.1,1.2c0.6,0.3,0.9,0.7,0.9,1.3c0,1.1-1.3,2-4,2.6c-1.5,0.4-3,0.5-4.5,0.5c-0.6,0-1-0.1-1.2-0.2
			c-0.2-0.1-0.3-0.4-0.4-0.8c-0.1-0.8-0.3-1.2-0.7-1.2c-0.1,0-0.3,0-0.4,0.1c-0.1,0.1-0.5,0.3-1.1,0.8c-1.2,0.9-2.6,1.3-4,1.3
			c-2.4,0-4.1-0.7-5-2.1c-0.8-1.2-1.2-3.1-1.2-5.8c0-1,0-1.9,0-2.6c0-0.4,0-0.7,0-0.9c0-1.1-0.1-1.8-0.3-2.3c-0.2-0.5-0.5-0.9-1-1.2
			c-0.5-0.2-0.8-0.4-0.9-0.6c-0.1-0.1-0.2-0.4-0.2-0.6c0-0.9,0.7-1.6,2.1-1.9c2.4-0.5,4.8-0.8,7.3-0.8
			C496.5,17.5,496.9,17.8,496.9,18.5z"/>
		<path fill="#FFFFFF" d="M523.1,17.4c2.2,0,4.1,0.6,5.8,1.7c1.6,1.1,2.4,2.4,2.4,3.9c0,1.1-0.4,1.9-1.1,2.6
			c-0.7,0.6-1.5,0.9-2.5,0.9c-1,0-1.8-0.4-2.3-1.1c-0.2-0.2-0.4-0.8-0.7-1.8c-0.3-1-1-1.6-1.9-1.6c-0.7,0-1.3,0.3-1.7,0.9
			c-0.5,0.6-0.7,1.3-0.7,2.2c0,1.5,0.5,2.8,1.6,4c0.9,0.9,2,1.4,3.3,1.4c0.6,0,1.1-0.1,1.6-0.2c0.4-0.1,1-0.3,1.7-0.6
			c0.2-0.1,0.4-0.1,0.6-0.1c0.4,0,0.8,0.2,1.1,0.6c0.3,0.4,0.5,0.9,0.5,1.4c0,0.6-0.2,1.1-0.7,1.8c-0.5,0.6-1.1,1.1-1.8,1.6
			c-1.6,1-3.5,1.5-5.7,1.5c-2.5,0-4.7-0.7-6.5-2.2c-2.3-1.9-3.5-4.3-3.5-7.2c0-2.8,1.1-5.1,3.2-6.9
			C517.7,18.3,520.2,17.4,523.1,17.4z"/>
		<path fill="#FFFFFF" d="M543.5,22.3v6.3c0,0.7,0.2,1.3,0.5,1.8c0.4,0.5,0.8,0.7,1.4,0.7c0.5,0,1.1-0.2,1.9-0.7
			c0.2-0.1,0.4-0.2,0.6-0.2c0.3,0,0.6,0.2,0.8,0.5c0.2,0.4,0.4,0.7,0.4,1.2c0,0.8-0.4,1.5-1.3,2.2c-1.8,1.5-3.9,2.2-6.4,2.2
			c-2,0-3.6-0.6-4.8-1.7c-1.2-1.1-1.8-2.6-1.8-4.4v-8.6c0-0.3,0-0.5-0.1-0.5c-0.1-0.1-0.2-0.1-0.5-0.1h-1.9c-0.4,0-0.6-0.1-0.7-0.2
			c-0.1-0.1-0.1-0.4-0.1-0.8v-0.8c0-0.4,0.2-0.6,0.4-0.8l8.5-5.3c0.2-0.1,0.5-0.2,0.8-0.2h1.5c0.3,0,0.5,0.1,0.6,0.2
			c0.1,0.1,0.2,0.4,0.2,0.8v2.5c0,0.4,0.1,0.6,0.2,0.7c0.1,0.1,0.4,0.2,0.8,0.2h3.4c0.5,0,0.8,0.1,0.9,0.3c0.1,0.2,0.2,0.5,0.2,1.1
			v1.1c0,0.6-0.1,1-0.3,1.2c-0.2,0.2-0.5,0.3-0.9,0.3h-3.4c-0.3,0-0.6,0.1-0.7,0.2C543.6,21.7,543.5,21.9,543.5,22.3z"/>
		<path fill="#FFFFFF" d="M560.4,18.7v10.8c0,0.9,0.1,1.5,0.2,1.9c0.2,0.4,0.5,0.8,0.9,1.1c0.4,0.3,0.6,0.5,0.8,0.7
			c0.1,0.2,0.2,0.4,0.2,0.7c0,1.6-2,2.4-6.1,2.4c-2.2,0-3.9-0.2-5.2-0.5c-0.4-0.1-0.8-0.3-1-0.6c-0.3-0.3-0.4-0.7-0.4-1.1
			c0-0.3,0.1-0.6,0.2-0.8c0.1-0.2,0.5-0.5,1-0.9c0.4-0.3,0.7-0.7,0.8-1.4c0.2-0.6,0.2-1.6,0.2-2.9c0-0.4,0-1.2-0.1-2.3
			c-0.1-1.1-0.1-1.8-0.1-2c-0.1-0.5-0.4-0.9-1-1.2c-0.8-0.3-1.2-0.8-1.2-1.5c0-0.8,0.5-1.4,1.5-1.7c1.4-0.5,2.9-1,4.5-1.4
			c1.6-0.4,2.8-0.6,3.7-0.6C560.1,17.5,560.4,17.9,560.4,18.7z M556.7,10.6c1.1,0,1.9,0.2,2.6,0.6c0.6,0.4,0.9,0.9,0.9,1.6
			c0,1-0.5,1.7-1.4,2.3c-1.5,0.9-3.3,1.3-5.5,1.3c-0.9,0-1.6-0.2-2.2-0.5c-0.7-0.4-1.1-1.1-1.1-1.9c0-1.1,0.8-1.9,2.3-2.5
			C553.9,10.9,555.4,10.6,556.7,10.6z"/>
		<path fill="#FFFFFF" d="M575.1,17.4c2.3,0,4.2,0.6,6,1.8c1.2,0.8,2.2,1.9,3,3.3c0.8,1.4,1.2,2.9,1.2,4.4c0,2.7-1.2,5-3.7,6.8
			c-2.4,1.8-5,2.7-8.1,2.7c-3,0-5.4-0.8-7.2-2.5c-1.8-1.6-2.7-3.8-2.7-6.4c0-2.9,1.1-5.3,3.3-7.2C569.1,18.4,571.9,17.4,575.1,17.4z
			 M573.6,21.7c-0.5,0-1,0.2-1.3,0.6c-0.3,0.4-0.5,0.9-0.5,1.6c0,0.7,0.1,1.8,0.4,3c0.3,1.3,0.6,2.4,1,3.4c0.4,1,1,1.5,1.9,1.5
			c1.1,0,1.7-0.7,1.7-2.1c0-1-0.1-2.2-0.4-3.5c-0.3-1.3-0.6-2.4-1-3.2C574.9,22.1,574.4,21.7,573.6,21.7z"/>
		<path fill="#FFFFFF" d="M609,24.3l0.3,6.5c0,0.5,0.1,0.9,0.2,1.1c0.1,0.2,0.5,0.7,1.1,1.4c0.2,0.2,0.3,0.5,0.3,0.8
			c0,0.8-0.5,1.4-1.5,1.7c-1,0.3-2.7,0.5-5.2,0.5c-1.7,0-2.9-0.1-3.6-0.4c-0.7-0.3-1.1-0.8-1.1-1.5c0-0.2,0-0.4,0.1-0.5
			c0.1-0.1,0.3-0.4,0.7-0.9c0.5-0.5,0.7-2.3,0.7-5.2c0-1.7-0.2-3-0.6-3.8c-0.3-0.7-0.9-1-1.8-1c-0.8,0-1.4,0.3-1.7,0.8
			c-0.3,0.5-0.5,1.5-0.5,2.9v3.7c0,0.7,0,1.2,0.1,1.5c0.1,0.3,0.4,0.8,0.9,1.6c0.1,0.2,0.2,0.5,0.2,0.8c0,0.7-0.5,1.3-1.5,1.6
			c-1,0.3-2.6,0.5-4.8,0.5c-3.4,0-5.2-0.7-5.2-2.1c0-0.3,0.1-0.5,0.2-0.7c0.1-0.2,0.4-0.4,0.8-0.7c0.3-0.2,0.5-0.5,0.6-0.8
			c0.1-0.3,0.2-1,0.2-2.2c0.1-1.4,0.1-2.9,0.1-4.4c0-0.9-0.1-1.4-0.2-1.7c-0.1-0.3-0.5-0.6-1.1-1c-0.5-0.3-0.8-0.7-0.8-1.2
			c0-0.5,0.2-0.9,0.6-1.2c0.4-0.3,1.3-0.7,2.7-1.2c1.2-0.4,2.3-0.8,3.4-1.1c1.1-0.3,1.9-0.4,2.3-0.4c0.4,0,0.7,0.1,0.9,0.4
			c0.3,0.3,0.4,0.6,0.4,1c0,0,0,0.2,0,0.5c0,0.1,0,0.2,0,0.3c0,0.6,0.2,0.9,0.7,0.9c0.3,0,0.6-0.2,0.9-0.7c1.1-1.5,2.6-2.3,4.6-2.3
			c1.6,0,2.9,0.4,4,1.2c0.8,0.6,1.3,1.3,1.6,2.1C608.8,21.6,608.9,22.7,609,24.3z"/>
	</g>
	<g>
		<polygon fill="none" points="338,99.8 347,99.8 347,99.8 338,99.8 		"/>
	</g>
</g>
<g id="pets-own-in-millions">
	<rect id="red-rectangle-usmillions" x="1.2" y="295.8" fill="#FDB943" width="811" height="135.8"/>

		<rect id="red-rectangle-usmillions_1_" x="1.2" y="433.6" fill="#8E1923" stroke="#F9B943" stroke-width="2" stroke-linecap="round" stroke-linejoin="round" stroke-miterlimit="10" width="810.1" height="135.8"/>

		<rect id="red-rectangle-usmillions_2_" x="1.2" y="562.1" fill="#8E1923" stroke="#F9B943" stroke-width="2" stroke-linecap="round" stroke-linejoin="round" stroke-miterlimit="10" width="810.1" height="135.8"/>

		<rect id="red-rectangle-usmillions_3_" x="1.2" y="697.9" fill="#8E1923" stroke="#F9B943" stroke-width="2" stroke-linecap="round" stroke-linejoin="round" stroke-miterlimit="10" width="810.1" height="135.8"/>

		<rect id="red-rectangle-usmillions_4_" x="1" y="833.2" fill="#8E1923" stroke="#F9B943" stroke-width="2" stroke-linecap="round" stroke-linejoin="round" stroke-miterlimit="10" width="810.1" height="135.8"/>

		<rect id="red-rectangle-usmillions_5_" x="1.2" y="970" fill="#8E1923" stroke="#F9B943" stroke-width="2" stroke-linecap="round" stroke-linejoin="round" stroke-miterlimit="10" width="810.1" height="135.8"/>
	<g>

			<path fill="#8E1923" stroke="#F9B943" stroke-width="2" stroke-linecap="round" stroke-linejoin="round" stroke-miterlimit="10" d="
			M33.5,330.1h14.3c2,0,4,0.2,5.9,0.6c1.9,0.4,3.6,1.1,5,2c1.4,0.9,2.6,2.2,3.5,3.8c0.9,1.6,1.3,3.6,1.3,5.9c0,2.7-0.5,4.8-1.4,6.5
			c-0.9,1.6-2.2,2.9-3.7,3.8s-3.4,1.5-5.4,1.8c-2.1,0.3-4.2,0.5-6.4,0.5H41v17.6h-7.6V330.1z M45.6,348.6c1.1,0,2.2,0,3.4-0.1
			c1.2-0.1,2.2-0.3,3.2-0.7c1-0.4,1.8-1,2.4-1.8c0.6-0.8,0.9-1.9,0.9-3.4c0-1.3-0.3-2.4-0.8-3.1c-0.6-0.8-1.3-1.4-2.2-1.8
			c-0.9-0.4-1.9-0.7-2.9-0.8c-1.1-0.1-2.1-0.2-3.1-0.2H41v11.9H45.6z"/>

			<path fill="#8E1923" stroke="#F9B943" stroke-width="2" stroke-linecap="round" stroke-linejoin="round" stroke-miterlimit="10" d="
			M75.2,360.7c0.2,2.2,1.1,3.8,2.5,5c1.4,1.2,3.2,1.8,5.2,1.8c1.8,0,3.3-0.4,4.5-1.1c1.2-0.7,2.3-1.7,3.2-2.8l5.2,3.9
			c-1.7,2.1-3.6,3.6-5.6,4.4c-2.1,0.9-4.3,1.3-6.5,1.3c-2.2,0-4.2-0.4-6.1-1.1c-1.9-0.7-3.6-1.7-5-3.1c-1.4-1.3-2.5-2.9-3.3-4.8
			c-0.8-1.9-1.2-3.9-1.2-6.2c0-2.3,0.4-4.4,1.2-6.2c0.8-1.9,1.9-3.5,3.3-4.8c1.4-1.3,3.1-2.3,5-3.1c1.9-0.7,4-1.1,6.1-1.1
			c2,0,3.8,0.4,5.5,1c1.7,0.7,3.1,1.7,4.3,3c1.2,1.3,2.1,3,2.8,4.9c0.7,1.9,1,4.2,1,6.7v2H75.2z M90,355.3c0-2.1-0.7-3.8-2-5
			c-1.3-1.2-3.1-1.8-5.3-1.8c-2.2,0-3.9,0.6-5.1,1.9c-1.3,1.2-2,2.9-2.3,5H90z"/>

			<path fill="#8E1923" stroke="#F9B943" stroke-width="2" stroke-linecap="round" stroke-linejoin="round" stroke-miterlimit="10" d="
			M100.6,349.9v-6.1h5.9v-8.3h7.2v8.3h7.9v6.1h-7.9v12.6c0,1.4,0.3,2.6,0.8,3.4c0.5,0.8,1.6,1.3,3.2,1.3c0.6,0,1.3-0.1,2.1-0.2
			c0.8-0.1,1.4-0.4,1.8-0.7v6.1c-0.8,0.4-1.7,0.6-2.8,0.8c-1.1,0.1-2.1,0.2-2.9,0.2c-1.9,0-3.5-0.2-4.7-0.6
			c-1.2-0.4-2.2-1.1-2.9-1.9c-0.7-0.9-1.2-1.9-1.4-3.2c-0.3-1.3-0.4-2.8-0.4-4.4v-13.2H100.6z"/>

			<path fill="#8E1923" stroke="#F9B943" stroke-width="2" stroke-linecap="round" stroke-linejoin="round" stroke-miterlimit="10" d="
			M142.6,351.8c-1.4-2-3.3-2.9-5.6-2.9c-1,0-1.9,0.2-2.8,0.7c-0.9,0.5-1.4,1.3-1.4,2.3c0,0.9,0.4,1.5,1.1,1.9c0.8,0.4,1.7,0.7,2.9,1
			c1.2,0.3,2.4,0.6,3.8,0.9c1.3,0.3,2.6,0.8,3.8,1.4c1.2,0.6,2.1,1.5,2.9,2.5c0.8,1.1,1.1,2.6,1.1,4.4c0,1.7-0.4,3.2-1.1,4.4
			c-0.7,1.2-1.7,2.1-2.9,2.9c-1.2,0.7-2.5,1.2-4,1.6c-1.5,0.3-3,0.5-4.4,0.5c-2.2,0-4.3-0.3-6.2-1c-1.9-0.6-3.6-1.8-5-3.5l4.8-4.5
			c0.9,1,1.9,1.9,3,2.6c1.1,0.7,2.3,1,3.9,1c0.5,0,1.1-0.1,1.6-0.2c0.6-0.1,1.1-0.3,1.6-0.6c0.5-0.3,0.9-0.6,1.2-1
			c0.3-0.4,0.4-0.9,0.4-1.5c0-1-0.4-1.7-1.1-2.2c-0.8-0.5-1.7-0.9-2.9-1.2c-1.2-0.3-2.4-0.6-3.8-0.8c-1.3-0.3-2.6-0.7-3.8-1.3
			c-1.2-0.6-2.1-1.4-2.9-2.4c-0.8-1-1.1-2.5-1.1-4.3c0-1.6,0.3-3,1-4.2c0.7-1.2,1.5-2.1,2.6-2.9c1.1-0.8,2.3-1.3,3.7-1.7
			c1.4-0.4,2.8-0.5,4.3-0.5c1.9,0,3.8,0.3,5.7,1c1.9,0.7,3.4,1.8,4.6,3.4L142.6,351.8z"/>

			<path fill="#8E1923" stroke="#F9B943" stroke-width="2" stroke-linecap="round" stroke-linejoin="round" stroke-miterlimit="10" d="
			M170.2,358.2c0-2.3,0.4-4.4,1.2-6.2c0.8-1.9,1.9-3.5,3.3-4.8c1.4-1.3,3.1-2.3,5-3.1c1.9-0.7,4-1.1,6.1-1.1c2.2,0,4.2,0.4,6.1,1.1
			c1.9,0.7,3.6,1.7,5,3.1c1.4,1.3,2.5,2.9,3.3,4.8c0.8,1.9,1.2,3.9,1.2,6.2c0,2.3-0.4,4.4-1.2,6.2c-0.8,1.9-1.9,3.4-3.3,4.8
			c-1.4,1.3-3.1,2.3-5,3.1c-1.9,0.7-4,1.1-6.1,1.1c-2.2,0-4.2-0.4-6.1-1.1c-1.9-0.7-3.6-1.7-5-3.1c-1.4-1.3-2.5-2.9-3.3-4.8
			C170.6,362.6,170.2,360.5,170.2,358.2z M177.4,358.2c0,1.1,0.2,2.2,0.6,3.2c0.4,1,0.9,2,1.7,2.8c0.7,0.8,1.6,1.4,2.7,1.9
			c1,0.5,2.2,0.7,3.5,0.7c1.3,0,2.5-0.2,3.5-0.7c1-0.5,1.9-1.1,2.7-1.9c0.7-0.8,1.3-1.7,1.7-2.8c0.4-1,0.6-2.1,0.6-3.2
			c0-1.1-0.2-2.2-0.6-3.2c-0.4-1-0.9-2-1.7-2.8c-0.7-0.8-1.6-1.4-2.7-1.9c-1-0.5-2.2-0.7-3.5-0.7c-1.3,0-2.5,0.2-3.5,0.7
			c-1,0.5-1.9,1.1-2.7,1.9c-0.7,0.8-1.3,1.7-1.7,2.8C177.6,356,177.4,357.1,177.4,358.2z"/>

			<path fill="#8E1923" stroke="#F9B943" stroke-width="2" stroke-linecap="round" stroke-linejoin="round" stroke-miterlimit="10" d="
			M204.4,343.8h7.8l6.2,20.2h0.1l5.8-20.2h7.8l6.2,20.2h0.1l6-20.2h7.3l-9.8,28.8h-7.1l-6.8-19.7h-0.1l-6.1,19.7h-7.4L204.4,343.8z"
			/>

			<path fill="#8E1923" stroke="#F9B943" stroke-width="2" stroke-linecap="round" stroke-linejoin="round" stroke-miterlimit="10" d="
			M256,343.8h6.8v4.6h0.1c0.7-1.4,1.7-2.7,3.1-3.8c1.4-1.1,3.3-1.6,5.7-1.6c1.9,0,3.5,0.3,4.9,1c1.3,0.6,2.4,1.5,3.3,2.5
			c0.8,1,1.4,2.2,1.8,3.6c0.4,1.4,0.5,2.8,0.5,4.3v18.2h-7.2V358c0-0.8,0-1.7-0.1-2.7c-0.1-1-0.3-1.9-0.6-2.8
			c-0.3-0.9-0.9-1.6-1.6-2.2c-0.7-0.6-1.7-0.9-2.9-0.9c-1.2,0-2.2,0.2-3,0.6c-0.8,0.4-1.5,0.9-2,1.6c-0.5,0.7-0.9,1.5-1.2,2.3
			c-0.2,0.9-0.4,1.8-0.4,2.8v15.7H256V343.8z"/>

			<path fill="#8E1923" stroke="#F9B943" stroke-width="2" stroke-linecap="round" stroke-linejoin="round" stroke-miterlimit="10" d="
			M296.2,360.7c0.2,2.2,1.1,3.8,2.5,5c1.4,1.2,3.2,1.8,5.2,1.8c1.8,0,3.3-0.4,4.5-1.1c1.2-0.7,2.3-1.7,3.2-2.8l5.2,3.9
			c-1.7,2.1-3.6,3.6-5.6,4.4c-2.1,0.9-4.3,1.3-6.5,1.3c-2.2,0-4.2-0.4-6.1-1.1c-1.9-0.7-3.6-1.7-5-3.1c-1.4-1.3-2.5-2.9-3.3-4.8
			c-0.8-1.9-1.2-3.9-1.2-6.2c0-2.3,0.4-4.4,1.2-6.2c0.8-1.9,1.9-3.5,3.3-4.8c1.4-1.3,3.1-2.3,5-3.1c1.9-0.7,4-1.1,6.1-1.1
			c2,0,3.8,0.4,5.5,1c1.7,0.7,3.1,1.7,4.3,3s2.1,3,2.8,4.9c0.7,1.9,1,4.2,1,6.7v2H296.2z M311,355.3c0-2.1-0.7-3.8-2-5
			c-1.3-1.2-3.1-1.8-5.3-1.8c-2.2,0-3.9,0.6-5.1,1.9c-1.3,1.2-2,2.9-2.3,5H311z"/>

			<path fill="#8E1923" stroke="#F9B943" stroke-width="2" stroke-linecap="round" stroke-linejoin="round" stroke-miterlimit="10" d="
			M347.7,368.3h-0.1c-1,1.8-2.4,3-4.2,3.8s-3.7,1.2-5.7,1.2c-2.2,0-4.2-0.4-6-1.2c-1.7-0.8-3.2-1.8-4.5-3.2c-1.2-1.4-2.2-3-2.8-4.8
			c-0.6-1.8-1-3.8-1-5.9c0-2.1,0.3-4.1,1-5.9c0.7-1.8,1.6-3.4,2.8-4.8c1.2-1.4,2.7-2.4,4.4-3.2c1.7-0.8,3.6-1.2,5.6-1.2
			c1.4,0,2.6,0.1,3.6,0.4c1,0.3,2,0.6,2.8,1.1c0.8,0.4,1.5,0.9,2,1.4c0.6,0.5,1,1,1.4,1.5h0.2v-20.2h7.2v45.4h-6.8V368.3z
			 M330.7,358.2c0,1.1,0.2,2.2,0.6,3.2c0.4,1,0.9,2,1.7,2.8c0.7,0.8,1.6,1.4,2.7,1.9s2.2,0.7,3.5,0.7c1.3,0,2.5-0.2,3.5-0.7
			s1.9-1.1,2.7-1.9c0.7-0.8,1.3-1.7,1.7-2.8c0.4-1,0.6-2.1,0.6-3.2c0-1.1-0.2-2.2-0.6-3.2c-0.4-1-0.9-2-1.7-2.8
			c-0.7-0.8-1.6-1.4-2.7-1.9s-2.2-0.7-3.5-0.7c-1.3,0-2.5,0.2-3.5,0.7s-1.9,1.1-2.7,1.9c-0.7,0.8-1.3,1.7-1.7,2.8
			C330.9,356,330.7,357.1,330.7,358.2z"/>

			<path fill="#8E1923" stroke="#F9B943" stroke-width="2" stroke-linecap="round" stroke-linejoin="round" stroke-miterlimit="10" d="
			M379.6,334c0-1.2,0.4-2.2,1.3-3c0.9-0.9,2-1.3,3.3-1.3c1.3,0,2.4,0.4,3.3,1.2c0.9,0.8,1.3,1.9,1.3,3.1c0,1.2-0.5,2.3-1.3,3.1
			c-0.9,0.8-2,1.2-3.3,1.2c-1.3,0-2.4-0.4-3.3-1.3C380,336.2,379.6,335.2,379.6,334z M380.6,343.8h7.2v28.8h-7.2V343.8z"/>

			<path fill="#8E1923" stroke="#F9B943" stroke-width="2" stroke-linecap="round" stroke-linejoin="round" stroke-miterlimit="10" d="
			M396.1,343.8h6.8v4.6h0.1c0.7-1.4,1.7-2.7,3.1-3.8c1.4-1.1,3.3-1.6,5.7-1.6c1.9,0,3.5,0.3,4.9,1c1.3,0.6,2.4,1.5,3.3,2.5
			c0.8,1,1.4,2.2,1.8,3.6c0.4,1.4,0.5,2.8,0.5,4.3v18.2h-7.2V358c0-0.8,0-1.7-0.1-2.7c-0.1-1-0.3-1.9-0.6-2.8
			c-0.3-0.9-0.9-1.6-1.6-2.2c-0.7-0.6-1.7-0.9-2.9-0.9c-1.2,0-2.2,0.2-3,0.6c-0.8,0.4-1.5,0.9-2,1.6c-0.5,0.7-0.9,1.5-1.2,2.3
			c-0.2,0.9-0.4,1.8-0.4,2.8v15.7h-7.2V343.8z"/>

			<path fill="#8E1923" stroke="#F9B943" stroke-width="2" stroke-linecap="round" stroke-linejoin="round" stroke-miterlimit="10" d="
			M482.9,357c0,2.6-0.4,4.9-1.3,6.9c-0.9,2.1-2.1,3.8-3.6,5.2c-1.5,1.4-3.3,2.5-5.4,3.3c-2.1,0.8-4.3,1.2-6.8,1.2
			c-2.4,0-4.7-0.4-6.8-1.2c-2.1-0.8-3.9-1.9-5.4-3.3c-1.5-1.4-2.7-3.2-3.6-5.2c-0.9-2.1-1.3-4.4-1.3-6.9v-26.9h7.6v26.6
			c0,1,0.2,2.1,0.5,3.3c0.3,1.1,0.8,2.2,1.6,3.1c0.7,1,1.7,1.8,2.9,2.4c1.2,0.6,2.7,0.9,4.5,0.9s3.3-0.3,4.5-0.9
			c1.2-0.6,2.2-1.4,2.9-2.4s1.3-2,1.6-3.1c0.3-1.1,0.5-2.2,0.5-3.3v-26.6h7.6V357z"/>

			<path fill="#8E1923" stroke="#F9B943" stroke-width="2" stroke-linecap="round" stroke-linejoin="round" stroke-miterlimit="10" d="
			M513.1,339.3c-0.8-1.2-1.9-2-3.2-2.6s-2.8-0.8-4.2-0.8c-0.9,0-1.7,0.1-2.5,0.3c-0.8,0.2-1.6,0.5-2.2,1c-0.7,0.4-1.2,1-1.6,1.7
			c-0.4,0.7-0.6,1.5-0.6,2.5c0,1.4,0.5,2.5,1.5,3.3c1,0.8,2.2,1.4,3.7,2c1.5,0.6,3.1,1.1,4.9,1.6c1.8,0.5,3.4,1.2,4.9,2.2
			c1.5,0.9,2.7,2.1,3.7,3.7c1,1.5,1.5,3.5,1.5,6.1c0,2.3-0.4,4.3-1.3,6c-0.8,1.7-2,3.1-3.4,4.2c-1.4,1.1-3.1,2-5,2.5
			c-1.9,0.6-3.9,0.8-5.9,0.8c-2.6,0-5.2-0.4-7.6-1.3c-2.4-0.9-4.5-2.4-6.3-4.4l5.7-5.5c0.9,1.4,2.1,2.5,3.6,3.3
			c1.5,0.8,3.1,1.2,4.8,1.2c0.9,0,1.8-0.1,2.6-0.4c0.9-0.2,1.7-0.6,2.4-1.1s1.3-1.1,1.7-1.8c0.4-0.7,0.7-1.6,0.7-2.6
			c0-1.6-0.5-2.8-1.5-3.6c-1-0.8-2.2-1.5-3.7-2.1c-1.5-0.6-3.1-1.1-4.9-1.6c-1.8-0.5-3.4-1.2-4.9-2.1c-1.5-0.9-2.7-2.1-3.7-3.6
			c-1-1.5-1.5-3.5-1.5-6c0-2.2,0.5-4.1,1.3-5.7c0.9-1.6,2.1-2.9,3.5-4c1.5-1.1,3.1-1.8,5-2.4c1.9-0.5,3.8-0.8,5.8-0.8
			c2.2,0,4.4,0.3,6.5,1c2.1,0.7,4,1.8,5.7,3.4L513.1,339.3z"/>

			<path fill="#8E1923" stroke="#F9B943" stroke-width="2" stroke-linecap="round" stroke-linejoin="round" stroke-miterlimit="10" d="
			M556.4,331.8l-0.1,0.2c-2.4,3.4-4.3,7.1-5.6,11.1c-1.4,4-2,8.1-2,12.2c0,4.2,0.7,8.2,2,12.3c1.4,4,3.2,7.7,5.6,11.1l-5,3.3
			c-2.8-3.8-4.9-8-6.4-12.5c-1.5-4.5-2.3-9.2-2.3-14.2c0-4.9,0.8-9.6,2.3-14.1c1.5-4.5,3.7-8.7,6.4-12.5L556.4,331.8z"/>

			<path fill="#8E1923" stroke="#F9B943" stroke-width="2" stroke-linecap="round" stroke-linejoin="round" stroke-miterlimit="10" d="
			M561.2,343.8h6.8v4.5h0.1c0.6-1.4,1.7-2.6,3.1-3.6c1.4-1.1,3.3-1.6,5.7-1.6c4.5,0,7.5,1.8,9,5.3c1-1.8,2.3-3.2,3.9-4
			c1.6-0.9,3.4-1.3,5.6-1.3c1.9,0,3.5,0.3,4.9,1c1.3,0.6,2.4,1.5,3.2,2.6c0.8,1.1,1.4,2.4,1.8,3.9s0.5,3.1,0.5,4.8v17.2h-7.2v-16.3
			c0-0.9-0.1-1.7-0.2-2.6c-0.2-0.8-0.4-1.5-0.8-2.2c-0.4-0.6-0.9-1.1-1.6-1.5s-1.6-0.5-2.6-0.5c-1.1,0-2.1,0.2-2.8,0.6
			c-0.8,0.4-1.4,1-1.9,1.7c-0.5,0.7-0.9,1.5-1.1,2.4c-0.2,0.9-0.3,1.8-0.3,2.7v15.6H580v-17.2c0-1.8-0.4-3.2-1.1-4.3
			c-0.8-1.1-2-1.6-3.8-1.6c-1.2,0-2.2,0.2-3,0.6c-0.8,0.4-1.5,0.9-2,1.6c-0.5,0.7-0.9,1.5-1.2,2.3c-0.2,0.9-0.4,1.8-0.4,2.8v15.7
			h-7.2V343.8z"/>

			<path fill="#8E1923" stroke="#F9B943" stroke-width="2" stroke-linecap="round" stroke-linejoin="round" stroke-miterlimit="10" d="
			M612.8,334c0-1.2,0.4-2.2,1.3-3c0.9-0.9,2-1.3,3.3-1.3c1.3,0,2.4,0.4,3.3,1.2c0.9,0.8,1.3,1.9,1.3,3.1c0,1.2-0.5,2.3-1.3,3.1
			c-0.9,0.8-2,1.2-3.3,1.2c-1.3,0-2.4-0.4-3.3-1.3C613.3,336.2,612.8,335.2,612.8,334z M613.9,343.8h7.2v28.8h-7.2V343.8z"/>

			<path fill="#8E1923" stroke="#F9B943" stroke-width="2" stroke-linecap="round" stroke-linejoin="round" stroke-miterlimit="10" d="
			M629.5,327.3h7.2v45.4h-7.2V327.3z"/>

			<path fill="#8E1923" stroke="#F9B943" stroke-width="2" stroke-linecap="round" stroke-linejoin="round" stroke-miterlimit="10" d="
			M645.1,327.3h7.2v45.4h-7.2V327.3z"/>

			<path fill="#8E1923" stroke="#F9B943" stroke-width="2" stroke-linecap="round" stroke-linejoin="round" stroke-miterlimit="10" d="
			M659.8,334c0-1.2,0.4-2.2,1.3-3c0.9-0.9,2-1.3,3.3-1.3c1.3,0,2.4,0.4,3.3,1.2c0.9,0.8,1.3,1.9,1.3,3.1c0,1.2-0.5,2.3-1.3,3.1
			c-0.9,0.8-2,1.2-3.3,1.2c-1.3,0-2.4-0.4-3.3-1.3C660.2,336.2,659.8,335.2,659.8,334z M660.8,343.8h7.2v28.8h-7.2V343.8z"/>

			<path fill="#8E1923" stroke="#F9B943" stroke-width="2" stroke-linecap="round" stroke-linejoin="round" stroke-miterlimit="10" d="
			M674.8,358.2c0-2.3,0.4-4.4,1.2-6.2c0.8-1.9,1.9-3.5,3.3-4.8c1.4-1.3,3.1-2.3,5-3.1c1.9-0.7,4-1.1,6.1-1.1s4.2,0.4,6.1,1.1
			c1.9,0.7,3.6,1.7,5,3.1c1.4,1.3,2.5,2.9,3.3,4.8c0.8,1.9,1.2,3.9,1.2,6.2c0,2.3-0.4,4.4-1.2,6.2c-0.8,1.9-1.9,3.4-3.3,4.8
			c-1.4,1.3-3.1,2.3-5,3.1c-1.9,0.7-4,1.1-6.1,1.1s-4.2-0.4-6.1-1.1c-1.9-0.7-3.6-1.7-5-3.1c-1.4-1.3-2.5-2.9-3.3-4.8
			C675.2,362.6,674.8,360.5,674.8,358.2z M682,358.2c0,1.1,0.2,2.2,0.6,3.2c0.4,1,0.9,2,1.7,2.8c0.7,0.8,1.6,1.4,2.7,1.9
			s2.2,0.7,3.5,0.7c1.3,0,2.5-0.2,3.5-0.7s1.9-1.1,2.7-1.9c0.7-0.8,1.3-1.7,1.7-2.8c0.4-1,0.6-2.1,0.6-3.2c0-1.1-0.2-2.2-0.6-3.2
			c-0.4-1-0.9-2-1.7-2.8c-0.7-0.8-1.6-1.4-2.7-1.9s-2.2-0.7-3.5-0.7c-1.3,0-2.5,0.2-3.5,0.7s-1.9,1.1-2.7,1.9
			c-0.7,0.8-1.3,1.7-1.7,2.8C682.2,356,682,357.1,682,358.2z"/>

			<path fill="#8E1923" stroke="#F9B943" stroke-width="2" stroke-linecap="round" stroke-linejoin="round" stroke-miterlimit="10" d="
			M712.9,343.8h6.8v4.6h0.1c0.7-1.4,1.7-2.7,3.1-3.8c1.4-1.1,3.3-1.6,5.7-1.6c1.9,0,3.5,0.3,4.9,1c1.3,0.6,2.4,1.5,3.3,2.5
			c0.8,1,1.4,2.2,1.8,3.6c0.4,1.4,0.5,2.8,0.5,4.3v18.2h-7.2V358c0-0.8,0-1.7-0.1-2.7c-0.1-1-0.3-1.9-0.6-2.8
			c-0.3-0.9-0.9-1.6-1.6-2.2c-0.7-0.6-1.7-0.9-2.9-0.9c-1.2,0-2.2,0.2-3,0.6c-0.8,0.4-1.5,0.9-2,1.6c-0.5,0.7-0.9,1.5-1.2,2.3
			c-0.2,0.9-0.4,1.8-0.4,2.8v15.7h-7.2V343.8z"/>

			<path fill="#8E1923" stroke="#F9B943" stroke-width="2" stroke-linecap="round" stroke-linejoin="round" stroke-miterlimit="10" d="
			M762.7,351.8c-1.4-2-3.3-2.9-5.6-2.9c-1,0-1.9,0.2-2.8,0.7c-0.9,0.5-1.4,1.3-1.4,2.3c0,0.9,0.4,1.5,1.1,1.9c0.8,0.4,1.7,0.7,2.9,1
			c1.2,0.3,2.4,0.6,3.8,0.9c1.3,0.3,2.6,0.8,3.8,1.4c1.2,0.6,2.1,1.5,2.9,2.5c0.8,1.1,1.1,2.6,1.1,4.4c0,1.7-0.4,3.2-1.1,4.4
			c-0.7,1.2-1.7,2.1-2.9,2.9c-1.2,0.7-2.5,1.2-4,1.6c-1.5,0.3-3,0.5-4.4,0.5c-2.2,0-4.3-0.3-6.2-1c-1.9-0.6-3.6-1.8-5-3.5l4.8-4.5
			c0.9,1,1.9,1.9,3,2.6s2.3,1,3.9,1c0.5,0,1.1-0.1,1.6-0.2c0.6-0.1,1.1-0.3,1.6-0.6c0.5-0.3,0.9-0.6,1.2-1c0.3-0.4,0.5-0.9,0.5-1.5
			c0-1-0.4-1.7-1.1-2.2s-1.7-0.9-2.9-1.2c-1.2-0.3-2.4-0.6-3.8-0.8c-1.3-0.3-2.6-0.7-3.8-1.3c-1.2-0.6-2.1-1.4-2.9-2.4
			c-0.8-1-1.1-2.5-1.1-4.3c0-1.6,0.3-3,1-4.2c0.7-1.2,1.5-2.1,2.6-2.9c1.1-0.8,2.3-1.3,3.7-1.7s2.8-0.5,4.3-0.5c1.9,0,3.8,0.3,5.7,1
			c1.9,0.7,3.4,1.8,4.6,3.4L762.7,351.8z"/>

			<path fill="#8E1923" stroke="#F9B943" stroke-width="2" stroke-linecap="round" stroke-linejoin="round" stroke-miterlimit="10" d="
			M770.9,378.9l0.1-0.2c2.4-3.4,4.3-7,5.6-11.1c1.4-4,2-8.1,2-12.2c0-4.2-0.7-8.2-2-12.2c-1.4-4-3.2-7.7-5.6-11l5-3.4
			c2.8,3.8,4.9,8,6.5,12.5c1.5,4.5,2.3,9.2,2.3,14.2c0,4.9-0.8,9.6-2.3,14.1c-1.5,4.5-3.7,8.7-6.5,12.5L770.9,378.9z"/>
	</g>
	<g id="cat">
		<g id="cat_1_">
			<path fill="#FDB943" d="M780,514.8c-4.9,4.3-5.7,11.8-4.4,18.2c1.3,6.4,4.2,12.4,5.4,18.8c2.4,11.8-1.5,24.7-9.9,33.4
				c-8.4,8.7-21.2,12.8-33.1,10.8c-0.8-0.1-1.6-0.3-2.4-0.7c-4.6,21.1-13.2,35.2-22.9,35.2c-14.8,0-26.8-32.5-26.8-72.6
				c0-40.1,12-72.6,26.8-72.6c14.8,0,26.7,32.5,26.7,72.6c0,11.3-1,21.9-2.6,31.5c1-0.4,2.1-0.6,3.1-0.7c9.9-1.3,19.3-6.6,25.4-14.5
				c6.1-7.9,9.1-18.2,7.9-28.2c-0.9-7.4-3.9-14.4-4.4-21.8c-0.5-7.4,2.4-16,9.5-18.5c2.4-0.8,5.7-0.4,6.5,2
				C785.8,510.5,782.3,512.7,780,514.8z"/>
			<path fill="#FDB943" d="M754.8,452.2C754.8,452.2,754.8,452.2,754.8,452.2c0,0.1,0,0.1,0,0.1c-6.1,10.7-12.2,21.4-18.3,32.1
				c-2.8,4.9-5.9,9.8-8.7,14.7c-2.5,4.4-4,9.8-8.4,12.8c-2,1.5-4.5,2.2-7,2.4c-19.7,1.5-25.6-25-31.6-38.7c-2-4.4-3.6-9-5.3-13.5
				c-0.5-1.4-1.1-2.7-1.6-4.1c-1.2-2.9-2.4-5.8-3.9-8.6c1.1,0,2.3-0.1,3.4-0.1c3.1-7.7,13-32.1,13.9-32.4c0.9,0,5.6,24.1,7.1,32.1
				c9.1-0.1,18.2-0.1,27.3-0.2c1.7,0,3.3,0,5,0c2.1-9.1,8-33.1,9-32.8c1.1,0.3,13,24,17.5,32.9C754,450.6,754.6,451.8,754.8,452.2z"
				/>
			<path fill="#F8993C" d="M754.8,452.3c0,0,0,0-0.1,0C754.7,452.2,754.8,452.2,754.8,452.3C754.8,452.2,754.8,452.3,754.8,452.3z"
				/>
			<path fill="#8E1923" d="M716.8,483.2l-6.2,9l-6.8-9.1C703,482.7,716.8,483.2,716.8,483.2z"/>
			<path fill="none" stroke="#F9B943" stroke-linecap="round" stroke-linejoin="round" stroke-miterlimit="10" d="M670.6,495.1
				c-0.4,0.2-0.8,0.3-1.2,0.5c6.4-6,16.8-7.3,24.4-2.9c2.8,1.6,5.4,3.9,8.6,4.5c-1-1.6-1.7,0.2-3.5,0.1c-1.9-0.1-3.8,0.5-5.5,1.2
				c-5.5,2.2-10.5,5.7-14.5,10.2"/>
			<path fill="none" stroke="#F9B943" stroke-linecap="round" stroke-linejoin="round" stroke-miterlimit="10" d="M750.6,492.5
				c0.4-0.1,0.7-0.3,1.1-0.4c-9.6-2.1-20,0.1-27.9,5.8c6.6,1.4,11.1,5.8,16.6,9.5"/>
			<path fill="#FDB943" stroke="#8E1923" stroke-miterlimit="10" d="M674,626.7c-3.1-1.4-2.2-3.3-0.5-8.4c1.3-4,3-8.1,5.1-11.7
				c1.8-3.1,4.6-8.1,8.8-7.9c8.9,0.4,14.1,21.8,14.1,28.5c0-2.7-22.9,0.9-25.3,0.2C675.3,627.1,674.6,626.9,674,626.7z"/>
			<path fill="#FDB943" stroke="#8E1923" stroke-miterlimit="10" d="M724.4,628.7c-5-1.7,2.7-17.4,4.6-20.6
				c4.1-7.2,10.6-12.2,15.8-2.4c3.5,6.6,7.5,15.3,7.3,22.8c-8.9-1-17.7,0.1-26.6,0.4C725.1,628.9,724.7,628.8,724.4,628.7z"/>
			<ellipse fill="#8E1923" cx="702.1" cy="470.5" rx="2.8" ry="3.2"/>
			<ellipse fill="#8E1923" cx="719.3" cy="470.5" rx="2.8" ry="3.2"/>
		</g>

			<polygon fill="#8E1923" stroke="#F9B943" stroke-width="4" stroke-linecap="round" stroke-linejoin="round" stroke-miterlimit="10" points="
			673.4,458 750.7,458 754,452.8 735,419.7 726,449.8 693.8,450 686.8,421.3 669.5,450.3 		"/>
	</g>
	<g id="dog">
		<g id="dog_2_">
			<path stroke="#F8993C" stroke-width="0.75" stroke-miterlimit="10" d="M83.3,685.5c-6-3.6-11.1-8.9-15-15.4
				C76.8,670.9,82.4,683.4,83.3,685.5z"/>
			<path stroke="#F8993C" stroke-width="0.75" stroke-miterlimit="10" d="M96,653.3c-0.1,7.8-3.8,14-8.2,14
				c-4.4-0.1-7.9-6.4-7.8-14.2c0.1-7.8,3.8-14,8.2-14C92.6,639.2,96.1,645.5,96,653.3z"/>
			<path stroke="#F8993C" stroke-width="0.75" stroke-miterlimit="10" d="M120,653.7c-0.1,7.8-3.8,14-8.2,14
				c-4.4,0-7.9-6.4-7.8-14.2c0.1-7.8,3.8-14,8.2-14C116.6,639.5,120.1,645.9,120,653.7z"/>
			<path stroke="#F8993C" stroke-width="0.75" stroke-miterlimit="10" d="M133.3,670.9c-4,6.2-9.1,11.3-14.9,14.7l-1.7-0.8
				C122.9,674.2,128.5,670.8,133.3,670.9z"/>
			<path fill="#FDB943" stroke="#8E1923" stroke-miterlimit="10" d="M155.6,607.4c-1.7-14.1-9.9-26.6-19-37.5c0,0,0,0,0,0
				c-4.6-5.2-18.8-9.1-35.7-9.4c-19-0.3-34.7,4.2-37.2,10.3c-0.1,0-0.1,0-0.2,0c-9.4,10.7-18,22.9-20,37c-0.8,5.6,0.1,12.5,5.2,14.9
				c3.8,1.8,8.6,0.2,11.6-2.8c2.9-2.8,4.6-6.7,6.1-10.5c0.1,0.6,0.3,1.1,0.5,1.7l0,0c4.2,13.7,16.9,23.7,32,23.9
				c16.7,0.2,30.7-11.6,33.8-27.4c0.1-0.6,0.2-1.2,0.3-1.9c2.8,4.2,5.1,9,6.7,14.1l0,0c2.9,2.5,7.1,3.8,10.5,2.2
				C155.2,619.9,156.3,613,155.6,607.4z M87.8,602.5c-2.2,0-3.9-3.1-3.8-6.9c0-1.4,0.3-2.6,0.7-3.7c0.7-1.9,1.9-3.1,3.3-3.1
				c0.6,0,1.2,0.3,1.7,0.7c1.3,1.1,2.1,3.4,2.1,6.1C91.8,599.5,90,602.6,87.8,602.5z M99.3,618.3l-8.8-9.9
				c-1.2-0.4,16.8,0.2,16.8,0.2L99.3,618.3z M107.7,602.8c-2.1,0-3.8-3.1-3.8-6.9c0-3.8,1.8-6.8,4-6.8c2.2,0,3.8,3.1,3.8,6.9
				C111.6,599.8,109.9,602.8,107.7,602.8z"/>
			<path fill="#8E1923" stroke="#F9B943" stroke-linecap="round" stroke-linejoin="round" stroke-miterlimit="10" d="M53.5,595.5H84
				h61.5c0,0-7.9-20.6-15.5-27.1C122.4,561.9,66.7,544.3,53.5,595.5z"/>
			<path fill="#F9B943" stroke="#8E1923" stroke-width="0.75" stroke-miterlimit="10" d="M139.5,619.9L139.5,619.9
				c-1.6-5.2-3.9-9.9-6.7-14.1c-0.1,0.6-0.2,1.3-0.3,1.9c-3,15.8-17.1,27.6-33.8,27.4c-15.1-0.2-27.8-10.2-32-23.9
				c-4.1,7.9-6.5,17.2-6.7,27.3c-0.2,11.9,2.9,22.9,8.2,31.7c8.6,0.8,14.2,13.3,15,15.4l0,0c5.2,3.1,11,4.9,17.2,5
				c6.4,0.1,12.4-1.6,17.9-4.8l-1.7-0.8c6.2-10.6,11.9-14.1,16.6-13.9c5.5-8.6,8.9-19.5,9-31.4C142.4,632.6,141.4,626,139.5,619.9z
				 M87.9,667.3c-4.4-0.1-7.9-6.4-7.8-14.2c0.1-7.8,3.8-14,8.2-14c4.4,0.1,7.9,6.4,7.8,14.2C95.9,661.1,92.3,667.4,87.9,667.3z
				 M111.8,667.6c-4.4,0-7.9-6.4-7.8-14.2c0.1-7.8,3.8-14,8.2-14c4.4,0,7.9,6.4,7.8,14.2C119.9,661.5,116.2,667.7,111.8,667.6z"/>
			<path fill="#F9B943" stroke="#8E1923" stroke-width="0.75" stroke-miterlimit="10" d="M96,653.3c-0.1,7.8-3.8,14-8.2,14
				c-4.4-0.1-7.9-6.4-7.8-14.2c0.1-7.8,3.8-14,8.2-14C92.6,639.2,96.1,645.5,96,653.3z"/>
			<path fill="#F9B943" stroke="#8E1923" stroke-width="0.75" stroke-miterlimit="10" d="M120,653.7c-0.1,7.8-3.8,14-8.2,14
				c-4.4,0-7.9-6.4-7.8-14.2c0.1-7.8,3.8-14,8.2-14C116.6,639.5,120.1,645.9,120,653.7z"/>
			<path fill="#F9B943" stroke="#8E1923" stroke-width="0.75" stroke-miterlimit="10" d="M53.9,685.3L51,684
				c6.5-11.1,12.3-14.4,17.2-13.9c8.6,0.8,14.2,13.3,15,15.4l0,0c0.1,0.2,0.1,0.3,0.1,0.3S52.5,684.1,53.9,685.3z"/>
			<path fill="#F9B943" stroke="#8E1923" stroke-width="0.75" stroke-miterlimit="10" d="M119.5,686.2l-1.2-0.5l-1.7-0.8
				c6.2-10.6,11.9-14.1,16.6-13.9c9.7,0.3,15.7,15.7,15.7,15.7S118.1,684.9,119.5,686.2z"/>
			<path fill="#F8993C" d="M142.3,652.1c-0.4,0.1-0.8,0.1-1.1,0.2c5.7-0.7,11-4.7,13.1-10c0.4,4.9-0.6,9.9-2.8,14.3
				c-0.6,1.2-1.4,2.5-2.7,2.9c-1.4,0.5-3-0.3-4-1.5c-0.9-1.2-1.4-2.7-1.8-4.1"/>
		</g>
		<path fill="#8E1923" stroke="#F9B943" stroke-miterlimit="10" d="M92.2,594.9c-0.1,6-3.1,10.9-6.7,10.8c-3.6-0.1-6.4-5-6.4-11
			c0.1-6,3.1-10.8,6.7-10.8C89.5,583.9,92.3,588.9,92.2,594.9z"/>
		<path fill="#8E1923" stroke="#F9B943" stroke-miterlimit="10" d="M116,595c-0.1,5.9-3,10.6-6.5,10.6c-3.5-0.1-6.3-4.9-6.2-10.7
			c0.1-5.9,3-10.6,6.5-10.5C113.3,584.4,116.1,589.2,116,595z"/>
	</g>
	<g id="bord">
		<g>
			<g>

					<path fill="#8E1923" stroke="#F9B943" stroke-width="4" stroke-linecap="round" stroke-linejoin="round" stroke-miterlimit="10" d="
					M692.3,810.7c-12.1,2.8-24.3,5.6-36.6,5.6c-12.4,0.1-25.2-2.7-35-10.2c0.6-0.1,1.1-0.2,1.7-0.3c29.1-5.4,58.1-17.5,77.9-40.1
					c8.9-10.2,16.6-21.4,26.1-30.9c16.7-16.8,41.5-27.8,61.9-10.1c10.8,9.4,13.4,24.2,2.2,34.1c4.1,1.1,8.1,2.3,12.2,3.4
					c-3.3,2.2-6.6,4.4-9.9,6.6c4.3,0.4,8.5,0.8,12.8,1.3c-4.8,4.9-12.5,6.8-19,4.6c-9.1,17.2-24.4,31.1-42.5,38.3
					S710.8,817,692.3,810.7z"/>

					<path id="BIRD_9_" fill="#8E1923" stroke="#F9B943" stroke-width="4" stroke-linecap="round" stroke-linejoin="round" stroke-miterlimit="10" d="
					M668.9,754.8c-10.7,2.4-22.7-1.3-30-9.5c5.3,12.7,18,22,31.8,23.1c13.7,1.1,27.8-6,35.1-17.7c-12.7-11.1-25.5-22.4-35.3-36.2
					c-9.8-13.7-16.5-30.3-15.7-47.2c-5.7,13.2-6.7,28.4-3,42.3c3.7,13.9,12.2,26.5,23.7,35.2c-16-7.8-28.8-22-34.7-38.8
					c0.3,10.2,1.2,20.7,5.4,30.1C650.4,745.4,658.8,753.4,668.9,754.8z"/>
			</g>
		</g>
		<path fill="#F9B943" d="M638.9,802.6h123.4c0,0-25.4,25.7-70,8.1c0,0-43.8,15.6-71.7-4.5C620.6,806.2,635.2,803.3,638.9,802.6z"/>
	</g>
	<g id="questionmark">
		<path fill="#8E1923" stroke="#F9B943" stroke-width="4" stroke-miterlimit="10" d="M760.6,1030.2h-23.3v-11.9
			c0-4.3,0.4-8.2,1.2-11.6c0.8-3.5,2-6.6,3.6-9.4c1.6-2.8,3.5-5.5,5.7-8.1c2.2-2.6,4.7-5.2,7.6-7.8l9.2-8.7c3.6-3.1,6.7-6.6,9-10.3
			c2.4-3.7,3.6-8.5,3.6-14.3c0-7.9-2.5-14.3-7.6-19c-5-4.7-11.5-7.1-19.5-7.1c-8.3,0-14.9,2.6-19.8,7.9c-5,5.3-7.9,11.7-8.7,19.3
			l-23.8-2.7c1-7.1,3.1-13.5,6.2-19.2c3.1-5.7,7.1-10.5,11.8-14.5s10.1-7,16.2-9c6.1-2.1,12.6-3.1,19.6-3.1c6.9,0,13.4,1,19.5,3
			c6,2,11.4,4.9,16,8.8c4.6,3.9,8.3,8.7,10.9,14.4c2.6,5.7,4,12.3,4,19.7c0,5.3-0.6,9.9-1.7,13.9c-1.2,4-2.8,7.6-4.8,10.8
			c-2.1,3.2-4.6,6.2-7.6,9c-3,2.8-6.2,5.7-9.7,8.7c-3.3,2.8-6.1,5.3-8.4,7.6c-2.3,2.2-4.1,4.5-5.5,6.8c-1.3,2.3-2.3,4.9-2.9,7.7
			c-0.6,2.8-0.9,6.3-0.9,10.4V1030.2z M766.8,1065.1c0,4.3-1.6,8.1-4.7,11.4c-3.1,3.3-7.1,5-11.9,5c-4.6,0-8.6-1.6-11.8-4.8
			c-3.2-3.2-4.8-7-4.8-11.3c0-4.5,1.6-8.3,4.7-11.5c3.1-3.2,7.1-4.8,11.9-4.8c4.8,0,8.8,1.6,11.9,4.7
			C765.3,1056.9,766.8,1060.7,766.8,1065.1z"/>
	</g>
	<path fill="#8E1923" stroke="#F9B943" stroke-width="4" stroke-miterlimit="10" d="M776.7,1096.6h-47.9c-1.4,0-2.5-1.1-2.5-2.5
		v-49.8c0-1.4,1.1-2.5,2.5-2.5h47.9c1.4,0,2.5,1.1,2.5,2.5v49.8C779.2,1095.5,778.1,1096.6,776.7,1096.6z"/>
	<g id="reptile">

			<path id="REPTILE_1_" fill="#8E1923" stroke="#F9B943" stroke-width="4" stroke-linecap="round" stroke-linejoin="round" stroke-miterlimit="10" d="
			M142.2,834.3c-1.5-5.9-4-10.3-2.8-16.8c1-5.1,3.6-10.6,1.3-15.3c-1-2.1-2.9-3.6-4.7-5c-7.6-6-15.1-12-22.7-18
			c-0.9,10.8-1.8,21.7-2.7,32.5c-0.2,2.4-0.4,5,0.6,7.3c2.2,5.1,8.7,6.7,12,11c3.5,4.6,2.9,12.2-0.6,16.6c-3.7,4.6-11,6.2-16,3
			c-5-3.2-6.6-10.9-2.9-15.6c0.6-0.8,1.4-1.6,1.7-2.6s-0.2-2.3-1.2-2.5c-1.3-0.2-2,1.6-2.4,2.9s-2.3,2.5-2.9,1.3
			c0.4-2.3,0.7-5-0.6-6.9c-1.4-1.9-5.1-2-5.6,0.3c-0.6,2.9,4.2,5.4,2.7,7.9c-0.9,1.5-3,1.2-4.7,0.9c-1.7-0.3-4,0.1-4.2,1.8
			c-0.1,1.4,1.4,2.3,2.8,2.4s2.8-0.3,4.1,0c1.8,0.4,3.1,2.2,3.8,3.9c0.6,1.8,0.8,3.7,1.4,5.5c1.1,3.8,4,6.8,7.6,8.4
			c1.8,0.8,3.8,1.2,5.7,1.3c1.2,0,4.5-1.1,5.3-0.1c0.2,0.2,0.2,0.5,0.3,0.8c3.1,14.2,1.5,28.8-6.9,41c-1.9,2.7-4.2,5.2-6.6,7.5
			c0.8-2.9,1.1-6.1,0.5-9.1c-0.6-3.1-2.8-6-5.8-6.6c-4-0.8-7.6,2.4-10.6,5.1s-7.4,5.3-10.9,3.2c-2.5-1.5-3.3-5-2.4-7.8
			c0.9-2.8,3.2-5,5.6-6.7c1.6-1.1,3.4-2.3,4-4.1c0.6-1.9-1.4-4.3-3.1-3.3c-1.8,1-1.1,4.5-3.1,5.1c-1.6,0.5-2.8-1.7-2.6-3.4
			c0.3-1.7,1.3-3.2,1.1-4.9c-0.2-2.1-2.5-3.7-4.5-3.2c-2,0.5-3.3,3-2.5,5c0.5,1.2,1.5,2,2.3,3c0.7,1,1.1,2.6,0.2,3.5
			c-2.1,2.2-5.9-3.2-8.5-1.4c-1.4,1-0.8,3.2,0.4,4.3c1.3,1.1,3,1.6,4.2,2.8c3.9,3.6,1.2,10.7,4.5,14.8c2.1,2.6,5.9,3.1,9.1,2.1
			s5.8-3.2,8.3-5.3c-3.8,7.4-3.3,16.8,1.2,23.7c-7.6,3.1-15,10.4-22,14.7c-7,4.3-15.2,7.7-23.3,6.2c-5.8-1-11.1-4.6-14.8-9.2
			c-6.1-7.6-8.1-18.5-4.2-27.4c-6.7,7.7-9,19-5.8,28.7s11.6,17.5,21.6,19.8c13.2,3.1,26.7-3.1,38.5-9.6s24.3-13.9,37.8-13.4
			c1.2,0,2.4,0.2,3.4,0.8c1.5,1,2,3.1,1.7,5s-1.4,3.4-2.3,5c-1.5,2.4-2.9,5-3.1,7.9c-0.2,2.8,1.1,6,3.7,7.1c2.2,0.9,4.6,0.2,7,0.5
			c2.3,0.2,4.9,2.3,4,4.5c-1,2.5-5.5,2.3-6,4.9c-0.3,1.9,2.3,3.3,4.1,2.6c1.8-0.7,3-2.5,3.9-4.2c0.3,2.3,0.9,4.8,2.7,6.2
			c1.9,1.4,5.3,0.4,5.2-1.9c0-1.4-1.3-2.4-2.2-3.4c-1-1-1.7-2.6-0.9-3.7c2-2.7,6.8,3.4,9,0.9c1.3-1.5-0.7-3.8-2.7-4
			c-2-0.2-4.1,0.5-6-0.4c-2.5-1.2-3-4.6-5.1-6.5c-2.1-1.9-5.5-1.7-7.6-3.5c-2.4-2.1-2.2-6.1-0.8-9s3.6-5.5,4.6-8.5
			c1.1-3.1,0.5-7.1-2.4-8.5c10.9-8.5,18-21.3,20.5-34.8c1.1-5.8,1.3-11.8,0.5-17.6c-0.3-2.4-0.8-4.8-1.4-7.2c-0.5-2.1-2.2-4-1.9-6.3
			c0.2-1.1,0.9-2.1,1.9-2.7c3-1.8,6.5,0.5,8.9,2.3c4.2,3.1,8.8,6.5,14,6.4c3.8-0.1,7.5-2.1,9.6-5.3c2.1-3.2,2.5-7.4,1.2-10.9
			c-0.6-1.7-1.6-3.5-1-5.1c1.3-3.4,7.6-2.5,8.5-6.1c0.5-2.1-2.2-4.2-4.1-3c-1,0.6-1.7,1.9-2.9,2.2c-1.5,0.3-2.7-1.4-2.7-2.8
			c-0.1-1.5,0.5-2.9,0.7-4.4s-0.5-3.3-1.9-3.6c-1.4-0.3-2.7,0.9-3.1,2.3s0,2.8,0.3,4.2c0.3,1.4,0.5,2.9-0.1,4.2
			c-1.1-3.1-4.3-5.4-7.6-5.4c-0.4,2.8,1.5,5.3,3.2,7.5c1.7,2.2,3.3,5,2.4,7.7c-1.1,3-4.9,4-8.1,4.1c-5.4,0.1-11-1.3-15.4-4.5
			c-5.1-3.7-7.2-6.3-8.6-12.2C142.2,834.4,142.2,834.4,142.2,834.3z"/>
		<path fill="#F9B943" d="M30.7,950.3h45.2C75.8,950.3,46.7,969,30.7,950.3z"/>
		<path fill="#F9B943" d="M149.6,964.2c-0.6-1.6-2.6-1.4-2.6-1.4l-7.5-1.7l-4.7-6l-8.3-4.3h-8c-0.2,0.7-0.5,1.4-0.8,2.1l1,0l1.1,3.1
			c0,0,0.3,1.1,0.3,1.6c0,0.4,1.7,1.9,1.7,1.9l3.2,0.3c0,0,4.6,0.4,6.7,1.4c2.2,1,2.3,2.9,2.3,2.9l-1.3,1.3l-1.4,1.9
			c0,0-4.2,2.2-3.2,4.2c1,2,4.6-0.6,5.2-0.7c0.6-0.1,0.4-0.7,0.9-1.1c0.4-0.4,1.7-3.7,1.7-3.7v1.1c0,0,0.6,3.2,0.6,3.6
			c0,0.4,1.6,3.2,1.6,3.2s3.6,0.9,4,0.4c0.4-0.4,0.6-2.3,0.6-2.3l-1.4-2.7l-1.5-2.5c0,0-1.3-1.9,0.7-2.6c2-0.7,6.3,3,7.2,3.3
			C148.5,967.7,150.2,965.8,149.6,964.2z"/>
	</g>
	<g>
		<path fill="#7F3F98" d="M589.2,516.9"/>
	</g>
	<path fill="#F9B943" d="M778,1095.2h-50.4c-0.7,0-1.2-0.5-1.2-1.2v-22.9c0-0.7,0.5-1.2,1.2-1.2H778c0.7,0,1.2,0.5,1.2,1.2v22.9
		C779.2,1094.7,778.6,1095.2,778,1095.2z"/>
	<g>
		<g>
			<path fill="#FFFFFF" d="M279.7,482.1c3.9,0,7.7,0.9,11.3,2.6c1.7,0.8,2.9,1.2,3.6,1.2c0.5,0,1.3-0.1,2.3-0.4
				c0.3-0.1,0.7-0.1,1.2-0.1c1.4,0,2.6,0.6,3.6,1.9c2.6,3.1,3.8,6.9,3.8,11.5c0,3.2-1.1,5.6-3.3,7.1c-1.2,0.8-2.5,1.2-4,1.2
				c-1.4,0-2.5-0.3-3.3-0.9c-0.9-0.6-1.7-1.6-2.5-3.1c-1.1-2.1-2.1-3.6-2.8-4.5s-1.6-1.8-2.6-2.5c-2.6-1.8-5.3-2.7-8.1-2.7
				c-2.7,0-4.9,1-6.5,3c-1.6,2-2.4,4.7-2.4,8c0,4.6,1.2,8.8,3.5,12.6c3.1,5.1,7.7,7.6,13.5,7.6c2.2,0,4.3-0.4,6.4-1.1
				s3.8-1.7,4.9-2.8c1-1,1.8-1.4,2.5-1.4c0.9,0,1.7,0.4,2.4,1.3c0.7,0.9,1,1.9,1,3.1c0,1.5-0.5,3.3-1.4,5.2
				c-0.9,1.9-2.1,3.4-3.4,4.5c-0.6,0.5-1.7,0.9-3.5,1.2c-1,0.2-2.4,0.7-4,1.5c-4,1.9-8.1,2.8-12.3,2.8c-4.5,0-8.9-1-13.3-3
				c-5.2-2.3-9.2-5.9-12.2-10.7c-2.9-4.7-4.4-9.6-4.4-14.7c0-5.9,1.8-11.3,5.5-16.2c3.2-4.2,7.4-7.5,12.5-9.7
				C271.5,483,275.5,482.1,279.7,482.1z"/>
			<path fill="#FFFFFF" d="M331,498c4.6,0,8.6,1.2,11.8,3.5c1.7,1.3,2.9,2.7,3.6,4.3s1,3.8,1,6.7l-0.1,6c0,4.1,0.3,6.8,0.9,8
				c0.3,0.6,0.6,1,0.8,1.1c0.3,0.2,0.8,0.3,1.7,0.4c0.9,0.1,1.3,0.7,1.3,1.7c0,1.3-0.5,2.6-1.5,4c-1,1.4-2.4,2.5-4,3.5
				c-2,1.2-4.1,1.8-6.3,1.8c-2.8,0-5-1-6.6-2.9c-0.6-0.7-1.1-1-1.6-1c-0.5,0-1.2,0.3-2.1,1c-2.7,1.9-5.7,2.9-9.1,2.9
				c-3.5,0-6.3-0.7-8.5-2.2c-1.4-1-2.5-2.3-3.4-3.9c-0.8-1.6-1.2-3.2-1.2-5c0-2.8,1.1-5.2,3.4-7.4c3.5-3.4,8.7-5.1,15.7-5.1
				c1.5,0,2.5-0.2,2.9-0.5s0.6-1,0.6-2.1c0-2.8-0.3-4.9-0.9-6.1c-0.6-1.3-1.5-1.9-2.9-1.9c-0.8,0-1.5,0.2-2.1,0.7
				c-0.6,0.5-1.4,1.4-2.3,2.6c-2.4,3.4-4.9,5.1-7.4,5.1c-1.3,0-2.4-0.4-3.2-1.2c-0.8-0.8-1.2-1.8-1.2-3c0-1.3,0.5-2.6,1.5-3.8
				c1-1.3,2.4-2.4,4.2-3.4C320.7,499.3,325.7,498,331,498z M328.3,521.2c-1.2,0-2.2,0.5-3.1,1.4c-0.9,1-1.3,2.1-1.3,3.4
				c0,1.3,0.3,2.3,0.9,3.1c0.6,0.8,1.4,1.2,2.4,1.2c2.1,0,3.2-1.8,3.2-5.4c0-1.5-0.2-2.5-0.5-3C329.7,521.4,329.2,521.2,328.3,521.2
				z"/>
			<path fill="#FFFFFF" d="M378.4,508.5V522c0,1.6,0.4,2.9,1.2,3.9c0.8,1,1.8,1.5,3,1.5c1,0,2.4-0.5,4.1-1.4
				c0.4-0.2,0.8-0.4,1.2-0.4c0.6,0,1.2,0.4,1.8,1.2c0.5,0.8,0.8,1.6,0.8,2.5c0,1.7-0.9,3.2-2.7,4.8c-3.8,3.2-8.4,4.8-13.8,4.8
				c-4.3,0-7.7-1.2-10.3-3.6c-2.6-2.4-3.9-5.6-3.9-9.5v-18.5c0-0.6-0.1-1-0.2-1.1c-0.1-0.1-0.5-0.2-1.1-0.2h-4.1
				c-0.8,0-1.3-0.1-1.5-0.4c-0.2-0.3-0.3-0.8-0.3-1.8V502c0-0.8,0.3-1.4,0.9-1.8l18.3-11.5c0.5-0.2,1-0.4,1.7-0.4h3.2
				c0.7,0,1.1,0.2,1.3,0.5c0.2,0.3,0.3,0.9,0.3,1.8v5.4c0,0.8,0.1,1.3,0.4,1.6c0.3,0.2,0.8,0.4,1.6,0.4h7.4c1,0,1.6,0.2,1.9,0.5
				c0.3,0.4,0.4,1.1,0.4,2.3v2.4c0,1.3-0.2,2.2-0.6,2.7c-0.4,0.5-1.1,0.7-2,0.7h-7.2c-0.7,0-1.3,0.1-1.5,0.4
				C378.5,507.2,378.4,507.8,378.4,508.5z"/>
			<path fill="#FFFFFF" d="M404.1,496.9c2.6,0,4.8,0.9,6.6,2.7s2.7,4,2.7,6.6c0,2.8-0.9,5.1-2.8,6.9c-1.9,1.8-4.1,2.6-6.6,2.6
				c-2.5,0-4.7-0.9-6.6-2.6c-1.9-1.8-2.8-4.1-2.8-6.9c0-2.5,0.8-4.5,2.4-6.2C398.9,498,401.2,496.9,404.1,496.9z M404.1,520.1
				c2.6,0,4.8,0.9,6.6,2.7s2.7,4,2.7,6.6c0,2.8-0.9,5.1-2.8,6.9c-1.9,1.8-4.1,2.6-6.6,2.6c-2.5,0-4.7-0.9-6.6-2.6
				c-1.9-1.8-2.8-4.1-2.8-6.9c0-2.5,0.8-4.5,2.4-6.2C398.9,521.1,401.2,520.1,404.1,520.1z"/>
			<path fill="#FFFFFF" d="M440.2,487.2c5.6,0,10.8,0.9,15.5,2.8c2.6,1,4.7,2.6,6.3,4.7c1.2,1.5,1.8,3.3,1.8,5.3
				c0,3.2-1.7,5.8-5.2,8c-1,0.7-1.6,1.2-1.6,1.6c0,0.4,0.6,1,1.9,1.8c1.7,1.2,3.1,2.8,4.2,4.7s1.6,3.9,1.6,6c0,3.1-1.1,6.1-3.4,9
				c-4,5.2-10.3,7.8-18.9,7.8c-6,0-11.2-1.1-15.9-3.2c-3.1-1.4-5.6-3.4-7.3-6c-1.3-1.9-2-4.1-2-6.6c0-3.4,1.6-6.3,4.8-8.5
				c1.2-0.9,1.8-1.5,1.8-1.9c0-0.3-0.5-1-1.5-2c-2.5-2.4-3.8-5.3-3.8-8.7c0-4.7,2.3-8.4,7-11.3C429.4,488.4,434.4,487.2,440.2,487.2
				z M432.5,518.4c-0.6,0-1.1,0.3-1.5,0.9s-0.5,1.3-0.5,2.2c0,1,0.3,2.2,0.8,3.4c0.5,1.2,1.2,2.2,2,3c1.9,1.9,4.3,2.9,7,2.9
				c1.6,0,2.9-0.4,3.9-1.1s1.5-1.7,1.5-2.8c0-1.3-0.5-2.4-1.4-3.2c-0.9-0.8-2.9-1.9-5.8-3.3C435.6,519.1,433.6,518.4,432.5,518.4z
				 M442,494.6c-1.2,0-2.2,0.3-2.9,0.9s-1.2,1.3-1.2,2.2c0,1.4,1,2.8,2.9,4.2c2.2,1.6,3.9,2.4,5.3,2.4c0.7,0,1.3-0.5,1.9-1.4
				c0.6-0.9,0.8-2,0.8-3.2c0-1.6-0.6-2.8-1.8-3.6C445.6,495.1,443.9,494.6,442,494.6z"/>
			<path fill="#FFFFFF" d="M485.3,485.8c1.1,0,3,0.4,5.6,1.2c1.4,0.5,2.6,1,3.6,1.6s1.4,1.2,1.4,1.7c0,0.4-0.2,0.8-0.5,1.2
				s-1.3,1.6-2.9,3.4c-1.1,1.1-2,2.5-2.9,4.2c-0.8,1.6-1.3,2.9-1.3,3.7c0,0.4,0.1,0.7,0.4,1s0.5,0.4,0.9,0.4c0.3,0,1.3-0.3,2.9-0.9
				c2.2-0.8,4.3-1.2,6.2-1.2c3.4,0,6.4,1.1,9.2,3.2c3.9,3,5.8,7,5.8,12c0,4-1.2,7.8-3.5,11.5c-4.3,6.7-10.7,10-19.2,10
				c-7,0-12.7-2-17.1-6.1c-2.4-2.3-4.3-5.1-5.6-8.6c-1.1-2.9-1.6-5.7-1.6-8.6c0-6.8,2.7-13.7,8.1-20.7c2.6-3.3,4.6-5.7,6.2-7.1
				C482.7,486.5,484.1,485.8,485.3,485.8z M489.7,513.6c-1.2,0-2.1,0.4-2.8,1.3s-1,2-1,3.4c0,2.2,0.8,4.4,2.4,6.6
				c1.6,2.2,3.2,3.3,4.8,3.3c1.1,0,2-0.3,2.6-1c0.7-0.7,1-1.5,1-2.6c0-1.8-0.4-3.6-1.2-5.6s-1.8-3.4-2.9-4.3
				C491.7,514,490.8,513.6,489.7,513.6z"/>
		</g>
	</g>
	<g>
		<g>
			<path fill="#FFFFFF" d="M259.4,659.5h-2.9c-1.7,0-3.6,0.1-5.6,0.2c-1.3,0.1-2.2,0.2-2.7,0.2c-1.8,0-3.2-0.4-4.4-1.2
				c-1.1-0.8-1.7-1.9-1.7-3.2c0-0.9,0.2-1.7,0.7-2.2c0.5-0.5,1.3-0.9,2.4-1.3c1.1-0.3,1.8-0.7,2.2-1.3c0.4-0.6,0.7-1.8,0.9-3.5
				c0.2-2,0.4-5.9,0.6-11.7c0.2-5.8,0.3-11.5,0.3-17.3c0-2.2-0.2-3.7-0.5-4.5c-0.3-0.7-1.2-1.3-2.4-1.8c-1.8-0.7-2.8-1.9-2.8-3.6
				c0-1.3,0.6-2.3,1.9-3.1c1.3-0.7,3-1.1,5.3-1.1c0.7,0,1.6,0,2.6,0c2.2,0.1,3.9,0.1,4.9,0.1c3.8,0,8.1-0.1,12.9-0.4
				c1-0.1,2.3-0.1,3.8-0.1c6.1,0,10.9,0.7,14.5,2.1c5.3,2.1,9.3,5.6,11.9,10.5c2.4,4.3,3.6,9.5,3.6,15.5c0,3-0.4,6-1.3,9.1
				c-0.9,3-2.1,5.7-3.6,7.9c-3.1,4.5-7.4,7.6-12.8,9.4c-3.2,1.1-6.6,1.6-10.2,1.6l-4.8-0.2l-4.2-0.1
				C264.7,659.6,261.9,659.5,259.4,659.5z M267.8,616.1v31c0,1.7,0.4,2.9,1.1,3.6s1.9,1.1,3.6,1.1c7.8,0,11.7-5.9,11.7-17.8
				c0-6.5-0.9-11.6-2.7-15.2c-2-4-5.4-6-10.2-6c-1.3,0-2.2,0.3-2.7,0.8C268.1,614.1,267.8,614.9,267.8,616.1z"/>
			<path fill="#FFFFFF" d="M333.1,619.6c4.9,0,9.2,1.3,12.9,3.8c2.6,1.8,4.8,4.2,6.4,7.1c1.7,3,2.5,6.2,2.5,9.5
				c0,5.8-2.7,10.7-8,14.8c-5.1,3.9-10.9,5.8-17.4,5.8c-6.4,0-11.5-1.8-15.5-5.4c-3.8-3.5-5.8-8.1-5.8-13.8c0-6.3,2.3-11.5,7-15.5
				C320.1,621.7,326.1,619.6,333.1,619.6z M329.9,628.9c-1.2,0-2.1,0.4-2.8,1.3c-0.7,0.9-1.1,2-1.1,3.5c0,1.6,0.3,3.8,0.9,6.5
				c0.6,2.8,1.3,5.2,2.1,7.3c0.8,2.2,2.2,3.3,4,3.3c2.4,0,3.6-1.5,3.6-4.5c0-2.2-0.3-4.8-0.9-7.6c-0.6-2.9-1.3-5.2-2.2-7
				C332.7,629.9,331.5,628.9,329.9,628.9z"/>
			<path fill="#FFFFFF" d="M400.3,617.5c0.7,0,1.3,0.4,1.8,1.1c0.5,0.8,0.8,1.6,0.8,2.7c0,1.1-0.3,2.3-1,3.7
				c-0.7,1.4-1.5,2.5-2.5,3.3c-0.6,0.5-0.9,1-0.9,1.3c0,0.1,0,0.4,0.1,1c0.1,0.6,0.1,1.1,0.1,1.5c0,3.2-1.1,5.8-3.2,8
				c-1.9,1.9-4.4,3.4-7.4,4.5c-3,1.1-6.4,1.6-10,1.6c-0.9,0-1.7-0.1-2.6-0.2c-0.7-0.1-1.2-0.1-1.6-0.1c-1.4,0-2.1,0.7-2.1,2.1
				c0,0.9,0.5,1.6,1.4,2.1c0.9,0.5,2.2,0.8,3.7,0.8c1.1,0,2.6-0.1,4.7-0.4c4.4-0.6,7.6-0.9,9.7-0.9c3.1,0,5.6,0.5,7.3,1.6
				c1.4,0.8,2.5,1.9,3.3,3.4c0.8,1.4,1.2,3,1.2,4.6c0,2.7-1,5.3-3,7.8c-2.3,3-5.8,5.2-10.4,6.6c-3.6,1.1-7.7,1.7-12.4,1.7
				c-5.9,0-10.7-0.9-14.4-2.7c-1.7-0.9-3.1-2-4.1-3.4c-1-1.4-1.5-2.8-1.5-4.3c0-1,0.3-2,0.9-2.9s1.3-1.5,2.2-1.9
				c0.8-0.3,1.2-0.7,1.2-1c0-0.3-0.3-0.7-1-1.3c-2.1-1.8-3.2-3.6-3.2-5.6c0-1.3,0.5-2.6,1.5-4s2.3-2.4,3.8-3.2c0.6-0.3,1-0.6,1-1
				c0-0.4-0.4-0.9-1.2-1.7c-2.8-2.5-4.1-5.5-4.1-8.9c0-1.8,0.5-3.5,1.5-5.1c1-1.6,2.3-3,4.1-4.2c4.3-2.8,9.1-4.2,14.3-4.2
				c2.1,0,4.4,0.3,7,0.8c2.4,0.5,4.1,0.7,5,0.7c2.9,0,5.8-1.1,8.7-3.4C399.4,617.7,399.9,617.5,400.3,617.5z M369.8,662.2
				c-0.7,0-1,0.4-1,1.2c0,1.6,0.9,2.8,2.6,3.8c1.7,1,3.9,1.5,6.6,1.5c2.6,0,4.7-0.3,6.1-1c1.5-0.7,2.2-1.7,2.2-2.9
				c0-0.7-0.3-1.2-0.8-1.7s-1.3-0.7-2.1-0.7c-0.4,0-1,0.1-1.8,0.2c-1.5,0.2-3.2,0.4-5,0.4c-1.4,0-2.7-0.1-3.9-0.2
				c-0.9-0.1-1.7-0.2-2.3-0.3C370.1,662.3,369.9,662.2,369.8,662.2z M378.5,625.8c-1.3,0-2.4,0.5-3.2,1.5c-0.8,1-1.2,2.4-1.2,4
				c0,2.9,0.4,5.2,1.3,6.9c0.9,1.7,2,2.6,3.5,2.6c1.4,0,2.5-0.5,3.4-1.6c0.8-1.1,1.2-2.5,1.2-4.3c0-2.9-0.4-5.1-1.3-6.7
				C381.3,626.7,380.1,625.8,378.5,625.8z"/>
			<path fill="#FFFFFF" d="M416.1,618.6c2.6,0,4.8,0.9,6.6,2.7c1.8,1.8,2.7,4,2.7,6.6c0,2.8-0.9,5.1-2.8,6.9
				c-1.9,1.8-4.1,2.6-6.6,2.6c-2.5,0-4.7-0.9-6.6-2.6c-1.9-1.8-2.8-4.1-2.8-6.9c0-2.5,0.8-4.5,2.4-6.2
				C410.8,619.6,413.2,618.6,416.1,618.6z M416.1,641.7c2.6,0,4.8,0.9,6.6,2.7c1.8,1.8,2.7,4,2.7,6.6c0,2.8-0.9,5.1-2.8,6.9
				c-1.9,1.8-4.1,2.6-6.6,2.6c-2.5,0-4.7-0.9-6.6-2.6c-1.9-1.8-2.8-4.1-2.8-6.9c0-2.5,0.8-4.5,2.4-6.2
				C410.8,642.8,413.2,641.7,416.1,641.7z"/>
			<path fill="#FFFFFF" d="M475,618.9l-16.3,49.2c-0.2,0.7-0.7,1.1-1.2,1.4c-0.6,0.2-1.6,0.4-3,0.4c-3.1,0-5.9-0.5-8.4-1.4
				c-2.5-0.9-3.8-1.9-3.8-3c0-0.3,0.1-0.6,0.3-1l14.9-28.5c1.1-2.1,1.6-3.6,1.6-4.4c0-1-0.6-1.7-1.9-2.1c-1.3-0.4-3.6-0.6-7-0.6
				c-4.1,0-7,0.3-8.7,0.8c-0.7,0.2-1.4,0.7-2,1.5c-0.7,1-1.4,1.7-2,2.1c-0.6,0.4-1.4,0.5-2.3,0.5c-1.8,0-3.3-0.8-4.2-2.3
				c-1-1.5-1.5-3.7-1.5-6.6c0-3.5,0.6-6.5,1.9-8.9c0.6-1.1,1.4-2.1,2.4-2.9c1-0.8,1.9-1.1,2.8-1.1c0.6,0,2,0.5,4,1.4
				c1.3,0.5,3,0.8,5,0.8h25.7c2.5,0,3.8,1,3.8,2.9C475.3,617.7,475.2,618.3,475,618.9z"/>
			<path fill="#FFFFFF" d="M501.3,608.8c5.6,0,10.8,0.9,15.5,2.8c2.6,1,4.7,2.6,6.3,4.7c1.2,1.5,1.8,3.3,1.8,5.3
				c0,3.2-1.7,5.8-5.2,8c-1,0.7-1.6,1.2-1.6,1.6c0,0.4,0.6,1,1.9,1.8c1.7,1.2,3.1,2.8,4.2,4.7s1.6,3.9,1.6,6c0,3.1-1.1,6.1-3.4,9
				c-4,5.2-10.3,7.8-18.9,7.8c-6,0-11.2-1.1-15.9-3.2c-3.1-1.4-5.6-3.4-7.3-6c-1.3-1.9-2-4.1-2-6.6c0-3.4,1.6-6.3,4.8-8.5
				c1.2-0.9,1.8-1.5,1.8-1.9c0-0.3-0.5-1-1.5-2c-2.5-2.4-3.8-5.3-3.8-8.7c0-4.7,2.3-8.4,7-11.3C490.6,610,495.5,608.8,501.3,608.8z
				 M493.6,640c-0.6,0-1.1,0.3-1.5,0.9c-0.4,0.6-0.5,1.3-0.5,2.2c0,1,0.3,2.2,0.8,3.4c0.5,1.2,1.2,2.2,2,3c1.9,1.9,4.3,2.9,7,2.9
				c1.6,0,2.9-0.4,3.9-1.1s1.5-1.7,1.5-2.8c0-1.3-0.5-2.4-1.4-3.2c-0.9-0.8-2.9-1.9-5.8-3.3C496.8,640.7,494.8,640.1,493.6,640z
				 M503.1,616.2c-1.2,0-2.2,0.3-2.9,0.9c-0.8,0.6-1.2,1.3-1.2,2.2c0,1.4,1,2.8,2.9,4.2c2.2,1.6,3.9,2.4,5.3,2.4
				c0.7,0,1.3-0.5,1.9-1.4c0.6-0.9,0.8-2,0.8-3.2c0-1.6-0.6-2.8-1.8-3.6C506.7,616.7,505.1,616.2,503.1,616.2z"/>
		</g>
	</g>
	<g>
		<g>
			<path fill="#FFFFFF" d="M263.9,802.6l-5.4,0c-3.8,0.1-6.5,0.1-8.2,0.2c-1.5,0.1-2.7,0.2-3.3,0.2c-1.6,0-2.9-0.4-3.9-1.2
				c-0.9-0.8-1.4-1.8-1.4-3c0-0.7,0.2-1.3,0.5-1.8c0.3-0.4,1.2-1.1,2.5-2c0.8-0.5,1.3-1.4,1.6-2.5c0.3-1.1,0.6-3.6,1-7.3
				c0.5-5.8,0.8-13,0.8-21.5c0-3.1-0.2-5.2-0.6-6.2c-0.4-1-1.4-1.9-2.9-2.5c-1.8-0.7-2.6-1.8-2.6-3.3c0-1.2,0.5-2.1,1.6-2.9
				c1.1-0.7,2.4-1.1,4.1-1.1c0.9,0,2.1,0,3.5,0.1c2.3,0.1,4.9,0.2,7.6,0.2c2,0,5.9-0.1,11.8-0.2c1.8-0.1,3.5-0.1,5-0.1
				c3.5,0,6.4,0.3,8.6,0.9c2.2,0.6,4.1,1.5,5.7,2.9c2.6,2.2,3.9,5.2,3.9,8.9c0,1.8-0.4,3.6-1.2,5.4c-0.8,1.7-1.8,3.1-3.1,4.2
				c-0.9,0.7-1.4,1.4-1.4,2c0,0.7,0.6,1.2,1.7,1.7c2.2,0.9,4.2,2.4,6,4.4c1.8,2.2,2.8,4.9,2.8,8.1c0,3.8-1.4,7.4-4.2,10.5
				c-3.7,4.2-9.2,6.3-16.5,6.3c-1,0-3.4-0.1-7.3-0.2C266.9,802.7,264.8,802.6,263.9,802.6z M266.7,759.2v8.2c0,1.3,0.2,2.2,0.5,2.8
				c0.3,0.5,0.9,0.8,1.7,0.8c2,0,3.4-0.6,4.4-1.8c0.9-1.2,1.4-3.1,1.4-5.7c0-2.5-0.5-4.5-1.4-5.8s-2.3-2.1-4.1-2.1
				c-0.9,0-1.6,0.3-1.9,0.8C266.9,756.9,266.7,757.8,266.7,759.2z M266.7,782.2v3.8c0,3.5,0.3,5.8,0.8,7c0.5,1.1,1.5,1.7,3.1,1.7
				c4.1,0,6.1-2.4,6.1-7.1c0-5.9-2.3-8.9-6.8-8.9c-1.2,0-2,0.3-2.4,0.8C266.9,780,266.7,780.9,266.7,782.2z"/>
			<path fill="#FFFFFF" d="M323.2,765.5v23.3c0,1.8,0.2,3.2,0.5,4c0.3,0.9,1,1.6,2,2.4c0.8,0.6,1.4,1.1,1.7,1.5s0.4,0.9,0.4,1.6
				c0,3.4-4.4,5.2-13.1,5.2c-4.7,0-8.4-0.4-11.2-1.1c-0.9-0.3-1.7-0.7-2.3-1.4c-0.6-0.7-0.9-1.4-0.9-2.3c0-0.7,0.1-1.3,0.4-1.7
				c0.3-0.4,1-1,2.2-1.9c0.8-0.6,1.4-1.6,1.8-3c0.3-1.4,0.5-3.5,0.5-6.2c0-0.9-0.1-2.5-0.2-4.9c-0.1-2.4-0.2-3.8-0.3-4.2
				c-0.2-1.1-0.9-1.9-2.2-2.5c-1.7-0.7-2.5-1.8-2.5-3.2c0-1.7,1.1-2.9,3.2-3.8c3-1.1,6.2-2.1,9.6-2.9c3.4-0.8,6.1-1.2,7.9-1.2
				C322.5,763,323.2,763.9,323.2,765.5z M315.3,748c2.3,0,4.2,0.4,5.5,1.3s2,2,2,3.5c0,2.1-1,3.7-3.1,4.9c-3.3,1.9-7.2,2.8-11.8,2.8
				c-1.9,0-3.5-0.4-4.6-1.1c-1.5-1-2.3-2.3-2.3-4c0-2.3,1.6-4.1,4.9-5.4C309.3,748.7,312.4,748,315.3,748z"/>
			<path fill="#FFFFFF" d="M348.9,763c1.4,0,2.3,0.2,2.6,0.6c0.3,0.4,0.6,1.7,0.8,3.8c0.1,1.2,0.5,1.8,1.2,1.8c0.5,0,1-0.4,1.5-1.2
				c2.1-3.3,4.9-5,8.4-5c2.4,0,4.4,0.8,6,2.4c0.7,0.8,1.4,1.8,1.8,3c0.5,1.2,0.7,2.4,0.7,3.5c0,1.3-0.3,2.5-0.9,3.9
				c-0.6,1.3-1.3,2.4-2.3,3.3c-1.7,1.6-3.8,2.4-6.3,2.4c-1.4,0-2.5-0.2-3.4-0.7s-2.1-1.5-3.6-2.9c-0.6-0.6-1.1-0.8-1.6-0.8
				c-0.7,0-1.2,0.4-1.5,1.3c-0.2,0.8-0.3,2.6-0.3,5.3c0,4,0.1,6.8,0.4,8.2c0.2,0.8,0.4,1.4,0.8,1.7c0.3,0.3,1,0.6,2.1,0.9
				c2.4,0.7,3.6,2,3.6,3.8c0,1.1-0.4,2-1.2,2.9c-0.8,0.8-1.8,1.4-3.1,1.6c-2.6,0.5-6.3,0.8-11.3,0.8c-4.7,0-8.3-0.4-10.8-1.2
				c-2.2-0.7-3.3-2-3.3-3.9c0-1.4,0.8-2.6,2.4-3.7c0.8-0.5,1.3-1,1.6-1.4c0.3-0.4,0.5-1,0.6-1.7c0.4-2.4,0.6-6.9,0.6-13.5
				c0-1.2-0.1-2.1-0.4-2.6c-0.3-0.5-0.8-0.9-1.6-1.3c-1.9-0.7-2.8-1.8-2.8-3.2c0-1.3,0.7-2.4,2-3.3c1.3-0.9,3.5-1.8,6.6-2.7
				C342.5,763.7,346,763,348.9,763z"/>
			<path fill="#FFFFFF" d="M420.1,751.2v36.6c0,2.1,0.1,3.4,0.3,4c0.2,0.6,0.7,1.2,1.5,1.7c1,0.7,1.6,1.3,1.9,1.8
				c0.3,0.5,0.5,1.1,0.5,1.8c0,2.1-2.1,3.8-6.4,4.9c-3.9,1-7.7,1.5-11.6,1.5c-0.9,0-1.4-0.1-1.7-0.4c-0.3-0.3-0.4-0.9-0.5-1.8
				c-0.1-1.4-0.6-2-1.4-2c-0.5,0-1.2,0.4-2.1,1.2c-2.7,2.2-5.8,3.3-9.1,3.3c-4.1,0-7.9-1.5-11.2-4.6c-1.9-1.8-3.5-4-4.7-6.4
				c-1.6-3.1-2.4-6.3-2.4-9.5c0-3.8,1-7.4,3.1-10.9c1.9-3.2,4.5-5.7,7.8-7.4c2.8-1.4,5.5-2.2,8.2-2.2c3.1,0,5.9,0.7,8.3,2.1
				c0.4,0.2,0.7,0.3,1,0.3c0.9,0,1.3-1.1,1.3-3.4c0-1-0.2-1.7-0.7-2.3c-0.5-0.5-1.3-1-2.5-1.3c-1.7-0.5-2.5-1.5-2.5-2.8
				c0-1.9,1.9-3.5,5.8-4.6c6.8-1.9,11.4-2.8,13.7-2.8C418.9,747.9,420.1,749,420.1,751.2z M398.3,771.3c-1.7,0-3.1,0.9-4.1,2.8
				c-1.4,2.5-2,5.7-2,9.7c0,3.6,0.7,6.4,2,8.2c0.9,1.3,2.2,2,3.8,2c1.7,0,3-1,3.8-3c0.8-2,1.2-5.3,1.2-9.7c0-4.1-0.5-6.8-1.4-8.2
				C400.8,771.9,399.7,771.4,398.3,771.3z"/>
			<path fill="#FFFFFF" d="M437.5,761.7c2.6,0,4.8,0.9,6.6,2.7s2.7,4,2.7,6.6c0,2.8-0.9,5.1-2.8,6.9c-1.9,1.8-4.1,2.6-6.6,2.6
				c-2.5,0-4.7-0.9-6.6-2.6c-1.9-1.8-2.8-4.1-2.8-6.9c0-2.5,0.8-4.5,2.4-6.2C432.3,762.7,434.7,761.7,437.5,761.7z M437.5,784.8
				c2.6,0,4.8,0.9,6.6,2.7s2.7,4,2.7,6.6c0,2.8-0.9,5.1-2.8,6.9c-1.9,1.8-4.1,2.6-6.6,2.6c-2.5,0-4.7-0.9-6.6-2.6
				c-1.9-1.8-2.8-4.1-2.8-6.9c0-2.5,0.8-4.5,2.4-6.2C432.3,785.9,434.7,784.8,437.5,784.8z"/>
			<path fill="#FFFFFF" d="M456.3,794.8c0.4,0,1.3,0.1,2.6,0.3c0.6,0.1,1.1,0.2,1.5,0.2c2.3,0,3.6-1.8,3.9-5.4
				c0.2-2,0.3-7.8,0.3-17.3c0-1.4-0.3-2.4-0.9-3c-0.6-0.6-1.7-0.8-3.2-0.8c-0.4,0-0.9,0-1.6,0.1c-0.5,0.1-1,0.1-1.4,0.1
				c-0.9,0-1.6-0.2-2.2-0.7c-0.6-0.5-0.8-1.1-0.8-1.9c0-0.9,0.4-1.7,1.3-2.5c0.9-0.8,2-1.6,3.6-2.2c7.6-3.2,15.6-4.8,24.1-4.8
				c2.3,0,4,0.3,5.1,0.8s1.6,1.4,1.6,2.6c0,0.7-0.2,1.2-0.5,1.6c-0.3,0.4-1,0.8-2.1,1.3c-1.7,0.7-2.6,1.6-2.8,2.6s-0.4,5.1-0.6,12.2
				c0.2,7.2,0.3,11,0.4,11.5c0,0.5,0.1,1.2,0.3,2.1c0.3,1.4,0.9,2.4,1.8,2.9c0.9,0.5,2.4,0.9,4.6,1c2.5,0.1,3.8,1.1,3.8,3.1
				c0,2-1.8,3.4-5.3,4c-4.9,0.9-10,1.3-15.2,1.3c-3.4,0-6.6-0.2-9.7-0.6c-3.8-0.5-6.8-1.2-8.9-2c-2.1-0.7-3.1-1.9-3.1-3.4
				c0-0.8,0.3-1.5,1-2.1C454.5,795.2,455.3,794.9,456.3,794.8z"/>
			<path fill="#FFFFFF" d="M516.2,750.6c1.1,0,3,0.4,5.6,1.2c1.4,0.5,2.6,1,3.6,1.6s1.4,1.2,1.4,1.7c0,0.4-0.2,0.8-0.5,1.2
				c-0.3,0.4-1.3,1.6-2.9,3.4c-1.1,1.1-2,2.5-2.9,4.2c-0.8,1.6-1.3,2.9-1.3,3.7c0,0.4,0.1,0.7,0.4,1c0.2,0.3,0.5,0.4,0.9,0.4
				c0.3,0,1.3-0.3,2.9-0.9c2.2-0.8,4.3-1.2,6.2-1.2c3.4,0,6.4,1.1,9.2,3.2c3.9,3,5.8,7,5.8,12c0,4-1.2,7.8-3.5,11.5
				c-4.3,6.7-10.7,10-19.2,10c-7,0-12.7-2-17.1-6.1c-2.4-2.3-4.3-5.1-5.6-8.6c-1.1-2.9-1.6-5.7-1.6-8.6c0-6.8,2.7-13.7,8.1-20.7
				c2.6-3.3,4.6-5.7,6.2-7.1C513.5,751.2,514.9,750.6,516.2,750.6z M520.5,778.3c-1.2,0-2.1,0.4-2.8,1.3c-0.7,0.8-1,2-1,3.4
				c0,2.2,0.8,4.4,2.4,6.6c1.6,2.2,3.2,3.3,4.8,3.3c1.1,0,2-0.3,2.6-1c0.7-0.7,1-1.5,1-2.6c0-1.8-0.4-3.6-1.2-5.6s-1.8-3.4-2.9-4.3
				C522.5,778.7,521.6,778.4,520.5,778.3z"/>
		</g>
	</g>
	<g>
		<g>
			<path fill="#FFFFFF" d="M261.9,916c-1,0-1.7,0.3-1.9,0.9c-0.3,0.6-0.4,2-0.4,4.3c0,3.4,0.2,6,0.6,7.9c0.1,0.5,0.3,0.9,0.6,1.2
				c0.3,0.3,0.8,0.7,1.5,1.1c1.6,0.9,2.4,2,2.4,3.5c0,1.8-1.1,3-3.3,3.7c-2.2,0.7-6,1.1-11.3,1.1c-9.9,0-14.8-1.9-14.8-5.6
				c0-0.6,0.1-1.2,0.4-1.5c0.3-0.4,1-0.9,2-1.6c1.2-0.8,2-1.7,2.4-2.7c0.4-1.1,0.7-2.9,0.9-5.5c0.1-1.9,0.2-8.7,0.2-20.4
				c0-3.7-0.2-6.2-0.6-7.6c-0.4-1.3-1.2-2.3-2.4-2.9c-1.2-0.6-2-1.1-2.4-1.5c-0.4-0.5-0.6-1.1-0.6-1.8c0-1,0.4-1.8,1.1-2.6
				c0.8-0.7,1.8-1.3,3.2-1.6c1.1-0.3,2.7-0.4,4.7-0.4c0.9,0,3.1,0.1,6.6,0.4c0.7,0.1,1.7,0.1,3.2,0.1c2.4,0,5.6-0.2,9.6-0.5
				c2.5-0.2,4.3-0.3,5.3-0.3c5.7,0,10.4,1.4,14.2,4.1c3.4,2.5,5,5.9,5,10.3c0,2.5-0.6,4.7-1.8,6.7c-1.2,2-2.8,3.5-4.8,4.5
				c-0.9,0.4-1.3,0.9-1.3,1.5c0,0.8,0.7,1.4,2,1.9c2.8,1,4.9,2.5,6.2,4.6c1.3,2.1,2.2,5.2,2.8,9.4c0.2,1.8,0.6,2.9,1,3.4
				c0.5,0.5,1.5,1,3.2,1.5c0.5,0.2,0.9,0.5,1.3,1c0.3,0.5,0.5,1.1,0.5,1.7c0,0.8-0.3,1.7-1,2.5s-1.5,1.5-2.5,2
				c-2.2,1-5.3,1.6-9.2,1.6c-5.2,0-8.9-1.4-11.2-4.1c-1-1.2-1.9-2.8-2.6-4.6s-1.5-4.8-2.5-8.7c-0.6-2.5-1.4-4.3-2.3-5.4
				C265.1,916.6,263.7,916,261.9,916z M259.6,895.5l-0.4,9.3c0,0.1,0,0.2,0,0.4c0,1,0.1,1.6,0.4,1.9c0.3,0.3,0.8,0.5,1.7,0.5
				c2.3,0,4.1-0.6,5.1-1.8c1.1-1.2,1.6-3.2,1.6-5.8c0-5.2-1.8-7.7-5.5-7.7c-1,0-1.8,0.2-2.2,0.7
				C259.9,893.4,259.7,894.3,259.6,895.5z"/>
			<path fill="#FFFFFF" d="M335.1,921h-18.8c-0.8,0-1.2,0.4-1.2,1.1c0,1.7,0.9,3.4,2.8,4.9c1.9,1.5,3.9,2.3,6.1,2.3
				c1.3,0,2.7-0.2,4.3-0.7c1.6-0.5,2.8-1.1,3.9-1.8c0.9-0.6,1.6-1,2.2-1c0.7,0,1.4,0.4,2,1.3c0.7,0.9,1,1.7,1,2.6
				c0,1.9-1.2,3.8-3.6,5.6c-4.2,3.2-9.1,4.8-14.7,4.8c-5.6,0-10.3-1.6-14.1-4.9c-1.8-1.6-3.4-3.5-4.6-5.8c-1.6-3-2.4-6.2-2.4-9.5
				c0-4.5,1.4-8.5,4.1-12.1c2.3-3.1,5.3-5.4,9-6.9c2.7-1.1,5.7-1.7,8.8-1.7c5.1,0,9.4,1.4,12.9,4.3c1.8,1.4,3.2,3.1,4.3,5.1
				c1.3,2.2,1.9,4.4,1.9,6.6c0,1.7-0.4,3.2-1.1,4.3C337.2,920.4,336.3,921,335.1,921z M317.4,913.5h4c1.7,0,2.6-0.8,2.6-2.4
				c0-1.4-0.4-2.6-1.2-3.5c-0.8-0.9-1.9-1.4-3.2-1.4c-1.5,0-2.7,0.6-3.5,1.8c-0.8,1.1-1.2,2.2-1.2,3.3c0,0.8,0.2,1.4,0.6,1.7
				C315.7,913.3,316.4,913.5,317.4,913.5z"/>
			<path fill="#FFFFFF" d="M361.2,899.3c1.6,0,2.6,0.1,3,0.4s0.6,1,0.6,2.1c0,1,0.3,1.5,1,1.5c0.3,0,1.2-0.5,2.7-1.5
				c1.1-0.8,2.6-1.4,4.4-1.9c1.8-0.5,3.4-0.8,4.8-0.8c3.4,0,6.4,1.2,9.1,3.5c2,1.8,3.6,4,4.7,6.8c1.2,2.9,1.8,5.9,1.8,9
				c0,6.7-2.3,12.3-6.8,16.6c-3.5,3.4-7.5,5.1-11.9,5.1c-2.3,0-4.6-0.5-7-1.6c-0.5-0.2-0.9-0.3-1.2-0.3c-0.8,0-1.2,0.8-1.2,2.4
				c0,2.1,0.7,3.6,2.1,4.6c1.3,0.9,2.1,1.5,2.3,1.8s0.4,0.8,0.4,1.5c0,1.6-0.9,2.8-2.7,3.7c-1.8,0.9-4.3,1.3-7.6,1.3
				c-5.8,0-10.9-1.2-15.2-3.5c-2.2-1.2-3.3-2.6-3.3-4.4c0-0.8,0.2-1.4,0.5-1.8c0.3-0.4,1-0.8,1.9-1.3c1.4-0.6,2.2-1.8,2.5-3.5
				c0.3-1.7,0.5-6.5,0.7-14.5c-0.2-6.6-0.4-10.2-0.7-11.1c-0.1-0.3-0.3-0.4-0.5-0.5c-0.2-0.1-0.9-0.2-2-0.4
				c-0.9-0.2-1.5-0.6-2.1-1.2c-0.5-0.6-0.8-1.4-0.8-2.3c0-1.1,0.4-2,1.1-2.8c0.7-0.8,2-1.6,3.6-2.4
				C352.2,900.8,357.4,899.3,361.2,899.3z M365.2,914.4l-0.6,11c0,0.5,0,0.9,0,1.3c0,0.8,0.4,1.5,1.1,2s1.7,0.8,2.9,0.8
				c3.7,0,5.5-3,5.5-9.1c0-3.9-0.8-6.7-2.3-8.3c-1-1-2.1-1.5-3.4-1.5C366.4,910.6,365.4,911.9,365.2,914.4z"/>
			<path fill="#FFFFFF" d="M419.5,909.5v13.5c0,1.6,0.4,2.9,1.2,3.9c0.8,1,1.8,1.5,3,1.5c1,0,2.4-0.5,4.1-1.4
				c0.4-0.2,0.8-0.4,1.2-0.4c0.6,0,1.2,0.4,1.8,1.2c0.5,0.8,0.8,1.6,0.8,2.5c0,1.7-0.9,3.2-2.7,4.8c-3.8,3.2-8.4,4.8-13.8,4.8
				c-4.3,0-7.7-1.2-10.3-3.6c-2.6-2.4-3.9-5.6-3.9-9.5v-18.5c0-0.6-0.1-1-0.2-1.1c-0.1-0.1-0.5-0.2-1.1-0.2h-4.1
				c-0.8,0-1.3-0.1-1.5-0.4c-0.2-0.3-0.3-0.8-0.3-1.8v-1.8c0-0.8,0.3-1.4,0.9-1.8l18.3-11.5c0.5-0.2,1-0.4,1.7-0.4h3.2
				c0.7,0,1.1,0.2,1.3,0.5c0.2,0.3,0.3,0.9,0.3,1.8v5.4c0,0.8,0.1,1.3,0.4,1.6c0.3,0.2,0.8,0.4,1.6,0.4h7.4c1,0,1.6,0.2,1.9,0.5
				c0.3,0.4,0.4,1.1,0.4,2.3v2.4c0,1.3-0.2,2.2-0.6,2.7c-0.4,0.5-1.1,0.7-2,0.7h-7.2c-0.7,0-1.3,0.1-1.5,0.4
				C419.7,908.3,419.5,908.8,419.5,909.5z"/>
			<path fill="#FFFFFF" d="M456,901.8v23.3c0,1.8,0.2,3.2,0.5,4s1,1.6,2,2.4c0.8,0.6,1.4,1.1,1.7,1.5c0.3,0.4,0.4,0.9,0.4,1.6
				c0,3.4-4.4,5.2-13.1,5.2c-4.7,0-8.4-0.4-11.2-1.1c-0.9-0.3-1.7-0.7-2.3-1.4s-0.9-1.4-0.9-2.3c0-0.7,0.1-1.3,0.4-1.7
				c0.3-0.4,1-1,2.2-1.9c0.8-0.6,1.4-1.6,1.8-3c0.3-1.4,0.5-3.5,0.5-6.2c0-0.9-0.1-2.5-0.2-4.9c-0.1-2.4-0.2-3.8-0.3-4.2
				c-0.2-1.1-0.9-1.9-2.2-2.5c-1.7-0.7-2.5-1.8-2.5-3.2c0-1.7,1.1-2.9,3.2-3.8c3-1.1,6.2-2.1,9.6-2.9c3.4-0.8,6.1-1.2,7.9-1.2
				C455.2,899.3,456,900.2,456,901.8z M448,884.3c2.3,0,4.2,0.4,5.5,1.3c1.4,0.9,2,2,2,3.5c0,2.1-1,3.7-3.1,4.9
				c-3.3,1.9-7.2,2.8-11.8,2.8c-1.9,0-3.5-0.4-4.6-1.1c-1.5-1-2.3-2.3-2.3-4c0-2.3,1.6-4.1,4.9-5.4C442,884.9,445.1,884.3,448,884.3
				z"/>
			<path fill="#FFFFFF" d="M485.8,907.2V920c0,5.7,0.1,9,0.3,9.9c0.2,0.9,0.8,1.7,2,2.2c1,0.4,1.6,0.8,2,1.2s0.5,0.9,0.5,1.6
				c0,0.9-0.3,1.7-0.9,2.4c-0.6,0.7-1.5,1.2-2.5,1.5c-1.9,0.6-5.2,0.9-9.7,0.9c-5.2,0-8.8-0.4-10.9-1.2c-1-0.3-1.7-0.9-2.4-1.6
				c-0.6-0.7-0.9-1.5-0.9-2.3c0-0.6,0.2-1.1,0.5-1.5c0.3-0.3,1.1-0.8,2.2-1.2c1-0.5,1.7-1.7,1.9-3.7c0.4-3.5,0.6-8.4,0.6-14.8
				c0-6.5-0.2-10.7-0.6-12.6c-0.4-1.9-1.3-3.3-2.8-4.2c-1.1-0.6-1.9-1.2-2.3-1.8c-0.4-0.6-0.6-1.3-0.6-2.1c0-1.3,0.6-2.4,1.9-3.4
				c1.3-1,3.3-1.9,6-2.7c1.8-0.6,4.2-1.1,7.2-1.6c2.9-0.5,5.1-0.8,6.4-0.8c2.1,0,3.2,1.3,3.2,3.9c0,0.9-0.1,2.8-0.4,5.9
				C486.1,898.8,485.9,903.2,485.8,907.2z"/>
			<path fill="#FFFFFF" d="M529.9,921h-18.8c-0.8,0-1.2,0.4-1.2,1.1c0,1.7,0.9,3.4,2.8,4.9c1.9,1.5,3.9,2.3,6.1,2.3
				c1.3,0,2.7-0.2,4.3-0.7c1.6-0.5,2.8-1.1,3.9-1.8c0.9-0.6,1.6-1,2.2-1c0.7,0,1.4,0.4,2,1.3c0.7,0.9,1,1.7,1,2.6
				c0,1.9-1.2,3.8-3.6,5.6c-4.2,3.2-9.1,4.8-14.7,4.8c-5.6,0-10.3-1.6-14.1-4.9c-1.8-1.6-3.4-3.5-4.6-5.8c-1.6-3-2.4-6.2-2.4-9.5
				c0-4.5,1.4-8.5,4.1-12.1c2.3-3.1,5.3-5.4,9-6.9c2.7-1.1,5.7-1.7,8.8-1.7c5.1,0,9.4,1.4,12.9,4.3c1.8,1.4,3.2,3.1,4.3,5.1
				c1.3,2.2,1.9,4.4,1.9,6.6c0,1.7-0.4,3.2-1.1,4.3C532,920.4,531,921,529.9,921z M512.1,913.5h4c1.7,0,2.6-0.8,2.6-2.4
				c0-1.4-0.4-2.6-1.2-3.5c-0.8-0.9-1.9-1.4-3.2-1.4c-1.5,0-2.7,0.6-3.5,1.8c-0.8,1.1-1.2,2.2-1.2,3.3c0,0.8,0.2,1.4,0.6,1.7
				C510.5,913.3,511.1,913.5,512.1,913.5z"/>
			<path fill="#FFFFFF" d="M547.3,898c2.6,0,4.8,0.9,6.6,2.7c1.8,1.8,2.7,4,2.7,6.6c0,2.8-0.9,5.1-2.8,6.9c-1.9,1.8-4.1,2.6-6.6,2.6
				c-2.5,0-4.7-0.9-6.6-2.6c-1.9-1.8-2.8-4.1-2.8-6.9c0-2.5,0.8-4.5,2.4-6.2C542.1,899,544.4,898,547.3,898z M547.3,921.1
				c2.6,0,4.8,0.9,6.6,2.7c1.8,1.8,2.7,4,2.7,6.6c0,2.8-0.9,5.1-2.8,6.9c-1.9,1.8-4.1,2.6-6.6,2.6c-2.5,0-4.7-0.9-6.6-2.6
				c-1.9-1.8-2.8-4.1-2.8-6.9c0-2.5,0.8-4.5,2.4-6.2C542.1,922.2,544.4,921.1,547.3,921.1z"/>
			<path fill="#FFFFFF" d="M566.1,931.1c0.4,0,1.3,0.1,2.6,0.3c0.6,0.1,1.1,0.2,1.5,0.2c2.3,0,3.6-1.8,3.9-5.4
				c0.2-2,0.3-7.8,0.3-17.3c0-1.4-0.3-2.4-0.9-3c-0.6-0.6-1.7-0.8-3.2-0.8c-0.4,0-0.9,0-1.6,0.1c-0.5,0.1-1,0.1-1.4,0.1
				c-0.9,0-1.6-0.2-2.2-0.7c-0.6-0.5-0.8-1.1-0.8-1.9c0-0.9,0.4-1.7,1.3-2.5c0.9-0.8,2-1.6,3.6-2.2c7.6-3.2,15.6-4.8,24.1-4.8
				c2.3,0,4,0.3,5.1,0.8c1.1,0.5,1.6,1.4,1.6,2.6c0,0.7-0.2,1.2-0.5,1.6c-0.3,0.4-1,0.8-2.1,1.3c-1.7,0.7-2.6,1.6-2.8,2.6
				s-0.4,5.1-0.6,12.2c0.2,7.2,0.3,11,0.4,11.5c0,0.5,0.1,1.2,0.3,2.1c0.3,1.4,0.9,2.4,1.8,2.9s2.4,0.9,4.6,1
				c2.5,0.1,3.8,1.1,3.8,3.1c0,2-1.8,3.4-5.3,4c-4.9,0.9-10,1.3-15.2,1.3c-3.4,0-6.6-0.2-9.7-0.6c-3.8-0.5-6.8-1.2-8.9-2
				c-2.1-0.7-3.1-1.9-3.1-3.4c0-0.8,0.3-1.5,1-2.1C564.3,931.5,565.1,931.2,566.1,931.1z"/>
			<path fill="#FFFFFF" d="M628.9,893c5.2,0,9.8,0.9,13.7,2.8c1.6,0.8,2.8,1.8,3.7,3.2c0.9,1.4,1.4,2.8,1.4,4.4
				c0,2.9-1.5,5.5-4.5,7.9c-0.9,0.7-1.3,1.2-1.3,1.6c0,0.8,0.8,1.3,2.3,1.6c7.2,1.3,10.8,5.3,10.8,12c0,4.2-1.5,8-4.4,11.5
				c-2.8,3.3-6.9,5.8-12.3,7.4c-3.9,1.1-8.2,1.7-12.9,1.7c-5.5,0-10.2-0.8-14.1-2.3c-2.5-1-3.7-2.4-3.7-4.2c0-1.1,0.4-2.1,1.3-2.9
				c0.8-0.8,1.9-1.2,3.1-1.2c0.7,0,2.5,0.3,5.4,1c1,0.2,2.3,0.4,4.1,0.4c3.2,0,5.8-0.7,7.6-2.2c2-1.6,3-3.4,3-5.4
				c0-1.9-0.8-3.5-2.3-4.7c-1.5-1.2-3.5-1.8-6-1.8c-1.5,0-2.9,0.2-4.1,0.5c-0.7,0.2-1.2,0.3-1.6,0.3c-0.7,0-1.4-0.7-2.1-2.1
				s-1.1-2.8-1.1-4.1c0-0.6,0.2-1.1,0.5-1.3c0.3-0.2,1.5-0.7,3.3-1.3c1.7-0.6,3.3-1.6,4.8-3.2c1.2-1.2,1.8-2.5,1.8-3.9
				c0-1.5-0.6-2.8-1.8-3.9c-1.2-1.1-2.6-1.7-4.3-1.7c-1,0-1.9,0.1-2.6,0.4s-2,0.9-3.9,1.9c-0.6,0.3-1,0.4-1.3,0.4
				c-0.7,0-1.3-0.5-1.9-1.4c-0.6-0.9-0.9-1.9-0.9-3c0-1.8,1.6-3.5,4.8-5.1c2-1,4.4-1.8,7.2-2.5C623.5,893.3,626.2,893,628.9,893z"/>
		</g>
	</g>
	<g>
		<g>
			<path fill="#FFFFFF" d="M273,1024.2c6.9,0,12.9,2,18,5.9c3.5,2.7,6.3,6.2,8.4,10.5c2.1,4.3,3.2,8.5,3.2,12.8
				c0,6.3-2.1,11.9-6.2,16.9c-3.5,4.2-8.1,7.2-13.8,9.1c-3.5,1.1-7,1.7-10.5,1.7c-4.6,0-9-1-13.3-2.9c-5.1-2.3-9.1-5.8-12-10.5
				c-2.8-4.5-4.2-9.5-4.2-15c0-6.4,1.8-12,5.4-16.8c3.2-4.3,7.5-7.5,12.9-9.5C264.5,1024.9,268.6,1024.2,273,1024.2z M269.2,1035.7
				c-2.2,0-4,1-5.3,3c-1,1.5-1.5,3.3-1.5,5.3c0,3,0.6,6.5,1.8,10.5c1.2,4,2.8,7.5,4.6,10.5c0.8,1.3,1.8,2.3,3.1,3.1
				c1.2,0.8,2.4,1.2,3.7,1.2c2,0,3.7-0.8,4.9-2.3c1.2-1.5,1.9-3.5,1.9-6c0-3.2-0.5-6.7-1.6-10.5c-1-3.7-2.4-6.9-4-9.6
				c-1-1.6-2.2-2.9-3.5-3.8C271.9,1036.2,270.6,1035.8,269.2,1035.7z"/>
			<path fill="#FFFFFF" d="M329.8,1050.6v13.5c0,1.6,0.4,2.9,1.2,3.9c0.8,1,1.8,1.5,3,1.5c1,0,2.4-0.5,4.1-1.4
				c0.4-0.2,0.8-0.4,1.2-0.4c0.6,0,1.2,0.4,1.8,1.2c0.5,0.8,0.8,1.6,0.8,2.5c0,1.7-0.9,3.2-2.7,4.8c-3.8,3.2-8.4,4.8-13.8,4.8
				c-4.3,0-7.7-1.2-10.3-3.6c-2.6-2.4-3.9-5.6-3.9-9.5v-18.5c0-0.6-0.1-1-0.2-1.1s-0.5-0.2-1.1-0.2h-4.1c-0.8,0-1.3-0.1-1.5-0.4
				c-0.2-0.3-0.3-0.8-0.3-1.8v-1.8c0-0.8,0.3-1.4,0.9-1.8l18.3-11.5c0.5-0.2,1-0.4,1.7-0.4h3.2c0.7,0,1.1,0.2,1.3,0.5
				c0.2,0.3,0.3,0.9,0.3,1.8v5.4c0,0.8,0.1,1.3,0.4,1.6c0.3,0.2,0.8,0.4,1.6,0.4h7.4c1,0,1.6,0.2,1.9,0.5c0.3,0.4,0.4,1.1,0.4,2.3
				v2.4c0,1.3-0.2,2.2-0.6,2.7c-0.4,0.5-1.1,0.7-2,0.7h-7.2c-0.7,0-1.3,0.1-1.5,0.4C329.9,1049.3,329.8,1049.8,329.8,1050.6z"/>
			<path fill="#FFFFFF" d="M366.5,1027.3l-0.5,16.8c-0.1,2,0.6,3,1.8,3c0.6,0,1.3-0.4,1.9-1.3c2.6-3.8,6-5.6,10.4-5.6
				c4.2,0,7.6,1.3,10.1,3.9c1.1,1.1,1.9,2.5,2.4,4.1c0.5,1.6,0.7,3.8,0.8,6.8l0.4,14.5c0,1.3,0.2,2.2,0.5,2.8c0.3,0.6,1,1.3,2.1,2.2
				c0.8,0.6,1.2,1.3,1.2,2.2c0,2.9-4.4,4.3-13.1,4.3c-7.7,0-11.6-1.3-11.6-4c0-0.5,0.1-0.8,0.2-1c0.1-0.2,0.6-0.9,1.4-1.9
				c1.1-1.5,1.7-5.1,1.7-11c0-3.5-0.3-6.1-1-7.8c-0.9-2.2-2.5-3.3-4.7-3.3c-1.6,0-2.8,0.6-3.6,1.8c-0.6,0.9-0.8,2.5-0.8,4.8v7.7
				c0.2,3.4,0.3,5.4,0.5,5.8c0.1,0.5,0.7,1.3,1.8,2.5c0.5,0.6,0.8,1.2,0.8,2c0,3-3.9,4.5-11.8,4.5c-9.2,0-13.8-1.6-13.8-4.7
				c0-0.7,0.1-1.3,0.4-1.7c0.3-0.4,1-1,2.2-1.8c1-0.7,1.7-2.7,2.1-5.8c0.4-3.2,0.6-8.4,0.6-15.7c0-5.7-0.2-9.7-0.5-11.9
				c-0.1-0.8-0.3-1.4-0.6-1.8c-0.3-0.4-0.8-0.8-1.6-1.2c-1.7-0.9-2.5-1.8-2.5-3c0-1.3,0.6-2.4,1.9-3.2c1.3-0.8,3.7-1.7,7.2-2.7
				c4.8-1.3,8.6-2,11.5-2C365.8,1025.3,366.5,1026,366.5,1027.3z"/>
			<path fill="#FFFFFF" d="M436.9,1062h-18.8c-0.8,0-1.2,0.4-1.2,1.1c0,1.7,0.9,3.4,2.8,4.9c1.9,1.5,3.9,2.3,6.1,2.3
				c1.3,0,2.7-0.2,4.3-0.7c1.6-0.5,2.8-1.1,3.9-1.8c0.9-0.6,1.6-1,2.2-1c0.7,0,1.4,0.4,2,1.3c0.7,0.9,1,1.7,1,2.6
				c0,1.9-1.2,3.8-3.6,5.6c-4.2,3.2-9.1,4.8-14.7,4.8c-5.6,0-10.3-1.6-14.1-4.9c-1.8-1.6-3.4-3.5-4.6-5.8c-1.6-3-2.4-6.2-2.4-9.5
				c0-4.5,1.4-8.5,4.1-12.1c2.3-3.1,5.3-5.4,9-6.9c2.7-1.1,5.7-1.7,8.8-1.7c5.1,0,9.4,1.4,12.9,4.3c1.8,1.4,3.2,3.2,4.3,5.1
				c1.3,2.2,1.9,4.4,1.9,6.6c0,1.7-0.4,3.2-1.1,4.3S438,1062,436.9,1062z M419.1,1054.6h4c1.7,0,2.6-0.8,2.6-2.4
				c0-1.4-0.4-2.6-1.2-3.5c-0.8-0.9-1.9-1.4-3.2-1.4c-1.5,0-2.7,0.6-3.5,1.8c-0.8,1.1-1.2,2.2-1.2,3.3c0,0.8,0.2,1.4,0.6,1.7
				C417.5,1054.4,418.1,1054.6,419.1,1054.6z"/>
			<path fill="#FFFFFF" d="M462.1,1040.3c1.4,0,2.3,0.2,2.6,0.6c0.3,0.4,0.6,1.7,0.8,3.8c0.1,1.2,0.5,1.8,1.2,1.8
				c0.5,0,1-0.4,1.5-1.2c2.1-3.3,4.9-5,8.4-5c2.4,0,4.4,0.8,6,2.4c0.7,0.8,1.4,1.8,1.8,3s0.7,2.4,0.7,3.5c0,1.3-0.3,2.5-0.9,3.9
				c-0.6,1.3-1.3,2.4-2.3,3.3c-1.7,1.6-3.8,2.4-6.3,2.4c-1.4,0-2.5-0.2-3.4-0.7c-0.9-0.5-2.1-1.5-3.6-2.9c-0.6-0.6-1.1-0.8-1.6-0.8
				c-0.7,0-1.2,0.4-1.5,1.3c-0.2,0.8-0.3,2.6-0.3,5.3c0,4,0.1,6.8,0.4,8.2c0.2,0.8,0.4,1.4,0.8,1.7c0.3,0.3,1,0.6,2.1,0.9
				c2.4,0.7,3.6,2,3.6,3.8c0,1.1-0.4,2-1.2,2.9c-0.8,0.8-1.8,1.4-3.1,1.6c-2.6,0.5-6.3,0.8-11.3,0.8c-4.7,0-8.3-0.4-10.8-1.2
				c-2.2-0.7-3.3-2-3.3-3.9c0-1.4,0.8-2.6,2.4-3.7c0.8-0.5,1.3-1,1.6-1.4c0.3-0.4,0.5-1,0.6-1.7c0.4-2.4,0.6-6.9,0.6-13.5
				c0-1.2-0.1-2.1-0.4-2.6c-0.3-0.5-0.8-0.9-1.6-1.3c-1.9-0.7-2.8-1.8-2.8-3.2c0-1.3,0.7-2.4,2-3.3c1.3-0.9,3.5-1.8,6.6-2.7
				C455.7,1041,459.2,1040.4,462.1,1040.3z"/>
			<path fill="#FFFFFF" d="M512.9,1072.2c0.4,0,1.3,0.1,2.6,0.3c0.6,0.1,1.1,0.2,1.5,0.2c2.3,0,3.6-1.8,3.9-5.4
				c0.2-2,0.3-7.8,0.3-17.3c0-1.4-0.3-2.4-0.9-3c-0.6-0.6-1.7-0.8-3.2-0.8c-0.4,0-0.9,0-1.6,0.1c-0.5,0.1-1,0.1-1.4,0.1
				c-0.9,0-1.6-0.2-2.2-0.7c-0.6-0.5-0.8-1.1-0.8-1.9c0-0.9,0.4-1.7,1.3-2.5c0.9-0.8,2-1.6,3.6-2.2c7.6-3.2,15.6-4.8,24.1-4.8
				c2.3,0,4,0.3,5.1,0.8s1.6,1.4,1.6,2.6c0,0.7-0.2,1.2-0.5,1.6c-0.3,0.4-1,0.8-2.1,1.3c-1.7,0.7-2.6,1.6-2.8,2.6s-0.4,5.1-0.6,12.2
				c0.2,7.2,0.3,11,0.4,11.5c0,0.5,0.1,1.2,0.3,2.1c0.3,1.4,0.9,2.4,1.8,2.9c0.9,0.5,2.4,0.9,4.6,1c2.5,0.1,3.8,1.1,3.8,3.1
				c0,2-1.8,3.4-5.3,4c-4.9,0.9-10,1.3-15.2,1.3c-3.4,0-6.6-0.2-9.7-0.6c-3.8-0.5-6.8-1.2-8.9-2c-2.1-0.7-3.1-1.9-3.1-3.4
				c0-0.8,0.3-1.5,1-2.1C511.1,1072.5,511.9,1072.2,512.9,1072.2z"/>
			<path fill="#FFFFFF" d="M572.7,1027.9c1.1,0,3,0.4,5.6,1.2c1.4,0.5,2.6,1,3.6,1.6s1.4,1.2,1.4,1.7c0,0.4-0.2,0.8-0.5,1.2
				c-0.3,0.4-1.3,1.6-2.9,3.4c-1.1,1.1-2,2.5-2.9,4.2c-0.8,1.6-1.3,2.9-1.3,3.7c0,0.4,0.1,0.7,0.4,1s0.5,0.4,0.9,0.4
				c0.3,0,1.3-0.3,2.9-0.9c2.2-0.8,4.3-1.2,6.2-1.2c3.4,0,6.4,1.1,9.2,3.2c3.9,3,5.8,7,5.8,12c0,4-1.2,7.8-3.5,11.5
				c-4.3,6.7-10.7,10-19.2,10c-7,0-12.7-2-17.1-6.1c-2.4-2.3-4.3-5.1-5.6-8.6c-1.1-2.9-1.6-5.7-1.6-8.6c0-6.8,2.7-13.7,8.1-20.7
				c2.6-3.3,4.6-5.7,6.2-7.1C570.1,1028.6,571.5,1027.9,572.7,1027.9z M577.1,1055.7c-1.2,0-2.1,0.4-2.8,1.3c-0.7,0.8-1,2-1,3.4
				c0,2.2,0.8,4.4,2.4,6.6c1.6,2.2,3.2,3.3,4.8,3.3c1.1,0,2-0.3,2.6-1c0.7-0.7,1-1.5,1-2.6c0-1.8-0.4-3.6-1.2-5.6s-1.8-3.4-2.9-4.3
				C579.1,1056.1,578.1,1055.7,577.1,1055.7z"/>
		</g>
	</g>
	<g>
		<path fill="#7F3F98" d="M589.8,520.3c0.1,0,0.1,0.1,0.2,0.1"/>
	</g>
</g>
<g id="alittleintroduction">
	<path id="graph-yellowpart" fill="#FDB943" stroke="#FDB943" stroke-width="4" stroke-miterlimit="10" d="M210.6,153.6
		c0,24.4-11.5,46.1-29.4,60c-12.9,10-29,16-46.6,16c-41.9,0-75.9-34-75.9-75.9c0-40.4,31.5-73.4,71.2-75.8c1.6-0.1,3.1-0.1,4.7-0.1
		C176.6,77.7,210.6,111.7,210.6,153.6z"/>
	<path id="graph-whitepart" fill="#FFFFFF" stroke="#FDB943" stroke-width="4" stroke-miterlimit="10" d="M210.6,151.4
		c0,24.1-11.5,45.5-29.4,59.3L130,155.6V76.5c1.6-0.1,3.1-0.1,4.7-0.1C176.6,76.4,210.6,110,210.6,151.4z"/>
	<g>
		<path fill="#F9B943" d="M244.7,212.3c0,1.7-0.3,3.2-0.9,4.6c-0.6,1.4-1.4,2.6-2.5,3.7c-1.1,1-2.3,1.8-3.7,2.4
			c-1.4,0.6-3,0.9-4.6,0.9c-1.7,0-3.2-0.3-4.6-0.9c-1.4-0.6-2.7-1.4-3.7-2.4c-1-1-1.9-2.2-2.5-3.7c-0.6-1.4-0.9-3-0.9-4.6
			c0-1.7,0.3-3.2,0.9-4.6c0.6-1.4,1.4-2.6,2.5-3.6c1-1,2.3-1.8,3.7-2.4s3-0.9,4.6-0.9c1.7,0,3.2,0.3,4.6,0.9s2.7,1.4,3.7,2.4
			c1.1,1,1.9,2.2,2.5,3.6C244.4,209,244.7,210.6,244.7,212.3z M240.2,212.3c0-1-0.2-2-0.5-3c-0.3-0.9-0.8-1.8-1.4-2.5
			s-1.4-1.3-2.3-1.7c-0.9-0.4-1.9-0.6-3.1-0.6c-1.2,0-2.2,0.2-3.1,0.6c-0.9,0.4-1.7,1-2.3,1.7s-1.1,1.6-1.4,2.5
			c-0.3,0.9-0.5,1.9-0.5,3c0,1,0.2,2,0.5,3c0.3,0.9,0.8,1.8,1.4,2.5s1.4,1.3,2.3,1.7c0.9,0.4,1.9,0.6,3.1,0.6c1.2,0,2.2-0.2,3.1-0.6
			c0.9-0.4,1.7-1,2.3-1.7s1.1-1.6,1.4-2.5C240,214.3,240.2,213.3,240.2,212.3z"/>
		<path fill="#F9B943" d="M261,205h-5.1v18.3h-4.3V205h-4.3v-3.5h4.3v-4.6c0-1.3,0.1-2.5,0.4-3.6c0.3-1.1,0.8-2,1.4-2.8
			c0.7-0.8,1.5-1.4,2.5-1.9c1-0.5,2.3-0.7,3.7-0.7c1,0,1.9,0.1,2.7,0.3l-0.5,3.7c-0.3-0.1-0.7-0.2-1-0.2c-0.3-0.1-0.7-0.1-1.1-0.1
			c-0.8,0-1.5,0.1-2,0.4c-0.5,0.3-0.9,0.7-1.2,1.2c-0.3,0.5-0.5,1.1-0.6,1.7c-0.1,0.6-0.1,1.3-0.1,2v4.6h5.1V205z"/>
		<path fill="#F9B943" d="M290.2,224c-2.1,0-4-0.4-5.6-1.1c-1.6-0.7-2.9-1.7-4-2.9c-1-1.2-1.8-2.6-2.3-4.1c-0.5-1.5-0.8-3.2-0.8-4.8
			v-20.5h4.6v20.2c0,1.1,0.1,2.2,0.4,3.3c0.3,1.1,0.7,2.1,1.4,2.9c0.6,0.9,1.5,1.5,2.5,2.1c1,0.5,2.3,0.8,3.8,0.8
			c1.5,0,2.8-0.3,3.8-0.8c1-0.5,1.9-1.2,2.5-2.1c0.6-0.9,1.1-1.8,1.4-2.9c0.3-1.1,0.4-2.2,0.4-3.3v-20.2h4.6v20.5
			c0,1.7-0.3,3.3-0.8,4.8c-0.5,1.5-1.3,2.9-2.3,4.1c-1,1.2-2.4,2.2-4,2.9C294.2,223.7,292.4,224,290.2,224z"/>
		<path fill="#F9B943" d="M326.7,196.7c-0.6-0.9-1.5-1.6-2.6-2.2c-1.1-0.6-2.3-0.9-3.7-0.9c-0.7,0-1.5,0.1-2.2,0.3
			c-0.8,0.2-1.4,0.5-2,1c-0.6,0.4-1.1,1-1.5,1.7c-0.4,0.7-0.6,1.4-0.6,2.4c0,0.9,0.2,1.6,0.5,2.2c0.4,0.6,0.8,1.1,1.4,1.5
			c0.6,0.4,1.3,0.8,2.1,1.1c0.8,0.3,1.7,0.6,2.6,0.9c1.1,0.3,2.2,0.7,3.4,1.1c1.1,0.4,2.2,1,3.1,1.7c0.9,0.7,1.7,1.6,2.3,2.6
			c0.6,1.1,0.9,2.4,0.9,4c0,1.7-0.3,3.2-0.9,4.4c-0.6,1.2-1.5,2.3-2.5,3.1c-1,0.8-2.2,1.4-3.6,1.8c-1.4,0.4-2.8,0.6-4.2,0.6
			c-2.1,0-4-0.4-6-1.2c-1.9-0.8-3.5-2-4.8-3.5l3.5-3c0.8,1.1,1.8,2.1,3.1,2.8c1.3,0.7,2.7,1.1,4.2,1.1c0.8,0,1.5-0.1,2.3-0.3
			c0.8-0.2,1.5-0.6,2.1-1c0.6-0.5,1.1-1,1.5-1.7c0.4-0.7,0.6-1.5,0.6-2.5c0-1-0.2-1.8-0.6-2.5c-0.4-0.7-1-1.2-1.7-1.7
			c-0.7-0.5-1.5-0.9-2.5-1.2c-0.9-0.3-1.9-0.7-3-1c-1-0.3-2.1-0.7-3.1-1.1c-1-0.4-1.9-1-2.7-1.7c-0.8-0.7-1.4-1.5-1.9-2.6
			c-0.5-1-0.7-2.3-0.7-3.8c0-1.6,0.3-3,1-4.2c0.7-1.2,1.5-2.1,2.6-2.9c1.1-0.8,2.3-1.3,3.6-1.7c1.3-0.4,2.7-0.5,4-0.5
			c1.9,0,3.7,0.3,5.3,1c1.7,0.7,3,1.6,4,2.7L326.7,196.7z"/>
		<path fill="#F9B943" d="M352.5,204.7c0.5-1.1,1.4-2,2.7-2.8c1.3-0.8,2.7-1.1,4.2-1.1c1.4,0,2.6,0.2,3.6,0.7c1,0.5,1.9,1.1,2.5,1.9
			c0.7,0.8,1.2,1.7,1.5,2.8c0.3,1.1,0.5,2.2,0.5,3.5v13.5h-4.3v-12.1c0-0.9-0.1-1.7-0.2-2.5c-0.1-0.8-0.4-1.5-0.8-2.1
			c-0.4-0.6-0.9-1.1-1.5-1.5c-0.6-0.4-1.4-0.6-2.5-0.6c-1.7,0-3.1,0.7-4.2,2s-1.7,3.1-1.7,5.2v11.6h-4.3v-34.8h4.3L352.5,204.7
			L352.5,204.7z"/>
		<path fill="#F9B943" d="M396.9,212.3c0,1.7-0.3,3.2-0.9,4.6c-0.6,1.4-1.4,2.6-2.5,3.7c-1.1,1-2.3,1.8-3.7,2.4
			c-1.4,0.6-3,0.9-4.6,0.9c-1.7,0-3.2-0.3-4.6-0.9c-1.4-0.6-2.7-1.4-3.7-2.4c-1-1-1.9-2.2-2.5-3.7c-0.6-1.4-0.9-3-0.9-4.6
			c0-1.7,0.3-3.2,0.9-4.6c0.6-1.4,1.4-2.6,2.5-3.6c1-1,2.3-1.8,3.7-2.4s3-0.9,4.6-0.9c1.7,0,3.2,0.3,4.6,0.9s2.7,1.4,3.7,2.4
			c1.1,1,1.9,2.2,2.5,3.6C396.6,209,396.9,210.6,396.9,212.3z M392.4,212.3c0-1-0.2-2-0.5-3c-0.3-0.9-0.8-1.8-1.4-2.5
			s-1.4-1.3-2.3-1.7c-0.9-0.4-1.9-0.6-3.1-0.6c-1.2,0-2.2,0.2-3.1,0.6c-0.9,0.4-1.7,1-2.3,1.7s-1.1,1.6-1.4,2.5
			c-0.3,0.9-0.5,1.9-0.5,3c0,1,0.2,2,0.5,3c0.3,0.9,0.8,1.8,1.4,2.5s1.4,1.3,2.3,1.7c0.9,0.4,1.9,0.6,3.1,0.6c1.2,0,2.2-0.2,3.1-0.6
			c0.9-0.4,1.7-1,2.3-1.7s1.1-1.6,1.4-2.5C392.3,214.3,392.4,213.3,392.4,212.3z"/>
		<path fill="#F9B943" d="M418.3,223.2c-0.1-0.6-0.1-1.2-0.1-1.9c0-0.7,0-1.3,0-1.7H418c-0.6,1.2-1.5,2.2-2.8,3
			c-1.3,0.8-2.8,1.2-4.3,1.2c-1.4,0-2.6-0.2-3.7-0.7c-1-0.5-1.9-1.1-2.5-1.9c-0.7-0.8-1.1-1.8-1.5-2.8c-0.3-1.1-0.5-2.2-0.5-3.4
			v-13.5h4.3v12.1c0,0.9,0.1,1.7,0.2,2.6c0.1,0.8,0.4,1.5,0.8,2.1c0.4,0.6,0.9,1.1,1.5,1.5c0.6,0.4,1.5,0.6,2.5,0.6
			c1.7,0,3.2-0.7,4.2-2c1.1-1.3,1.6-3,1.6-5.2v-11.6h4.3v17.1c0,0.6,0,1.3,0,2.3c0,0.9,0.1,1.7,0.1,2.4H418.3z"/>
		<path fill="#F9B943" d="M441.5,206.9c-0.5-0.8-1.2-1.4-2.1-2c-0.9-0.5-1.9-0.8-3-0.8c-0.5,0-1,0.1-1.5,0.2
			c-0.5,0.1-0.9,0.3-1.3,0.5c-0.4,0.2-0.7,0.5-0.9,0.9c-0.2,0.4-0.3,0.8-0.3,1.3c0,0.9,0.4,1.6,1.2,2c0.8,0.4,2.1,0.9,3.7,1.2
			c1,0.2,2,0.5,2.9,0.9c0.9,0.3,1.7,0.8,2.3,1.3c0.7,0.5,1.2,1.1,1.5,1.8c0.4,0.7,0.6,1.5,0.6,2.5c0,1.3-0.2,2.4-0.7,3.3
			c-0.5,0.9-1.1,1.6-2,2.2c-0.8,0.6-1.7,1-2.8,1.2c-1,0.2-2.1,0.4-3.2,0.4c-1.7,0-3.3-0.3-4.9-1c-1.6-0.6-2.9-1.6-3.9-2.9l3.1-2.6
			c0.6,0.9,1.4,1.6,2.4,2.2c1,0.6,2.2,0.9,3.4,0.9c0.6,0,1.1-0.1,1.6-0.2c0.5-0.1,1-0.3,1.4-0.5c0.4-0.2,0.7-0.6,1-1
			c0.2-0.4,0.4-0.9,0.4-1.5c0-1-0.5-1.8-1.4-2.3c-1-0.5-2.4-1-4.3-1.4c-0.7-0.2-1.5-0.4-2.2-0.7c-0.8-0.3-1.4-0.6-2-1.1
			c-0.6-0.5-1.1-1-1.5-1.7c-0.4-0.7-0.6-1.5-0.6-2.6c0-1.2,0.2-2.2,0.7-3c0.5-0.8,1.1-1.5,1.9-2.1c0.8-0.5,1.6-0.9,2.6-1.2
			c1-0.3,2-0.4,3-0.4c1.6,0,3.1,0.3,4.5,0.9c1.5,0.6,2.6,1.5,3.4,2.7L441.5,206.9z"/>
		<path fill="#F9B943" d="M470.5,212.1c0,0.2,0,0.5,0,0.7c0,0.2,0,0.5,0,0.7h-17.3c0,0.9,0.2,1.8,0.6,2.6c0.4,0.8,0.9,1.5,1.5,2.1
			c0.6,0.6,1.4,1.1,2.2,1.4c0.8,0.3,1.7,0.5,2.7,0.5c1.5,0,2.7-0.3,3.8-1c1.1-0.6,1.9-1.4,2.5-2.3l3,2.4c-1.2,1.5-2.5,2.7-4.1,3.4
			c-1.6,0.7-3.3,1.1-5.3,1.1c-1.7,0-3.2-0.3-4.6-0.8c-1.4-0.6-2.6-1.3-3.6-2.3c-1-1-1.8-2.2-2.4-3.6c-0.6-1.4-0.9-3-0.9-4.7
			c0-1.7,0.3-3.2,0.9-4.7c0.6-1.4,1.4-2.6,2.4-3.7c1-1,2.2-1.8,3.6-2.4s2.9-0.9,4.5-0.9c1.6,0,3,0.3,4.4,0.8
			c1.3,0.5,2.4,1.3,3.3,2.3c0.9,1,1.6,2.2,2.1,3.6C470.2,208.8,470.5,210.4,470.5,212.1z M466.1,210.4c0-0.9-0.2-1.7-0.4-2.4
			c-0.3-0.8-0.6-1.4-1.2-2c-0.5-0.6-1.1-1-1.9-1.3c-0.8-0.3-1.6-0.5-2.6-0.5c-0.9,0-1.8,0.2-2.6,0.5c-0.8,0.3-1.5,0.8-2.1,1.3
			c-0.6,0.6-1.1,1.2-1.5,2c-0.4,0.8-0.6,1.6-0.7,2.4H466.1z"/>
		<path fill="#F9B943" d="M481,204.7c0.5-1.1,1.4-2,2.7-2.8c1.3-0.8,2.7-1.1,4.2-1.1c1.4,0,2.6,0.2,3.6,0.7c1,0.5,1.9,1.1,2.5,1.9
			s1.2,1.7,1.5,2.8c0.3,1.1,0.5,2.2,0.5,3.5v13.5h-4.3v-12.1c0-0.9-0.1-1.7-0.2-2.5c-0.1-0.8-0.4-1.5-0.8-2.1
			c-0.4-0.6-0.9-1.1-1.5-1.5c-0.6-0.4-1.4-0.6-2.5-0.6c-1.7,0-3.1,0.7-4.2,2c-1.1,1.3-1.7,3.1-1.7,5.2v11.6h-4.3v-34.8h4.3
			L481,204.7L481,204.7z"/>
		<path fill="#F9B943" d="M525.4,212.3c0,1.7-0.3,3.2-0.9,4.6c-0.6,1.4-1.4,2.6-2.5,3.7c-1.1,1-2.3,1.8-3.7,2.4
			c-1.4,0.6-3,0.9-4.6,0.9c-1.7,0-3.2-0.3-4.6-0.9c-1.4-0.6-2.7-1.4-3.7-2.4c-1-1-1.9-2.2-2.5-3.7c-0.6-1.4-0.9-3-0.9-4.6
			c0-1.7,0.3-3.2,0.9-4.6c0.6-1.4,1.4-2.6,2.5-3.6c1-1,2.3-1.8,3.7-2.4s3-0.9,4.6-0.9c1.7,0,3.2,0.3,4.6,0.9s2.7,1.4,3.7,2.4
			c1.1,1,1.9,2.2,2.5,3.6C525.1,209,525.4,210.6,525.4,212.3z M520.9,212.3c0-1-0.2-2-0.5-3c-0.3-0.9-0.8-1.8-1.4-2.5
			s-1.4-1.3-2.3-1.7c-0.9-0.4-1.9-0.6-3.1-0.6s-2.2,0.2-3.1,0.6s-1.7,1-2.3,1.7s-1.1,1.6-1.4,2.5c-0.3,0.9-0.5,1.9-0.5,3
			c0,1,0.2,2,0.5,3c0.3,0.9,0.8,1.8,1.4,2.5s1.4,1.3,2.3,1.7c0.9,0.4,1.9,0.6,3.1,0.6s2.2-0.2,3.1-0.6c0.9-0.4,1.7-1,2.3-1.7
			s1.1-1.6,1.4-2.5C520.7,214.3,520.9,213.3,520.9,212.3z"/>
		<path fill="#F9B943" d="M535.8,223.2h-4.3v-34.8h4.3V223.2z"/>
		<path fill="#F9B943" d="M560.7,219.8c-0.8,1.3-2,2.3-3.4,3c-1.4,0.7-2.9,1-4.5,1c-1.7,0-3.2-0.3-4.6-0.9c-1.4-0.6-2.5-1.4-3.5-2.5
			c-1-1-1.7-2.3-2.2-3.7c-0.5-1.4-0.8-2.9-0.8-4.5c0-1.6,0.3-3.1,0.8-4.5c0.5-1.4,1.3-2.6,2.2-3.7c1-1,2.1-1.9,3.5-2.4
			c1.3-0.6,2.8-0.9,4.5-0.9c1.8,0,3.3,0.4,4.6,1.1c1.3,0.8,2.4,1.7,3.1,2.7h0.1v-16.2h4.3v34.8h-4.2L560.7,219.8L560.7,219.8z
			 M546.4,212.3c0,1,0.2,2,0.5,2.9c0.3,0.9,0.8,1.8,1.4,2.5s1.4,1.3,2.3,1.8c0.9,0.4,1.9,0.7,3.1,0.7c1.1,0,2.1-0.2,3-0.6
			c0.9-0.4,1.7-1,2.3-1.7c0.6-0.7,1.1-1.6,1.5-2.5c0.4-0.9,0.5-1.9,0.5-3c0-1-0.2-2-0.5-3c-0.4-0.9-0.9-1.8-1.5-2.5
			c-0.6-0.7-1.4-1.3-2.3-1.7c-0.9-0.4-1.9-0.6-3-0.6c-1.2,0-2.2,0.2-3.1,0.6c-0.9,0.4-1.6,1-2.3,1.7s-1.1,1.6-1.4,2.5
			C546.5,210.3,546.4,211.3,546.4,212.3z"/>
		<path fill="#F9B943" d="M606.1,212.3c0,1.7-0.3,3.2-0.9,4.6c-0.6,1.4-1.4,2.6-2.5,3.7c-1.1,1-2.3,1.8-3.7,2.4
			c-1.4,0.6-3,0.9-4.6,0.9c-1.7,0-3.2-0.3-4.6-0.9c-1.4-0.6-2.7-1.4-3.7-2.4c-1-1-1.9-2.2-2.5-3.7c-0.6-1.4-0.9-3-0.9-4.6
			c0-1.7,0.3-3.2,0.9-4.6c0.6-1.4,1.4-2.6,2.5-3.6c1-1,2.3-1.8,3.7-2.4s3-0.9,4.6-0.9c1.7,0,3.2,0.3,4.6,0.9s2.7,1.4,3.7,2.4
			c1.1,1,1.9,2.2,2.5,3.6C605.8,209,606.1,210.6,606.1,212.3z M601.6,212.3c0-1-0.2-2-0.5-3c-0.3-0.9-0.8-1.8-1.4-2.5
			s-1.4-1.3-2.3-1.7c-0.9-0.4-1.9-0.6-3.1-0.6s-2.2,0.2-3.1,0.6s-1.7,1-2.3,1.7s-1.1,1.6-1.4,2.5c-0.3,0.9-0.5,1.9-0.5,3
			c0,1,0.2,2,0.5,3c0.3,0.9,0.8,1.8,1.4,2.5s1.4,1.3,2.3,1.7c0.9,0.4,1.9,0.6,3.1,0.6s2.2-0.2,3.1-0.6c0.9-0.4,1.7-1,2.3-1.7
			s1.1-1.6,1.4-2.5C601.5,214.3,601.6,213.3,601.6,212.3z"/>
		<path fill="#F9B943" d="M613.7,201.4l4.9,16.7h0.1l5.2-16.7h4.6l5.3,16.7h0.1l4.9-16.7h4.6l-7.2,21.8h-4.5l-5.4-16.4h-0.1
			l-5.3,16.4h-4.5l-7.3-21.8H613.7z"/>
		<path fill="#F9B943" d="M651.6,201.4c0.1,0.6,0.1,1.2,0.1,1.9c0,0.7,0,1.3,0,1.7h0.1c0.3-0.6,0.7-1.1,1.1-1.6c0.5-0.5,1-1,1.6-1.3
			c0.6-0.4,1.3-0.7,2-0.9c0.7-0.2,1.5-0.3,2.3-0.3c1.4,0,2.6,0.2,3.6,0.7c1,0.5,1.9,1.1,2.5,1.9c0.7,0.8,1.2,1.7,1.5,2.8
			c0.3,1.1,0.5,2.2,0.5,3.5v13.5h-4.3v-12.1c0-0.9-0.1-1.7-0.2-2.5c-0.1-0.8-0.4-1.5-0.8-2.1c-0.4-0.6-0.9-1.1-1.5-1.5
			c-0.6-0.4-1.5-0.6-2.5-0.6c-1.7,0-3.1,0.7-4.2,2c-1.1,1.3-1.6,3-1.6,5.2v11.6h-4.3v-17.1c0-0.6,0-1.3,0-2.3c0-0.9-0.1-1.7-0.1-2.4
			H651.6z"/>
		<path fill="#F9B943" d="M699.5,209.1c0-1.6-0.5-2.8-1.5-3.6c-1-0.8-2.3-1.2-3.9-1.2c-1.2,0-2.4,0.2-3.5,0.7
			c-1.1,0.5-2,1.1-2.7,1.8l-2.3-2.8c1.1-1,2.4-1.8,3.9-2.4c1.5-0.6,3.2-0.9,5-0.9c1.6,0,2.9,0.2,4.1,0.7c1.1,0.4,2.1,1.1,2.8,1.8
			c0.7,0.8,1.3,1.7,1.7,2.7c0.4,1,0.6,2.2,0.6,3.4v9.5c0,0.7,0,1.5,0.1,2.3c0,0.8,0.1,1.5,0.3,2h-3.9c-0.2-1-0.4-2.1-0.4-3.1h-0.1
			c-0.8,1.2-1.8,2.1-3,2.7c-1.2,0.6-2.6,1-4.3,1c-0.9,0-1.8-0.1-2.7-0.3s-1.8-0.6-2.6-1.1c-0.8-0.5-1.4-1.2-1.9-2.1
			c-0.5-0.9-0.8-1.9-0.8-3.2c0-1.7,0.4-3,1.3-3.9c0.9-1,2.1-1.7,3.5-2.2c1.4-0.5,3.1-0.8,4.9-1c1.8-0.2,3.6-0.2,5.5-0.2V209.1z
			 M698.5,212.8c-1.1,0-2.2,0-3.3,0.1c-1.2,0.1-2.2,0.3-3.1,0.6c-0.9,0.3-1.7,0.7-2.3,1.2c-0.6,0.6-0.9,1.3-0.9,2.2
			c0,0.6,0.1,1.2,0.4,1.6c0.3,0.4,0.6,0.8,1,1.1c0.4,0.3,0.9,0.5,1.4,0.6c0.5,0.1,1.1,0.2,1.6,0.2c2,0,3.6-0.6,4.7-1.8
			c1.1-1.2,1.6-2.7,1.6-4.6v-1.1H698.5z"/>
		<path fill="#F9B943" d="M726.7,234.3h-4.3v-32.8h4.2v3.4h0.1c0.7-1.2,1.7-2.1,3.1-2.9c1.4-0.8,2.9-1.1,4.7-1.1
			c1.6,0,3.1,0.3,4.4,0.9c1.3,0.6,2.5,1.4,3.4,2.4c1,1,1.7,2.3,2.2,3.7c0.5,1.4,0.8,2.9,0.8,4.5c0,1.6-0.3,3.1-0.8,4.5
			c-0.5,1.4-1.3,2.6-2.2,3.7s-2.1,1.9-3.4,2.5c-1.3,0.6-2.9,0.9-4.5,0.9c-1.6,0-3-0.3-4.4-1c-1.4-0.7-2.5-1.6-3.3-2.9h-0.1V234.3z
			 M741,212.3c0-1-0.2-2-0.5-2.9c-0.3-1-0.8-1.8-1.4-2.5c-0.6-0.7-1.4-1.3-2.3-1.7c-0.9-0.4-2-0.6-3.2-0.6c-1.1,0-2.1,0.2-3,0.6
			c-0.9,0.4-1.7,1-2.3,1.7c-0.6,0.7-1.1,1.6-1.5,2.5c-0.4,1-0.5,1.9-0.5,3c0,1,0.2,2,0.5,3c0.4,1,0.9,1.8,1.5,2.5
			c0.6,0.7,1.4,1.3,2.3,1.7c0.9,0.4,1.9,0.6,3,0.6c1.2,0,2.2-0.2,3.2-0.7c0.9-0.4,1.7-1,2.3-1.8c0.6-0.7,1.1-1.6,1.4-2.5
			C740.9,214.3,741,213.3,741,212.3z"/>
		<path fill="#F9B943" d="M771.9,212.1c0,0.2,0,0.5,0,0.7c0,0.2,0,0.5,0,0.7h-17.3c0,0.9,0.2,1.8,0.6,2.6c0.4,0.8,0.9,1.5,1.5,2.1
			c0.6,0.6,1.4,1.1,2.2,1.4c0.8,0.3,1.7,0.5,2.7,0.5c1.5,0,2.7-0.3,3.8-1c1.1-0.6,1.9-1.4,2.5-2.3l3,2.4c-1.2,1.5-2.5,2.7-4.1,3.4
			c-1.6,0.7-3.3,1.1-5.3,1.1c-1.7,0-3.2-0.3-4.6-0.8c-1.4-0.6-2.6-1.3-3.6-2.3c-1-1-1.8-2.2-2.4-3.6c-0.6-1.4-0.9-3-0.9-4.7
			c0-1.7,0.3-3.2,0.9-4.7c0.6-1.4,1.4-2.6,2.4-3.7c1-1,2.2-1.8,3.6-2.4s2.9-0.9,4.5-0.9c1.6,0,3,0.3,4.4,0.8
			c1.3,0.5,2.4,1.3,3.3,2.3c0.9,1,1.6,2.2,2.1,3.6C771.7,208.8,771.9,210.4,771.9,212.1z M767.5,210.4c0-0.9-0.2-1.7-0.4-2.4
			c-0.3-0.8-0.6-1.4-1.2-2c-0.5-0.6-1.1-1-1.9-1.3c-0.8-0.3-1.6-0.5-2.6-0.5c-0.9,0-1.8,0.2-2.6,0.5c-0.8,0.3-1.5,0.8-2.1,1.3
			c-0.6,0.6-1.1,1.2-1.5,2c-0.4,0.8-0.6,1.6-0.7,2.4H767.5z"/>
		<path fill="#F9B943" d="M788.6,205h-5.8v11.3c0,1.3,0.2,2.3,0.7,2.8c0.5,0.6,1.3,0.8,2.3,0.8c0.4,0,0.8,0,1.3-0.1
			c0.5-0.1,0.9-0.2,1.2-0.4l0.1,3.5c-0.5,0.2-1.1,0.3-1.7,0.4c-0.6,0.1-1.3,0.2-2,0.2c-2.1,0-3.6-0.6-4.7-1.7
			c-1.1-1.1-1.6-2.8-1.6-5.1V205h-4.2v-3.5h4.2v-6.3h4.3v6.3h5.8V205z"/>
	</g>
	<g>
		<rect x="232.7" y="107.2" fill="none" width="203.3" height="176.6"/>
		<path fill="#FDB943" d="M255.8,110.2c1.3,0,3.5,0.5,6.5,1.4c1.6,0.5,3,1.2,4.1,1.9s1.7,1.4,1.7,2c0,0.5-0.2,0.9-0.5,1.4
			s-1.5,1.8-3.4,4c-1.2,1.3-2.3,2.9-3.3,4.8c-1,1.9-1.5,3.3-1.5,4.3c0,0.5,0.1,0.9,0.4,1.2c0.3,0.3,0.6,0.5,1,0.5
			c0.3,0,1.5-0.3,3.3-1c2.6-0.9,5-1.4,7.2-1.4c3.9,0,7.4,1.2,10.6,3.7c4.5,3.5,6.7,8.1,6.7,13.9c0,4.6-1.4,9-4.1,13.3
			c-5,7.8-12.4,11.6-22.2,11.6c-8.2,0-14.8-2.3-19.8-7.1c-2.8-2.6-4.9-5.9-6.4-9.9c-1.3-3.3-1.9-6.6-1.9-10c0-7.8,3.1-15.8,9.4-24
			c3-3.9,5.4-6.6,7.2-8.2C252.7,111,254.4,110.2,255.8,110.2z M260.8,142.4c-1.4,0-2.4,0.5-3.2,1.5c-0.8,1-1.2,2.3-1.2,4
			c0,2.6,0.9,5.1,2.7,7.6c1.8,2.5,3.7,3.8,5.6,3.8c1.3,0,2.3-0.4,3.1-1.1c0.8-0.8,1.2-1.8,1.2-3c0-2.1-0.5-4.2-1.4-6.5
			c-0.9-2.2-2.1-3.9-3.4-5C263.2,142.9,262.1,142.5,260.8,142.4z"/>
		<path fill="#FDB943" d="M326.3,170.6h-31.6c-2.8,0-4.2-0.8-4.2-2.4c0-0.8,0.3-1.6,0.9-2.2c0.6-0.7,2.5-2.6,5.7-5.6
			c6-5.6,10.4-10.9,13.3-15.7c1.5-2.5,2.2-4.6,2.2-6.4c0-1.5-0.4-2.8-1.3-3.7c-0.9-0.9-2.1-1.4-3.6-1.4c-1.4,0-2.5,0.2-3.2,0.6
			s-2.4,1.6-4.9,3.8c-0.7,0.6-1.6,0.8-2.7,0.8c-1.5,0-2.8-0.6-4-1.7c-1.2-1.1-1.8-2.4-1.8-3.7c0-1.2,0.6-2.6,1.7-4.1
			c1.1-1.5,2.6-3,4.4-4.3c6.7-4.8,14.1-7.2,22.2-7.2c6.2,0,11.3,1.2,15.4,3.6c1.8,1.1,3.3,2.6,4.4,4.5s1.7,4,1.7,6.1
			c0,5.4-3.7,11.3-11.2,17.6c-2.7,2.2-4,3.9-4,5c0,0.9,0.4,1.6,1.2,2.2c0.8,0.6,1.8,0.9,2.9,0.9c2.7,0,5.1-1.1,7.3-3.2
			c1.1-1.1,1.8-1.7,2.2-1.9c0.4-0.2,0.8-0.3,1.5-0.3c2.7,0,4.1,2.3,4.1,7c0,2.3-0.4,4.7-1.3,7.1c-0.9,2.4-2.1,4.4-3.6,6.2
			c-1.6,1.9-3.4,2.8-5.3,2.8c-0.8,0-1.4-0.2-1.9-0.5c-0.5-0.3-1-0.9-1.6-1.8c-0.6-0.9-1.1-1.4-1.6-1.7
			C328.8,170.7,327.8,170.6,326.3,170.6z"/>
		<path fill="#FDB943" d="M367.9,106.3c3.9,0,7.4,1.2,10.6,3.7c4.1,3.2,6.2,7.1,6.2,11.7c0,2.3-0.6,4.5-1.7,6.7
			c-1.1,2.2-2.7,4-4.7,5.6c-3.8,3-8.2,4.5-13.3,4.5c-5.2,0-9.4-1.5-12.6-4.5c-2.9-2.8-4.4-6.3-4.4-10.5c0-5,1.8-9,5.3-12.1
			c1.8-1.5,4-2.8,6.6-3.7C362.5,106.7,365.2,106.3,367.9,106.3z M364.7,113.5c-0.8,0-1.5,0.3-2,1c-0.5,0.6-0.8,1.5-0.8,2.5
			c0,3.1,0.6,6.2,1.9,9.5c0.6,1.5,1.2,2.6,1.7,3.1c0.5,0.6,1.2,0.9,2.1,0.9c1.7,0,2.6-1.2,2.6-3.6c0-3.6-0.7-6.9-2.1-10.2
			C367.3,114.6,366.1,113.5,364.7,113.5z M376,147.5l14.1-23.8c3.7-6.5,6.3-11.1,7.6-13.8c0.8-1.6,1.5-2.6,2.2-3.2s1.8-0.8,3.1-0.8
			c2.9,0,4.4,0.7,4.4,2.2c0,1-1.2,3.3-3.6,6.9c-1.8,2.6-4.3,6.7-7.7,12.2l-14.3,24.3c-3,5.4-5.7,10.5-8.3,15.1
			c-0.8,1.7-1.6,2.9-2.2,3.5s-1.5,0.9-2.6,0.9c-1.6,0-2.9-0.2-3.9-0.7c-1-0.5-1.5-1.1-1.5-1.8c0-0.6,0.3-1.4,1-2.3
			c0.9-1.3,3.5-5.3,7.7-12L376,147.5z M405.7,138.8c3.9,0,7.4,1.2,10.6,3.7c4.1,3.2,6.2,7.1,6.2,11.7c0,2.3-0.6,4.5-1.7,6.7
			c-1.1,2.2-2.7,4-4.7,5.6c-3.8,3-8.2,4.5-13.3,4.5c-5.2,0-9.4-1.5-12.6-4.5c-2.9-2.8-4.4-6.3-4.4-10.5c0-5,1.8-9,5.3-12.1
			c1.8-1.5,4-2.8,6.6-3.7C400.4,139.3,403,138.8,405.7,138.8z M402.5,146c-0.8,0-1.5,0.3-2,1c-0.5,0.6-0.8,1.5-0.8,2.5
			c0,3.1,0.6,6.3,1.9,9.5c0.6,1.5,1.2,2.6,1.7,3.1c0.5,0.6,1.2,0.9,2.1,0.9c1.7,0,2.6-1.2,2.6-3.6c0-3.6-0.7-6.9-2-10.2
			C405.1,147.1,404,146.1,402.5,146z"/>
	</g>
	<g>
	</g>
	<g>
	</g>
	<g>
	</g>
	<g>
	</g>
	<g>
	</g>
	<g>
	</g>
</g>
</svg>
