<?xml version="1.0" encoding="utf-8"?>
<!-- Generator: Adobe Illustrator 19.2.0, SVG Export Plug-In . SVG Version: 6.00 Build 0)  -->
<svg version="1.1" xmlns="http://www.w3.org/2000/svg" xmlns:xlink="http://www.w3.org/1999/xlink" x="0px" y="0px" width="811.2px"
	 height="431.6px" viewBox="0 0 811.2 431.6" style="enable-background:new 0 0 811.2 431.6;" xml:space="preserve">
<style type="text/css">
	.st0{fill:#F7911E;stroke:#00AEEF;stroke-miterlimit:10;}
	.st1{fill:#FFFFFF;}
	.st2{fill:#FDB943;}
	.st3{fill:#F9BA43;}
	.st4{fill:#F9B943;}
	.st5{fill:#BE1E2D;}
	.st6{fill:#8E1923;}
	.st7{fill:#E6D1C4;}
	.st8{fill:none;}
	.st9{fill:#D1D3D4;}
	.st10{fill:#C2B59B;}
	.st11{fill:#9B8579;}
</style>
<g id="background_circles">
	<rect id="yellow-square" x="0.5" y="0.5" class="st0" width="810.2" height="430.6"/>
	<circle id="circle-cat" class="st1" cx="578.3" cy="201.9" r="117.8"/>
	<circle id="circle-dog" class="st1" cx="231.9" cy="201.9" r="117.8"/>
</g>
<g id="cat">
	<path class="st2" d="M697.9,157.9c-4-8.6-8.3-17.3-15.2-23.8c-6.9-6.5-17.1-10.3-26.1-7.3c21.4,20.1,36.2,47,41.8,75.8
		c3.1,16.1,3,34.1-6.9,47.2c-7.1,9.4-18.4,14.9-29.9,17.4c-11.5,2.4-23.5,2.1-35.2,1.7c2.2,2.5,4.4,4.9,6.6,7.4
		c10.5-5.6,23.2-0.6,35-0.9c24.1-0.6,42.7-24.1,45.8-47.9C716.8,203.5,707.9,179.8,697.9,157.9z"/>
	<path class="st2" d="M635.6,261.3c-2.9,2.6-5.8,5.2-8.9,7.6c-0.1,0-0.1,0.1-0.2,0.2c-4.1,3.3-8.4,6.2-13.1,8.4
		c-7.2,3.3-15.5,4.5-22.8,1.9c-0.6-0.2-1.1-0.4-1.7-0.7c-0.1-2-0.9-3.9-2-5.5c1.7-0.6,3.3-1.2,5-1.8v0c0.2-0.1,0.4-0.2,0.7-0.2v0
		c8.2-3,16.5-6,24.7-8.9c5.3-1.9,10.5-3.8,15.8-5.7c0.3,0.6,0.7,1.3,1,1.9C634.5,259.3,635,260.3,635.6,261.3z"/>
	<path class="st2" d="M660.3,221c-3.7-0.1-6.1-3.2-8.2-6.6c-0.1-0.2-0.3-0.5-0.4-0.7c-0.8-1.4-1.6-2.8-2.4-4.1
		c-0.7-1.2-1.5-2.3-2.4-3.4c0.4-0.6,0.9-1.2,1.5-1.6c1.2-0.9,2.7-1.3,4.1-1.8c0.7-0.2,1.4-0.4,2.2-0.7c1.6,3,2.9,6.3,3.9,9.6
		c0,0.1,0,0.2,0.1,0.2C659.4,215,660,218,660.3,221z"/>
	<path class="st2" d="M511.6,157c-0.8,1.8-1.8,3.6-2.9,5.3c-1,1.4-2.4,2.8-4.2,2.9c-0.4,0-0.8,0-1.1-0.2c0.1-0.2,0.2-0.4,0.2-0.6
		c0.2-0.4,0.2-0.9,0.3-1.3c0-0.4,0.1-0.7,0.1-1c0-2.2-1-4.3-2.1-6.4c-0.2-0.4-0.4-0.8-0.6-1.1c-0.6-1-1.3-2.1-1.9-3.1
		c0.5-0.7,1.2-1.3,2.1-1.5c1.2-0.3,2.5,0.2,3.6,0.8c1.6,0.7,3.2,1.5,4.8,2.2c0.8,0.4,1.8,0.9,2.1,1.7
		C512.2,155.3,511.9,156.2,511.6,157z"/>
	<path class="st2" d="M504.1,126.3c0,0.1,0,0.2-0.1,0.3c-0.1,0-0.1,0-0.2,0C503.9,126.5,504,126.4,504.1,126.3z"/>
	<path class="st2" d="M509.1,123.5c0-0.1-0.1-0.3-0.2-0.4c0,0,0,0,0.1,0C509,123.3,509,123.4,509.1,123.5z"/>
	<path d="M519.5,172.6c-1.3,1.7-2.7,3.4-4,5c-4.7-1.3-9-3.8-12.4-7.2c0.2,0.2,0.7-0.6,1-0.7c-0.2,0-0.4,0-0.7,0
		c5.7-2.6,11.9-3.7,18.1-3.3C522.3,168.4,520.8,170.9,519.5,172.6z"/>
	<path class="st2" d="M534.9,161.3L534.9,161.3c-1.6-0.4-3.2-0.5-4.7-0.7c-0.7,0.2-1.8,0.3-3.2-0.3c-1.3-0.2-2.3-0.6-2.8-1.5
		c-0.3-0.5-0.5-1.2-0.5-1.8c0,0,0,0,0-0.1c-0.1-0.7,0-1.5,0.3-2.3c0.7-2.1,2.2-4.2,3.5-5.4c0,0,0.1,0,0.1-0.1l0,0
		c0.2,0,0.3-0.1,0.5-0.2c0.7-0.2,1.4-0.5,2.1-0.8c10.9-5.3,16.4-2.9,18-1.9c0.4,0.2,0.5,0.4,0.5,0.4
		C553.8,156,544,163.5,534.9,161.3z"/>
	<path class="st2" d="M552.9,254.4c0,0.8-0.1,1.7-0.3,2.5c-0.7,2.9-2.4,5.5-3.2,8.3c-0.2,0.8-0.4,1.6-0.5,2.4
		c-1,0.2-1.9,0.4-1.7,0.4c-1.2,0.1-2.4,0.1-3.7,0.1c0,0-0.1,0-0.1,0c0,0-0.1,0-0.1,0l-0.6-0.6c-0.5-0.6-1.1-1.1-1.8-1.6
		c-0.2-0.1-0.4-0.3-0.6-0.4c1.6-3.2,1.8-6.9,0.9-10.3c-0.1-0.2-0.1-0.5-0.2-0.7c0.1,0,0.3,0.1,0.4,0.1c0.4,0.1,0.9,0.2,1.3,0.3
		C546.3,255.5,549.7,255.5,552.9,254.4z"/>
	<path class="st2" d="M583.7,136.8c-0.1,0-0.2,0-0.2-0.1c-0.1-0.1-0.1-0.2-0.1-0.3c0.1,0.1,0.1,0.1,0.2,0.2
		C583.6,136.7,583.6,136.7,583.7,136.8z"/>
	<path class="st2" d="M587.1,142.4c-0.1,0-0.2,0.1-0.3,0.1C586.9,142.5,587,142.4,587.1,142.4C587.1,142.4,587.1,142.4,587.1,142.4z
		"/>
	<path class="st2" d="M592.5,271c-0.2,0.2-0.4,0.4-0.6,0.6c0-0.1-0.1-0.3-0.1-0.4v0C592.1,271.2,592.3,271.1,592.5,271z"/>
	<path class="st2" d="M614.3,208.6c-0.1,0.6-0.2,1.3-0.3,2.1c-0.3-2.1-0.3-4.2,0.2-6.2C614.4,205.8,614.5,207.2,614.3,208.6z"/>
	<path class="st2" d="M637.6,185.3c-10.4-4.9-23.6-3.2-32.2,4.5c-4.1-4.7-8.6-9.1-10.8-13.4c-0.4-0.7-0.7-1.4-0.9-2.1
		c-1.5-4.2-1.1-8.4-1.2-12.8c0.1,0,0.3,0,0.4,0c-0.1-0.2-0.3-0.3-0.4-0.4c0-0.5,0-1-0.1-1.5c0.6-0.1,1.2-0.2,1.8-0.5
		c-0.7,0-1.3-0.1-1.9-0.4c0-0.4-0.1-0.9-0.2-1.3c0.6-0.1,1.1-0.3,1.6-0.6c-0.6-0.4-1.3-0.8-1.9-1.2c-0.1-0.4-0.2-0.8-0.3-1.3
		c1.1-0.1,2.2-0.1,3.3,0.1c-1.2-0.6-2.3-1.2-3.5-1.9c-0.2-0.1-0.3-0.2-0.3-0.4c0-0.1,0.2-0.2,0.3-0.2c1-0.2,2-0.5,3.1-0.7
		c-1.3-0.1-2.5-0.3-3.8-0.5c0-0.1-0.1-0.2-0.1-0.4c1-0.6,2.1-1.1,3.1-1.6c-0.6-0.2-1.2,0.1-1.8,0.2c-0.6,0.2-1.5,0-1.5-0.7
		c0-0.4,0.2-0.7,0.5-0.9c0.5-0.5,1.2-1.1,1.9-1.6c-1,0.7-2.2,1-3.5,1c-0.2-0.5-0.4-1-0.6-1.5c1-1.3,2.2-2.4,3.6-3.2
		c-1.7-0.3-3.4-0.2-5.1,0.3c-0.1,0-0.2,0.1-0.3,0.1c0.1,0,0.2-0.1,0.3-0.1c1.9-0.8,3.4-2.3,4.3-4.1c-1.6,1.3-3.6,1.9-5.7,1.8
		c-0.1-0.1-0.1-0.2-0.2-0.3c1.6-0.6,2.8-2,3.2-3.6c-1.6,0.2-3.2,0.5-4.8,0.7c-0.1,0-0.2,0-0.3,0c-0.1,0-0.2,0-0.2-0.1
		c-0.1-0.1-0.1-0.2-0.1-0.3c0-0.1,0.1-0.3,0.2-0.4c1.2-1.4,2.7-2.6,4.3-3.5c-1.9,0.4-3.7,0.8-5.6,1.2c-0.3,0.1-0.6,0.1-0.7-0.2
		c-0.1-0.2,0-0.4,0.2-0.5c0.9-1.2,1.8-2.4,2.7-3.6c-1.5,1-2.9,1.9-4.4,2.9c-0.2-0.2-0.3-0.5-0.5-0.7c0.6-1.4,1.1-2.8,1.7-4.1
		c-0.8,0.3-1.3,1.2-1.8,1.9c-0.2,0.3-0.6,0.6-0.9,0.8c-0.5-0.9-1.1-1.7-1.5-2.6c0,0,0,0,0,0c0.1-0.8,0.3-1.7,0.5-2.5
		c-0.2,0.6-0.4,1.2-0.8,1.8c-0.3-0.6-0.5-1.3-0.7-2c-2-7.4,2.7-14.8,8.1-20.5c5.4-5.7,12-10.9,15-18c-15.6,2.7-30.4,9.1-42.6,18.3
		c0.1-0.2,0.1-0.5,0.2-0.8c-0.3,0.4-0.6,0.8-0.9,1.2c-1.1,0.9-2.3,1.8-3.4,2.7c-0.1-1.3-0.3-2.6-0.5-3.9c-0.4,1.8-0.9,3.7-1.3,5.5
		c-0.1,0.1-0.3,0.2-0.4,0.3c-0.6-1.7-1.3-3.4-1.9-5.1c-0.4,0.8-0.1,1.7,0,2.6c0.1,0.8-0.2,1.9-1,2c-0.4-0.3-0.8-0.5-1.3-0.8
		c0,0,0-0.1-0.1-0.1c-0.7-0.9-1.4-1.9-2-3c0.4,0.8,0.6,1.5,0.8,2.4c-0.8-0.4-1.5-0.7-2.3-1c0.1-0.3,0.1-0.6,0.2-0.9
		c-0.3,0.2-0.6,0.4-0.9,0.7c-0.6-0.2-1.3-0.4-1.9-0.6c0-0.8-0.1-1.7-0.4-2.4c-0.1,0.8-0.3,1.5-0.6,2.2c-0.7-0.2-1.5-0.3-2.2-0.4
		c-0.1-0.6-0.3-1.1-0.5-1.6c-0.4,0.5-0.7,0.9-1.1,1.4c-0.9-0.1-1.8-0.1-2.7-0.1c0.1-1.1,0.3-2.3,0.7-3.3c-0.8,1.1-1.6,2.3-2.4,3.4
		c-0.6,0-1.2,0.1-1.9,0.2c-0.1-1.2-0.3-2.4-0.4-3.6c-0.3,1.3-0.6,2.5-0.9,3.8c-0.5,0.1-1,0.2-1.5,0.3c-0.4-1.1-0.9-2.3-1.3-3.4
		c-0.4,0.8-0.1,1.7,0,2.6c0,0.4,0,0.8-0.1,1.2c-0.6,0.2-1.1,0.4-1.6,0.6c-0.2-0.2-0.4-0.4-0.6-0.6c-0.7-0.9-1.4-1.9-2-3
		c0.6,1.3,1,2.8,0.9,4.3c-0.5,0.3-1.1,0.6-1.6,0.9c-8.8-6.1-17.7-12.3-28.1-15.8c-10.4-3.5-22.6-4-32.1,1.2
		c21.1,0.3,41.5,11.6,51.6,28.4c-0.2,0.1-0.4,0.1-0.5,0.2c-0.7-0.5-1.3-1.2-1.8-2c-0.1,0.9-0.1,1.8,0.1,2.7c0,0.1,0.1,0.3,0.1,0.4
		c0-0.1-0.1-0.3-0.2-0.4c-0.5-1-1.3-1.8-2.3-2.2c0.7,0.8,1,1.8,1.1,2.8c-0.1,0.1-0.2,0.1-0.3,0.2c-0.4-0.7-1.1-1.3-1.9-1.5
		c0.1,0.8,0.3,1.7,0.4,2.5c-0.2,0.1-0.4,0.3-0.5,0.4c-0.8-0.6-1.4-1.4-1.9-2.3c0.2,1.1,0.5,2.1,0.7,3.2c0,0,0,0.1,0,0.1
		c0,0.1,0,0.2-0.1,0.3c-0.1,0-0.1,0-0.2,0c0,0-0.1,0-0.1-0.1c-0.7-0.5-1.4-1-2.1-1.5c0.5,0.8,1,1.5,1.5,2.3
		c-0.2,0.1-0.3,0.3-0.4,0.4c-0.7-0.3-1.5-0.6-2.2-0.9c0.2,0.5,0.7,0.7,1.1,1c0.2,0.1,0.4,0.3,0.5,0.5c-0.3,0.3-0.5,0.6-0.8,0.9
		c0,0-0.1,0-0.1,0c-0.6-0.1-1.4-0.2-2-0.3c0.6,0.2,1.2,0.5,1.7,0.9c-4.3,5.8-5.6,13.5-2.4,19.8c0.3,0.6,0.6,1.2,0.9,1.7
		c0.5-0.7,1.2-1.3,2.1-1.5c1.2-0.3,2.5,0.2,3.6,0.8c1.6,0.7,3.2,1.5,4.8,2.2c0.8,0.4,1.8,0.9,2.1,1.7c0.3,0.8,0,1.7-0.3,2.4
		c-0.8,1.8-1.8,3.6-2.9,5.3c-1,1.4-2.4,2.8-4.2,2.9c-0.4,0-0.8,0-1.1-0.2c-1.1,2.5-3.6,4.4-4.9,6.9c-3.4,6.9,4.5,14.6,12.6,16.4
		c8.1,1.8,16.9,0.4,25,2.3c26.1,6.1,41.6,41.2,22.4,60.3c-1.7,1.7-3.7,2.9-5.7,3.6c0,0.8-0.1,1.7-0.3,2.5c-0.7,2.9-2.4,5.5-3.2,8.3
		c-0.2,0.8-0.4,1.6-0.5,2.4c0.9-0.2,1.9-0.4,2.2-0.4c3.5-0.8,6.9-2,10.2-3.2c1-0.4,2-0.8,3-1.2c0.3-0.2,2.8-1.1,3.3-1.3
		c5.2-2.2,10.9-2.5,15.6-0.5c0.5,1.7,1.1,3.4,1.2,5.2c0.1,1.4-0.2,2.7-0.6,3.9c1.2,0.8,2.2,1.8,3,2.9c1.7-0.6,3.3-1.2,5-1.8v0
		c0.2-0.1,0.4-0.2,0.7-0.2v0c8.2-3,16.5-6,24.7-8.9c5.3-1.9,10.5-3.8,15.8-5.7c-6.4-12.3-12.6-24.8-17.1-38
		c-0.8-2.4-1.6-5.1-1.9-7.7c0,0,0,0,0,0c-0.3-2.1-0.3-4.2,0.2-6.2c0.3-1.2,0.7-2.4,1.4-3.4c3.2-5.1,9.9-6.1,15.5-4.8
		c6,1.4,11.6,5,15.7,9.9c0.4-0.6,0.9-1.2,1.5-1.6c1.2-0.9,2.7-1.3,4.1-1.8c0.7-0.2,1.4-0.4,2.2-0.7
		C650.7,194.8,644.8,188.8,637.6,185.3z M519.5,172.6c-1.3,1.7-2.7,3.4-4,5c-4.7-1.3-9-3.8-12.4-7.2c0.2,0.2,0.7-0.6,1-0.7
		c-0.2,0-0.4,0-0.7,0c5.7-2.6,11.9-3.7,18.1-3.3C522.3,168.4,520.8,170.9,519.5,172.6z M534.9,161.3L534.9,161.3
		c-1.6-0.4-3.2-0.5-4.7-0.7c-0.7,0.2-1.8,0.3-3.2-0.3c-1.3-0.2-2.3-0.6-2.8-1.5c-0.3-0.5-0.5-1.2-0.5-1.8c0,0,0,0,0-0.1
		c-0.1-0.7,0-1.5,0.3-2.3c0.7-2.1,2.2-4.2,3.5-5.4c0,0,0.1,0,0.1-0.1l0,0c0.2,0,0.3-0.1,0.5-0.2c0.7-0.2,1.4-0.5,2.1-0.8
		c10.9-5.3,16.4-2.9,18-1.9c0.4,0.2,0.5,0.4,0.5,0.4C553.8,156,544,163.5,534.9,161.3z"/>
	<path class="st3" d="M527.6,149.3c0,0-0.1,0-0.1,0C527.5,149.3,527.5,149.3,527.6,149.3L527.6,149.3z"/>
	<path class="st3" d="M548.2,146.5c-6-2.7-12-0.4-18,1.9C541,143.1,546.5,145.5,548.2,146.5z"/>
	<path class="st4" d="M499.9,159.1c-0.4-0.8-0.5-1.7-0.1-2.4c1.3-2.2,5.4-0.6,6.4,1c1.4,2.3,0,6.6-3,5.1
		C502.2,162.3,500.6,160.7,499.9,159.1z"/>
	<path class="st1" d="M511.6,157c-0.8,1.8-1.8,3.6-2.9,5.3c-1,1.4-2.4,2.8-4.2,2.9c-0.4,0-0.8,0-1.1-0.2c-0.6-0.2-1.2-0.5-1.8-0.9
		c-3.5-2.7-4.8-7.8-2.8-11.8c0.2-0.3,0.3-0.6,0.5-0.9c0.5-0.7,1.2-1.3,2.1-1.5c1.2-0.3,2.5,0.2,3.6,0.8c1.6,0.7,3.2,1.5,4.8,2.2
		c0.8,0.4,1.8,0.9,2.1,1.7C512.2,155.3,511.9,156.2,511.6,157z"/>
	<path class="st4" d="M535,161.4c-1.6-0.5-3.3-0.6-4.8-0.7c-1.2-0.1-2.3-0.1-3.2-0.3c-1.3-0.2-2.3-0.6-2.8-1.5
		c-0.3-0.5-0.5-1.2-0.5-1.8c0,0,0,0,0-0.1c0-0.8,0.1-1.5,0.3-2.3c0.7-2.1,2.2-4.2,3.5-5.4c0,0,0.1,0,0.1-0.1l0,0l0.2,0.3l2.1,3.4
		l4.9,7.9L535,161.4L535,161.4z"/>
	<path class="st1" d="M534.9,161.3c-0.1,0-0.2,0-0.4-0.1l-1.2-0.3c0,0,0,0,0,0c0,0,0,0,0,0l-1.6-0.5c0,0,0,0,0,0l-0.5-0.1
		c0,0-0.3,0.2-1,0.4c-0.7,0.2-1.8,0.3-3.2-0.3c-0.6-0.3-1.4-0.7-2.1-1.2c-0.7-0.6-1.1-1.2-1.2-2c0,0,0,0,0-0.1
		c-0.1-0.7,0-1.5,0.3-2.3c0.9-2.5,3.3-4.9,3.3-4.9c0.2-0.1,0.3-0.2,0.5-0.3c0.8-0.5,1.6-0.9,2.4-1.2c10.9-5.3,16.4-2.9,18-1.9
		c0.4,0.2,0.5,0.4,0.5,0.4C553.8,156,544,163.5,534.9,161.3z"/>
	<g>
		<path d="M634.1,290.7c-1.1,1.1-1.2,3-0.2,4.2c1,1.1,2.6,1.3,3.7,0.4l7.4,8.5c-0.8,1.1-0.8,2.7,0.2,3.8c1,1.2,2.8,1.3,3.9,0.2
			c0.6-0.6,0.9-1.3,0.9-2.1c0.8,0.1,1.6-0.2,2.2-0.8c1.1-1.1,1.2-3,0.2-4.2c-1-1.2-2.8-1.3-3.9-0.2c-0.1,0.1-0.1,0.1-0.2,0.2
			l-7.3-8.5c0,0,0,0,0,0c1.1-1.1,1.2-3,0.2-4.2c-1-1.2-2.8-1.3-3.9-0.2c-0.6,0.6-0.9,1.3-0.9,2.1
			C635.5,289.8,634.7,290.1,634.1,290.7z"/>
	</g>
	<path d="M519.5,172.6c-1.3,1.7-2.7,3.4-4,5c-4.7-1.3-9-3.8-12.4-7.2c0.2,0.2,0.7-0.6,1-0.7c-0.2,0-0.4,0-0.7,0
		c5.7-2.6,11.9-3.7,18.1-3.3C522.3,168.4,520.8,170.9,519.5,172.6z"/>
	<path class="st5" d="M595,297.1c1.8-2.8,3.7-6.5,1.9-9.3c-1.7-2.7-6.2-3-6.7-6.3c-0.3-2,1.3-3.8,3.1-4.4c1.8-0.6,3.7-0.4,5.5-0.4
		c6.3-0.1,12.3-3.1,17.6-6.7c5.3-3.6,10.3-7.9,16-10.9c1.7-0.9,3.6-1.7,5.6-1.7c1.9,0.1,4,1.2,4.6,3.2c0.8,2.3-0.5,4.8-1,7.2
		c-0.4,2.4,1,5.8,3.2,5.1c-2.8,2.3-3.4,6.8-2.2,10.4s3.8,6.4,6.5,8.8c3.3,3,7.2,6.2,7.9,10.8c0.7,4.6-2.2,8.9-4.9,12.6
		c-2.3,3.2-4.7,6.5-7.8,8.7c-3.1,2.3-7.2,3.4-10.7,2c-5.5-2.2-7.5-9.1-10.4-14.5c-6.8-0.7-13.8,3.4-16.9,9.9
		c-1.2,2.6-2.1,5.9-4.7,7.1c-2,0.9-4.2,0.2-6.2-0.6c-5-2-9.9-4.6-14.4-7.7c-2.2-1.5-4.5-3.5-4.5-6.3c0-2.3,1.8-4.2,3.7-5.2
		c1.9-1,4-1.5,5.9-2.5C589.9,304.6,592.5,300.8,595,297.1z"/>
	<path class="st6" d="M646.6,273.2c-0.2,0.2-0.4,0.3-0.7,0.5c-1,0.7-2.1,1.4-3.1,2c-7.6,4.4-16.5,6.8-25.2,9
		c-6.7,1.8-13.4,3.5-20,5.2c-1.7,0.4-3.4,0.9-5.1,1.3c-0.9,0.2-1.9,0.5-2.8,0.3c-0.9-0.2-1.8-1-1.6-1.8c0.2-1.3,2.1-1.5,2.9-2.6
		c0.9-1.2,0-3-1.5-3.7c-1.4-0.7-3.1-0.5-4.7-0.6c-1.6,0-3.4-0.2-4.4-1.3c-1.4-1.5-1-3.9,0.4-5.3c1.4-1.5,3.4-2.2,5.4-2.9
		c0.2-0.1,0.5-0.2,0.7-0.2c1.7-0.6,3.3-1.2,5-1.8v0c0.2-0.1,0.4-0.2,0.7-0.2v0c8.2-3,16.5-6,24.7-8.9c5.3-1.9,10.5-3.8,15.8-5.7
		c0.5-0.2,0.9-0.3,1.4-0.5c2.5-0.9,5.2-1.8,7.9-1.4c2.7,0.5,5.1,3,4.2,5.4c-0.5,1.5-2.1,2.4-3.1,3.5c-1.1,1.2-1.7,3.2-0.4,4.1
		c1.4,1,3.9-0.1,5.2,1c0.1,0.1,0.2,0.2,0.3,0.3C649.5,270.1,648.1,272.1,646.6,273.2z"/>
	<g>
		<path class="st7" d="M649.5,307.5c0.1-1,1.4-5-0.5-8.6c-0.1-0.1-0.8-1.1-1.5-1c-0.7,0.2-2.6,2.1-2.5,1.9c0,0-0.4-0.7-1-1.6
			c0.4-0.8,1.9-3.7,1.9-3.7l-0.4-0.2l0,0c0,0-1.3,2.7-1.7,3.5c-0.3-0.4-0.6-0.9-0.9-1.4c0.3-0.7,1.2-3.3,1.2-3.3
			c0,0-0.4-0.1-0.4-0.1c0,0-0.9,2.3-1.1,3c-0.3-0.4-0.6-0.9-0.9-1.4c0.1-0.6,0.5-2.8,0.5-2.8c0,0-0.4-0.1-0.4-0.1
			c0,0-0.4,1.8-0.5,2.3c-0.4-0.6-0.7-1.1-1-1.6c0-0.5,0.1-2,0-2c0-0.1-0.3-0.1-0.4-0.1c-0.1,0,0,1.2,0,1.6c-0.4-0.6-0.7-1.2-0.9-1.4
			c0-0.1,0-0.1,0-0.2c0.2-0.9,0.3-1.8,0.4-2.7c0.1-0.6,0.1-1.2-0.1-1.7c-0.1-0.2-0.2-0.4-0.4-0.4c-0.2-0.1-0.5,0-0.7,0.1
			c-0.3,0.2-0.4,0.6-0.6,0.9c-0.3,0.5-0.7,0.8-1.2,1l0,0c-0.4,0.2-0.7,0.3-1.1,0.3c-0.2,0-0.4,0-0.6,0c-0.2,0-0.4,0.1-0.5,0.3
			c-0.1,0.2-0.1,0.5,0,0.7c0.3,0.5,0.8,0.9,1.4,1.1c0.9,0.4,1.9,0.6,2.8,0.8c0.1,0,0.1,0,0.2,0c0.2,0.3,0.5,0.8,0.8,1.5
			c-0.4-0.3-1.2-0.7-1.3-0.7c0,0-0.1,0.3-0.1,0.4c0,0.1,1.1,0.6,1.7,0.9c0.3,0.5,0.6,1.1,1,1.7c-0.7-0.2-2.2-0.6-2.2-0.6
			c0,0-0.1,0.4-0.1,0.4c0,0,1.8,0.6,2.6,0.8c0.3,0.5,0.6,1,0.8,1.5c-0.9-0.1-3-0.4-3-0.4c0.1,0,0,0.4,0,0.4c0,0,2.4,0.3,3.3,0.5
			c0.3,0.6,0.6,1.1,0.9,1.5c-1.1,0-3.7-0.1-3.7-0.1l0,0l0,0.5c0,0,2.9,0.1,4,0.1c0.4,0.8,0.7,1.3,0.8,1.3c0-0.1-2.7,1.4-2.7,1.4
			s-2.9,1.4,5.3,5.4c0,0,2,1.2,2,1.1C648.6,308.1,649.3,308.5,649.5,307.5z"/>
	</g>
	<g>
		<path d="M404.6,214.2l-13.1,22.1c-0.8,1.4-1.6,2.3-2.3,2.8s-1.6,0.8-2.7,0.8c-0.9,0-1.7-0.2-2.5-0.5c-0.6-0.3-1-0.6-1.3-0.9
			c-0.3-0.3-0.7-1-1.2-1.8l-11.7-21.4c-0.6-1.2-1.2-2-1.8-2.5c-0.5-0.4-1.3-0.7-2.2-0.9c-1.1-0.2-1.7-0.8-1.7-1.8c0-1.2,1-2.2,3-2.8
			c2-0.7,4.9-1,8.6-1c3.9,0,6.8,0.2,8.6,0.7s2.7,1.3,2.7,2.3c0,0.7-0.5,1.3-1.5,1.9c-0.8,0.4-1.1,0.8-1.1,1.2c0,0.3,0.2,0.8,0.5,1.5
			l3.6,6.7c0.5,1,1.1,1.5,1.7,1.5c0.6,0,1.2-0.3,1.7-0.8c0.5-0.5,1.2-1.6,2-3.1c1.5-2.8,2.4-4.4,2.6-4.9c0.2-0.5,0.4-0.9,0.4-1.2
			c0-0.5-0.4-1-1.3-1.4c-1-0.4-1.5-1-1.5-1.6c0-1.9,3-2.8,9.1-2.8c3,0,5.2,0.2,6.4,0.6c1.3,0.4,1.9,1.1,1.9,2.1c0,1.2-0.8,1.8-2.5,2
			c-1.2,0.1-1.9,0.3-2.3,0.5C406.1,211.9,405.4,212.8,404.6,214.2z"/>
		<path d="M428.1,206.1c2,0,4.5,0.4,7.7,1.2c0.4,0.1,0.7,0.1,0.9,0.1c0.2,0,0.8-0.1,1.7-0.4c0.3-0.1,0.6-0.1,1-0.1
			c1.3,0,2.6,0.8,4.1,2.5c1.4,1.7,2.1,3.3,2.1,4.8c0,0.9-0.3,1.6-1,2.2c-0.6,0.6-1.4,0.9-2.3,0.9c-0.8,0-1.4-0.1-1.9-0.4
			c-0.5-0.3-1.5-1-3.2-2.3c-2.3-1.8-4.5-2.7-6.8-2.7c-1.1,0-1.9,0.2-2.6,0.6s-1,1-1,1.7c0,1.4,1.5,2.4,4.4,3.1c4,1,6.5,1.7,7.6,2.1
			c4.9,2,7.3,4.9,7.3,8.7c0,3.4-1.7,6.1-5,8.3c-3.4,2.2-7.8,3.3-13.3,3.3c-2.4,0-5-0.2-7.7-0.7c-2.7-0.5-4.7-1.1-5.9-1.7
			c-0.9-0.5-1.7-1.6-2.5-3.3c-0.7-1.7-1.1-3.4-1.1-5c0-0.8,0.2-1.4,0.6-1.8c0.5-0.5,1.1-0.8,1.8-0.8s1.4,0.3,2.1,0.9
			c0.4,0.3,1.3,1.5,2.8,3.4c0.7,0.9,1.8,1.6,3.4,2.2s3.1,0.9,4.8,0.9c1.4,0,2.6-0.2,3.4-0.7c0.9-0.4,1.3-1,1.3-1.7
			c0-0.6-0.3-1.2-1-1.6c-0.7-0.5-1.8-0.9-3.4-1.3c-2.7-0.7-4.8-1.4-6.2-2s-2.8-1.3-4-2.2c-3-2.2-4.5-4.7-4.5-7.6
			c0-1.4,0.4-2.8,1.2-4.1c0.8-1.3,1.9-2.5,3.3-3.4C419.6,207.3,423.5,206.1,428.1,206.1z"/>
	</g>
</g>
<g id="cat-feet">
	<path class="st2" d="M652.6,310.3c-2.7,13.6,2.8,28.6,13.4,36.6c4.9,3.7,11.4,5.9,17.1,3.7c4.5-1.7,8.6-6.1,13.2-4.9
		c4.7,1.2,6.5,7.1,7.6,12.2c1.3,6.5,2.7,13.1,2.8,19.8c0.1,4.8-0.5,9.8-3,13.8c-3,4.7-6.2,3.7-10.3,5.3c-3.1,1.2-5.3,3.6-8.8,2.8
		c-1.3-0.3-2-2-3.1-2.2c-1.8-0.4-4.1,0.9-6.2,0.7c-2.3-0.3-4.5-1.7-5.4-4c-1.3-3.7,1.7-7.6,4.9-9.7c3.2-2,7.1-3.5,9-6.9
		c2.4-4.2,0.9-9.9-2.1-13.6c-3-3.7-7.3-5.9-11.3-8.4c-8-5-15.3-11.3-21.5-18.7c-3-3.6-6-7.8-6.3-12.7c-0.4-5.9,3.7-11.8,9.1-13.1
		L652.6,310.3z"/>
	<path class="st2" d="M590.1,320.7c-9.6,2.8-15.5,13.7-16.3,24.3c-0.8,10.6,2.3,21.1,5.1,31.2c1.3,4.7,2.2,10.9-1.7,13.6
		c-2.1,1.5-4.8,1.2-7.3,0.9c-7.5-0.9-16.6-3.6-24-2.4c-3.4,0.5-6.1,0.7-9.4,0.5c-2.4-0.2-4.7,0.4-6.9-0.8c-2.2-1.2-4.4-1.2-6.9-1.4
		c-1.9-0.1-4.1-0.5-4.9-2.3c-0.9-2,0.6-4.3,2.2-5.7c8.2-7.1,20.6-5.2,29.8-10.8c6.8-4.2,11-12,14-19.8c3-7.8,5.2-16.1,9.6-23.1
		c1.9-3.1,4.4-5.9,7.7-7.2s7.3-0.6,9.4,2.4L590.1,320.7z"/>
</g>
<g id="cat-eyes">
	<ellipse cx="534.1" cy="156" rx="5.4" ry="5"/>
	<path d="M498.9,157.5c-0.2-0.9-0.1-1.7,0.5-2.3c1.8-1.8,5.4,0.6,6,2.4c0.8,2.5-1.5,6.5-4.1,4.3
		C500.4,161.1,499.2,159.2,498.9,157.5z"/>
</g>
<g id="dog_1_">
	<path class="st2" d="M203.2,195.7c-0.1,0-0.1,0-0.2,0C203,195.7,203.1,195.7,203.2,195.7L203.2,195.7z"/>
	<path class="st8" d="M247.7,241.1c6.2-0.6,12.4-1.3,18.5-2.2c2.1-0.3,4.4-0.7,6-2.1c0.6-0.5,1.2-1.3,2-1.5c1.9-0.5,3.4,1.9,5.4,2.1
		c1.4,0.2,2.8-0.9,3.3-2.2c0.6-1.3,0.5-2.7,0.5-4.1c2.8,2,5.4,4.5,7.4,7.2c-0.4-1.5,0.7-3,2.1-3.7c1.4-0.7,3-0.8,4.5-0.9
		c7.2-0.6,14.3-2.5,20.8-5.5"/>
	<path class="st9" d="M255.3,212.1L255.3,212.1z"/>
	<path class="st8" d="M258.9,255.6c3.3,2,7.3,2.7,11.9,1.7"/>
	<path class="st8" d="M258.9,255.6c-4.7-2.8-8-7.9-9.3-13.9"/>
	<path class="st10" d="M303.3,242.1c-1.8,0.2-3.7,0.3-5.5,0.1c-2.5-0.2-4.3-0.2-5.6,0c2.4,0.7,4.7,1.9,6.7,3.7
		c0.7-0.4,1.4-0.8,2.2-1.1C301.8,243.9,302.5,243,303.3,242.1z"/>
	<path class="st2" d="M244.2,137.1c0,1.3-1.4,2.1-2.5,2.8c-5.8,3.1-10,8.9-11.2,15.3c-2.8-5.2-5.2-10.8-6-16.7
		c-0.7-5.9,0.4-12.2,4.1-16.9c3.2,5.1,6.7,10.6,12.4,12.8C242.3,134.9,244.1,135.6,244.2,137.1z"/>
	<path class="st2" d="M288.8,163.1c0,0.6-0.2,1.2-0.5,1.7c-0.5,0.9-1.4,1.2-2.7,1.4c0,0,0,0,0,0c-1.4,0.6-2.5,0.5-3.1,0.3
		c-0.6-0.2-0.9-0.4-0.9-0.4l-0.5,0.2c-0.5,0.2-1,0.4-1.5,0.4l-1.2,0.4c-8.7,2.5-18.4-5.1-13.5-14c0,0,0.2-0.2,0.5-0.4c0,0,0,0,0,0
		c1.6-1,6.9-3.3,17.2,1.9l1.9,0.7c0.2,0.1,0.4,0.2,0.6,0.2c1.2,1.1,2.6,3.1,3.3,5.1c0,0.1,0,0.1,0.1,0.2
		C288.8,161.5,289,162.3,288.8,163.1z"/>
	<path class="st2" d="M310.1,124.5c-0.2,0-0.5,0.1-0.7,0.1c0-0.1,0-0.2,0-0.2s-0.2,0.1-0.6,0.4c-1,0.6-2.8,1.9-4,3.3
		c-0.8,1-1.3,2.1-0.8,3.1c0,0.8,0.1,1.5,0.3,2.2c-1.5-1.4-3.9-1.6-5.7-0.5c-0.5,0.3-1.3,0.8-1.7,0.3c-0.2-0.2-0.3-0.6-0.3-0.9
		c-0.1-2.2,0.5-4.5,1.6-6.5c1.2-2.1,3.2-3.9,5.6-4.3C306.4,121.1,309.1,122.3,310.1,124.5z"/>
	<path class="st2" d="M309.8,169.8c-0.8,0.6-1.7,1.1-2.7,1.1c-1.7,0-3-1.4-4-2.8c-1.1-1.6-2.1-3.3-2.8-5.1c-0.3-0.8-0.6-1.6-0.3-2.4
		c0.3-0.8,1.2-1.3,2-1.7c1.5-0.7,3-1.4,4.5-2.2c1.1-0.5,2.3-1,3.4-0.8c0.7,0.2,1.3,0.6,1.7,1.2c0.4,0.9,0.8,2,1.4,3.1
		C313.9,163.7,312.6,167.6,309.8,169.8z"/>
	<path class="st2" d="M315.2,217.2c-1.2-0.2-2.4-1-3.5-1.6c-1.8-1-3.4-2.2-5.1-3.3c-2.3-1.6-4.5-3.1-6.6-5c-2-1.8-3.8-3.8-5.5-5.8
		c-2.6-2.9-5.2-5.8-7.5-8.9c-1.6-2.1-4-5.1-3.9-7.9c0-3,4.2-2.4,6.1-2c17,3.4,32.9-1.4,35.5-1.1c0.2,0,0.3,0,0.3,0.1
		C338.3,196.4,318.3,217.7,315.2,217.2z"/>
	<path class="st2" d="M218.7,182.1C218.7,182.1,218.7,182.1,218.7,182.1C218.7,182.1,218.7,182.1,218.7,182.1
		C218.7,182,218.7,182.1,218.7,182.1z"/>
	<path class="st2" d="M311.3,169.2c0,0,3.7-5.2,2-8.6c-0.1-0.1-0.1-0.3-0.2-0.4c0.8,3.5-0.5,7.4-3.4,9.6c-0.8,0.6-1.7,1.1-2.7,1.1
		c-1.7,0-3-1.4-4-2.8c-1.1-1.6-2.1-3.3-2.8-5.1c-0.3-0.8-0.6-1.6-0.3-2.4c0.3-0.8,1.2-1.3,2-1.7c1.5-0.7,3-1.4,4.5-2.2
		c1.1-0.5,2.3-1,3.4-0.8c0.7,0.2,1.3,0.6,1.7,1.2c-0.6-1.5-1-2.5-1-2.5s8.6-7.8-0.9-10.3c0,0,3.2-8.3-3.6-11.2
		c-1.2-0.5-1.9-1.1-2.2-1.8c0,0.8,0.1,1.5,0.3,2.2c-1.5-1.4-3.9-1.6-5.7-0.5c-0.5,0.3-1.3,0.8-1.7,0.3c-0.2-0.2-0.3-0.6-0.3-0.9
		c-0.1-2.2,0.5-4.5,1.6-6.5c1.2-2.1,3.2-3.9,5.6-4.3c2.4-0.5,5.2,0.7,6.2,2.9c-0.2,0-0.5,0.1-0.7,0.1c0.2,1.4,1.7,9.8,5.2,9.1
		c3.8-0.7,14,13.1,7.9-12.4c-6.1-25.5-17.7-29.1-18-29.4c-0.3-0.2-6.7,1.3-11.3,7.7c-4.6,6.4-9-5.9-9.3-6.1c-0.3-0.2-3.3-7.1-9-0.5
		c-5.7,6.6,0.9,21.3,0.9,21.3s-0.5,0-1.5,0c-0.5-0.9-1.1-1.8-1.7-2.7c0.2,0.9,0.2,1.9,0,2.8c-0.9,0.1-2,0.1-3.2,0.3
		c-0.3-1-0.7-1.9-1.2-2.7c-0.3,1-0.6,2-1.1,3c-1.7,0.2-3.5,0.5-5.4,0.9c0.2-1.4,0.7-2.7,1.6-3.8c-2.1,0.4-3.3,2.3-4.1,4.4
		c-2,0.5-4,1-5.9,1.7c-1.6-1.7-3.5-3.2-5.4-4.6c1.5,1.5,2.3,3.9,1.8,6c-2.2,1.1-4.3,2.3-5.9,3.9c0,0-7.9-19.5-19.8-16.7
		c0,0-13.6,1.1-11.9,14.9c0,0,1.4,7.6-13.1,6.2c-14.5-1.4,7.6,43.4,7.6,43.4s15.2,0.7,14.5,6.2v0c-0.1,0-0.2-0.1-0.4-0.1
		c0.1,0.1,0.2,0.2,0.3,0.3v0c-0.1,0.6-0.4,1.3-0.9,2.1c-0.4-0.2-0.8-0.4-1.3-0.6c0-0.1-0.1-0.2-0.1-0.2c-0.1,0.3-0.2,0.7-0.3,1
		c-0.9,0-1.9,0-2.9,0.1c1.2,0.1,2.4,0.8,3,1.9c0,0,0,0,0,0.1c0,0,0,0,0,0c-0.3,0.5-0.7,1-1.1,1.5c-0.6-0.8-0.9-1.7-1-2.6
		c-0.7,0.8-0.6,2-0.3,3.1c-0.4,0-0.9,0-1.3,0c0.5,0.4,0.9,0.8,1.2,1.3c-0.2,0.3-0.5,0.7-0.8,1c-0.7-0.3-1.5-0.6-2.2-0.8
		c0.6,0.5,1,1.1,1.2,1.7c0.1,0,0.1,0,0.2,0c0,0-0.1,0.1-0.1,0.2c0-0.1,0-0.1-0.1-0.2c-1.3-0.2-2.8-0.2-4.1-0.1
		c0.4,0,0.8,0.1,1.1,0.3c0.4,0.9,0.7,1.9,0.9,2.8c-0.5,0.7-1.1,1.4-1.6,2.1c-0.9-0.8-1.5-2-1.6-3.3c-0.9,1.1-0.5,2.7,0,4
		c0.1,0.3,0.3,0.5,0.4,0.8c-0.1,0.1-0.1,0.2-0.2,0.3c-1,0-2,0.1-3.1,0.3c0.5,0.3,1,0.7,1.3,1.1c-1.5-0.3-3.1-0.3-4.6-0.2l0,0
		c1.3,0.2,2.5,1.1,3,2.3c0.1,0.2,0.2,0.5,0.2,0.8c-0.2,0.3-0.3,0.5-0.5,0.8c0-0.1,0-0.2,0-0.3c-0.8-1.3-1.8-2.5-2.8-3.5
		c-0.1,0-0.1,0-0.2,0c0.1,0,0.1,0,0.2,0c-8.8-9.3-24.1-11.9-36-6.6c-13.3,5.9-21.9,20-23.4,34.4c5.5-0.2,8.4-6.4,11.4-11
		c4.3-6.5,11.1-11.2,18.7-12.9c5.8-1.3,12.8-0.3,16.1,4.6c3.2,4.8,1.7,11.3-0.3,16.7c-5.3,14.5-12.8,28-20.2,41.4
		c7.2,5.9,14.4,11.9,23,15.5c8,3.4,17.4,4.5,25.3,1.1c0.2-2.9,1.8-5.5,4.1-7.3c0.4,0.5,0.8,0.9,1.2,1.4c0.3-1.6,0.9-3,1.6-4.3
		c4.7-8,13.7-9,21.6-5.7c0.5,0.2,3.1,1.3,3.1,1.3c1,0.4,1.9,0.8,2.9,1.1c3.2,1.2,6.4,2.3,9.7,3.1c0.5,0.1,4,0.8,3.7,0.8
		c1.2,0.1,2.3,0.1,3.5,0.1c0,0,0.1,0,0.1,0c0,0,0.1,0,0.1,0c0.2-0.2,0.3-0.3,0.6-0.6c0.7-0.7,1.4-1.4,2.2-1.9
		c-1.7-3.4-1.8-7.2-0.7-10.8c-4.2,1.1-8.6,1.3-12.4-0.6l0,0c-1.5-0.7-2.8-1.6-4.1-2.9c-3.1-3.2-5.2-7.2-6.4-11.6
		c-3.8-13.1-0.1-29,5.9-32c8-4,24.1-8,29.2,10.3c5.2,18.3,34.4,2.6,34.4,2.6l-0.6-4.3C317.3,217.6,352.3,191.6,311.3,169.2z
		 M241.6,139.9c-5.8,3.1-10,8.9-11.2,15.3c-2.8-5.2-5.2-10.8-6-16.7c-0.7-5.9,0.4-12.2,4.1-16.9c3.2,5.1,6.7,10.6,12.4,12.8
		c1.4,0.5,3.2,1.2,3.2,2.7C244.2,138.4,242.8,139.2,241.6,139.9z M281.6,166.1l-0.5,0.2c-0.5,0.2-1,0.4-1.5,0.4l-1.2,0.4
		c-8.7,2.5-18.4-5.1-13.5-14c0,0,0.2-0.2,0.5-0.4c0,0,0,0,0,0c1.6-1,6.9-3.3,17.2,1.9l1.9,0.7c0.2,0.1,0.4,0.2,0.6,0.2
		c1.2,1.1,2.6,3.1,3.3,5.1c0,0.1,0,0.1,0.1,0.2c0.3,0.8,0.5,1.6,0.3,2.4c0,0.6-0.2,1.2-0.5,1.7c-0.5,0.9-1.4,1.2-2.7,1.4
		c0,0,0,0,0,0c-1.4,0.6-2.5,0.5-3.1,0.3C282,166.3,281.6,166.1,281.6,166.1z M315.2,217.2c-1.2-0.2-2.4-1-3.5-1.6
		c-1.8-1-3.4-2.2-5.1-3.3c-2.3-1.6-4.5-3.1-6.6-5c-2-1.8-3.8-3.8-5.5-5.8c-2.6-2.9-5.2-5.8-7.5-8.9c-1.6-2.1-4-5.1-3.9-7.9
		c0-3,4.2-2.4,6.1-2c17,3.4,32.9-1.4,35.5-1.1c0.2,0,0.3,0,0.3,0.1C338.3,196.4,318.3,217.7,315.2,217.2z"/>
	<path class="st2" d="M257.6,121.9c-0.3,0.8-0.8,1.5-1.3,2.2c-0.1-0.6-0.2-1.2-0.4-1.8L257.6,121.9z"/>
	<path class="st2" d="M264.1,120.4c-0.3,0.5-0.7,0.9-1,1.4c-0.2-0.3-0.4-0.6-0.6-1L264.1,120.4z"/>
	<path class="st2" d="M203.2,195.7c-0.1,0-0.1,0-0.2,0C203,195.7,203.1,195.7,203.2,195.7L203.2,195.7z"/>
	<path class="st2" d="M214.7,187.5c0,0-0.1,0.1-0.1,0.2c0-0.1,0-0.1-0.1-0.2C214.6,187.5,214.7,187.5,214.7,187.5z"/>
	<path class="st2" d="M214.7,187.5c0,0-0.1,0.1-0.1,0.2c0-0.1,0-0.1-0.1-0.2C214.6,187.5,214.7,187.5,214.7,187.5z"/>
	<g>
		<path class="st11" d="M323.3,215.8c-1.6,1.5-2.6,2.3-2.6,2.3l0,0.3C321.5,217.6,322.3,216.8,323.3,215.8z"/>
	</g>
	<path d="M244.2,137.1c0,1.3-1.4,2.1-2.5,2.8c-5.8,3.1-10,8.9-11.2,15.3c-2.8-5.2-5.2-10.8-6-16.7c-0.7-5.9,0.4-12.2,4.1-16.9
		c3.2,5.1,6.7,10.6,12.4,12.8C242.3,134.9,244.1,135.6,244.2,137.1z"/>
	<path d="M310.1,124.5c-0.2,0-0.5,0.1-0.7,0.1c-0.2,0-0.4,0.1-0.7,0.2c-1.5,0.5-2.8,1.5-3.7,2.8c-0.1,0.2-0.2,0.3-0.3,0.5
		c-0.5,1-0.8,2-0.8,3.1c0,0.8,0.1,1.5,0.3,2.2c-1.5-1.4-3.9-1.6-5.7-0.5c-0.5,0.3-1.3,0.8-1.7,0.3c-0.2-0.2-0.3-0.6-0.3-0.9
		c-0.1-2.2,0.5-4.5,1.6-6.5c1.2-2.1,3.2-3.9,5.6-4.3C306.4,121.1,309.1,122.3,310.1,124.5z"/>
	<path class="st8" d="M265.5,152.6c5.8-2.6,11.5-0.3,17.2,1.9"/>
	<path d="M311.4,164.9c0.3-0.8,0.4-1.7,0.1-2.3c-1.2-2.1-5.1-0.6-6.1,1c-1.3,2.2,0,6.5,2.8,5C309.2,168,310.8,166.5,311.4,164.9z"/>
	<path class="st1" d="M309.8,169.8c-0.8,0.6-1.7,1.1-2.7,1.1c-1.7,0-3-1.4-4-2.8c-1.1-1.6-2.1-3.3-2.8-5.1c-0.3-0.8-0.6-1.6-0.3-2.4
		c0.3-0.8,1.2-1.3,2-1.7c1.5-0.7,3-1.4,4.5-2.2c1.1-0.5,2.3-1,3.4-0.8c0.7,0.2,1.3,0.6,1.7,1.2c0.3,0.4,0.5,0.8,0.7,1.2
		c0.3,0.6,0.5,1.3,0.7,2C313.9,163.7,312.6,167.6,309.8,169.8z"/>
	<path class="st8" d="M278,167.2c1.6-0.4,3.1-0.6,4.5-0.7c1.2-0.1,2.2-0.1,3.1-0.3"/>
	<path class="st8" d="M288.5,160.7c0.3,0.8,0.4,1.6,0.3,2.4"/>
	<path class="st8" d="M285.2,155.4c0,0-0.1-0.1-0.1-0.1"/>
	<path class="st1" d="M288.8,163.1c-0.1,0.7-0.5,1.4-1.1,1.9c-0.7,0.6-1.4,0.9-2,1.2c0,0,0,0,0,0c-1.4,0.6-2.5,0.5-3.1,0.3
		c-0.6-0.2-0.9-0.4-0.9-0.4l-0.5,0.2l-1.5,0.4l-1.2,0.4c-8.7,2.5-18.4-5.1-13.5-14c0,0,0.2-0.2,0.5-0.4c0,0,0,0,0,0
		c1.6-1,6.9-3.3,17.2,1.9c0.9,0.4,1.7,0.9,2.7,1.4c0,0,2.2,2.2,3.1,4.6c0,0.1,0,0.1,0.1,0.2C288.8,161.5,289,162.3,288.8,163.1z"/>
	<path d="M315.2,217.2c-1.2-0.2-2.4-1-3.5-1.6c-1.8-1-3.4-2.2-5.1-3.3c-2.3-1.6-4.5-3.1-6.6-5c-2-1.8-3.8-3.8-5.5-5.8
		c-2.6-2.9-5.2-5.8-7.5-8.9c-1.6-2.1-4-5.1-3.9-7.9c0-3,4.2-2.4,6.1-2c17,3.4,32.9-1.4,35.5-1.1c0.2,0,0.3,0,0.3,0.1
		C338.3,196.4,318.3,217.7,315.2,217.2z"/>
	<path class="st8" d="M310.7,171.3c0,0,8.3,3.9,14.2,10.4"/>
	<path class="st2" d="M164.1,281.6c-10.7,1.6-22-1.6-30.3-8.5c3.1,5.2,6.2,10.5,10.5,14.8c4.3,4.3,10,7.5,16,7.5
		C163.4,291.9,164.4,286.3,164.1,281.6z"/>
	<path class="st5" d="M212.1,296.2c-1.9-2.7-3.9-6.3-2-9c1.8-2.6,6.5-2.9,7-6c0.3-1.9-1.3-3.6-3.2-4.2c-1.8-0.6-3.8-0.4-5.7-0.4
		c-6.5-0.1-12.7-3-18.2-6.5c-5.5-3.5-10.7-7.6-16.5-10.5c-1.8-0.9-3.8-1.7-5.8-1.6c-2,0.1-4.1,1.2-4.8,3.1c-0.8,2.2,0.5,4.6,1,7
		c0.5,2.3-1.1,5.6-3.3,4.9c2.9,2.2,3.5,6.6,2.3,10c-1.2,3.4-3.9,6.2-6.7,8.5c-3.4,2.9-7.5,6-8.2,10.4c-0.7,4.5,2.3,8.6,5,12.2
		c2.4,3.1,4.9,6.2,8.1,8.4c3.2,2.2,7.5,3.3,11.1,1.9c5.6-2.1,7.8-8.7,10.8-14c7-0.7,14.3,3.3,17.5,9.6c1.3,2.5,2.2,5.7,4.8,6.8
		c2,0.9,4.4,0.2,6.4-0.6c5.2-1.9,10.2-4.4,14.9-7.4c2.3-1.4,4.7-3.4,4.6-6.1c0-2.2-1.8-4-3.8-5c-2-1-4.2-1.5-6.1-2.4
		C217.4,303.5,214.7,299.8,212.1,296.2z"/>
	<path class="st6" d="M157,271.2c-1.5,1.3,0,3.7,1.6,4.9c8,6.3,18.1,9.2,27.9,12c8.1,2.3,16.1,4.6,24.2,6.9c0.9,0.2,1.8,0.5,2.7,0.3
		s1.7-1,1.5-1.9c-0.2-1.3-2-1.6-2.8-2.7c-0.9-1.3,0-3.1,1.4-3.8c1.4-0.7,3-0.6,4.5-0.6c1.5,0,3.2-0.2,4.3-1.4c1.4-1.5,0.9-4-0.4-5.6
		s-3.3-2.3-5.2-3.1c-10-3.9-19.9-7.8-29.9-11.7c-5.5-2.2-11-4.3-16.6-6.5c-2.4-1-5-1.9-7.6-1.4c-2.6,0.5-4.9,3.1-4,5.6
		c0.5,1.5,2,2.5,3,3.7c1.1,1.2,1.6,3.3,0.3,4.3C160.7,271.2,158.4,270,157,271.2z"/>
	<g>
		<path class="st7" d="M172.7,290.7c1.2,1.1,1.2,2.9,0.2,4.1c-1,1.1-2.7,1.2-3.8,0.4l-7.6,8.3c0.8,1.1,0.8,2.7-0.2,3.7
			c-1.1,1.2-2.9,1.2-4.1,0.2c-0.6-0.5-0.9-1.3-0.9-2c-0.8,0.1-1.6-0.2-2.2-0.7c-1.2-1.1-1.2-2.9-0.2-4.1c1.1-1.2,2.9-1.2,4.1-0.2
			c0.1,0.1,0.1,0.1,0.2,0.2l7.6-8.2c0,0,0,0,0,0c-1.2-1.1-1.2-2.9-0.2-4.1c1.1-1.2,2.9-1.2,4.1-0.2c0.6,0.5,0.9,1.3,0.9,2
			C171.2,289.9,172,290.2,172.7,290.7z"/>
	</g>
</g>
<g id="dog-feet">
	<path class="st2" d="M151.8,309.7c2.8,13.1-2.9,27.7-13.9,35.3c-5.1,3.6-11.8,5.7-17.7,3.6c-4.6-1.7-8.9-5.9-13.7-4.8
		c-4.9,1.1-6.8,6.9-7.8,11.8c-1.4,6.3-2.8,12.7-2.9,19.1c-0.1,4.6,0.5,9.5,3.1,13.3c3.1,4.5,6.4,3.6,10.7,5.1
		c3.3,1.1,5.5,3.5,9.2,2.7c1.3-0.3,2-1.9,3.2-2.1c1.9-0.4,4.3,0.9,6.4,0.6c2.3-0.3,4.7-1.6,5.5-3.8c1.4-3.6-1.8-7.4-5.1-9.3
		c-3.3-2-7.3-3.4-9.3-6.7c-2.5-4-0.9-9.5,2.2-13.1c3.1-3.6,7.5-5.7,11.6-8.1c8.3-4.8,15.9-10.9,22.3-18.1c3.2-3.5,6.2-7.6,6.5-12.3
		c0.4-5.7-3.8-11.4-9.4-12.7"/>
	<path class="st2" d="M216.4,319.7c9.9,2.7,16,13.3,16.9,23.5c0.9,10.2-2.3,20.3-5.3,30.2c-1.4,4.6-2.2,10.5,1.7,13.2
		c2.2,1.4,5,1.2,7.6,0.9c7.7-0.9,17.2-3.5,24.9-2.3c3.5,0.5,6.3,0.7,9.7,0.5c2.5-0.1,4.9,0.4,7.1-0.8c2.3-1.2,4.6-1.2,7.2-1.4
		c1.9-0.1,4.2-0.5,5.1-2.3c0.9-1.9-0.6-4.1-2.3-5.5c-8.5-6.9-21.4-5-30.9-10.4c-7.1-4-11.4-11.6-14.5-19.2
		c-3.1-7.5-5.4-15.5-9.9-22.3c-2-3-4.6-5.7-7.9-7c-3.4-1.2-7.6-0.6-9.7,2.3"/>
</g>
<g id="dog-eyes">
	<path d="M312.4,163.4c0.1-0.9,0.1-1.7-0.5-2.3c-1.7-1.8-5.1,0.6-5.7,2.4c-0.8,2.4,1.5,6.3,3.9,4.2
		C310.9,166.9,312.1,165,312.4,163.4z"/>
	<path d="M284,161.9c0,1.9-1.2,3.5-2.9,4.3c-0.5,0.2-1,0.4-1.5,0.4c-0.3,0-0.5,0.1-0.8,0.1c-2.9,0-5.2-2.2-5.2-4.9
		c0-2.7,2.3-4.9,5.2-4.9S284,159.2,284,161.9z"/>
</g>
<g id="gloves">
	<path class="st5" d="M166.7,247.8c-1.8,4.2-5.9,7.5-10.4,7.7c-0.9,0-2,0-2.7,0.6c-0.1,0.1-0.2,0.2-0.2,0.3
		c-0.2,0.3-0.3,0.7-0.4,1.1c0,0,0,0.1,0,0.2c-0.9,3.4-3.8,6.1-7.2,7.1c-3.4,1-7.1,0.6-10.4-0.7c-3.3-1.3-6.2-3.4-8.8-5.7
		c-3.5-3-6.7-6.5-7.7-11c-1.1-4.7,0.6-9.6,2.6-14.1c2.9-6.6,6.6-13.2,12.7-17.2c1-0.6,2-1.2,2.8-2.2c0.7-0.9,1-2.3,0.3-3.3
		c0.7,0.2,1.3,0.5,2,0.8c-0.8-0.3-1.5-0.7-2.2-1.1c-0.6-0.3-1.3-0.7-1.6-1.3c-0.7-1.3,0.4-2.9,1.6-3.8c1.2-0.9,2.6-2,2.6-3.5
		c4.7,1.4,9.5,2.7,14.2,4.1c1.5,0.4,3,0.9,4.2,1.7c1.3,0.8,2.3,2.2,2.4,3.7c0.2,2.3-1.9,4.4-4.2,4.9c-1.6,0.4-3.3,0.2-5-0.2
		c1.1,0.4,2.2,0.8,3.3,1.2c-1,0.2-1.5,1.5-1.2,2.5c0.3,1,1.2,1.7,2.2,2.2c1,0.4,2,0.6,3,1c4.8,1.7,7.7,6.7,8.9,11.6
		C168.4,238.8,168.5,243.7,166.7,247.8z"/>
	<path class="st5" d="M153.5,256.1c-0.2,0.5-0.4,0.9-0.6,1.4l0,0c0.1-0.4,0.2-0.8,0.4-1.1C153.4,256.3,153.5,256.2,153.5,256.1z"/>
	<path class="st5" d="M339.4,248c-0.7,8.4-6.8,15.7-14.2,19.5c-7.5,3.8-16.2,4.6-24.6,3.8c-7-0.6-15.5-1.7-19.8,3.9
		c-0.7,0.9-1.2,1.9-1.9,2.8v0.1c-0.1,3.4-2.4,6.6-5.6,7.7c-3.2,1.1-7,0.1-9.2-2.5c-3.9-4.6-2-11.6-3.7-17.3c-0.8-2.8-2.5-5.2-3.3-8
		c-0.7-2.8-0.2-6.4,2.4-7.7c2.8-1.5,6.4,0.7,8,3.4c0.1,0.2,0.2,0.3,0.2,0.4c3.5,1.9,7.8,1.4,11.5-0.4c4.1-2,6.7-6.1,6.9-10.6
		c-5.4-9,0.7-21.7,10.4-25.6c9.7-3.9,21.1-0.7,29.6,5.5C334,229,340.3,238.3,339.4,248z"/>
	<path class="st5" d="M686.2,245.9c-1,4.6-4.1,8.3-7.5,11.4c-2.6,2.4-5.4,4.6-8.5,5.9c-3.2,1.3-6.8,1.8-10,0.7
		c-3.2-1.1-6.1-3.9-6.9-7.4c0,0,0-0.1,0-0.2c-0.1-0.4-0.2-0.8-0.4-1.1c-0.1-0.1-0.2-0.2-0.2-0.3c0,0,0,0,0,0
		c-0.7-0.6-1.7-0.6-2.6-0.6c-4.4-0.2-8.3-3.7-10.1-8c-1.8-4.3-1.7-9.3-0.6-13.9c1.2-5.1,4-10.2,8.6-12c1-0.4,2-0.6,2.9-1
		c0.9-0.5,1.8-1.2,2.1-2.2c0.3-1.1-0.2-2.4-1.2-2.6c1.1-0.4,2.2-0.9,3.3-1.3c-1.1,0.3-2.2,0.5-3.3,0.5c-0.5,0-1-0.1-1.6-0.2
		c-2.2-0.5-4.2-2.6-4.1-5.1c0.1-0.8,0.4-1.6,0.8-2.2c0.4-0.6,0.9-1.2,1.5-1.6c1.2-0.9,2.7-1.3,4.1-1.8c0.7-0.2,1.4-0.4,2.2-0.7
		c3.9-1.2,7.7-2.4,11.6-3.6c0,1.6,1.4,2.6,2.6,3.6c1.1,1,2.2,2.6,1.5,4c-0.3,0.6-1,1-1.6,1.3c-0.7,0.4-1.4,0.8-2.2,1.1
		c0.7-0.3,1.3-0.5,2-0.8c-0.7,1-0.4,2.4,0.3,3.4c0.7,1,1.7,1.6,2.7,2.2c5.8,4.1,9.4,10.9,12.2,17.8
		C685.6,235.9,687.2,241,686.2,245.9z"/>
	<path class="st5" d="M653.2,256.3L653.2,256.3c-0.2-0.4-0.5-0.9-0.6-1.4c0.1,0.1,0.2,0.2,0.2,0.3
		C653,255.5,653.1,255.9,653.2,256.3z"/>
	<path class="st5" d="M552.9,254.4c0,0.8-0.1,1.7-0.3,2.5c-0.7,2.9-2.4,5.5-3.2,8.3c-0.2,0.8-0.4,1.6-0.5,2.4
		c-0.8,5.4,0.2,11.4-3.1,15.6c-2.1,2.7-5.8,3.8-8.9,2.6c-3.1-1.2-5.4-4.5-5.4-8v-0.1c-0.6-0.9-1.2-2-1.8-2.9
		c-4.1-5.8-12.3-4.7-19.1-4.1c-8.1,0.8-16.5,0-23.8-4c-7.2-4-13-11.5-13.8-20.2c-0.8-10.1,5.3-19.7,12.9-25.7
		c8.2-6.4,19.2-9.8,28.6-5.7c9.4,4,15.3,17.2,10.1,26.5c0.2,4.7,2.7,8.9,6.7,11c3.6,1.9,7.7,2.3,11.1,0.4c0.1-0.2,0.2-0.3,0.2-0.4
		c1.6-2.9,5-5.1,7.7-3.6C552.1,249.9,552.9,252.1,552.9,254.4z"/>
</g>
<g id="woofvsmeow">
	<g>
		<g>
			<path class="st6" d="M348.3,170.1l-0.7-1.7c-0.4-1-1-1.7-1.7-2c-1.2-0.6-1.8-1.4-1.8-2.4c0-2.1,3.2-3.2,9.6-3.2
				c3.2,0,5.6,0.3,7.3,0.8c0.6,0.2,1,0.5,1.4,0.9s0.5,0.8,0.5,1.3c0,0.4-0.1,0.7-0.2,0.9c-0.2,0.2-0.6,0.6-1.3,1.3
				c-0.4,0.3-0.6,0.7-0.6,1.1c0,0.6,0.3,1.5,0.9,2.9l1.4,3c0.6,1.4,1.1,2.3,1.4,2.6c0.3,0.4,0.6,0.6,0.9,0.6c0.4,0,0.7-0.2,1-0.6
				c0.3-0.4,0.6-1.3,1.1-2.5l1.2-3.5c0.3-1,0.5-1.7,0.5-2.2c0-0.7-0.3-1.1-1-1.3c-1.4-0.4-2.1-1.2-2.1-2.4c0-1,0.5-1.7,1.6-2.1
				c1.1-0.4,2.9-0.6,5.3-0.6c1.6,0,2.9,0.2,3.8,0.5c1.2,0.5,1.9,1.3,1.9,2.4c0,0.5-0.1,0.9-0.3,1.2c-0.2,0.3-0.7,0.8-1.4,1.4
				c-0.4,0.4-0.8,0.8-1,1.2c-0.2,0.4-0.6,1.3-1.1,2.7l-4.4,11.6c-2.2,5.4-3.5,8.6-3.9,9.6c-0.4,1-0.9,2-1.4,2.8
				c-0.4,0.6-0.8,1-1.2,1.3c-0.4,0.2-1,0.4-1.8,0.4c-1,0-1.8-0.2-2.4-0.6s-1.1-1.1-1.5-2.1l-4.9-11.7c-0.3-0.6-0.5-1.1-0.6-1.2
				c-0.1-0.2-0.3-0.2-0.5-0.2c-0.3,0-0.6,0.2-0.9,0.6c-0.2,0.4-0.7,1.5-1.4,3.2l-3.4,8.4c-0.6,1.5-1.2,2.5-1.8,3
				c-0.6,0.5-1.4,0.7-2.6,0.7c-1,0-1.9-0.2-2.5-0.7c-0.6-0.5-1.2-1.4-1.7-2.6l-9.2-23.4c-0.4-1-0.6-1.5-0.8-1.7
				c-0.1-0.2-0.6-0.5-1.3-0.9c-0.8-0.4-1.3-1.2-1.3-2.2c0-2.3,2.9-3.5,8.7-3.5c3,0,5.1,0.2,6.4,0.6c1.3,0.4,1.9,1.2,1.9,2.5
				c0,0.4,0,0.7-0.1,0.8c-0.1,0.2-0.3,0.6-0.7,1.2c-0.2,0.3-0.3,0.7-0.3,1.2c0,0.8,0.6,2.6,1.7,5.2l1,2.4c0.4,1,0.7,1.6,0.9,1.8
				c0.1,0.2,0.3,0.3,0.6,0.3c0.6,0,1.3-0.9,2-2.8l1-2.8c0.1-0.2,0.1-0.4,0.1-0.5C348.5,170.5,348.4,170.4,348.3,170.1z"/>
			<path class="st6" d="M396.8,160.6c4.3,0,8,1.2,11.2,3.7c2.2,1.7,3.9,3.9,5.3,6.5c1.3,2.7,2,5.3,2,8c0,3.9-1.3,7.4-3.9,10.5
				c-2.2,2.6-5.1,4.5-8.6,5.7c-2.2,0.7-4.4,1-6.5,1c-2.9,0-5.6-0.6-8.2-1.8c-3.2-1.4-5.7-3.6-7.4-6.5c-1.7-2.8-2.6-5.9-2.6-9.3
				c0-4,1.1-7.4,3.4-10.5c2-2.7,4.7-4.7,8-5.9C391.5,161,394,160.6,396.8,160.6z M394.4,167.8c-1.4,0-2.5,0.6-3.3,1.9
				c-0.6,0.9-0.9,2-0.9,3.3c0,1.9,0.4,4,1.1,6.5c0.8,2.5,1.7,4.7,2.9,6.6c0.5,0.8,1.1,1.5,1.9,1.9c0.8,0.5,1.5,0.7,2.3,0.7
				c1.3,0,2.3-0.5,3.1-1.4c0.8-0.9,1.2-2.2,1.2-3.7c0-2-0.3-4.2-1-6.5c-0.6-2.3-1.5-4.3-2.5-6c-0.6-1-1.4-1.8-2.2-2.4
				C396.1,168.1,395.3,167.8,394.4,167.8z"/>
			<path class="st6" d="M436.5,160.6c4.3,0,8,1.2,11.2,3.7c2.2,1.7,3.9,3.9,5.3,6.5c1.3,2.7,2,5.3,2,8c0,3.9-1.3,7.4-3.9,10.5
				c-2.2,2.6-5.1,4.5-8.6,5.7c-2.2,0.7-4.4,1-6.5,1c-2.9,0-5.6-0.6-8.2-1.8c-3.2-1.4-5.7-3.6-7.4-6.5c-1.7-2.8-2.6-5.9-2.6-9.3
				c0-4,1.1-7.4,3.4-10.5c2-2.7,4.7-4.7,8-5.9C431.2,161,433.7,160.6,436.5,160.6z M434.1,167.8c-1.4,0-2.5,0.6-3.3,1.9
				c-0.6,0.9-0.9,2-0.9,3.3c0,1.9,0.4,4,1.1,6.5c0.8,2.5,1.7,4.7,2.9,6.6c0.5,0.8,1.1,1.5,1.9,1.9c0.8,0.5,1.5,0.7,2.3,0.7
				c1.3,0,2.3-0.5,3.1-1.4c0.8-0.9,1.2-2.2,1.2-3.7c0-2-0.3-4.2-1-6.5c-0.6-2.3-1.5-4.3-2.5-6c-0.6-1-1.4-1.8-2.2-2.4
				C435.8,168.1,434.9,167.8,434.1,167.8z"/>
			<path class="st6" d="M475.3,166.4c-1.1,0-1.9,0.3-2.1,0.9c-0.2,0.4-0.4,1.3-0.6,2.5c-0.2,1.3-0.3,2.4-0.3,3.4
				c0,0.6,0.2,1,0.6,1.3s1.1,0.3,2.2,0.3c0.7,0,1.3-0.1,1.6-0.4s0.6-0.7,0.7-1.3c0.4-1.8,1.2-2.7,2.3-2.7c2,0,3,2.4,3,7.3
				c0,3.1-0.4,5.3-1.3,6.8c-0.5,0.9-1.3,1.3-2.2,1.3c-1,0-1.5-0.7-1.7-2c-0.1-0.8-0.2-1.4-0.3-1.8c-0.1-0.3-0.4-0.7-0.7-1
				c-0.5-0.5-1.3-0.8-2.4-0.8c-0.7,0-1.3,0.1-1.5,0.4c-0.3,0.3-0.4,0.8-0.3,1.5c0,0.1,0,0.9,0,2.3c0,2.9,0.3,4.6,0.9,5.3
				c0.2,0.2,0.4,0.4,0.6,0.5c0.2,0.1,0.8,0.2,1.6,0.3c0.4,0.1,0.8,0.3,1.1,0.7s0.4,0.8,0.4,1.3c0,1.3-0.7,2.1-2.2,2.5
				c-2.2,0.5-5.2,0.8-9.1,0.8c-3.4,0-5.8-0.2-7.1-0.6c-0.6-0.2-1.1-0.5-1.4-1c-0.4-0.5-0.5-1-0.5-1.6c0-0.7,0.3-1.3,0.8-1.8
				c0.1-0.1,0.6-0.3,1.4-0.6c0.9-0.4,1.5-1.2,1.7-2.5c0.3-2,0.4-6.7,0.4-14c0-3.1-0.1-5.2-0.3-6.1c-0.2-0.9-0.7-1.6-1.6-1.9
				c-0.8-0.4-1.4-0.7-1.6-1c-0.3-0.3-0.4-0.7-0.4-1.2c0-0.7,0.4-1.3,1.1-1.8c0.7-0.5,1.6-0.7,2.6-0.7c0.7,0,1.6,0,2.9,0.1
				c2.7,0.2,5.9,0.3,9.7,0.3c6,0,10.1-0.2,12.2-0.5c0.3,0,0.5,0,0.6,0c0.6,0,1.1,0.3,1.7,1c1.5,1.9,2.2,3.9,2.2,6.2
				c0,1-0.2,1.9-0.7,2.5c-0.5,0.6-1.1,0.9-1.9,0.9c-0.6,0-1-0.1-1.3-0.3c-0.3-0.2-1.1-1-2.3-2.4c-0.7-0.9-1.6-1.4-2.7-1.7
				C480.1,166.7,478.2,166.5,475.3,166.4z"/>
		</g>
	</g>
	<g>
		<g>
			<path class="st6" d="M349.1,274.3l-3,6.7c-0.5,1.1-0.9,1.9-1.2,2.3c-0.3,0.4-0.7,0.6-1,0.6c-0.4,0-0.7-0.2-1-0.5
				c-0.2-0.2-0.6-0.9-1.3-2.2c-0.7-1.3-1.2-2.4-1.6-3.4l-3.3-7.4c-0.4-1-0.9-1.5-1.4-1.5c-0.5,0-0.8,0.4-0.9,1.3
				c-0.1,2-0.2,3.8-0.2,5.4c0,1.7,0.1,2.9,0.2,3.5c0.1,0.4,0.3,0.6,0.5,0.8c0.2,0.2,0.7,0.5,1.6,0.9c0.5,0.3,0.8,0.8,0.8,1.5
				c0,1.9-2.4,2.8-7.1,2.8c-4,0-6-0.9-6-2.7c0-0.5,0.1-0.8,0.3-1c0.2-0.2,0.7-0.5,1.6-0.9c0.5-0.2,0.9-0.6,1.1-1
				c0.2-0.4,0.4-1.3,0.5-2.5c0.1-1.3,0.3-3.5,0.4-6.5c0.1-3,0.2-5.6,0.2-7.8c0-2.7-0.2-4.5-0.6-5.5c-0.1-0.3-0.3-0.6-0.5-0.7
				c-0.2-0.2-0.6-0.4-1.1-0.6c-1.2-0.6-1.8-1.3-1.8-2.2c0-0.6,0.2-1.1,0.7-1.6c0.4-0.5,1-0.8,1.8-1c0.7-0.2,1.7-0.4,2.9-0.6
				c1.2-0.2,2.3-0.2,3.1-0.2c2.1,0,3.6,0.2,4.5,0.5c0.4,0.2,0.8,0.4,1,0.7s0.6,0.9,1.1,1.7l5.2,9.5c0.6,1,1,1.7,1.2,1.9
				c0.2,0.2,0.5,0.3,0.9,0.3c0.3,0,0.6-0.1,0.9-0.4s0.6-0.7,0.9-1.4l3.5-6.8c0.4-0.9,0.7-1.5,0.8-1.7c0.8-1.7,1.6-2.8,2.4-3.3
				c1-0.7,2.9-1.1,5.5-1.1c4.7,0,7,1.1,7,3.2c0,0.5-0.1,0.9-0.3,1.2c-0.2,0.3-0.6,0.6-1.1,1.1c-0.8,0.6-1.2,1.4-1.4,2.5
				c-0.4,2.3-0.6,5.1-0.6,8.4c0,4.2,0.2,7.9,0.6,11.1c0.1,0.8,0.3,1.3,0.5,1.6c0.2,0.3,0.7,0.7,1.6,1.3c0.6,0.4,0.9,0.9,0.9,1.6
				c0,1.2-0.8,2-2.3,2.5c-0.8,0.3-1.6,0.4-2.5,0.5c-0.9,0.1-2.2,0.1-4.1,0.1c-2.8,0-4.9-0.2-6.3-0.6c-1.5-0.4-2.3-1.2-2.3-2.3
				c0-0.4,0.1-0.7,0.3-1c0.2-0.3,0.7-0.7,1.5-1.4c0.4-0.3,0.7-1,0.9-2s0.2-2.7,0.2-5.1c0-1.3-0.1-2.2-0.2-2.6
				c-0.1-0.4-0.4-0.6-0.8-0.6c-0.5,0-0.9,0.3-1.3,1C350.6,271.1,349.9,272.4,349.1,274.3z"/>
			<path class="st6" d="M374.7,250.6h12.8c2.6,0,4.5-0.1,5.7-0.2c1.2-0.1,2.3-0.3,3.5-0.7c0.3-0.1,0.6-0.1,0.8-0.1
				c0.9,0,1.6,0.5,2.3,1.4c1.1,1.5,1.6,3.3,1.6,5.5c0,1.1-0.2,1.9-0.7,2.6c-0.5,0.6-1.1,0.9-1.9,0.9c-0.5,0-1-0.1-1.3-0.3
				c-0.3-0.2-0.7-0.7-1.2-1.5c-0.7-1.1-1.7-1.9-2.8-2.2c-1.1-0.4-3-0.6-5.5-0.6c-1.9,0-3.1,0.3-3.5,1c-0.2,0.4-0.3,0.9-0.4,1.5
				c0,0.6-0.1,2.2-0.1,4.7c0,1,0.2,1.6,0.5,1.9c0.3,0.2,1.2,0.4,2.6,0.4c0.7,0,1.2-0.1,1.5-0.4c0.3-0.3,0.5-0.8,0.6-1.6
				c0.1-1,0.2-1.6,0.4-2c0.1-0.4,0.4-0.7,0.7-0.9c0.3-0.3,0.8-0.4,1.2-0.4c0.7,0,1.3,0.3,1.7,1c0.3,0.5,0.6,1.3,0.9,2.6
				c0.2,1.2,0.4,2.5,0.4,3.8c0,2.6-0.4,4.8-1.2,6.4c-0.4,0.9-1.1,1.4-2,1.4c-0.6,0-1-0.1-1.2-0.4c-0.2-0.3-0.4-0.9-0.5-1.8
				c-0.2-1.9-1.3-2.8-3.3-2.8c-0.7,0-1.3,0.2-1.5,0.7c-0.3,0.5-0.4,1.3-0.4,2.6c0,0.8,0.1,1.8,0.2,3c0.1,1.2,0.2,2.1,0.3,2.5
				c0.1,0.5,0.5,0.8,1.2,1c0.7,0.2,1.8,0.3,3.4,0.3c2.5,0,4.4-0.3,5.6-1c1.3-0.6,2.3-1.8,3.1-3.5c0.5-1,0.9-1.6,1.3-1.9
				c0.4-0.3,0.9-0.5,1.5-0.5c0.7,0,1.3,0.3,1.7,0.9c0.5,0.6,0.7,1.4,0.7,2.3c0,1-0.3,2.2-0.8,3.7c-0.5,1.5-1.1,2.8-1.9,4
				c-0.4,0.6-0.7,0.9-0.9,1.1c-0.2,0.2-0.6,0.3-0.9,0.3c-0.3,0-0.8,0-1.4-0.1c-1.1-0.2-2.5-0.3-4.3-0.4h-21.1c-0.8,0-1.5-0.2-2-0.6
				c-0.5-0.4-0.7-0.9-0.7-1.6c0-0.5,0.1-0.8,0.3-1s0.7-0.5,1.4-0.8c0.5-0.2,0.9-0.5,1.1-0.8c0.2-0.3,0.4-0.8,0.6-1.4
				c0.5-2.5,0.8-5.9,0.8-10.1c0-6.4-0.4-10.5-1.2-12.1c-0.2-0.3-0.3-0.6-0.5-0.7c-0.2-0.1-0.6-0.3-1.2-0.5c-0.9-0.3-1.4-0.9-1.4-1.9
				c0-0.5,0.2-1,0.5-1.4c0.3-0.4,0.7-0.7,1.2-0.8C371.5,250.7,372.8,250.6,374.7,250.6z"/>
			<path class="st6" d="M423.9,249.9c4.3,0,8,1.2,11.2,3.7c2.2,1.7,3.9,3.9,5.3,6.5c1.3,2.7,2,5.3,2,8c0,3.9-1.3,7.4-3.9,10.5
				c-2.2,2.6-5.1,4.5-8.6,5.7c-2.2,0.7-4.4,1-6.5,1c-2.9,0-5.6-0.6-8.2-1.8c-3.2-1.4-5.7-3.6-7.4-6.5c-1.7-2.8-2.6-5.9-2.6-9.3
				c0-4,1.1-7.4,3.4-10.5c2-2.7,4.7-4.7,8-5.9C418.6,250.4,421.1,249.9,423.9,249.9z M421.5,257.1c-1.4,0-2.5,0.6-3.3,1.9
				c-0.6,0.9-0.9,2-0.9,3.3c0,1.9,0.4,4,1.1,6.5c0.8,2.5,1.7,4.7,2.9,6.6c0.5,0.8,1.1,1.5,1.9,1.9c0.8,0.5,1.5,0.7,2.3,0.7
				c1.3,0,2.3-0.5,3.1-1.4c0.8-0.9,1.2-2.2,1.2-3.7c0-2-0.3-4.2-1-6.5s-1.5-4.3-2.5-6c-0.6-1-1.4-1.8-2.2-2.4
				C423.2,257.4,422.3,257.1,421.5,257.1z"/>
			<path class="st6" d="M464.8,259.5l-0.7-1.7c-0.4-1-1-1.7-1.7-2c-1.2-0.6-1.8-1.4-1.8-2.4c0-2.1,3.2-3.2,9.6-3.2
				c3.2,0,5.6,0.3,7.3,0.8c0.6,0.2,1,0.5,1.4,0.9c0.3,0.4,0.5,0.8,0.5,1.3c0,0.4-0.1,0.7-0.2,0.9c-0.2,0.2-0.6,0.6-1.3,1.3
				c-0.4,0.3-0.6,0.7-0.6,1.1c0,0.6,0.3,1.5,0.9,2.9l1.4,3c0.6,1.4,1.1,2.3,1.4,2.6c0.3,0.4,0.6,0.6,0.9,0.6c0.4,0,0.7-0.2,1-0.6
				c0.3-0.4,0.6-1.3,1.1-2.5l1.2-3.5c0.3-1,0.5-1.7,0.5-2.2c0-0.7-0.3-1.1-1-1.3c-1.4-0.4-2.1-1.2-2.1-2.4c0-1,0.5-1.7,1.6-2.1
				c1.1-0.4,2.9-0.6,5.3-0.6c1.6,0,2.9,0.2,3.8,0.5c1.2,0.5,1.9,1.3,1.9,2.4c0,0.5-0.1,0.9-0.3,1.2c-0.2,0.3-0.7,0.8-1.4,1.4
				c-0.4,0.4-0.8,0.8-1,1.2c-0.2,0.4-0.6,1.3-1.1,2.7l-4.4,11.6c-2.2,5.4-3.5,8.6-3.9,9.6s-0.9,2-1.4,2.8c-0.4,0.6-0.8,1-1.2,1.3
				s-1,0.4-1.8,0.4c-1,0-1.8-0.2-2.4-0.6c-0.6-0.4-1.1-1.1-1.5-2.1l-4.9-11.7c-0.3-0.6-0.5-1.1-0.6-1.2c-0.1-0.2-0.3-0.2-0.5-0.2
				c-0.3,0-0.6,0.2-0.9,0.6s-0.7,1.5-1.4,3.2l-3.4,8.4c-0.6,1.5-1.2,2.5-1.8,3c-0.6,0.5-1.4,0.7-2.6,0.7c-1,0-1.9-0.2-2.5-0.7
				c-0.6-0.5-1.2-1.4-1.7-2.6l-9.2-23.4c-0.4-1-0.6-1.5-0.8-1.7c-0.1-0.2-0.6-0.5-1.3-0.9c-0.8-0.4-1.3-1.2-1.3-2.2
				c0-2.3,2.9-3.5,8.7-3.5c3,0,5.1,0.2,6.4,0.6c1.3,0.4,1.9,1.2,1.9,2.5c0,0.4,0,0.7-0.1,0.8c-0.1,0.2-0.3,0.6-0.7,1.2
				c-0.2,0.3-0.3,0.7-0.3,1.2c0,0.8,0.6,2.6,1.7,5.2l1,2.4c0.4,1,0.7,1.6,0.9,1.8c0.1,0.2,0.3,0.3,0.6,0.3c0.6,0,1.3-0.9,2-2.8
				l1-2.8c0.1-0.2,0.1-0.4,0.1-0.5C464.9,259.9,464.9,259.7,464.8,259.5z"/>
		</g>
	</g>
	<g>
		<rect x="266.5" y="307.9" class="st8" width="285.8" height="48"/>
		<path class="st1" d="M310.2,311.6l-0.3-0.8c-0.2-0.4-0.4-0.7-0.7-0.9c-0.5-0.3-0.8-0.6-0.8-1c0-0.9,1.4-1.4,4.1-1.4
			c1.4,0,2.4,0.1,3.1,0.3c0.2,0.1,0.4,0.2,0.6,0.4c0.1,0.2,0.2,0.4,0.2,0.6c0,0.2,0,0.3-0.1,0.4c-0.1,0.1-0.3,0.3-0.6,0.5
			c-0.2,0.2-0.3,0.3-0.3,0.5c0,0.3,0.1,0.7,0.4,1.2l0.6,1.3c0.3,0.6,0.5,1,0.6,1.1s0.3,0.2,0.4,0.2c0.2,0,0.3-0.1,0.4-0.3
			c0.1-0.2,0.3-0.6,0.5-1.1l0.5-1.5c0.1-0.4,0.2-0.8,0.2-1c0-0.3-0.2-0.5-0.5-0.6c-0.6-0.2-0.9-0.5-0.9-1c0-0.4,0.2-0.7,0.7-0.9
			c0.5-0.2,1.2-0.3,2.3-0.3c0.7,0,1.2,0.1,1.6,0.2c0.5,0.2,0.8,0.6,0.8,1c0,0.2,0,0.4-0.1,0.5s-0.3,0.4-0.6,0.6
			c-0.2,0.2-0.3,0.3-0.4,0.5c-0.1,0.2-0.3,0.6-0.5,1.1l-1.9,5c-0.9,2.3-1.5,3.7-1.7,4.2c-0.2,0.4-0.4,0.8-0.6,1.2
			c-0.2,0.3-0.3,0.4-0.5,0.5s-0.5,0.2-0.8,0.2c-0.4,0-0.8-0.1-1-0.3c-0.3-0.2-0.5-0.5-0.7-0.9l-2.1-5c-0.1-0.3-0.2-0.5-0.3-0.5
			c-0.1-0.1-0.1-0.1-0.2-0.1c-0.2,0-0.3,0.1-0.4,0.3c-0.1,0.2-0.3,0.6-0.6,1.4l-1.5,3.6c-0.3,0.7-0.5,1.1-0.8,1.3s-0.6,0.3-1.1,0.3
			c-0.5,0-0.8-0.1-1.1-0.3c-0.3-0.2-0.5-0.6-0.7-1.1l-4-10.1c-0.2-0.4-0.3-0.7-0.3-0.7c-0.1-0.1-0.3-0.2-0.6-0.4
			c-0.4-0.2-0.5-0.5-0.5-0.9c0-1,1.3-1.5,3.8-1.5c1.3,0,2.2,0.1,2.8,0.3c0.6,0.2,0.8,0.5,0.8,1.1c0,0.2,0,0.3,0,0.4
			c0,0.1-0.1,0.2-0.3,0.5c-0.1,0.1-0.1,0.3-0.1,0.5c0,0.4,0.2,1.1,0.7,2.2l0.4,1c0.2,0.4,0.3,0.7,0.4,0.8c0.1,0.1,0.1,0.1,0.3,0.1
			c0.3,0,0.6-0.4,0.9-1.2l0.4-1.2c0-0.1,0.1-0.2,0.1-0.2C310.2,311.8,310.2,311.7,310.2,311.6z"/>
		<path class="st1" d="M329.4,308.4l-0.1,4.5c0,0.5,0.2,0.8,0.5,0.8c0.2,0,0.3-0.1,0.5-0.4c0.7-1,1.6-1.5,2.8-1.5c1.1,0,2,0.3,2.7,1
			c0.3,0.3,0.5,0.7,0.6,1.1c0.1,0.4,0.2,1,0.2,1.8l0.1,3.9c0,0.3,0.1,0.6,0.1,0.7c0.1,0.2,0.3,0.4,0.6,0.6c0.2,0.2,0.3,0.4,0.3,0.6
			c0,0.8-1.2,1.2-3.5,1.2c-2.1,0-3.1-0.4-3.1-1.1c0-0.1,0-0.2,0.1-0.3c0-0.1,0.2-0.2,0.4-0.5c0.3-0.4,0.5-1.4,0.5-3
			c0-1-0.1-1.6-0.3-2.1c-0.2-0.6-0.7-0.9-1.3-0.9c-0.4,0-0.8,0.2-1,0.5c-0.2,0.2-0.2,0.7-0.2,1.3v2.1c0,0.9,0.1,1.4,0.1,1.6
			c0,0.1,0.2,0.3,0.5,0.7c0.1,0.2,0.2,0.3,0.2,0.5c0,0.8-1.1,1.2-3.2,1.2c-2.5,0-3.7-0.4-3.7-1.3c0-0.2,0-0.3,0.1-0.4
			c0.1-0.1,0.3-0.3,0.6-0.5c0.3-0.2,0.5-0.7,0.6-1.6c0.1-0.8,0.2-2.3,0.2-4.2c0-1.5,0-2.6-0.1-3.2c0-0.2-0.1-0.4-0.2-0.5
			c-0.1-0.1-0.2-0.2-0.4-0.3c-0.4-0.2-0.7-0.5-0.7-0.8c0-0.4,0.2-0.6,0.5-0.9c0.3-0.2,1-0.5,1.9-0.7c1.3-0.4,2.3-0.5,3.1-0.5
			C329.3,307.8,329.5,308,329.4,308.4z"/>
		<path class="st1" d="M344.5,311.8c1.2,0,2.3,0.3,3.2,0.9c0.5,0.3,0.8,0.7,1,1.2c0.2,0.4,0.3,1,0.3,1.8l0,1.6
			c0,1.1,0.1,1.8,0.2,2.2c0.1,0.2,0.2,0.3,0.2,0.3c0.1,0,0.2,0.1,0.5,0.1c0.2,0,0.3,0.2,0.3,0.5c0,0.3-0.1,0.7-0.4,1.1
			c-0.3,0.4-0.6,0.7-1.1,0.9c-0.5,0.3-1.1,0.5-1.7,0.5c-0.8,0-1.3-0.3-1.8-0.8c-0.2-0.2-0.3-0.3-0.4-0.3c-0.1,0-0.3,0.1-0.6,0.3
			c-0.7,0.5-1.5,0.8-2.4,0.8c-0.9,0-1.7-0.2-2.3-0.6c-0.4-0.3-0.7-0.6-0.9-1c-0.2-0.4-0.3-0.9-0.3-1.3c0-0.7,0.3-1.4,0.9-2
			c0.9-0.9,2.3-1.4,4.2-1.4c0.4,0,0.7,0,0.8-0.1c0.1-0.1,0.2-0.3,0.2-0.6c0-0.8-0.1-1.3-0.2-1.6c-0.2-0.3-0.4-0.5-0.8-0.5
			c-0.2,0-0.4,0.1-0.6,0.2c-0.2,0.1-0.4,0.4-0.6,0.7c-0.6,0.9-1.3,1.4-2,1.4c-0.4,0-0.6-0.1-0.9-0.3c-0.2-0.2-0.3-0.5-0.3-0.8
			c0-0.3,0.1-0.7,0.4-1c0.3-0.3,0.6-0.6,1.1-0.9C341.8,312.1,343.1,311.8,344.5,311.8z M343.8,318c-0.3,0-0.6,0.1-0.8,0.4
			c-0.2,0.3-0.3,0.6-0.3,0.9c0,0.3,0.1,0.6,0.2,0.8c0.2,0.2,0.4,0.3,0.7,0.3c0.6,0,0.9-0.5,0.9-1.5c0-0.4,0-0.7-0.1-0.8
			C344.2,318.1,344,318,343.8,318z"/>
		<path class="st1" d="M357.2,314.6v3.6c0,0.4,0.1,0.8,0.3,1.1c0.2,0.3,0.5,0.4,0.8,0.4c0.3,0,0.6-0.1,1.1-0.4
			c0.1-0.1,0.2-0.1,0.3-0.1c0.2,0,0.3,0.1,0.5,0.3c0.1,0.2,0.2,0.4,0.2,0.7c0,0.4-0.2,0.9-0.7,1.3c-1,0.9-2.2,1.3-3.7,1.3
			c-1.1,0-2.1-0.3-2.8-1c-0.7-0.6-1-1.5-1-2.6v-5c0-0.2,0-0.3-0.1-0.3c0,0-0.1-0.1-0.3-0.1h-1.1c-0.2,0-0.3,0-0.4-0.1
			c-0.1-0.1-0.1-0.2-0.1-0.5v-0.5c0-0.2,0.1-0.4,0.2-0.5l4.9-3.1c0.1-0.1,0.3-0.1,0.5-0.1h0.9c0.2,0,0.3,0,0.4,0.1
			c0.1,0.1,0.1,0.2,0.1,0.5v1.5c0,0.2,0,0.4,0.1,0.4c0.1,0.1,0.2,0.1,0.4,0.1h2c0.3,0,0.4,0,0.5,0.1c0.1,0.1,0.1,0.3,0.1,0.6v0.6
			c0,0.3-0.1,0.6-0.2,0.7c-0.1,0.1-0.3,0.2-0.5,0.2h-1.9c-0.2,0-0.3,0-0.4,0.1C357.3,314.3,357.2,314.4,357.2,314.6z"/>
		<path class="st1" d="M373.2,311.8c1.3,0,2.5,0.3,3.4,1c0.7,0.5,1.3,1.1,1.7,1.9c0.4,0.8,0.7,1.7,0.7,2.6c0,1.6-0.7,2.9-2.1,4
			c-1.4,1-2.9,1.6-4.7,1.6c-1.7,0-3.1-0.5-4.2-1.5c-1-0.9-1.5-2.2-1.5-3.7c0-1.7,0.6-3.1,1.9-4.1
			C369.7,312.4,371.3,311.8,373.2,311.8z M372.3,314.3c-0.3,0-0.6,0.1-0.8,0.3c-0.2,0.2-0.3,0.5-0.3,0.9c0,0.4,0.1,1,0.2,1.8
			s0.4,1.4,0.6,2c0.2,0.6,0.6,0.9,1.1,0.9c0.6,0,1-0.4,1-1.2c0-0.6-0.1-1.3-0.2-2.1c-0.2-0.8-0.4-1.4-0.6-1.9
			C373.1,314.5,372.8,314.3,372.3,314.3z"/>
		<path class="st1" d="M385.7,312.4v5.8c0,1.2,0.4,1.9,1.2,1.9c0.2,0,0.4-0.1,0.6-0.2c0.2-0.1,0.3-0.3,0.4-0.4
			c0.2-0.3,0.2-1.1,0.2-2.3c0-1.2,0-2-0.1-2.4c0-0.2-0.1-0.3-0.2-0.4c-0.1-0.1-0.2-0.2-0.4-0.3c-0.4-0.2-0.6-0.5-0.6-0.8
			c0-0.4,0.4-0.8,1.1-0.9c1.3-0.3,2.6-0.5,3.9-0.5c0.7,0,1.1,0.4,1.1,1.1c0,0.1,0,0.2,0,0.5c0,0.3,0,0.8,0,1.3v4.7
			c0,0.2,0.2,0.5,0.6,0.7c0.4,0.2,0.5,0.4,0.5,0.8c0,0.6-0.8,1.1-2.3,1.5c-0.9,0.2-1.8,0.3-2.6,0.3c-0.3,0-0.6,0-0.7-0.1
			c-0.1-0.1-0.2-0.2-0.2-0.5c0-0.4-0.2-0.7-0.4-0.7c-0.1,0-0.2,0-0.2,0.1c-0.1,0-0.3,0.2-0.7,0.4c-0.7,0.5-1.5,0.7-2.3,0.7
			c-1.4,0-2.3-0.4-2.9-1.2c-0.5-0.7-0.7-1.8-0.7-3.4c0-0.6,0-1.1,0-1.5c0-0.2,0-0.4,0-0.5c0-0.6-0.1-1.1-0.2-1.4
			c-0.1-0.3-0.3-0.5-0.6-0.7c-0.3-0.1-0.5-0.3-0.5-0.3s-0.1-0.2-0.1-0.4c0-0.5,0.4-0.9,1.2-1.1c1.4-0.3,2.8-0.5,4.2-0.5
			C385.5,311.9,385.7,312.1,385.7,312.4z"/>
		<path class="st1" d="M399.7,311.9c0.4,0,0.6,0.1,0.7,0.2c0.1,0.1,0.2,0.5,0.2,1c0,0.3,0.1,0.5,0.3,0.5c0.1,0,0.3-0.1,0.4-0.3
			c0.6-0.9,1.3-1.3,2.2-1.3c0.7,0,1.2,0.2,1.6,0.6c0.2,0.2,0.4,0.5,0.5,0.8c0.1,0.3,0.2,0.6,0.2,0.9c0,0.3-0.1,0.7-0.2,1
			s-0.4,0.6-0.6,0.9c-0.5,0.4-1,0.7-1.7,0.7c-0.4,0-0.7-0.1-0.9-0.2c-0.2-0.1-0.6-0.4-1-0.8c-0.2-0.2-0.3-0.2-0.4-0.2
			c-0.2,0-0.3,0.1-0.4,0.3c-0.1,0.2-0.1,0.7-0.1,1.4c0,1.1,0,1.8,0.1,2.2c0,0.2,0.1,0.4,0.2,0.4c0.1,0.1,0.3,0.2,0.6,0.3
			c0.6,0.2,1,0.5,1,1c0,0.3-0.1,0.5-0.3,0.8c-0.2,0.2-0.5,0.4-0.8,0.4c-0.7,0.1-1.7,0.2-3,0.2c-1.3,0-2.2-0.1-2.9-0.3
			c-0.6-0.2-0.9-0.5-0.9-1c0-0.4,0.2-0.7,0.6-1c0.2-0.1,0.4-0.3,0.4-0.4c0.1-0.1,0.1-0.3,0.2-0.5c0.1-0.7,0.2-1.9,0.2-3.6
			c0-0.3,0-0.6-0.1-0.7c-0.1-0.1-0.2-0.3-0.4-0.3c-0.5-0.2-0.8-0.5-0.8-0.9c0-0.3,0.2-0.6,0.5-0.9c0.4-0.2,0.9-0.5,1.8-0.7
			C398,312,398.9,311.9,399.7,311.9z"/>
		<path class="st1" d="M418.1,314v3.4c0,1.5,0,2.4,0.1,2.7c0,0.3,0.2,0.4,0.5,0.6c0.3,0.1,0.4,0.2,0.5,0.3c0.1,0.1,0.1,0.2,0.1,0.4
			c0,0.2-0.1,0.5-0.3,0.6c-0.2,0.2-0.4,0.3-0.7,0.4c-0.5,0.2-1.4,0.2-2.6,0.2c-1.4,0-2.4-0.1-2.9-0.3c-0.3-0.1-0.5-0.2-0.6-0.4
			c-0.2-0.2-0.2-0.4-0.2-0.6c0-0.2,0-0.3,0.1-0.4c0.1-0.1,0.3-0.2,0.6-0.3c0.3-0.1,0.5-0.5,0.5-1c0.1-0.9,0.2-2.3,0.2-4
			c0-1.7,0-2.9-0.2-3.4c-0.1-0.5-0.4-0.9-0.8-1.1c-0.3-0.2-0.5-0.3-0.6-0.5c-0.1-0.2-0.2-0.3-0.2-0.6c0-0.4,0.2-0.7,0.5-0.9
			c0.3-0.3,0.9-0.5,1.6-0.7c0.5-0.2,1.1-0.3,1.9-0.4c0.8-0.1,1.4-0.2,1.7-0.2c0.6,0,0.8,0.4,0.8,1.1c0,0.2,0,0.8-0.1,1.6
			C418.2,311.7,418.1,312.9,418.1,314z"/>
		<path class="st1" d="M426,312.5v6.2c0,0.5,0,0.9,0.1,1.1c0.1,0.2,0.3,0.4,0.5,0.6c0.2,0.2,0.4,0.3,0.4,0.4
			c0.1,0.1,0.1,0.3,0.1,0.4c0,0.9-1.2,1.4-3.5,1.4c-1.3,0-2.3-0.1-3-0.3c-0.3-0.1-0.5-0.2-0.6-0.4c-0.2-0.2-0.2-0.4-0.2-0.6
			c0-0.2,0-0.3,0.1-0.5s0.3-0.3,0.6-0.5c0.2-0.2,0.4-0.4,0.5-0.8c0.1-0.4,0.1-0.9,0.1-1.7c0-0.2,0-0.7,0-1.3c0-0.6-0.1-1-0.1-1.1
			c0-0.3-0.2-0.5-0.6-0.7c-0.4-0.2-0.7-0.5-0.7-0.9c0-0.5,0.3-0.8,0.9-1c0.8-0.3,1.7-0.6,2.6-0.8s1.6-0.3,2.1-0.3
			C425.8,311.9,426,312.1,426,312.5z M423.9,307.8c0.6,0,1.1,0.1,1.5,0.3c0.4,0.2,0.5,0.5,0.5,0.9c0,0.6-0.3,1-0.8,1.3
			c-0.9,0.5-1.9,0.8-3.2,0.8c-0.5,0-0.9-0.1-1.2-0.3c-0.4-0.3-0.6-0.6-0.6-1.1c0-0.6,0.4-1.1,1.3-1.5
			C422.2,308,423.1,307.8,423.9,307.8z"/>
		<path class="st1" d="M434.2,314.6v3.6c0,0.4,0.1,0.8,0.3,1.1c0.2,0.3,0.5,0.4,0.8,0.4c0.3,0,0.6-0.1,1.1-0.4
			c0.1-0.1,0.2-0.1,0.3-0.1c0.2,0,0.3,0.1,0.5,0.3c0.1,0.2,0.2,0.4,0.2,0.7c0,0.4-0.2,0.9-0.7,1.3c-1,0.9-2.2,1.3-3.7,1.3
			c-1.1,0-2.1-0.3-2.8-1c-0.7-0.6-1-1.5-1-2.6v-5c0-0.2,0-0.3-0.1-0.3c0,0-0.1-0.1-0.3-0.1h-1.1c-0.2,0-0.3,0-0.4-0.1
			c-0.1-0.1-0.1-0.2-0.1-0.5v-0.5c0-0.2,0.1-0.4,0.2-0.5l4.9-3.1c0.1-0.1,0.3-0.1,0.5-0.1h0.9c0.2,0,0.3,0,0.4,0.1
			c0.1,0.1,0.1,0.2,0.1,0.5v1.5c0,0.2,0,0.4,0.1,0.4c0.1,0.1,0.2,0.1,0.4,0.1h2c0.3,0,0.4,0,0.5,0.1s0.1,0.3,0.1,0.6v0.6
			c0,0.3,0,0.6-0.2,0.7c-0.1,0.1-0.3,0.2-0.5,0.2h-1.9c-0.2,0-0.3,0-0.4,0.1C434.3,314.3,434.2,314.4,434.2,314.6z"/>
		<path class="st1" d="M444.4,314.6v3.6c0,0.4,0.1,0.8,0.3,1.1c0.2,0.3,0.5,0.4,0.8,0.4c0.3,0,0.6-0.1,1.1-0.4
			c0.1-0.1,0.2-0.1,0.3-0.1c0.2,0,0.3,0.1,0.5,0.3c0.1,0.2,0.2,0.4,0.2,0.7c0,0.4-0.2,0.9-0.7,1.3c-1,0.9-2.2,1.3-3.7,1.3
			c-1.1,0-2.1-0.3-2.8-1c-0.7-0.6-1-1.5-1-2.6v-5c0-0.2,0-0.3-0.1-0.3c0,0-0.1-0.1-0.3-0.1H438c-0.2,0-0.3,0-0.4-0.1
			c-0.1-0.1-0.1-0.2-0.1-0.5v-0.5c0-0.2,0.1-0.4,0.2-0.5l4.9-3.1c0.1-0.1,0.3-0.1,0.5-0.1h0.9c0.2,0,0.3,0,0.4,0.1
			c0.1,0.1,0.1,0.2,0.1,0.5v1.5c0,0.2,0,0.4,0.1,0.4c0.1,0.1,0.2,0.1,0.4,0.1h2c0.3,0,0.4,0,0.5,0.1s0.1,0.3,0.1,0.6v0.6
			c0,0.3,0,0.6-0.2,0.7c-0.1,0.1-0.3,0.2-0.5,0.2h-1.9c-0.2,0-0.3,0-0.4,0.1C444.4,314.3,444.4,314.4,444.4,314.6z"/>
		<path class="st1" d="M454.3,314v3.4c0,1.5,0,2.4,0.1,2.7c0,0.3,0.2,0.4,0.5,0.6c0.3,0.1,0.4,0.2,0.5,0.3c0.1,0.1,0.1,0.2,0.1,0.4
			c0,0.2-0.1,0.5-0.3,0.6c-0.2,0.2-0.4,0.3-0.7,0.4c-0.5,0.2-1.4,0.2-2.6,0.2c-1.4,0-2.4-0.1-2.9-0.3c-0.3-0.1-0.5-0.2-0.6-0.4
			c-0.2-0.2-0.2-0.4-0.2-0.6c0-0.2,0-0.3,0.1-0.4c0.1-0.1,0.3-0.2,0.6-0.3c0.3-0.1,0.5-0.5,0.5-1c0.1-0.9,0.2-2.3,0.2-4
			c0-1.7,0-2.9-0.2-3.4c-0.1-0.5-0.4-0.9-0.8-1.1c-0.3-0.2-0.5-0.3-0.6-0.5c-0.1-0.2-0.2-0.3-0.2-0.6c0-0.4,0.2-0.7,0.5-0.9
			c0.3-0.3,0.9-0.5,1.6-0.7c0.5-0.2,1.1-0.3,1.9-0.4c0.8-0.1,1.4-0.2,1.7-0.2c0.6,0,0.8,0.4,0.8,1.1c0,0.2,0,0.8-0.1,1.6
			C454.4,311.7,454.4,312.9,454.3,314z"/>
		<path class="st1" d="M466.2,317.7h-5c-0.2,0-0.3,0.1-0.3,0.3c0,0.5,0.3,0.9,0.8,1.3c0.5,0.4,1,0.6,1.6,0.6c0.3,0,0.7-0.1,1.1-0.2
			c0.4-0.1,0.8-0.3,1-0.5c0.2-0.2,0.4-0.3,0.6-0.3c0.2,0,0.4,0.1,0.5,0.3c0.2,0.2,0.3,0.5,0.3,0.7c0,0.5-0.3,1-1,1.5
			c-1.1,0.9-2.5,1.3-3.9,1.3c-1.5,0-2.8-0.4-3.8-1.3c-0.5-0.4-0.9-0.9-1.2-1.6c-0.4-0.8-0.6-1.7-0.6-2.6c0-1.2,0.4-2.3,1.1-3.2
			c0.6-0.8,1.4-1.5,2.4-1.9c0.7-0.3,1.5-0.5,2.4-0.5c1.4,0,2.5,0.4,3.5,1.2c0.5,0.4,0.9,0.8,1.2,1.4c0.3,0.6,0.5,1.2,0.5,1.8
			c0,0.5-0.1,0.8-0.3,1.1C466.7,317.5,466.5,317.7,466.2,317.7z M461.4,315.7h1.1c0.5,0,0.7-0.2,0.7-0.6c0-0.4-0.1-0.7-0.3-0.9
			c-0.2-0.2-0.5-0.4-0.9-0.4c-0.4,0-0.7,0.2-0.9,0.5c-0.2,0.3-0.3,0.6-0.3,0.9c0,0.2,0.1,0.4,0.2,0.5
			C461,315.6,461.1,315.7,461.4,315.7z"/>
		<path class="st1" d="M478.7,311.9c0.4,0,0.7,0,0.8,0.1s0.2,0.3,0.2,0.6c0,0.3,0.1,0.4,0.3,0.4c0.1,0,0.3-0.1,0.7-0.4
			c0.3-0.2,0.7-0.4,1.2-0.5c0.5-0.1,0.9-0.2,1.3-0.2c0.9,0,1.7,0.3,2.4,0.9c0.5,0.5,1,1.1,1.3,1.8c0.3,0.8,0.5,1.6,0.5,2.4
			c0,1.8-0.6,3.3-1.8,4.5c-0.9,0.9-2,1.4-3.2,1.4c-0.6,0-1.2-0.1-1.9-0.4c-0.1-0.1-0.2-0.1-0.3-0.1c-0.2,0-0.3,0.2-0.3,0.6
			c0,0.6,0.2,1,0.6,1.2c0.4,0.2,0.6,0.4,0.6,0.5c0.1,0.1,0.1,0.2,0.1,0.4c0,0.4-0.2,0.8-0.7,1c-0.5,0.2-1.2,0.3-2,0.3
			c-1.6,0-2.9-0.3-4.1-0.9c-0.6-0.3-0.9-0.7-0.9-1.2c0-0.2,0-0.4,0.1-0.5c0.1-0.1,0.3-0.2,0.5-0.3c0.4-0.2,0.6-0.5,0.7-0.9
			c0.1-0.5,0.1-1.7,0.2-3.9c0-1.8-0.1-2.8-0.2-3c0-0.1-0.1-0.1-0.1-0.1c-0.1,0-0.2-0.1-0.5-0.1c-0.2,0-0.4-0.1-0.6-0.3
			c-0.1-0.2-0.2-0.4-0.2-0.6c0-0.3,0.1-0.5,0.3-0.8c0.2-0.2,0.5-0.4,1-0.6C476.3,312.3,477.6,311.9,478.7,311.9z M479.7,315.9
			l-0.2,3c0,0.1,0,0.2,0,0.4c0,0.2,0.1,0.4,0.3,0.5c0.2,0.1,0.5,0.2,0.8,0.2c1,0,1.5-0.8,1.5-2.4c0-1.1-0.2-1.8-0.6-2.2
			c-0.3-0.3-0.6-0.4-0.9-0.4C480.1,314.9,479.8,315.2,479.7,315.9z"/>
		<path class="st1" d="M494.2,311.8c1.2,0,2.3,0.3,3.2,0.9c0.5,0.3,0.8,0.7,1,1.2c0.2,0.4,0.3,1,0.3,1.8l0,1.6
			c0,1.1,0.1,1.8,0.2,2.2c0.1,0.2,0.2,0.3,0.2,0.3s0.2,0.1,0.5,0.1c0.2,0,0.3,0.2,0.3,0.5c0,0.3-0.1,0.7-0.4,1.1
			c-0.3,0.4-0.6,0.7-1.1,0.9c-0.5,0.3-1.1,0.5-1.7,0.5c-0.8,0-1.3-0.3-1.8-0.8c-0.2-0.2-0.3-0.3-0.4-0.3c-0.1,0-0.3,0.1-0.6,0.3
			c-0.7,0.5-1.5,0.8-2.4,0.8c-0.9,0-1.7-0.2-2.3-0.6c-0.4-0.3-0.7-0.6-0.9-1c-0.2-0.4-0.3-0.9-0.3-1.3c0-0.7,0.3-1.4,0.9-2
			c0.9-0.9,2.3-1.4,4.2-1.4c0.4,0,0.7,0,0.8-0.1c0.1-0.1,0.2-0.3,0.2-0.6c0-0.8-0.1-1.3-0.2-1.6c-0.2-0.3-0.4-0.5-0.8-0.5
			c-0.2,0-0.4,0.1-0.6,0.2c-0.2,0.1-0.4,0.4-0.6,0.7c-0.6,0.9-1.3,1.4-2,1.4c-0.4,0-0.6-0.1-0.9-0.3c-0.2-0.2-0.3-0.5-0.3-0.8
			c0-0.3,0.1-0.7,0.4-1c0.3-0.3,0.6-0.6,1.1-0.9C491.4,312.1,492.8,311.8,494.2,311.8z M493.5,318c-0.3,0-0.6,0.1-0.8,0.4
			c-0.2,0.3-0.3,0.6-0.3,0.9c0,0.3,0.1,0.6,0.2,0.8c0.2,0.2,0.4,0.3,0.7,0.3c0.6,0,0.9-0.5,0.9-1.5c0-0.4,0-0.7-0.1-0.8
			C493.9,318.1,493.7,318,493.5,318z"/>
		<path class="st1" d="M506.7,314v3.4c0,1.5,0,2.4,0.1,2.7c0,0.3,0.2,0.4,0.5,0.6c0.3,0.1,0.4,0.2,0.5,0.3c0.1,0.1,0.1,0.2,0.1,0.4
			c0,0.2-0.1,0.5-0.3,0.6c-0.2,0.2-0.4,0.3-0.7,0.4c-0.5,0.2-1.4,0.2-2.6,0.2c-1.4,0-2.4-0.1-2.9-0.3c-0.3-0.1-0.5-0.2-0.6-0.4
			c-0.2-0.2-0.2-0.4-0.2-0.6c0-0.2,0-0.3,0.1-0.4c0.1-0.1,0.3-0.2,0.6-0.3c0.3-0.1,0.5-0.5,0.5-1c0.1-0.9,0.2-2.3,0.2-4
			c0-1.7,0-2.9-0.2-3.4c-0.1-0.5-0.4-0.9-0.8-1.1c-0.3-0.2-0.5-0.3-0.6-0.5c-0.1-0.2-0.2-0.3-0.2-0.6c0-0.4,0.2-0.7,0.5-0.9
			c0.3-0.3,0.9-0.5,1.6-0.7c0.5-0.2,1.1-0.3,1.9-0.4c0.8-0.1,1.4-0.2,1.7-0.2c0.6,0,0.8,0.4,0.8,1.1c0,0.2,0,0.8-0.1,1.6
			C506.7,311.7,506.7,312.9,506.7,314z"/>
		<path class="st1" d="M512.9,311.8c0.4,0,0.9,0.1,1.8,0.2c0.2,0,0.3,0,0.4,0c0.1,0,0.4-0.1,0.7-0.2c0.2-0.1,0.3-0.1,0.4-0.1
			c0.3,0,0.7,0.2,1,0.6c0.3,0.3,0.5,0.7,0.7,1.1c0.2,0.4,0.3,0.7,0.3,1c0,0.3-0.1,0.5-0.3,0.7c-0.2,0.2-0.5,0.3-0.8,0.3
			c-0.3,0-0.5-0.1-0.7-0.2c-0.2-0.1-0.5-0.4-1-0.8c-0.5-0.4-0.8-0.7-1.1-0.7c-0.2,0-0.4,0.1-0.5,0.2c-0.1,0.1-0.2,0.3-0.2,0.5
			c0,0.4,0.3,0.7,1,1c1.2,0.5,2.1,1.1,2.8,1.8c0.5,0.5,0.8,1.2,0.8,2c0,1-0.4,1.8-1.3,2.5c-0.8,0.6-1.7,0.9-2.8,0.9
			c-0.3,0-0.8,0-1.5-0.1c-0.7-0.1-1.1-0.1-1.2-0.1c-0.1,0-0.2,0-0.3,0c-0.2,0-0.4,0-0.5,0c-0.3,0-0.6-0.1-0.8-0.3
			c-0.3-0.3-0.6-0.7-0.8-1.3s-0.4-1.1-0.4-1.5c0-0.7,0.3-1,0.8-1c0.2,0,0.4,0.1,0.6,0.2c0.2,0.1,0.5,0.5,1.1,1.1
			c0.3,0.3,0.5,0.5,0.7,0.6s0.4,0.2,0.6,0.2c0.2,0,0.4-0.1,0.6-0.2c0.1-0.1,0.2-0.3,0.2-0.5c0-0.3-0.3-0.6-0.8-0.9
			c-1.2-0.6-2-1.1-2.5-1.8c-0.5-0.6-0.8-1.3-0.8-2.1c0-0.9,0.3-1.6,0.8-2.2C510.6,312.2,511.6,311.8,512.9,311.8z"/>
		<path class="st1" d="M330.2,338.3c0.4,0,0.6,0.1,0.7,0.2c0.1,0.1,0.2,0.5,0.2,1c0,0.3,0.1,0.5,0.3,0.5c0.1,0,0.3-0.1,0.4-0.3
			c0.6-0.9,1.3-1.3,2.2-1.3c0.7,0,1.2,0.2,1.6,0.6c0.2,0.2,0.4,0.5,0.5,0.8c0.1,0.3,0.2,0.6,0.2,0.9c0,0.3-0.1,0.7-0.2,1
			c-0.2,0.4-0.4,0.6-0.6,0.9c-0.5,0.4-1,0.7-1.7,0.7c-0.4,0-0.7-0.1-0.9-0.2s-0.6-0.4-1-0.8c-0.2-0.2-0.3-0.2-0.4-0.2
			c-0.2,0-0.3,0.1-0.4,0.3c-0.1,0.2-0.1,0.7-0.1,1.4c0,1.1,0,1.8,0.1,2.2c0,0.2,0.1,0.4,0.2,0.4c0.1,0.1,0.3,0.2,0.6,0.3
			c0.6,0.2,1,0.5,1,1c0,0.3-0.1,0.5-0.3,0.8c-0.2,0.2-0.5,0.4-0.8,0.4c-0.7,0.1-1.7,0.2-3,0.2c-1.3,0-2.2-0.1-2.9-0.3
			c-0.6-0.2-0.9-0.5-0.9-1c0-0.4,0.2-0.7,0.6-1c0.2-0.1,0.4-0.3,0.4-0.4c0.1-0.1,0.1-0.3,0.2-0.5c0.1-0.7,0.2-1.9,0.2-3.6
			c0-0.3,0-0.6-0.1-0.7c-0.1-0.1-0.2-0.3-0.4-0.3c-0.5-0.2-0.8-0.5-0.8-0.9c0-0.3,0.2-0.6,0.5-0.9c0.4-0.2,0.9-0.5,1.8-0.7
			C328.5,338.4,329.4,338.3,330.2,338.3z"/>
		<path class="st1" d="M346.6,344.1h-5c-0.2,0-0.3,0.1-0.3,0.3c0,0.5,0.3,0.9,0.8,1.3c0.5,0.4,1,0.6,1.6,0.6c0.3,0,0.7-0.1,1.1-0.2
			c0.4-0.1,0.8-0.3,1-0.5c0.2-0.2,0.4-0.3,0.6-0.3c0.2,0,0.4,0.1,0.5,0.3c0.2,0.2,0.3,0.5,0.3,0.7c0,0.5-0.3,1-1,1.5
			c-1.1,0.9-2.5,1.3-3.9,1.3c-1.5,0-2.8-0.4-3.8-1.3c-0.5-0.4-0.9-0.9-1.2-1.6c-0.4-0.8-0.6-1.7-0.6-2.6c0-1.2,0.4-2.3,1.1-3.2
			c0.6-0.8,1.4-1.5,2.4-1.9c0.7-0.3,1.5-0.5,2.4-0.5c1.4,0,2.5,0.4,3.5,1.2c0.5,0.4,0.9,0.8,1.2,1.4c0.3,0.6,0.5,1.2,0.5,1.8
			c0,0.5-0.1,0.8-0.3,1.1C347.2,343.9,346.9,344.1,346.6,344.1z M341.8,342.1h1.1c0.5,0,0.7-0.2,0.7-0.6c0-0.4-0.1-0.7-0.3-0.9
			c-0.2-0.2-0.5-0.4-0.9-0.4c-0.4,0-0.7,0.2-0.9,0.5c-0.2,0.3-0.3,0.6-0.3,0.9c0,0.2,0.1,0.4,0.2,0.5
			C341.4,342,341.6,342.1,341.8,342.1z"/>
		<path class="st1" d="M359.4,341.6l-2.8,5.4c-0.4,0.8-0.8,1.4-1.1,1.7s-0.6,0.5-1,0.5c-0.3,0-0.6-0.1-0.8-0.4
			c-0.4-0.5-0.8-1-1.1-1.7l-3.1-5.8c-0.2-0.3-0.3-0.5-0.5-0.7c-0.2-0.1-0.4-0.2-0.6-0.3c-0.5-0.2-0.8-0.5-0.8-0.9c0-0.4,0.3-0.8,1-1
			c0.7-0.2,1.7-0.3,3.2-0.3c1.2,0,2.1,0.1,2.7,0.3c0.6,0.2,0.9,0.4,0.9,0.8c0,0.3-0.1,0.5-0.4,0.7c-0.2,0.2-0.3,0.3-0.3,0.4
			c-0.1,0.1-0.1,0.2-0.1,0.3c0,0.2,0.2,0.6,0.5,1.2c0.3,0.6,0.6,0.8,0.9,0.8c0.2,0,0.3-0.1,0.4-0.2c0.1-0.1,0.3-0.5,0.6-1.1
			c0.2-0.4,0.3-0.7,0.3-0.9c0-0.2-0.1-0.4-0.3-0.6c-0.2-0.3-0.4-0.5-0.4-0.7c0-0.3,0.2-0.6,0.7-0.7c0.5-0.2,1.2-0.2,2.2-0.2
			c1.5,0,2.2,0.3,2.2,0.9c0,0.4-0.3,0.6-0.8,0.8c-0.4,0.1-0.7,0.3-0.8,0.4C359.9,340.6,359.7,341,359.4,341.6z"/>
		<path class="st1" d="M371.2,344.1h-5c-0.2,0-0.3,0.1-0.3,0.3c0,0.5,0.3,0.9,0.8,1.3c0.5,0.4,1,0.6,1.6,0.6c0.3,0,0.7-0.1,1.1-0.2
			c0.4-0.1,0.8-0.3,1-0.5c0.2-0.2,0.4-0.3,0.6-0.3c0.2,0,0.4,0.1,0.5,0.3c0.2,0.2,0.3,0.5,0.3,0.7c0,0.5-0.3,1-1,1.5
			c-1.1,0.9-2.5,1.3-3.9,1.3c-1.5,0-2.8-0.4-3.8-1.3c-0.5-0.4-0.9-0.9-1.2-1.6c-0.4-0.8-0.6-1.7-0.6-2.6c0-1.2,0.4-2.3,1.1-3.2
			c0.6-0.8,1.4-1.5,2.4-1.9c0.7-0.3,1.5-0.5,2.4-0.5c1.4,0,2.5,0.4,3.5,1.2c0.5,0.4,0.9,0.8,1.2,1.4c0.3,0.6,0.5,1.2,0.5,1.8
			c0,0.5-0.1,0.8-0.3,1.1C371.7,343.9,371.5,344.1,371.2,344.1z M366.4,342.1h1.1c0.5,0,0.7-0.2,0.7-0.6c0-0.4-0.1-0.7-0.3-0.9
			c-0.2-0.2-0.5-0.4-0.9-0.4c-0.4,0-0.7,0.2-0.9,0.5c-0.2,0.3-0.3,0.6-0.3,0.9c0,0.2,0.1,0.4,0.2,0.5
			C366,342,366.1,342.1,366.4,342.1z"/>
		<path class="st1" d="M379,338.2c1.2,0,2.3,0.3,3.2,0.9c0.5,0.3,0.8,0.7,1,1.2c0.2,0.4,0.3,1,0.3,1.8l0,1.6c0,1.1,0.1,1.8,0.2,2.2
			c0.1,0.2,0.2,0.3,0.2,0.3c0.1,0,0.2,0.1,0.5,0.1c0.2,0,0.3,0.2,0.3,0.5c0,0.3-0.1,0.7-0.4,1.1c-0.3,0.4-0.6,0.7-1.1,0.9
			c-0.5,0.3-1.1,0.5-1.7,0.5c-0.8,0-1.3-0.3-1.8-0.8c-0.2-0.2-0.3-0.3-0.4-0.3c-0.1,0-0.3,0.1-0.6,0.3c-0.7,0.5-1.5,0.8-2.4,0.8
			c-0.9,0-1.7-0.2-2.3-0.6c-0.4-0.3-0.7-0.6-0.9-1c-0.2-0.4-0.3-0.9-0.3-1.3c0-0.7,0.3-1.4,0.9-2c0.9-0.9,2.3-1.4,4.2-1.4
			c0.4,0,0.7,0,0.8-0.1c0.1-0.1,0.2-0.3,0.2-0.6c0-0.8-0.1-1.3-0.2-1.6c-0.2-0.3-0.4-0.5-0.8-0.5c-0.2,0-0.4,0.1-0.6,0.2
			c-0.2,0.1-0.4,0.4-0.6,0.7c-0.6,0.9-1.3,1.4-2,1.4c-0.4,0-0.6-0.1-0.9-0.3c-0.2-0.2-0.3-0.5-0.3-0.8c0-0.3,0.1-0.7,0.4-1
			c0.3-0.3,0.6-0.6,1.1-0.9C376.3,338.5,377.6,338.2,379,338.2z M378.3,344.4c-0.3,0-0.6,0.1-0.8,0.4c-0.2,0.3-0.3,0.6-0.3,0.9
			c0,0.3,0.1,0.6,0.2,0.8c0.2,0.2,0.4,0.3,0.7,0.3c0.6,0,0.9-0.5,0.9-1.5c0-0.4,0-0.7-0.1-0.8C378.7,344.5,378.5,344.4,378.3,344.4z
			"/>
		<path class="st1" d="M391.5,340.4v3.4c0,1.5,0,2.4,0.1,2.7c0,0.3,0.2,0.4,0.5,0.6c0.3,0.1,0.4,0.2,0.5,0.3
			c0.1,0.1,0.1,0.2,0.1,0.4c0,0.2-0.1,0.5-0.3,0.6c-0.2,0.2-0.4,0.3-0.7,0.4c-0.5,0.2-1.4,0.2-2.6,0.2c-1.4,0-2.4-0.1-2.9-0.3
			c-0.3-0.1-0.5-0.2-0.6-0.4c-0.2-0.2-0.2-0.4-0.2-0.6c0-0.2,0-0.3,0.1-0.4c0.1-0.1,0.3-0.2,0.6-0.3c0.3-0.1,0.5-0.5,0.5-1
			c0.1-0.9,0.2-2.3,0.2-4c0-1.7-0.1-2.9-0.2-3.4c-0.1-0.5-0.4-0.9-0.8-1.1c-0.3-0.2-0.5-0.3-0.6-0.5c-0.1-0.2-0.2-0.3-0.2-0.6
			c0-0.4,0.2-0.7,0.5-0.9c0.3-0.3,0.9-0.5,1.6-0.7c0.5-0.2,1.1-0.3,1.9-0.4c0.8-0.1,1.4-0.2,1.7-0.2c0.6,0,0.8,0.4,0.8,1.1
			c0,0.2,0,0.8-0.1,1.6C391.6,338.1,391.5,339.3,391.5,340.4z"/>
		<path class="st1" d="M405,338.2c1.2,0,2.3,0.3,3.2,0.9c0.5,0.3,0.8,0.7,1,1.2c0.2,0.4,0.3,1,0.3,1.8l0,1.6c0,1.1,0.1,1.8,0.2,2.2
			c0.1,0.2,0.2,0.3,0.2,0.3s0.2,0.1,0.5,0.1c0.2,0,0.3,0.2,0.3,0.5c0,0.3-0.1,0.7-0.4,1.1c-0.3,0.4-0.6,0.7-1.1,0.9
			c-0.5,0.3-1.1,0.5-1.7,0.5c-0.8,0-1.3-0.3-1.8-0.8c-0.2-0.2-0.3-0.3-0.4-0.3c-0.1,0-0.3,0.1-0.6,0.3c-0.7,0.5-1.5,0.8-2.4,0.8
			c-0.9,0-1.7-0.2-2.3-0.6c-0.4-0.3-0.7-0.6-0.9-1c-0.2-0.4-0.3-0.9-0.3-1.3c0-0.7,0.3-1.4,0.9-2c0.9-0.9,2.3-1.4,4.2-1.4
			c0.4,0,0.7,0,0.8-0.1c0.1-0.1,0.2-0.3,0.2-0.6c0-0.8-0.1-1.3-0.2-1.6c-0.2-0.3-0.4-0.5-0.8-0.5c-0.2,0-0.4,0.1-0.6,0.2
			c-0.2,0.1-0.4,0.4-0.6,0.7c-0.6,0.9-1.3,1.4-2,1.4c-0.4,0-0.6-0.1-0.9-0.3c-0.2-0.2-0.3-0.5-0.3-0.8c0-0.3,0.1-0.7,0.4-1
			c0.3-0.3,0.6-0.6,1.1-0.9C402.3,338.5,403.6,338.2,405,338.2z M404.3,344.4c-0.3,0-0.6,0.1-0.8,0.4c-0.2,0.3-0.3,0.6-0.3,0.9
			c0,0.3,0.1,0.6,0.2,0.8c0.2,0.2,0.4,0.3,0.7,0.3c0.6,0,0.9-0.5,0.9-1.5c0-0.4,0-0.7-0.1-0.8C404.7,344.5,404.6,344.4,404.3,344.4z
			"/>
		<path class="st1" d="M417.2,334.9l-0.1,4.2c0,0.1,0,0.2,0,0.2c0,0.1,0,0.2,0.1,0.2c0,0,0.2-0.1,0.4-0.3c0.8-0.7,1.8-1,2.8-1
			c1,0,1.9,0.4,2.7,1.1c1,0.9,1.4,2.1,1.4,3.6c0,2.1-0.8,3.7-2.3,5c-1.1,0.9-2.4,1.4-3.9,1.4c-0.7,0-1.4-0.1-2-0.3
			c-0.6-0.2-1.3-0.5-2-1c-0.1-0.1-0.2-0.1-0.3-0.1c-0.1,0-0.3,0.1-0.7,0.2c-0.2,0.1-0.4,0.1-0.7,0.1c-0.4,0-0.7-0.1-0.7-0.4
			c0-0.1,0-0.2,0.1-0.3c0.1-0.5,0.2-1,0.3-1.7s0.1-1.8,0.1-3.3v-3c0-0.7,0-1.2-0.1-1.4c-0.1-0.2-0.2-0.3-0.5-0.4
			c-0.4-0.2-0.6-0.3-0.8-0.5c-0.1-0.2-0.2-0.3-0.2-0.6c0-0.5,0.5-0.9,1.5-1.4c0.6-0.2,1.3-0.5,2.1-0.6c0.8-0.2,1.5-0.3,2.1-0.3
			C417,334.2,417.2,334.5,417.2,334.9z M418.1,341.4c-0.4,0-0.7,0.1-0.8,0.4c-0.1,0.2-0.2,0.6-0.2,1.2c0,1.7,0.1,2.8,0.2,3.4
			c0.1,0.5,0.4,0.8,0.9,0.8c0.5,0,0.9-0.2,1.2-0.7c0.3-0.4,0.4-1.1,0.4-1.9c0-1.2-0.2-2.2-0.7-2.7
			C418.8,341.6,418.5,341.4,418.1,341.4z"/>
		<path class="st1" d="M431.9,338.2c1.3,0,2.5,0.3,3.4,1c0.7,0.5,1.3,1.1,1.7,1.9c0.4,0.8,0.7,1.7,0.7,2.6c0,1.6-0.7,2.9-2.1,4
			c-1.4,1-2.9,1.6-4.7,1.6c-1.7,0-3.1-0.5-4.2-1.5c-1-0.9-1.5-2.2-1.5-3.7c0-1.7,0.6-3.1,1.9-4.1
			C428.5,338.8,430.1,338.2,431.9,338.2z M431.1,340.7c-0.3,0-0.6,0.1-0.8,0.3c-0.2,0.2-0.3,0.5-0.3,0.9c0,0.4,0.1,1,0.2,1.8
			c0.2,0.7,0.4,1.4,0.6,2c0.2,0.6,0.6,0.9,1.1,0.9c0.6,0,1-0.4,1-1.2c0-0.6-0.1-1.3-0.2-2.1c-0.2-0.8-0.4-1.4-0.6-1.9
			C431.8,340.9,431.5,340.7,431.1,340.7z"/>
		<path class="st1" d="M444.4,338.8v5.8c0,1.2,0.4,1.9,1.2,1.9c0.2,0,0.4-0.1,0.6-0.2s0.3-0.3,0.4-0.4c0.2-0.3,0.2-1.1,0.2-2.3
			c0-1.2,0-2-0.1-2.4c0-0.2-0.1-0.3-0.2-0.4c-0.1-0.1-0.2-0.2-0.4-0.3c-0.4-0.2-0.6-0.5-0.6-0.8c0-0.4,0.4-0.8,1.1-0.9
			c1.3-0.3,2.6-0.5,3.9-0.5c0.7,0,1.1,0.4,1.1,1.1c0,0.1,0,0.2,0,0.5c0,0.3,0,0.8,0,1.3v4.7c0,0.2,0.2,0.5,0.6,0.7
			c0.4,0.2,0.5,0.4,0.5,0.8c0,0.6-0.8,1.1-2.3,1.5c-0.9,0.2-1.8,0.3-2.6,0.3c-0.3,0-0.6,0-0.7-0.1c-0.1-0.1-0.2-0.2-0.2-0.5
			c0-0.4-0.2-0.7-0.4-0.7c-0.1,0-0.2,0-0.2,0.1c-0.1,0-0.3,0.2-0.7,0.4c-0.7,0.5-1.5,0.7-2.3,0.7c-1.4,0-2.3-0.4-2.9-1.2
			c-0.5-0.7-0.7-1.8-0.7-3.4c0-0.6,0-1.1,0-1.5c0-0.2,0-0.4,0-0.5c0-0.6-0.1-1.1-0.2-1.4c-0.1-0.3-0.3-0.5-0.6-0.7
			c-0.3-0.1-0.5-0.3-0.5-0.3c-0.1-0.1-0.1-0.2-0.1-0.4c0-0.5,0.4-0.9,1.2-1.1c1.4-0.3,2.8-0.5,4.2-0.5
			C444.2,338.3,444.4,338.5,444.4,338.8z"/>
		<path class="st1" d="M459.8,341v3.6c0,0.4,0.1,0.8,0.3,1.1c0.2,0.3,0.5,0.4,0.8,0.4c0.3,0,0.6-0.1,1.1-0.4
			c0.1-0.1,0.2-0.1,0.3-0.1c0.2,0,0.3,0.1,0.5,0.3c0.1,0.2,0.2,0.4,0.2,0.7c0,0.4-0.2,0.9-0.7,1.3c-1,0.9-2.2,1.3-3.7,1.3
			c-1.1,0-2.1-0.3-2.8-1c-0.7-0.6-1-1.5-1-2.6v-5c0-0.2,0-0.3-0.1-0.3c0,0-0.1-0.1-0.3-0.1h-1.1c-0.2,0-0.3,0-0.4-0.1
			c-0.1-0.1-0.1-0.2-0.1-0.5v-0.5c0-0.2,0.1-0.4,0.2-0.5l4.9-3.1c0.1-0.1,0.3-0.1,0.5-0.1h0.9c0.2,0,0.3,0,0.4,0.1
			c0.1,0.1,0.1,0.2,0.1,0.5v1.5c0,0.2,0,0.4,0.1,0.4c0.1,0.1,0.2,0.1,0.4,0.1h2c0.3,0,0.4,0,0.5,0.1s0.1,0.3,0.1,0.6v0.6
			c0,0.3,0,0.6-0.2,0.7c-0.1,0.1-0.3,0.2-0.5,0.2h-1.9c-0.2,0-0.3,0-0.4,0.1C459.9,340.7,459.8,340.8,459.8,341z"/>
		<path class="st1" d="M475,338.8v5.8c0,1.2,0.4,1.9,1.2,1.9c0.2,0,0.4-0.1,0.6-0.2s0.3-0.3,0.4-0.4c0.2-0.3,0.2-1.1,0.2-2.3
			c0-1.2,0-2-0.1-2.4c0-0.2-0.1-0.3-0.2-0.4c-0.1-0.1-0.2-0.2-0.4-0.3c-0.4-0.2-0.6-0.5-0.6-0.8c0-0.4,0.4-0.8,1.1-0.9
			c1.3-0.3,2.6-0.5,3.9-0.5c0.7,0,1.1,0.4,1.1,1.1c0,0.1,0,0.2,0,0.5c0,0.3,0,0.8,0,1.3v4.7c0,0.2,0.2,0.5,0.6,0.7
			c0.4,0.2,0.5,0.4,0.5,0.8c0,0.6-0.8,1.1-2.3,1.5c-0.9,0.2-1.8,0.3-2.6,0.3c-0.3,0-0.6,0-0.7-0.1c-0.1-0.1-0.2-0.2-0.2-0.5
			c0-0.4-0.2-0.7-0.4-0.7c-0.1,0-0.2,0-0.2,0.1c-0.1,0-0.3,0.2-0.7,0.4c-0.7,0.5-1.5,0.7-2.3,0.7c-1.4,0-2.3-0.4-2.9-1.2
			c-0.5-0.7-0.7-1.8-0.7-3.4c0-0.6,0-1.1,0-1.5c0-0.2,0-0.4,0-0.5c0-0.6-0.1-1.1-0.2-1.4c-0.1-0.3-0.3-0.5-0.6-0.7
			c-0.3-0.1-0.5-0.3-0.5-0.3c-0.1-0.1-0.1-0.2-0.1-0.4c0-0.5,0.4-0.9,1.2-1.1c1.4-0.3,2.8-0.5,4.2-0.5
			C474.8,338.3,475,338.5,475,338.8z"/>
		<path class="st1" d="M488.3,338.2c0.4,0,0.9,0.1,1.8,0.2c0.2,0,0.3,0,0.4,0c0.1,0,0.4-0.1,0.7-0.2c0.2-0.1,0.3-0.1,0.4-0.1
			c0.3,0,0.7,0.2,1,0.6c0.3,0.3,0.5,0.7,0.7,1.1c0.2,0.4,0.3,0.7,0.3,1c0,0.3-0.1,0.5-0.3,0.7c-0.2,0.2-0.5,0.3-0.8,0.3
			c-0.3,0-0.5-0.1-0.7-0.2c-0.2-0.1-0.5-0.4-1-0.8c-0.5-0.4-0.8-0.7-1.1-0.7c-0.2,0-0.4,0.1-0.5,0.2c-0.1,0.1-0.2,0.3-0.2,0.5
			c0,0.4,0.3,0.7,1,1c1.2,0.5,2.1,1.1,2.8,1.8c0.5,0.5,0.8,1.2,0.8,2c0,1-0.4,1.8-1.3,2.5c-0.8,0.6-1.7,0.9-2.8,0.9
			c-0.3,0-0.8,0-1.5-0.1c-0.7-0.1-1.1-0.1-1.2-0.1c-0.1,0-0.2,0-0.3,0c-0.2,0-0.4,0-0.5,0c-0.3,0-0.6-0.1-0.8-0.3
			c-0.3-0.3-0.6-0.7-0.8-1.3s-0.4-1.1-0.4-1.5c0-0.7,0.3-1,0.8-1c0.2,0,0.4,0.1,0.6,0.2c0.2,0.1,0.5,0.5,1.1,1.1
			c0.3,0.3,0.5,0.5,0.7,0.6s0.4,0.2,0.6,0.2c0.2,0,0.4-0.1,0.6-0.2c0.1-0.1,0.2-0.3,0.2-0.5c0-0.3-0.3-0.6-0.8-0.9
			c-1.2-0.6-2-1.1-2.5-1.8c-0.5-0.6-0.8-1.3-0.8-2.1c0-0.9,0.3-1.6,0.8-2.2C486,338.6,487,338.2,488.3,338.2z"/>
	</g>
	<g>
	</g>
	<g>
	</g>
	<g>
	</g>
	<g>
	</g>
	<g>
	</g>
	<g>
	</g>
</g>
</svg>
