<svg xmlns="http://www.w3.org/2000/svg" viewBox="0 0 811.2 431.6">
  <style>
    .st0{fill:#F7911E;stroke:#00AEEF;stroke-miterlimit:10;} .st1{fill:#FFFFFF;} .st2{fill:#FDB943;} .st3{fill:#F9BA43;} .st4{fill:#F9B943;} .st5{fill:#BE1E2D;} .st6{fill:#8E1923;} .st7{fill:#E6D1C4;} .st8{fill:none;} .st9{fill:#D1D3D4;} .st10{fill:#C2B59B;} .st11{fill:#9B8579;}
  </style>
  <g id="background_circles">
    <path id="yellow-square" d="M.5.5h810.2v430.6H.5z" class="st0"/>
    <circle id="circle-cat" cx="578.3" cy="201.9" r="117.8" class="st1"/>
    <circle id="circle-dog" cx="231.9" cy="201.9" r="117.8" class="st1"/>
  </g>
  <g id="cat">
    <path d="M697.9 157.9c-4-8.6-8.3-17.3-15.2-23.8-6.9-6.5-17.1-10.3-26.1-7.3 21.4 20.1 36.2 47 41.8 75.8 3.1 16.1 3 34.1-6.9 47.2-7.1 9.4-18.4 14.9-29.9 17.4-11.5 2.4-23.5 2.1-35.2 1.7 2.2 2.5 4.4 4.9 6.6 7.4 10.5-5.6 23.2-.6 35-.9 24.1-.6 42.7-24.1 45.8-47.9 3-24-5.9-47.7-15.9-69.6z" class="st2"/>
    <path d="M635.6 261.3c-2.9 2.6-5.8 5.2-8.9 7.6-.1 0-.1.1-.2.2-4.1 3.3-8.4 6.2-13.1 8.4-7.2 3.3-15.5 4.5-22.8 1.9-.6-.2-1.1-.4-1.7-.7-.1-2-.9-3.9-2-5.5 1.7-.6 3.3-1.2 5-1.8.2-.1.4-.2.7-.2 8.2-3 16.5-6 24.7-8.9 5.3-1.9 10.5-3.8 15.8-5.7.3.6.7 1.3 1 1.9.4.8.9 1.8 1.5 2.8z" class="st2"/>
    <path d="M660.3 221c-3.7-.1-6.1-3.2-8.2-6.6-.1-.2-.3-.5-.4-.7-.8-1.4-1.6-2.8-2.4-4.1-.7-1.2-1.5-2.3-2.4-3.4.4-.6.9-1.2 1.5-1.6 1.2-.9 2.7-1.3 4.1-1.8.7-.2 1.4-.4 2.2-.7 1.6 3 2.9 6.3 3.9 9.6 0 .1 0 .2.1.2.7 3.1 1.3 6.1 1.6 9.1z" class="st2"/>
    <path d="M511.6 157c-.8 1.8-1.8 3.6-2.9 5.3-1 1.4-2.4 2.8-4.2 2.9-.4 0-.8 0-1.1-.2.1-.2.2-.4.2-.6.2-.4.2-.9.3-1.3 0-.4.1-.7.1-1 0-2.2-1-4.3-2.1-6.4-.2-.4-.4-.8-.6-1.1-.6-1-1.3-2.1-1.9-3.1.5-.7 1.2-1.3 2.1-1.5 1.2-.3 2.5.2 3.6.8 1.6.7 3.2 1.5 4.8 2.2.8.4 1.8.9 2.1 1.7.2.6-.1 1.5-.4 2.3z" class="st2"/>
    <path d="M504.1 126.3c0 .1 0 .2-.1.3h-.2l.3-.3z" class="st2"/>
    <path d="M509.1 123.5c0-.1-.1-.3-.2-.4h.1c0 .2 0 .3.1.4z" class="st2"/>
    <path d="M519.5 172.6c-1.3 1.7-2.7 3.4-4 5-4.7-1.3-9-3.8-12.4-7.2.2.2.7-.6 1-.7h-.7c5.7-2.6 11.9-3.7 18.1-3.3.8 2-.7 4.5-2 6.2z"/>
    <path d="M534.9 161.3c-1.6-.4-3.2-.5-4.7-.7-.7.2-1.8.3-3.2-.3-1.3-.2-2.3-.6-2.8-1.5-.3-.5-.5-1.2-.5-1.8v-.1c-.1-.7 0-1.5.3-2.3.7-2.1 2.2-4.2 3.5-5.4 0 0 .1 0 .1-.1.2 0 .3-.1.5-.2.7-.2 1.4-.5 2.1-.8 10.9-5.3 16.4-2.9 18-1.9.4.2.5.4.5.4 5.1 9.4-4.7 16.9-13.8 14.7z" class="st2"/>
    <path d="M552.9 254.4c0 .8-.1 1.7-.3 2.5-.7 2.9-2.4 5.5-3.2 8.3-.2.8-.4 1.6-.5 2.4-1 .2-1.9.4-1.7.4-1.2.1-2.4.1-3.7.1h-.2l-.6-.6c-.5-.6-1.1-1.1-1.8-1.6-.2-.1-.4-.3-.6-.4 1.6-3.2 1.8-6.9.9-10.3-.1-.2-.1-.5-.2-.7.1 0 .3.1.4.1l1.3.3c3.6.6 7 .6 10.2-.5z" class="st2"/>
    <path d="M583.7 136.8c-.1 0-.2 0-.2-.1-.1-.1-.1-.2-.1-.3l.2.2c0 .1 0 .1.1.2z" class="st2"/>
    <path d="M587.1 142.4c-.1 0-.2.1-.3.1.1 0 .2-.1.3-.1z" class="st2"/>
    <path d="M592.5 271l-.6.6c0-.1-.1-.3-.1-.4.3 0 .5-.1.7-.2z" class="st2"/>
    <path d="M614.3 208.6c-.1.6-.2 1.3-.3 2.1-.3-2.1-.3-4.2.2-6.2.2 1.3.3 2.7.1 4.1z" class="st2"/>
    <path d="M637.6 185.3c-10.4-4.9-23.6-3.2-32.2 4.5-4.1-4.7-8.6-9.1-10.8-13.4-.4-.7-.7-1.4-.9-2.1-1.5-4.2-1.1-8.4-1.2-12.8h.4c-.1-.2-.3-.3-.4-.4 0-.5 0-1-.1-1.5.6-.1 1.2-.2 1.8-.5-.7 0-1.3-.1-1.9-.4 0-.4-.1-.9-.2-1.3.6-.1 1.1-.3 1.6-.6-.6-.4-1.3-.8-1.9-1.2-.1-.4-.2-.8-.3-1.3 1.1-.1 2.2-.1 3.3.1-1.2-.6-2.3-1.2-3.5-1.9-.2-.1-.3-.2-.3-.4 0-.1.2-.2.3-.2 1-.2 2-.5 3.1-.7-1.3-.1-2.5-.3-3.8-.5 0-.1-.1-.2-.1-.4 1-.6 2.1-1.1 3.1-1.6-.6-.2-1.2.1-1.8.2-.6.2-1.5 0-1.5-.7 0-.4.2-.7.5-.9.5-.5 1.2-1.1 1.9-1.6-1 .7-2.2 1-3.5 1l-.6-1.5c1-1.3 2.2-2.4 3.6-3.2-1.7-.3-3.4-.2-5.1.3-.1 0-.2.1-.3.1.1 0 .2-.1.3-.1 1.9-.8 3.4-2.3 4.3-4.1-1.6 1.3-3.6 1.9-5.7 1.8-.1-.1-.1-.2-.2-.3 1.6-.6 2.8-2 3.2-3.6-1.6.2-3.2.5-4.8.7h-.3c-.1 0-.2 0-.2-.1-.1-.1-.1-.2-.1-.3 0-.1.1-.3.2-.4 1.2-1.4 2.7-2.6 4.3-3.5l-5.6 1.2c-.3.1-.6.1-.7-.2-.1-.2 0-.4.2-.5l2.7-3.6-4.4 2.9c-.2-.2-.3-.5-.5-.7.6-1.4 1.1-2.8 1.7-4.1-.8.3-1.3 1.2-1.8 1.9-.2.3-.6.6-.9.8-.5-.9-1.1-1.7-1.5-2.6.1-.8.3-1.7.5-2.5-.2.6-.4 1.2-.8 1.8-.3-.6-.5-1.3-.7-2-2-7.4 2.7-14.8 8.1-20.5 5.4-5.7 12-10.9 15-18-15.6 2.7-30.4 9.1-42.6 18.3.1-.2.1-.5.2-.8l-.9 1.2c-1.1.9-2.3 1.8-3.4 2.7-.1-1.3-.3-2.6-.5-3.9-.4 1.8-.9 3.7-1.3 5.5-.1.1-.3.2-.4.3-.6-1.7-1.3-3.4-1.9-5.1-.4.8-.1 1.7 0 2.6.1.8-.2 1.9-1 2-.4-.3-.8-.5-1.3-.8 0 0 0-.1-.1-.1-.7-.9-1.4-1.9-2-3 .4.8.6 1.5.8 2.4-.8-.4-1.5-.7-2.3-1 .1-.3.1-.6.2-.9-.3.2-.6.4-.9.7-.6-.2-1.3-.4-1.9-.6 0-.8-.1-1.7-.4-2.4-.1.8-.3 1.5-.6 2.2-.7-.2-1.5-.3-2.2-.4-.1-.6-.3-1.1-.5-1.6l-1.1 1.4c-.9-.1-1.8-.1-2.7-.1.1-1.1.3-2.3.7-3.3-.8 1.1-1.6 2.3-2.4 3.4-.6 0-1.2.1-1.9.2-.1-1.2-.3-2.4-.4-3.6l-.9 3.8-1.5.3c-.4-1.1-.9-2.3-1.3-3.4-.4.8-.1 1.7 0 2.6 0 .4 0 .8-.1 1.2-.6.2-1.1.4-1.6.6l-.6-.6c-.7-.9-1.4-1.9-2-3 .6 1.3 1 2.8.9 4.3-.5.3-1.1.6-1.6.9-8.8-6.1-17.7-12.3-28.1-15.8-10.4-3.5-22.6-4-32.1 1.2 21.1.3 41.5 11.6 51.6 28.4-.2.1-.4.1-.5.2-.7-.5-1.3-1.2-1.8-2-.1.9-.1 1.8.1 2.7 0 .1.1.3.1.4 0-.1-.1-.3-.2-.4-.5-1-1.3-1.8-2.3-2.2.7.8 1 1.8 1.1 2.8-.1.1-.2.1-.3.2-.4-.7-1.1-1.3-1.9-1.5.1.8.3 1.7.4 2.5-.2.1-.4.3-.5.4-.8-.6-1.4-1.4-1.9-2.3.2 1.1.5 2.1.7 3.2v.1c0 .1 0 .2-.1.3h-.2s-.1 0-.1-.1l-2.1-1.5c.5.8 1 1.5 1.5 2.3-.2.1-.3.3-.4.4-.7-.3-1.5-.6-2.2-.9.2.5.7.7 1.1 1 .2.1.4.3.5.5-.3.3-.5.6-.8.9h-.1l-2-.3c.6.2 1.2.5 1.7.9-4.3 5.8-5.6 13.5-2.4 19.8.3.6.6 1.2.9 1.7.5-.7 1.2-1.3 2.1-1.5 1.2-.3 2.5.2 3.6.8 1.6.7 3.2 1.5 4.8 2.2.8.4 1.8.9 2.1 1.7.3.8 0 1.7-.3 2.4-.8 1.8-1.8 3.6-2.9 5.3-1 1.4-2.4 2.8-4.2 2.9-.4 0-.8 0-1.1-.2-1.1 2.5-3.6 4.4-4.9 6.9-3.4 6.9 4.5 14.6 12.6 16.4 8.1 1.8 16.9.4 25 2.3 26.1 6.1 41.6 41.2 22.4 60.3-1.7 1.7-3.7 2.9-5.7 3.6 0 .8-.1 1.7-.3 2.5-.7 2.9-2.4 5.5-3.2 8.3-.2.8-.4 1.6-.5 2.4.9-.2 1.9-.4 2.2-.4 3.5-.8 6.9-2 10.2-3.2l3-1.2c.3-.2 2.8-1.1 3.3-1.3 5.2-2.2 10.9-2.5 15.6-.5.5 1.7 1.1 3.4 1.2 5.2.1 1.4-.2 2.7-.6 3.9 1.2.8 2.2 1.8 3 2.9 1.7-.6 3.3-1.2 5-1.8.2-.1.4-.2.7-.2 8.2-3 16.5-6 24.7-8.9 5.3-1.9 10.5-3.8 15.8-5.7-6.4-12.3-12.6-24.8-17.1-38-.8-2.4-1.6-5.1-1.9-7.7-.3-2.1-.3-4.2.2-6.2.3-1.2.7-2.4 1.4-3.4 3.2-5.1 9.9-6.1 15.5-4.8 6 1.4 11.6 5 15.7 9.9.4-.6.9-1.2 1.5-1.6 1.2-.9 2.7-1.3 4.1-1.8.7-.2 1.4-.4 2.2-.7-3.8-7.3-9.7-13.3-16.9-16.8zm-118.1-12.7c-1.3 1.7-2.7 3.4-4 5-4.7-1.3-9-3.8-12.4-7.2.2.2.7-.6 1-.7h-.7c5.7-2.6 11.9-3.7 18.1-3.3.8 2-.7 4.5-2 6.2zm15.4-11.3c-1.6-.4-3.2-.5-4.7-.7-.7.2-1.8.3-3.2-.3-1.3-.2-2.3-.6-2.8-1.5-.3-.5-.5-1.2-.5-1.8v-.1c-.1-.7 0-1.5.3-2.3.7-2.1 2.2-4.2 3.5-5.4 0 0 .1 0 .1-.1.2 0 .3-.1.5-.2.7-.2 1.4-.5 2.1-.8 10.9-5.3 16.4-2.9 18-1.9.4.2.5.4.5.4 5.1 9.4-4.7 16.9-13.8 14.7z" class="st2"/>
    <path d="M527.6 149.3h-.1.1z" class="st3"/>
    <path d="M548.2 146.5c-6-2.7-12-.4-18 1.9 10.8-5.3 16.3-2.9 18-1.9z" class="st3"/>
    <path d="M499.9 159.1c-.4-.8-.5-1.7-.1-2.4 1.3-2.2 5.4-.6 6.4 1 1.4 2.3 0 6.6-3 5.1-1-.5-2.6-2.1-3.3-3.7z" class="st4"/>
    <path d="M511.6 157c-.8 1.8-1.8 3.6-2.9 5.3-1 1.4-2.4 2.8-4.2 2.9-.4 0-.8 0-1.1-.2-.6-.2-1.2-.5-1.8-.9-3.5-2.7-4.8-7.8-2.8-11.8.2-.3.3-.6.5-.9.5-.7 1.2-1.3 2.1-1.5 1.2-.3 2.5.2 3.6.8 1.6.7 3.2 1.5 4.8 2.2.8.4 1.8.9 2.1 1.7.3.7 0 1.6-.3 2.4z" class="st1"/>
    <path d="M535 161.4c-1.6-.5-3.3-.6-4.8-.7-1.2-.1-2.3-.1-3.2-.3-1.3-.2-2.3-.6-2.8-1.5-.3-.5-.5-1.2-.5-1.8v-.1c0-.8.1-1.5.3-2.3.7-2.1 2.2-4.2 3.5-5.4 0 0 .1 0 .1-.1l.2.3 2.1 3.4 4.9 7.9.2.6z" class="st4"/>
    <path d="M534.9 161.3c-.1 0-.2 0-.4-.1l-1.2-.3-1.6-.5-.5-.1s-.3.2-1 .4-1.8.3-3.2-.3c-.6-.3-1.4-.7-2.1-1.2-.7-.6-1.1-1.2-1.2-2v-.1c-.1-.7 0-1.5.3-2.3.9-2.5 3.3-4.9 3.3-4.9.2-.1.3-.2.5-.3.8-.5 1.6-.9 2.4-1.2 10.9-5.3 16.4-2.9 18-1.9.4.2.5.4.5.4 5.1 9.1-4.7 16.6-13.8 14.4z" class="st1"/>
    <path d="M634.1 290.7c-1.1 1.1-1.2 3-.2 4.2 1 1.1 2.6 1.3 3.7.4l7.4 8.5c-.8 1.1-.8 2.7.2 3.8 1 1.2 2.8 1.3 3.9.2.6-.6.9-1.3.9-2.1.8.1 1.6-.2 2.2-.8 1.1-1.1 1.2-3 .2-4.2-1-1.2-2.8-1.3-3.9-.2l-.2.2-7.3-8.5c1.1-1.1 1.2-3 .2-4.2-1-1.2-2.8-1.3-3.9-.2-.6.6-.9 1.3-.9 2.1-.9-.1-1.7.2-2.3.8z"/>
    <path d="M519.5 172.6c-1.3 1.7-2.7 3.4-4 5-4.7-1.3-9-3.8-12.4-7.2.2.2.7-.6 1-.7h-.7c5.7-2.6 11.9-3.7 18.1-3.3.8 2-.7 4.5-2 6.2z"/>
    <path d="M595 297.1c1.8-2.8 3.7-6.5 1.9-9.3-1.7-2.7-6.2-3-6.7-6.3-.3-2 1.3-3.8 3.1-4.4 1.8-.6 3.7-.4 5.5-.4 6.3-.1 12.3-3.1 17.6-6.7 5.3-3.6 10.3-7.9 16-10.9 1.7-.9 3.6-1.7 5.6-1.7 1.9.1 4 1.2 4.6 3.2.8 2.3-.5 4.8-1 7.2-.4 2.4 1 5.8 3.2 5.1-2.8 2.3-3.4 6.8-2.2 10.4s3.8 6.4 6.5 8.8c3.3 3 7.2 6.2 7.9 10.8.7 4.6-2.2 8.9-4.9 12.6-2.3 3.2-4.7 6.5-7.8 8.7-3.1 2.3-7.2 3.4-10.7 2-5.5-2.2-7.5-9.1-10.4-14.5-6.8-.7-13.8 3.4-16.9 9.9-1.2 2.6-2.1 5.9-4.7 7.1-2 .9-4.2.2-6.2-.6-5-2-9.9-4.6-14.4-7.7-2.2-1.5-4.5-3.5-4.5-6.3 0-2.3 1.8-4.2 3.7-5.2 1.9-1 4-1.5 5.9-2.5 3.8-1.8 6.4-5.6 8.9-9.3z" class="st5"/>
    <path d="M646.6 273.2c-.2.2-.4.3-.7.5-1 .7-2.1 1.4-3.1 2-7.6 4.4-16.5 6.8-25.2 9-6.7 1.8-13.4 3.5-20 5.2-1.7.4-3.4.9-5.1 1.3-.9.2-1.9.5-2.8.3-.9-.2-1.8-1-1.6-1.8.2-1.3 2.1-1.5 2.9-2.6.9-1.2 0-3-1.5-3.7-1.4-.7-3.1-.5-4.7-.6-1.6 0-3.4-.2-4.4-1.3-1.4-1.5-1-3.9.4-5.3 1.4-1.5 3.4-2.2 5.4-2.9.2-.1.5-.2.7-.2 1.7-.6 3.3-1.2 5-1.8.2-.1.4-.2.7-.2 8.2-3 16.5-6 24.7-8.9 5.3-1.9 10.5-3.8 15.8-5.7.5-.2.9-.3 1.4-.5 2.5-.9 5.2-1.8 7.9-1.4 2.7.5 5.1 3 4.2 5.4-.5 1.5-2.1 2.4-3.1 3.5-1.1 1.2-1.7 3.2-.4 4.1 1.4 1 3.9-.1 5.2 1l.3.3c.9 1.2-.5 3.2-2 4.3z" class="st6"/>
    <path d="M649.5 307.5c.1-1 1.4-5-.5-8.6-.1-.1-.8-1.1-1.5-1-.7.2-2.6 2.1-2.5 1.9 0 0-.4-.7-1-1.6l1.9-3.7-.4-.2s-1.3 2.7-1.7 3.5c-.3-.4-.6-.9-.9-1.4.3-.7 1.2-3.3 1.2-3.3l-.4-.1s-.9 2.3-1.1 3c-.3-.4-.6-.9-.9-1.4l.5-2.8-.4-.1-.5 2.3c-.4-.6-.7-1.1-1-1.6 0-.5.1-2 0-2 0-.1-.3-.1-.4-.1-.1 0 0 1.2 0 1.6-.4-.6-.7-1.2-.9-1.4v-.2c.2-.9.3-1.8.4-2.7.1-.6.1-1.2-.1-1.7-.1-.2-.2-.4-.4-.4-.2-.1-.5 0-.7.1-.3.2-.4.6-.6.9-.3.5-.7.8-1.2 1-.4.2-.7.3-1.1.3h-.6c-.2 0-.4.1-.5.3-.1.2-.1.5 0 .7.3.5.8.9 1.4 1.1.9.4 1.9.6 2.8.8h.2c.2.3.5.8.8 1.5-.4-.3-1.2-.7-1.3-.7 0 0-.1.3-.1.4 0 .1 1.1.6 1.7.9.3.5.6 1.1 1 1.7l-2.2-.6-.1.4s1.8.6 2.6.8c.3.5.6 1 .8 1.5-.9-.1-3-.4-3-.4.1 0 0 .4 0 .4s2.4.3 3.3.5c.3.6.6 1.1.9 1.5-1.1 0-3.7-.1-3.7-.1v.5s2.9.1 4 .1c.4.8.7 1.3.8 1.3 0-.1-2.7 1.4-2.7 1.4s-2.9 1.4 5.3 5.4c0 0 2 1.2 2 1.1-.1-.2.6.2.8-.8z" class="st7"/>
    <path d="M404.6 214.2l-13.1 22.1c-.8 1.4-1.6 2.3-2.3 2.8s-1.6.8-2.7.8c-.9 0-1.7-.2-2.5-.5-.6-.3-1-.6-1.3-.9-.3-.3-.7-1-1.2-1.8l-11.7-21.4c-.6-1.2-1.2-2-1.8-2.5-.5-.4-1.3-.7-2.2-.9-1.1-.2-1.7-.8-1.7-1.8 0-1.2 1-2.2 3-2.8 2-.7 4.9-1 8.6-1 3.9 0 6.8.2 8.6.7s2.7 1.3 2.7 2.3c0 .7-.5 1.3-1.5 1.9-.8.4-1.1.8-1.1 1.2 0 .3.2.8.5 1.5l3.6 6.7c.5 1 1.1 1.5 1.7 1.5.6 0 1.2-.3 1.7-.8s1.2-1.6 2-3.1c1.5-2.8 2.4-4.4 2.6-4.9.2-.5.4-.9.4-1.2 0-.5-.4-1-1.3-1.4-1-.4-1.5-1-1.5-1.6 0-1.9 3-2.8 9.1-2.8 3 0 5.2.2 6.4.6 1.3.4 1.9 1.1 1.9 2.1 0 1.2-.8 1.8-2.5 2-1.2.1-1.9.3-2.3.5-.6.4-1.3 1.3-2.1 2.7z"/>
    <path d="M428.1 206.1c2 0 4.5.4 7.7 1.2.4.1.7.1.9.1.2 0 .8-.1 1.7-.4.3-.1.6-.1 1-.1 1.3 0 2.6.8 4.1 2.5 1.4 1.7 2.1 3.3 2.1 4.8 0 .9-.3 1.6-1 2.2-.6.6-1.4.9-2.3.9-.8 0-1.4-.1-1.9-.4-.5-.3-1.5-1-3.2-2.3-2.3-1.8-4.5-2.7-6.8-2.7-1.1 0-1.9.2-2.6.6s-1 1-1 1.7c0 1.4 1.5 2.4 4.4 3.1 4 1 6.5 1.7 7.6 2.1 4.9 2 7.3 4.9 7.3 8.7 0 3.4-1.7 6.1-5 8.3-3.4 2.2-7.8 3.3-13.3 3.3-2.4 0-5-.2-7.7-.7-2.7-.5-4.7-1.1-5.9-1.7-.9-.5-1.7-1.6-2.5-3.3-.7-1.7-1.1-3.4-1.1-5 0-.8.2-1.4.6-1.8.5-.5 1.1-.8 1.8-.8s1.4.3 2.1.9c.4.3 1.3 1.5 2.8 3.4.7.9 1.8 1.6 3.4 2.2s3.1.9 4.8.9c1.4 0 2.6-.2 3.4-.7.9-.4 1.3-1 1.3-1.7 0-.6-.3-1.2-1-1.6-.7-.5-1.8-.9-3.4-1.3-2.7-.7-4.8-1.4-6.2-2s-2.8-1.3-4-2.2c-3-2.2-4.5-4.7-4.5-7.6 0-1.4.4-2.8 1.2-4.1.8-1.3 1.9-2.5 3.3-3.4 3.4-1.9 7.3-3.1 11.9-3.1z"/>
  </g>
  <g id="cat-feet">
    <path d="M652.6 310.3c-2.7 13.6 2.8 28.6 13.4 36.6 4.9 3.7 11.4 5.9 17.1 3.7 4.5-1.7 8.6-6.1 13.2-4.9 4.7 1.2 6.5 7.1 7.6 12.2 1.3 6.5 2.7 13.1 2.8 19.8.1 4.8-.5 9.8-3 13.8-3 4.7-6.2 3.7-10.3 5.3-3.1 1.2-5.3 3.6-8.8 2.8-1.3-.3-2-2-3.1-2.2-1.8-.4-4.1.9-6.2.7-2.3-.3-4.5-1.7-5.4-4-1.3-3.7 1.7-7.6 4.9-9.7 3.2-2 7.1-3.5 9-6.9 2.4-4.2.9-9.9-2.1-13.6-3-3.7-7.3-5.9-11.3-8.4-8-5-15.3-11.3-21.5-18.7-3-3.6-6-7.8-6.3-12.7-.4-5.9 3.7-11.8 9.1-13.1l.9-.7z" class="st2"/>
    <path d="M590.1 320.7c-9.6 2.8-15.5 13.7-16.3 24.3-.8 10.6 2.3 21.1 5.1 31.2 1.3 4.7 2.2 10.9-1.7 13.6-2.1 1.5-4.8 1.2-7.3.9-7.5-.9-16.6-3.6-24-2.4-3.4.5-6.1.7-9.4.5-2.4-.2-4.7.4-6.9-.8-2.2-1.2-4.4-1.2-6.9-1.4-1.9-.1-4.1-.5-4.9-2.3-.9-2 .6-4.3 2.2-5.7 8.2-7.1 20.6-5.2 29.8-10.8 6.8-4.2 11-12 14-19.8 3-7.8 5.2-16.1 9.6-23.1 1.9-3.1 4.4-5.9 7.7-7.2s7.3-.6 9.4 2.4l-.4.6z" class="st2"/>
  </g>
  <g id="cat-eyes">
    <ellipse cx="534.1" cy="156" rx="5.4" ry="5"/>
    <path d="M498.9 157.5c-.2-.9-.1-1.7.5-2.3 1.8-1.8 5.4.6 6 2.4.8 2.5-1.5 6.5-4.1 4.3-.9-.8-2.1-2.7-2.4-4.4z"/>
  </g>
  <g id="dog_1_">
    <path d="M203.2 195.7h-.2.2z" class="st2"/>
    <path d="M247.7 241.1c6.2-.6 12.4-1.3 18.5-2.2 2.1-.3 4.4-.7 6-2.1.6-.5 1.2-1.3 2-1.5 1.9-.5 3.4 1.9 5.4 2.1 1.4.2 2.8-.9 3.3-2.2.6-1.3.5-2.7.5-4.1 2.8 2 5.4 4.5 7.4 7.2-.4-1.5.7-3 2.1-3.7 1.4-.7 3-.8 4.5-.9 7.2-.6 14.3-2.5 20.8-5.5" class="st8"/>
    <path d="M258.9 255.6c3.3 2 7.3 2.7 11.9 1.7" class="st8"/>
    <path d="M258.9 255.6c-4.7-2.8-8-7.9-9.3-13.9" class="st8"/>
    <path d="M303.3 242.1c-1.8.2-3.7.3-5.5.1-2.5-.2-4.3-.2-5.6 0 2.4.7 4.7 1.9 6.7 3.7.7-.4 1.4-.8 2.2-1.1.7-.9 1.4-1.8 2.2-2.7z" class="st10"/>
    <path d="M244.2 137.1c0 1.3-1.4 2.1-2.5 2.8-5.8 3.1-10 8.9-11.2 15.3-2.8-5.2-5.2-10.8-6-16.7-.7-5.9.4-12.2 4.1-16.9 3.2 5.1 6.7 10.6 12.4 12.8 1.3.5 3.1 1.2 3.2 2.7z" class="st2"/>
    <path d="M288.8 163.1c0 .6-.2 1.2-.5 1.7-.5.9-1.4 1.2-2.7 1.4-1.4.6-2.5.5-3.1.3-.6-.2-.9-.4-.9-.4l-.5.2c-.5.2-1 .4-1.5.4l-1.2.4c-8.7 2.5-18.4-5.1-13.5-14 0 0 .2-.2.5-.4 1.6-1 6.9-3.3 17.2 1.9l1.9.7c.2.1.4.2.6.2 1.2 1.1 2.6 3.1 3.3 5.1 0 .1 0 .1.1.2.3.7.5 1.5.3 2.3z" class="st2"/>
    <path d="M310.1 124.5c-.2 0-.5.1-.7.1v-.2s-.2.1-.6.4c-1 .6-2.8 1.9-4 3.3-.8 1-1.3 2.1-.8 3.1 0 .8.1 1.5.3 2.2-1.5-1.4-3.9-1.6-5.7-.5-.5.3-1.3.8-1.7.3-.2-.2-.3-.6-.3-.9-.1-2.2.5-4.5 1.6-6.5 1.2-2.1 3.2-3.9 5.6-4.3 2.6-.4 5.3.8 6.3 3z" class="st2"/>
    <path d="M309.8 169.8c-.8.6-1.7 1.1-2.7 1.1-1.7 0-3-1.4-4-2.8-1.1-1.6-2.1-3.3-2.8-5.1-.3-.8-.6-1.6-.3-2.4.3-.8 1.2-1.3 2-1.7 1.5-.7 3-1.4 4.5-2.2 1.1-.5 2.3-1 3.4-.8.7.2 1.3.6 1.7 1.2.4.9.8 2 1.4 3.1.9 3.5-.4 7.4-3.2 9.6z" class="st2"/>
    <path d="M315.2 217.2c-1.2-.2-2.4-1-3.5-1.6-1.8-1-3.4-2.2-5.1-3.3-2.3-1.6-4.5-3.1-6.6-5-2-1.8-3.8-3.8-5.5-5.8-2.6-2.9-5.2-5.8-7.5-8.9-1.6-2.1-4-5.1-3.9-7.9 0-3 4.2-2.4 6.1-2 17 3.4 32.9-1.4 35.5-1.1.2 0 .3 0 .3.1 13.3 14.7-6.7 36-9.8 35.5z" class="st2"/>
    <path d="M218.7 182.1c0-.1 0 0 0 0z" class="st2"/>
    <path d="M311.3 169.2s3.7-5.2 2-8.6c-.1-.1-.1-.3-.2-.4.8 3.5-.5 7.4-3.4 9.6-.8.6-1.7 1.1-2.7 1.1-1.7 0-3-1.4-4-2.8-1.1-1.6-2.1-3.3-2.8-5.1-.3-.8-.6-1.6-.3-2.4.3-.8 1.2-1.3 2-1.7 1.5-.7 3-1.4 4.5-2.2 1.1-.5 2.3-1 3.4-.8.7.2 1.3.6 1.7 1.2l-1-2.5s8.6-7.8-.9-10.3c0 0 3.2-8.3-3.6-11.2-1.2-.5-1.9-1.1-2.2-1.8 0 .8.1 1.5.3 2.2-1.5-1.4-3.9-1.6-5.7-.5-.5.3-1.3.8-1.7.3-.2-.2-.3-.6-.3-.9-.1-2.2.5-4.5 1.6-6.5 1.2-2.1 3.2-3.9 5.6-4.3 2.4-.5 5.2.7 6.2 2.9-.2 0-.5.1-.7.1.2 1.4 1.7 9.8 5.2 9.1 3.8-.7 14 13.1 7.9-12.4s-17.7-29.1-18-29.4c-.3-.2-6.7 1.3-11.3 7.7-4.6 6.4-9-5.9-9.3-6.1-.3-.2-3.3-7.1-9-.5s.9 21.3.9 21.3H274c-.5-.9-1.1-1.8-1.7-2.7.2.9.2 1.9 0 2.8-.9.1-2 .1-3.2.3-.3-1-.7-1.9-1.2-2.7-.3 1-.6 2-1.1 3-1.7.2-3.5.5-5.4.9.2-1.4.7-2.7 1.6-3.8-2.1.4-3.3 2.3-4.1 4.4-2 .5-4 1-5.9 1.7-1.6-1.7-3.5-3.2-5.4-4.6 1.5 1.5 2.3 3.9 1.8 6-2.2 1.1-4.3 2.3-5.9 3.9 0 0-7.9-19.5-19.8-16.7 0 0-13.6 1.1-11.9 14.9 0 0 1.4 7.6-13.1 6.2-14.5-1.4 7.6 43.4 7.6 43.4s15.2.7 14.5 6.2c-.1 0-.2-.1-.4-.1l.3.3c-.1.6-.4 1.3-.9 2.1-.4-.2-.8-.4-1.3-.6 0-.1-.1-.2-.1-.2l-.3 1c-.9 0-1.9 0-2.9.1 1.2.1 2.4.8 3 1.9v.1c-.3.5-.7 1-1.1 1.5-.6-.8-.9-1.7-1-2.6-.7.8-.6 2-.3 3.1h-1.3c.5.4.9.8 1.2 1.3-.2.3-.5.7-.8 1-.7-.3-1.5-.6-2.2-.8.6.5 1 1.1 1.2 1.7h.2s-.1.1-.1.2c0-.1 0-.1-.1-.2-1.3-.2-2.8-.2-4.1-.1.4 0 .8.1 1.1.3.4.9.7 1.9.9 2.8-.5.7-1.1 1.4-1.6 2.1-.9-.8-1.5-2-1.6-3.3-.9 1.1-.5 2.7 0 4 .1.3.3.5.4.8-.1.1-.1.2-.2.3-1 0-2 .1-3.1.3.5.3 1 .7 1.3 1.1-1.5-.3-3.1-.3-4.6-.2 1.3.2 2.5 1.1 3 2.3.1.2.2.5.2.8-.2.3-.3.5-.5.8v-.3c-.8-1.3-1.8-2.5-2.8-3.5h-.2.2c-8.8-9.3-24.1-11.9-36-6.6-13.3 5.9-21.9 20-23.4 34.4 5.5-.2 8.4-6.4 11.4-11 4.3-6.5 11.1-11.2 18.7-12.9 5.8-1.3 12.8-.3 16.1 4.6 3.2 4.8 1.7 11.3-.3 16.7-5.3 14.5-12.8 28-20.2 41.4 7.2 5.9 14.4 11.9 23 15.5 8 3.4 17.4 4.5 25.3 1.1.2-2.9 1.8-5.5 4.1-7.3.4.5.8.9 1.2 1.4.3-1.6.9-3 1.6-4.3 4.7-8 13.7-9 21.6-5.7l3.1 1.3c1 .4 1.9.8 2.9 1.1 3.2 1.2 6.4 2.3 9.7 3.1.5.1 4 .8 3.7.8 1.2.1 2.3.1 3.5.1h.2l.6-.6c.7-.7 1.4-1.4 2.2-1.9-1.7-3.4-1.8-7.2-.7-10.8-4.2 1.1-8.6 1.3-12.4-.6-1.5-.7-2.8-1.6-4.1-2.9-3.1-3.2-5.2-7.2-6.4-11.6-3.8-13.1-.1-29 5.9-32 8-4 24.1-8 29.2 10.3 5.2 18.3 34.4 2.6 34.4 2.6l-.6-4.3c.7.2 35.7-25.8-5.3-48.2zm-69.7-29.3c-5.8 3.1-10 8.9-11.2 15.3-2.8-5.2-5.2-10.8-6-16.7-.7-5.9.4-12.2 4.1-16.9 3.2 5.1 6.7 10.6 12.4 12.8 1.4.5 3.2 1.2 3.2 2.7.1 1.3-1.3 2.1-2.5 2.8zm40 26.2l-.5.2c-.5.2-1 .4-1.5.4l-1.2.4c-8.7 2.5-18.4-5.1-13.5-14 0 0 .2-.2.5-.4 1.6-1 6.9-3.3 17.2 1.9l1.9.7c.2.1.4.2.6.2 1.2 1.1 2.6 3.1 3.3 5.1 0 .1 0 .1.1.2.3.8.5 1.6.3 2.4 0 .6-.2 1.2-.5 1.7-.5.9-1.4 1.2-2.7 1.4-1.4.6-2.5.5-3.1.3-.5-.3-.9-.5-.9-.5zm33.6 51.1c-1.2-.2-2.4-1-3.5-1.6-1.8-1-3.4-2.2-5.1-3.3-2.3-1.6-4.5-3.1-6.6-5-2-1.8-3.8-3.8-5.5-5.8-2.6-2.9-5.2-5.8-7.5-8.9-1.6-2.1-4-5.1-3.9-7.9 0-3 4.2-2.4 6.1-2 17 3.4 32.9-1.4 35.5-1.1.2 0 .3 0 .3.1 13.3 14.7-6.7 36-9.8 35.5z" class="st2"/>
    <path d="M257.6 121.9c-.3.8-.8 1.5-1.3 2.2-.1-.6-.2-1.2-.4-1.8l1.7-.4z" class="st2"/>
    <path d="M264.1 120.4c-.3.5-.7.9-1 1.4-.2-.3-.4-.6-.6-1l1.6-.4z" class="st2"/>
    <path d="M203.2 195.7h-.2.2z" class="st2"/>
    <path d="M214.7 187.5s-.1.1-.1.2c0-.1 0-.1-.1-.2h.2z" class="st2"/>
    <path d="M214.7 187.5s-.1.1-.1.2c0-.1 0-.1-.1-.2h.2z" class="st2"/>
    <path d="M323.3 215.8c-1.6 1.5-2.6 2.3-2.6 2.3v.3l2.6-2.6z" class="st11"/>
    <path d="M244.2 137.1c0 1.3-1.4 2.1-2.5 2.8-5.8 3.1-10 8.9-11.2 15.3-2.8-5.2-5.2-10.8-6-16.7-.7-5.9.4-12.2 4.1-16.9 3.2 5.1 6.7 10.6 12.4 12.8 1.3.5 3.1 1.2 3.2 2.7z"/>
    <path d="M310.1 124.5c-.2 0-.5.1-.7.1-.2 0-.4.1-.7.2-1.5.5-2.8 1.5-3.7 2.8-.1.2-.2.3-.3.5-.5 1-.8 2-.8 3.1 0 .8.1 1.5.3 2.2-1.5-1.4-3.9-1.6-5.7-.5-.5.3-1.3.8-1.7.3-.2-.2-.3-.6-.3-.9-.1-2.2.5-4.5 1.6-6.5 1.2-2.1 3.2-3.9 5.6-4.3 2.7-.4 5.4.8 6.4 3z"/>
    <path d="M265.5 152.6c5.8-2.6 11.5-.3 17.2 1.9" class="st8"/>
    <path d="M311.4 164.9c.3-.8.4-1.7.1-2.3-1.2-2.1-5.1-.6-6.1 1-1.3 2.2 0 6.5 2.8 5 1-.6 2.6-2.1 3.2-3.7z"/>
    <path d="M309.8 169.8c-.8.6-1.7 1.1-2.7 1.1-1.7 0-3-1.4-4-2.8-1.1-1.6-2.1-3.3-2.8-5.1-.3-.8-.6-1.6-.3-2.4.3-.8 1.2-1.3 2-1.7 1.5-.7 3-1.4 4.5-2.2 1.1-.5 2.3-1 3.4-.8.7.2 1.3.6 1.7 1.2.3.4.5.8.7 1.2.3.6.5 1.3.7 2 .9 3.4-.4 7.3-3.2 9.5z" class="st1"/>
    <path d="M278 167.2c1.6-.4 3.1-.6 4.5-.7 1.2-.1 2.2-.1 3.1-.3" class="st8"/>
    <path d="M288.5 160.7c.3.8.4 1.6.3 2.4" class="st8"/>
    <path d="M285.2 155.4l-.1-.1" class="st8"/>
    <path d="M288.8 163.1c-.1.7-.5 1.4-1.1 1.9-.7.6-1.4.9-2 1.2-1.4.6-2.5.5-3.1.3-.6-.2-.9-.4-.9-.4l-.5.2-1.5.4-1.2.4c-8.7 2.5-18.4-5.1-13.5-14 0 0 .2-.2.5-.4 1.6-1 6.9-3.3 17.2 1.9.9.4 1.7.9 2.7 1.4 0 0 2.2 2.2 3.1 4.6 0 .1 0 .1.1.2.2.7.4 1.5.2 2.3z" class="st1"/>
    <path d="M315.2 217.2c-1.2-.2-2.4-1-3.5-1.6-1.8-1-3.4-2.2-5.1-3.3-2.3-1.6-4.5-3.1-6.6-5-2-1.8-3.8-3.8-5.5-5.8-2.6-2.9-5.2-5.8-7.5-8.9-1.6-2.1-4-5.1-3.9-7.9 0-3 4.2-2.4 6.1-2 17 3.4 32.9-1.4 35.5-1.1.2 0 .3 0 .3.1 13.3 14.7-6.7 36-9.8 35.5z"/>
    <path d="M310.7 171.3s8.3 3.9 14.2 10.4" class="st8"/>
    <path d="M164.1 281.6c-10.7 1.6-22-1.6-30.3-8.5 3.1 5.2 6.2 10.5 10.5 14.8 4.3 4.3 10 7.5 16 7.5 3.1-3.5 4.1-9.1 3.8-13.8z" class="st2"/>
    <path d="M212.1 296.2c-1.9-2.7-3.9-6.3-2-9 1.8-2.6 6.5-2.9 7-6 .3-1.9-1.3-3.6-3.2-4.2-1.8-.6-3.8-.4-5.7-.4-6.5-.1-12.7-3-18.2-6.5s-10.7-7.6-16.5-10.5c-1.8-.9-3.8-1.7-5.8-1.6-2 .1-4.1 1.2-4.8 3.1-.8 2.2.5 4.6 1 7 .5 2.3-1.1 5.6-3.3 4.9 2.9 2.2 3.5 6.6 2.3 10-1.2 3.4-3.9 6.2-6.7 8.5-3.4 2.9-7.5 6-8.2 10.4-.7 4.5 2.3 8.6 5 12.2 2.4 3.1 4.9 6.2 8.1 8.4 3.2 2.2 7.5 3.3 11.1 1.9 5.6-2.1 7.8-8.7 10.8-14 7-.7 14.3 3.3 17.5 9.6 1.3 2.5 2.2 5.7 4.8 6.8 2 .9 4.4.2 6.4-.6 5.2-1.9 10.2-4.4 14.9-7.4 2.3-1.4 4.7-3.4 4.6-6.1 0-2.2-1.8-4-3.8-5-2-1-4.2-1.5-6.1-2.4-3.9-1.8-6.6-5.5-9.2-9.1z" class="st5"/>
    <path d="M157 271.2c-1.5 1.3 0 3.7 1.6 4.9 8 6.3 18.1 9.2 27.9 12l24.2 6.9c.9.2 1.8.5 2.7.3s1.7-1 1.5-1.9c-.2-1.3-2-1.6-2.8-2.7-.9-1.3 0-3.1 1.4-3.8 1.4-.7 3-.6 4.5-.6s3.2-.2 4.3-1.4c1.4-1.5.9-4-.4-5.6s-3.3-2.3-5.2-3.1c-10-3.9-19.9-7.8-29.9-11.7-5.5-2.2-11-4.3-16.6-6.5-2.4-1-5-1.9-7.6-1.4-2.6.5-4.9 3.1-4 5.6.5 1.5 2 2.5 3 3.7 1.1 1.2 1.6 3.3.3 4.3-1.2 1-3.5-.2-4.9 1z" class="st6"/>
    <path d="M172.7 290.7c1.2 1.1 1.2 2.9.2 4.1-1 1.1-2.7 1.2-3.8.4l-7.6 8.3c.8 1.1.8 2.7-.2 3.7-1.1 1.2-2.9 1.2-4.1.2-.6-.5-.9-1.3-.9-2-.8.1-1.6-.2-2.2-.7-1.2-1.1-1.2-2.9-.2-4.1 1.1-1.2 2.9-1.2 4.1-.2l.2.2 7.6-8.2c-1.2-1.1-1.2-2.9-.2-4.1 1.1-1.2 2.9-1.2 4.1-.2.6.5.9 1.3.9 2 .6-.2 1.4.1 2.1.6z" class="st7"/>
  </g>
  <g id="dog-feet">
    <path d="M151.8 309.7c2.8 13.1-2.9 27.7-13.9 35.3-5.1 3.6-11.8 5.7-17.7 3.6-4.6-1.7-8.9-5.9-13.7-4.8-4.9 1.1-6.8 6.9-7.8 11.8-1.4 6.3-2.8 12.7-2.9 19.1-.1 4.6.5 9.5 3.1 13.3 3.1 4.5 6.4 3.6 10.7 5.1 3.3 1.1 5.5 3.5 9.2 2.7 1.3-.3 2-1.9 3.2-2.1 1.9-.4 4.3.9 6.4.6 2.3-.3 4.7-1.6 5.5-3.8 1.4-3.6-1.8-7.4-5.1-9.3-3.3-2-7.3-3.4-9.3-6.7-2.5-4-.9-9.5 2.2-13.1 3.1-3.6 7.5-5.7 11.6-8.1 8.3-4.8 15.9-10.9 22.3-18.1 3.2-3.5 6.2-7.6 6.5-12.3.4-5.7-3.8-11.4-9.4-12.7" class="st2"/>
    <path d="M216.4 319.7c9.9 2.7 16 13.3 16.9 23.5.9 10.2-2.3 20.3-5.3 30.2-1.4 4.6-2.2 10.5 1.7 13.2 2.2 1.4 5 1.2 7.6.9 7.7-.9 17.2-3.5 24.9-2.3 3.5.5 6.3.7 9.7.5 2.5-.1 4.9.4 7.1-.8 2.3-1.2 4.6-1.2 7.2-1.4 1.9-.1 4.2-.5 5.1-2.3.9-1.9-.6-4.1-2.3-5.5-8.5-6.9-21.4-5-30.9-10.4-7.1-4-11.4-11.6-14.5-19.2-3.1-7.5-5.4-15.5-9.9-22.3-2-3-4.6-5.7-7.9-7-3.4-1.2-7.6-.6-9.7 2.3" class="st2"/>
  </g>
  <g id="dog-eyes">
    <path d="M312.4 163.4c.1-.9.1-1.7-.5-2.3-1.7-1.8-5.1.6-5.7 2.4-.8 2.4 1.5 6.3 3.9 4.2.8-.8 2-2.7 2.3-4.3z"/>
    <path d="M284 161.9c0 1.9-1.2 3.5-2.9 4.3-.5.2-1 .4-1.5.4-.3 0-.5.1-.8.1-2.9 0-5.2-2.2-5.2-4.9s2.3-4.9 5.2-4.9 5.2 2.3 5.2 5z"/>
  </g>
  <g id="gloves">
    <path d="M166.7 247.8c-1.8 4.2-5.9 7.5-10.4 7.7-.9 0-2 0-2.7.6-.1.1-.2.2-.2.3-.2.3-.3.7-.4 1.1v.2c-.9 3.4-3.8 6.1-7.2 7.1-3.4 1-7.1.6-10.4-.7-3.3-1.3-6.2-3.4-8.8-5.7-3.5-3-6.7-6.5-7.7-11-1.1-4.7.6-9.6 2.6-14.1 2.9-6.6 6.6-13.2 12.7-17.2 1-.6 2-1.2 2.8-2.2.7-.9 1-2.3.3-3.3.7.2 1.3.5 2 .8-.8-.3-1.5-.7-2.2-1.1-.6-.3-1.3-.7-1.6-1.3-.7-1.3.4-2.9 1.6-3.8 1.2-.9 2.6-2 2.6-3.5 4.7 1.4 9.5 2.7 14.2 4.1 1.5.4 3 .9 4.2 1.7 1.3.8 2.3 2.2 2.4 3.7.2 2.3-1.9 4.4-4.2 4.9-1.6.4-3.3.2-5-.2l3.3 1.2c-1 .2-1.5 1.5-1.2 2.5.3 1 1.2 1.7 2.2 2.2 1 .4 2 .6 3 1 4.8 1.7 7.7 6.7 8.9 11.6.9 4.4 1 9.3-.8 13.4z" class="st5"/>
    <path d="M153.5 256.1c-.2.5-.4.9-.6 1.4.1-.4.2-.8.4-1.1.1-.1.2-.2.2-.3z" class="st5"/>
    <path d="M339.4 248c-.7 8.4-6.8 15.7-14.2 19.5-7.5 3.8-16.2 4.6-24.6 3.8-7-.6-15.5-1.7-19.8 3.9-.7.9-1.2 1.9-1.9 2.8v.1c-.1 3.4-2.4 6.6-5.6 7.7-3.2 1.1-7 .1-9.2-2.5-3.9-4.6-2-11.6-3.7-17.3-.8-2.8-2.5-5.2-3.3-8-.7-2.8-.2-6.4 2.4-7.7 2.8-1.5 6.4.7 8 3.4.1.2.2.3.2.4 3.5 1.9 7.8 1.4 11.5-.4 4.1-2 6.7-6.1 6.9-10.6-5.4-9 .7-21.7 10.4-25.6 9.7-3.9 21.1-.7 29.6 5.5 7.9 6 14.2 15.3 13.3 25z" class="st5"/>
    <path d="M686.2 245.9c-1 4.6-4.1 8.3-7.5 11.4-2.6 2.4-5.4 4.6-8.5 5.9-3.2 1.3-6.8 1.8-10 .7s-6.1-3.9-6.9-7.4v-.2c-.1-.4-.2-.8-.4-1.1-.1-.1-.2-.2-.2-.3-.7-.6-1.7-.6-2.6-.6-4.4-.2-8.3-3.7-10.1-8-1.8-4.3-1.7-9.3-.6-13.9 1.2-5.1 4-10.2 8.6-12 1-.4 2-.6 2.9-1 .9-.5 1.8-1.2 2.1-2.2.3-1.1-.2-2.4-1.2-2.6 1.1-.4 2.2-.9 3.3-1.3-1.1.3-2.2.5-3.3.5-.5 0-1-.1-1.6-.2-2.2-.5-4.2-2.6-4.1-5.1.1-.8.4-1.6.8-2.2.4-.6.9-1.2 1.5-1.6 1.2-.9 2.7-1.3 4.1-1.8.7-.2 1.4-.4 2.2-.7l11.6-3.6c0 1.6 1.4 2.6 2.6 3.6 1.1 1 2.2 2.6 1.5 4-.3.6-1 1-1.6 1.3-.7.4-1.4.8-2.2 1.1.7-.3 1.3-.5 2-.8-.7 1-.4 2.4.3 3.4s1.7 1.6 2.7 2.2c5.8 4.1 9.4 10.9 12.2 17.8 1.8 4.7 3.4 9.8 2.4 14.7z" class="st5"/>
    <path d="M653.2 256.3c-.2-.4-.5-.9-.6-1.4.1.1.2.2.2.3.2.3.3.7.4 1.1z" class="st5"/>
    <path d="M552.9 254.4c0 .8-.1 1.7-.3 2.5-.7 2.9-2.4 5.5-3.2 8.3-.2.8-.4 1.6-.5 2.4-.8 5.4.2 11.4-3.1 15.6-2.1 2.7-5.8 3.8-8.9 2.6-3.1-1.2-5.4-4.5-5.4-8v-.1c-.6-.9-1.2-2-1.8-2.9-4.1-5.8-12.3-4.7-19.1-4.1-8.1.8-16.5 0-23.8-4-7.2-4-13-11.5-13.8-20.2-.8-10.1 5.3-19.7 12.9-25.7 8.2-6.4 19.2-9.8 28.6-5.7 9.4 4 15.3 17.2 10.1 26.5.2 4.7 2.7 8.9 6.7 11 3.6 1.9 7.7 2.3 11.1.4.1-.2.2-.3.2-.4 1.6-2.9 5-5.1 7.7-3.6 1.8.9 2.6 3.1 2.6 5.4z" class="st5"/>
  </g>
  <g id="woofvsmeow">
    <path d="M348.3 170.1l-.7-1.7c-.4-1-1-1.7-1.7-2-1.2-.6-1.8-1.4-1.8-2.4 0-2.1 3.2-3.2 9.6-3.2 3.2 0 5.6.3 7.3.8.6.2 1 .5 1.4.9s.5.8.5 1.3c0 .4-.1.7-.2.9l-1.3 1.3c-.4.3-.6.7-.6 1.1 0 .6.3 1.5.9 2.9l1.4 3c.6 1.4 1.1 2.3 1.4 2.6.3.4.6.6.9.6.4 0 .7-.2 1-.6.3-.4.6-1.3 1.1-2.5l1.2-3.5c.3-1 .5-1.7.5-2.2 0-.7-.3-1.1-1-1.3-1.4-.4-2.1-1.2-2.1-2.4 0-1 .5-1.7 1.6-2.1 1.1-.4 2.9-.6 5.3-.6 1.6 0 2.9.2 3.8.5 1.2.5 1.9 1.3 1.9 2.4 0 .5-.1.9-.3 1.2-.2.3-.7.8-1.4 1.4-.4.4-.8.8-1 1.2-.2.4-.6 1.3-1.1 2.7l-4.4 11.6-3.9 9.6c-.4 1-.9 2-1.4 2.8-.4.6-.8 1-1.2 1.3-.4.2-1 .4-1.8.4-1 0-1.8-.2-2.4-.6s-1.1-1.1-1.5-2.1l-4.9-11.7c-.3-.6-.5-1.1-.6-1.2-.1-.2-.3-.2-.5-.2-.3 0-.6.2-.9.6-.2.4-.7 1.5-1.4 3.2l-3.4 8.4c-.6 1.5-1.2 2.5-1.8 3-.6.5-1.4.7-2.6.7-1 0-1.9-.2-2.5-.7-.6-.5-1.2-1.4-1.7-2.6l-9.2-23.4c-.4-1-.6-1.5-.8-1.7-.1-.2-.6-.5-1.3-.9-.8-.4-1.3-1.2-1.3-2.2 0-2.3 2.9-3.5 8.7-3.5 3 0 5.1.2 6.4.6 1.3.4 1.9 1.2 1.9 2.5 0 .4 0 .7-.1.8-.1.2-.3.6-.7 1.2-.2.3-.3.7-.3 1.2 0 .8.6 2.6 1.7 5.2l1 2.4c.4 1 .7 1.6.9 1.8.1.2.3.3.6.3.6 0 1.3-.9 2-2.8l1-2.8c.1-.2.1-.4.1-.5-.1-.6-.2-.7-.3-1z" class="st6"/>
    <path d="M396.8 160.6c4.3 0 8 1.2 11.2 3.7 2.2 1.7 3.9 3.9 5.3 6.5 1.3 2.7 2 5.3 2 8 0 3.9-1.3 7.4-3.9 10.5-2.2 2.6-5.1 4.5-8.6 5.7-2.2.7-4.4 1-6.5 1-2.9 0-5.6-.6-8.2-1.8-3.2-1.4-5.7-3.6-7.4-6.5-1.7-2.8-2.6-5.9-2.6-9.3 0-4 1.1-7.4 3.4-10.5 2-2.7 4.7-4.7 8-5.9 2-1 4.5-1.4 7.3-1.4zm-2.4 7.2c-1.4 0-2.5.6-3.3 1.9-.6.9-.9 2-.9 3.3 0 1.9.4 4 1.1 6.5.8 2.5 1.7 4.7 2.9 6.6.5.8 1.1 1.5 1.9 1.9.8.5 1.5.7 2.3.7 1.3 0 2.3-.5 3.1-1.4.8-.9 1.2-2.2 1.2-3.7 0-2-.3-4.2-1-6.5-.6-2.3-1.5-4.3-2.5-6-.6-1-1.4-1.8-2.2-2.4-.9-.6-1.7-.9-2.6-.9z" class="st6"/>
    <path d="M436.5 160.6c4.3 0 8 1.2 11.2 3.7 2.2 1.7 3.9 3.9 5.3 6.5 1.3 2.7 2 5.3 2 8 0 3.9-1.3 7.4-3.9 10.5-2.2 2.6-5.1 4.5-8.6 5.7-2.2.7-4.4 1-6.5 1-2.9 0-5.6-.6-8.2-1.8-3.2-1.4-5.7-3.6-7.4-6.5-1.7-2.8-2.6-5.9-2.6-9.3 0-4 1.1-7.4 3.4-10.5 2-2.7 4.7-4.7 8-5.9 2-1 4.5-1.4 7.3-1.4zm-2.4 7.2c-1.4 0-2.5.6-3.3 1.9-.6.9-.9 2-.9 3.3 0 1.9.4 4 1.1 6.5.8 2.5 1.7 4.7 2.9 6.6.5.8 1.1 1.5 1.9 1.9.8.5 1.5.7 2.3.7 1.3 0 2.3-.5 3.1-1.4.8-.9 1.2-2.2 1.2-3.7 0-2-.3-4.2-1-6.5-.6-2.3-1.5-4.3-2.5-6-.6-1-1.4-1.8-2.2-2.4-.9-.6-1.8-.9-2.6-.9z" class="st6"/>
    <path d="M475.3 166.4c-1.1 0-1.9.3-2.1.9-.2.4-.4 1.3-.6 2.5-.2 1.3-.3 2.4-.3 3.4 0 .6.2 1 .6 1.3s1.1.3 2.2.3c.7 0 1.3-.1 1.6-.4s.6-.7.7-1.3c.4-1.8 1.2-2.7 2.3-2.7 2 0 3 2.4 3 7.3 0 3.1-.4 5.3-1.3 6.8-.5.9-1.3 1.3-2.2 1.3-1 0-1.5-.7-1.7-2-.1-.8-.2-1.4-.3-1.8-.1-.3-.4-.7-.7-1-.5-.5-1.3-.8-2.4-.8-.7 0-1.3.1-1.5.4-.3.3-.4.8-.3 1.5v2.3c0 2.9.3 4.6.9 5.3.2.2.4.4.6.5.2.1.8.2 1.6.3.4.1.8.3 1.1.7s.4.8.4 1.3c0 1.3-.7 2.1-2.2 2.5-2.2.5-5.2.8-9.1.8-3.4 0-5.8-.2-7.1-.6-.6-.2-1.1-.5-1.4-1-.4-.5-.5-1-.5-1.6 0-.7.3-1.3.8-1.8.1-.1.6-.3 1.4-.6.9-.4 1.5-1.2 1.7-2.5.3-2 .4-6.7.4-14 0-3.1-.1-5.2-.3-6.1-.2-.9-.7-1.6-1.6-1.9-.8-.4-1.4-.7-1.6-1-.3-.3-.4-.7-.4-1.2 0-.7.4-1.3 1.1-1.8.7-.5 1.6-.7 2.6-.7.7 0 1.6 0 2.9.1 2.7.2 5.9.3 9.7.3 6 0 10.1-.2 12.2-.5h.6c.6 0 1.1.3 1.7 1 1.5 1.9 2.2 3.9 2.2 6.2 0 1-.2 1.9-.7 2.5-.5.6-1.1.9-1.9.9-.6 0-1-.1-1.3-.3-.3-.2-1.1-1-2.3-2.4-.7-.9-1.6-1.4-2.7-1.7-1-.4-2.9-.6-5.8-.7z" class="st6"/>
    <path d="M349.1 274.3l-3 6.7c-.5 1.1-.9 1.9-1.2 2.3-.3.4-.7.6-1 .6-.4 0-.7-.2-1-.5-.2-.2-.6-.9-1.3-2.2-.7-1.3-1.2-2.4-1.6-3.4l-3.3-7.4c-.4-1-.9-1.5-1.4-1.5-.5 0-.8.4-.9 1.3-.1 2-.2 3.8-.2 5.4 0 1.7.1 2.9.2 3.5.1.4.3.6.5.8.2.2.7.5 1.6.9.5.3.8.8.8 1.5 0 1.9-2.4 2.8-7.1 2.8-4 0-6-.9-6-2.7 0-.5.1-.8.3-1 .2-.2.7-.5 1.6-.9.5-.2.9-.6 1.1-1 .2-.4.4-1.3.5-2.5.1-1.3.3-3.5.4-6.5.1-3 .2-5.6.2-7.8 0-2.7-.2-4.5-.6-5.5-.1-.3-.3-.6-.5-.7-.2-.2-.6-.4-1.1-.6-1.2-.6-1.8-1.3-1.8-2.2 0-.6.2-1.1.7-1.6.4-.5 1-.8 1.8-1 .7-.2 1.7-.4 2.9-.6 1.2-.2 2.3-.2 3.1-.2 2.1 0 3.6.2 4.5.5.4.2.8.4 1 .7s.6.9 1.1 1.7l5.2 9.5c.6 1 1 1.7 1.2 1.9.2.2.5.3.9.3.3 0 .6-.1.9-.4s.6-.7.9-1.4l3.5-6.8c.4-.9.7-1.5.8-1.7.8-1.7 1.6-2.8 2.4-3.3 1-.7 2.9-1.1 5.5-1.1 4.7 0 7 1.1 7 3.2 0 .5-.1.9-.3 1.2-.2.3-.6.6-1.1 1.1-.8.6-1.2 1.4-1.4 2.5-.4 2.3-.6 5.1-.6 8.4 0 4.2.2 7.9.6 11.1.1.8.3 1.3.5 1.6.2.3.7.7 1.6 1.3.6.4.9.9.9 1.6 0 1.2-.8 2-2.3 2.5-.8.3-1.6.4-2.5.5-.9.1-2.2.1-4.1.1-2.8 0-4.9-.2-6.3-.6-1.5-.4-2.3-1.2-2.3-2.3 0-.4.1-.7.3-1 .2-.3.7-.7 1.5-1.4.4-.3.7-1 .9-2s.2-2.7.2-5.1c0-1.3-.1-2.2-.2-2.6-.1-.4-.4-.6-.8-.6-.5 0-.9.3-1.3 1-.4.4-1.1 1.7-1.9 3.6z" class="st6"/>
    <path d="M374.7 250.6h12.8c2.6 0 4.5-.1 5.7-.2 1.2-.1 2.3-.3 3.5-.7.3-.1.6-.1.8-.1.9 0 1.6.5 2.3 1.4 1.1 1.5 1.6 3.3 1.6 5.5 0 1.1-.2 1.9-.7 2.6-.5.6-1.1.9-1.9.9-.5 0-1-.1-1.3-.3-.3-.2-.7-.7-1.2-1.5-.7-1.1-1.7-1.9-2.8-2.2-1.1-.4-3-.6-5.5-.6-1.9 0-3.1.3-3.5 1-.2.4-.3.9-.4 1.5 0 .6-.1 2.2-.1 4.7 0 1 .2 1.6.5 1.9.3.2 1.2.4 2.6.4.7 0 1.2-.1 1.5-.4.3-.3.5-.8.6-1.6.1-1 .2-1.6.4-2 .1-.4.4-.7.7-.9.3-.3.8-.4 1.2-.4.7 0 1.3.3 1.7 1 .3.5.6 1.3.9 2.6.2 1.2.4 2.5.4 3.8 0 2.6-.4 4.8-1.2 6.4-.4.9-1.1 1.4-2 1.4-.6 0-1-.1-1.2-.4-.2-.3-.4-.9-.5-1.8-.2-1.9-1.3-2.8-3.3-2.8-.7 0-1.3.2-1.5.7-.3.5-.4 1.3-.4 2.6 0 .8.1 1.8.2 3s.2 2.1.3 2.5c.1.5.5.8 1.2 1 .7.2 1.8.3 3.4.3 2.5 0 4.4-.3 5.6-1 1.3-.6 2.3-1.8 3.1-3.5.5-1 .9-1.6 1.3-1.9.4-.3.9-.5 1.5-.5.7 0 1.3.3 1.7.9.5.6.7 1.4.7 2.3 0 1-.3 2.2-.8 3.7s-1.1 2.8-1.9 4c-.4.6-.7.9-.9 1.1-.2.2-.6.3-.9.3-.3 0-.8 0-1.4-.1-1.1-.2-2.5-.3-4.3-.4h-21.1c-.8 0-1.5-.2-2-.6-.5-.4-.7-.9-.7-1.6 0-.5.1-.8.3-1s.7-.5 1.4-.8c.5-.2.9-.5 1.1-.8.2-.3.4-.8.6-1.4.5-2.5.8-5.9.8-10.1 0-6.4-.4-10.5-1.2-12.1-.2-.3-.3-.6-.5-.7-.2-.1-.6-.3-1.2-.5-.9-.3-1.4-.9-1.4-1.9 0-.5.2-1 .5-1.4.3-.4.7-.7 1.2-.8.5-.4 1.8-.5 3.7-.5z" class="st6"/>
    <path d="M423.9 249.9c4.3 0 8 1.2 11.2 3.7 2.2 1.7 3.9 3.9 5.3 6.5 1.3 2.7 2 5.3 2 8 0 3.9-1.3 7.4-3.9 10.5-2.2 2.6-5.1 4.5-8.6 5.7-2.2.7-4.4 1-6.5 1-2.9 0-5.6-.6-8.2-1.8-3.2-1.4-5.7-3.6-7.4-6.5-1.7-2.8-2.6-5.9-2.6-9.3 0-4 1.1-7.4 3.4-10.5 2-2.7 4.7-4.7 8-5.9 2-.9 4.5-1.4 7.3-1.4zm-2.4 7.2c-1.4 0-2.5.6-3.3 1.9-.6.9-.9 2-.9 3.3 0 1.9.4 4 1.1 6.5.8 2.5 1.7 4.7 2.9 6.6.5.8 1.1 1.5 1.9 1.9.8.5 1.5.7 2.3.7 1.3 0 2.3-.5 3.1-1.4.8-.9 1.2-2.2 1.2-3.7 0-2-.3-4.2-1-6.5s-1.5-4.3-2.5-6c-.6-1-1.4-1.8-2.2-2.4-.9-.6-1.8-.9-2.6-.9z" class="st6"/>
    <path d="M464.8 259.5l-.7-1.7c-.4-1-1-1.7-1.7-2-1.2-.6-1.8-1.4-1.8-2.4 0-2.1 3.2-3.2 9.6-3.2 3.2 0 5.6.3 7.3.8.6.2 1 .5 1.4.9.3.4.5.8.5 1.3 0 .4-.1.7-.2.9l-1.3 1.3c-.4.3-.6.7-.6 1.1 0 .6.3 1.5.9 2.9l1.4 3c.6 1.4 1.1 2.3 1.4 2.6.3.4.6.6.9.6.4 0 .7-.2 1-.6.3-.4.6-1.3 1.1-2.5l1.2-3.5c.3-1 .5-1.7.5-2.2 0-.7-.3-1.1-1-1.3-1.4-.4-2.1-1.2-2.1-2.4 0-1 .5-1.7 1.6-2.1 1.1-.4 2.9-.6 5.3-.6 1.6 0 2.9.2 3.8.5 1.2.5 1.9 1.3 1.9 2.4 0 .5-.1.9-.3 1.2-.2.3-.7.8-1.4 1.4-.4.4-.8.8-1 1.2-.2.4-.6 1.3-1.1 2.7l-4.4 11.6-3.9 9.6s-.9 2-1.4 2.8c-.4.6-.8 1-1.2 1.3s-1 .4-1.8.4c-1 0-1.8-.2-2.4-.6-.6-.4-1.1-1.1-1.5-2.1l-4.9-11.7c-.3-.6-.5-1.1-.6-1.2-.1-.2-.3-.2-.5-.2-.3 0-.6.2-.9.6s-.7 1.5-1.4 3.2l-3.4 8.4c-.6 1.5-1.2 2.5-1.8 3-.6.5-1.4.7-2.6.7-1 0-1.9-.2-2.5-.7-.6-.5-1.2-1.4-1.7-2.6l-9.2-23.4c-.4-1-.6-1.5-.8-1.7-.1-.2-.6-.5-1.3-.9-.8-.4-1.3-1.2-1.3-2.2 0-2.3 2.9-3.5 8.7-3.5 3 0 5.1.2 6.4.6 1.3.4 1.9 1.2 1.9 2.5 0 .4 0 .7-.1.8-.1.2-.3.6-.7 1.2-.2.3-.3.7-.3 1.2 0 .8.6 2.6 1.7 5.2l1 2.4c.4 1 .7 1.6.9 1.8.1.2.3.3.6.3.6 0 1.3-.9 2-2.8l1-2.8c.1-.2.1-.4.1-.5-.2-.6-.2-.8-.3-1z" class="st6"/>
    <path d="M266.5 307.9h285.8v48H266.5z" class="st8"/>
    <path d="M310.2 311.6l-.3-.8c-.2-.4-.4-.7-.7-.9-.5-.3-.8-.6-.8-1 0-.9 1.4-1.4 4.1-1.4 1.4 0 2.4.1 3.1.3.2.1.4.2.6.4.1.2.2.4.2.6 0 .2 0 .3-.1.4-.1.1-.3.3-.6.5-.2.2-.3.3-.3.5 0 .3.1.7.4 1.2l.6 1.3c.3.6.5 1 .6 1.1s.3.2.4.2c.2 0 .3-.1.4-.3.1-.2.3-.6.5-1.1l.5-1.5c.1-.4.2-.8.2-1 0-.3-.2-.5-.5-.6-.6-.2-.9-.5-.9-1 0-.4.2-.7.7-.9.5-.2 1.2-.3 2.3-.3.7 0 1.2.1 1.6.2.5.2.8.6.8 1 0 .2 0 .4-.1.5s-.3.4-.6.6c-.2.2-.3.3-.4.5-.1.2-.3.6-.5 1.1l-1.9 5c-.9 2.3-1.5 3.7-1.7 4.2l-.6 1.2c-.2.3-.3.4-.5.5s-.5.2-.8.2c-.4 0-.8-.1-1-.3-.3-.2-.5-.5-.7-.9l-2.1-5c-.1-.3-.2-.5-.3-.5-.1-.1-.1-.1-.2-.1-.2 0-.3.1-.4.3-.1.2-.3.6-.6 1.4l-1.5 3.6c-.3.7-.5 1.1-.8 1.3s-.6.3-1.1.3c-.5 0-.8-.1-1.1-.3-.3-.2-.5-.6-.7-1.1l-4-10.1c-.2-.4-.3-.7-.3-.7-.1-.1-.3-.2-.6-.4-.4-.2-.5-.5-.5-.9 0-1 1.3-1.5 3.8-1.5 1.3 0 2.2.1 2.8.3.6.2.8.5.8 1.1v.4c0 .1-.1.2-.3.5-.1.1-.1.3-.1.5 0 .4.2 1.1.7 2.2l.4 1c.2.4.3.7.4.8.1.1.1.1.3.1.3 0 .6-.4.9-1.2l.4-1.2c0-.1.1-.2.1-.2v-.1z" class="st1"/>
    <path d="M329.4 308.4l-.1 4.5c0 .5.2.8.5.8.2 0 .3-.1.5-.4.7-1 1.6-1.5 2.8-1.5 1.1 0 2 .3 2.7 1 .3.3.5.7.6 1.1.1.4.2 1 .2 1.8l.1 3.9c0 .3.1.6.1.7.1.2.3.4.6.6.2.2.3.4.3.6 0 .8-1.2 1.2-3.5 1.2-2.1 0-3.1-.4-3.1-1.1 0-.1 0-.2.1-.3 0-.1.2-.2.4-.5.3-.4.5-1.4.5-3 0-1-.1-1.6-.3-2.1-.2-.6-.7-.9-1.3-.9-.4 0-.8.2-1 .5-.2.2-.2.7-.2 1.3v2.1c0 .9.1 1.4.1 1.6 0 .1.2.3.5.7.1.2.2.3.2.5 0 .8-1.1 1.2-3.2 1.2-2.5 0-3.7-.4-3.7-1.3 0-.2 0-.3.1-.4.1-.1.3-.3.6-.5s.5-.7.6-1.6c.1-.8.2-2.3.2-4.2 0-1.5 0-2.6-.1-3.2 0-.2-.1-.4-.2-.5-.1-.1-.2-.2-.4-.3-.4-.2-.7-.5-.7-.8 0-.4.2-.6.5-.9.3-.2 1-.5 1.9-.7 1.3-.4 2.3-.5 3.1-.5.5 0 .7.2.6.6z" class="st1"/>
    <path d="M344.5 311.8c1.2 0 2.3.3 3.2.9.5.3.8.7 1 1.2.2.4.3 1 .3 1.8v1.6c0 1.1.1 1.8.2 2.2.1.2.2.3.2.3.1 0 .2.1.5.1.2 0 .3.2.3.5s-.1.7-.4 1.1c-.3.4-.6.7-1.1.9-.5.3-1.1.5-1.7.5-.8 0-1.3-.3-1.8-.8-.2-.2-.3-.3-.4-.3-.1 0-.3.1-.6.3-.7.5-1.5.8-2.4.8-.9 0-1.7-.2-2.3-.6-.4-.3-.7-.6-.9-1-.2-.4-.3-.9-.3-1.3 0-.7.3-1.4.9-2 .9-.9 2.3-1.4 4.2-1.4.4 0 .7 0 .8-.1.1-.1.2-.3.2-.6 0-.8-.1-1.3-.2-1.6-.2-.3-.4-.5-.8-.5-.2 0-.4.1-.6.2-.2.1-.4.4-.6.7-.6.9-1.3 1.4-2 1.4-.4 0-.6-.1-.9-.3-.2-.2-.3-.5-.3-.8 0-.3.1-.7.4-1 .3-.3.6-.6 1.1-.9 1.3-1 2.6-1.3 4-1.3zm-.7 6.2c-.3 0-.6.1-.8.4-.2.3-.3.6-.3.9 0 .3.1.6.2.8.2.2.4.3.7.3.6 0 .9-.5.9-1.5 0-.4 0-.7-.1-.8-.2 0-.4-.1-.6-.1z" class="st1"/>
    <path d="M357.2 314.6v3.6c0 .4.1.8.3 1.1.2.3.5.4.8.4.3 0 .6-.1 1.1-.4.1-.1.2-.1.3-.1.2 0 .3.1.5.3.1.2.2.4.2.7 0 .4-.2.9-.7 1.3-1 .9-2.2 1.3-3.7 1.3-1.1 0-2.1-.3-2.8-1-.7-.6-1-1.5-1-2.6v-5c0-.2 0-.3-.1-.3 0 0-.1-.1-.3-.1h-1.1c-.2 0-.3 0-.4-.1-.1-.1-.1-.2-.1-.5v-.5c0-.2.1-.4.2-.5l4.9-3.1c.1-.1.3-.1.5-.1h.9c.2 0 .3 0 .4.1.1.1.1.2.1.5v1.5c0 .2 0 .4.1.4.1.1.2.1.4.1h2c.3 0 .4 0 .5.1.1.1.1.3.1.6v.6c0 .3-.1.6-.2.7-.1.1-.3.2-.5.2h-1.9c-.2 0-.3 0-.4.1 0 .4-.1.5-.1.7z" class="st1"/>
    <path d="M373.2 311.8c1.3 0 2.5.3 3.4 1 .7.5 1.3 1.1 1.7 1.9.4.8.7 1.7.7 2.6 0 1.6-.7 2.9-2.1 4-1.4 1-2.9 1.6-4.7 1.6-1.7 0-3.1-.5-4.2-1.5-1-.9-1.5-2.2-1.5-3.7 0-1.7.6-3.1 1.9-4.1 1.3-1.2 2.9-1.8 4.8-1.8zm-.9 2.5c-.3 0-.6.1-.8.3-.2.2-.3.5-.3.9s.1 1 .2 1.8.4 1.4.6 2c.2.6.6.9 1.1.9.6 0 1-.4 1-1.2 0-.6-.1-1.3-.2-2.1-.2-.8-.4-1.4-.6-1.9-.2-.5-.5-.7-1-.7z" class="st1"/>
    <path d="M385.7 312.4v5.8c0 1.2.4 1.9 1.2 1.9.2 0 .4-.1.6-.2.2-.1.3-.3.4-.4.2-.3.2-1.1.2-2.3 0-1.2 0-2-.1-2.4 0-.2-.1-.3-.2-.4-.1-.1-.2-.2-.4-.3-.4-.2-.6-.5-.6-.8 0-.4.4-.8 1.1-.9 1.3-.3 2.6-.5 3.9-.5.7 0 1.1.4 1.1 1.1v6.5c0 .2.2.5.6.7.4.2.5.4.5.8 0 .6-.8 1.1-2.3 1.5-.9.2-1.8.3-2.6.3-.3 0-.6 0-.7-.1-.1-.1-.2-.2-.2-.5 0-.4-.2-.7-.4-.7-.1 0-.2 0-.2.1-.1 0-.3.2-.7.4-.7.5-1.5.7-2.3.7-1.4 0-2.3-.4-2.9-1.2-.5-.7-.7-1.8-.7-3.4v-2c0-.6-.1-1.1-.2-1.4-.1-.3-.3-.5-.6-.7-.3-.1-.5-.3-.5-.3s-.1-.2-.1-.4c0-.5.4-.9 1.2-1.1 1.4-.3 2.8-.5 4.2-.5.5.2.7.4.7.7z" class="st1"/>
    <path d="M399.7 311.9c.4 0 .6.1.7.2.1.1.2.5.2 1 0 .3.1.5.3.5.1 0 .3-.1.4-.3.6-.9 1.3-1.3 2.2-1.3.7 0 1.2.2 1.6.6.2.2.4.5.5.8.1.3.2.6.2.9 0 .3-.1.7-.2 1s-.4.6-.6.9c-.5.4-1 .7-1.7.7-.4 0-.7-.1-.9-.2-.2-.1-.6-.4-1-.8-.2-.2-.3-.2-.4-.2-.2 0-.3.1-.4.3-.1.2-.1.7-.1 1.4 0 1.1 0 1.8.1 2.2 0 .2.1.4.2.4.1.1.3.2.6.3.6.2 1 .5 1 1 0 .3-.1.5-.3.8-.2.2-.5.4-.8.4-.7.1-1.7.2-3 .2s-2.2-.1-2.9-.3c-.6-.2-.9-.5-.9-1 0-.4.2-.7.6-1 .2-.1.4-.3.4-.4.1-.1.1-.3.2-.5.1-.7.2-1.9.2-3.6 0-.3 0-.6-.1-.7-.1-.1-.2-.3-.4-.3-.5-.2-.8-.5-.8-.9 0-.3.2-.6.5-.9.4-.2.9-.5 1.8-.7 1.1-.4 2-.5 2.8-.5z" class="st1"/>
    <path d="M418.1 314v3.4c0 1.5 0 2.4.1 2.7 0 .3.2.4.5.6.3.1.4.2.5.3.1.1.1.2.1.4s-.1.5-.3.6c-.2.2-.4.3-.7.4-.5.2-1.4.2-2.6.2-1.4 0-2.4-.1-2.9-.3-.3-.1-.5-.2-.6-.4-.2-.2-.2-.4-.2-.6 0-.2 0-.3.1-.4.1-.1.3-.2.6-.3.3-.1.5-.5.5-1 .1-.9.2-2.3.2-4 0-1.7 0-2.9-.2-3.4-.1-.5-.4-.9-.8-1.1-.3-.2-.5-.3-.6-.5-.1-.2-.2-.3-.2-.6 0-.4.2-.7.5-.9.3-.3.9-.5 1.6-.7.5-.2 1.1-.3 1.9-.4.8-.1 1.4-.2 1.7-.2.6 0 .8.4.8 1.1 0 .2 0 .8-.1 1.6.2 1.2.1 2.4.1 3.5z" class="st1"/>
    <path d="M426 312.5v6.2c0 .5 0 .9.1 1.1.1.2.3.4.5.6.2.2.4.3.4.4.1.1.1.3.1.4 0 .9-1.2 1.4-3.5 1.4-1.3 0-2.3-.1-3-.3-.3-.1-.5-.2-.6-.4-.2-.2-.2-.4-.2-.6 0-.2 0-.3.1-.5s.3-.3.6-.5c.2-.2.4-.4.5-.8.1-.4.1-.9.1-1.7v-1.3c0-.6-.1-1-.1-1.1 0-.3-.2-.5-.6-.7-.4-.2-.7-.5-.7-.9 0-.5.3-.8.9-1 .8-.3 1.7-.6 2.6-.8s1.6-.3 2.1-.3c.5.2.7.4.7.8zm-2.1-4.7c.6 0 1.1.1 1.5.3.4.2.5.5.5.9 0 .6-.3 1-.8 1.3-.9.5-1.9.8-3.2.8-.5 0-.9-.1-1.2-.3-.4-.3-.6-.6-.6-1.1 0-.6.4-1.1 1.3-1.5.8-.2 1.7-.4 2.5-.4z" class="st1"/>
    <path d="M434.2 314.6v3.6c0 .4.1.8.3 1.1.2.3.5.4.8.4.3 0 .6-.1 1.1-.4.1-.1.2-.1.3-.1.2 0 .3.1.5.3.1.2.2.4.2.7 0 .4-.2.9-.7 1.3-1 .9-2.2 1.3-3.7 1.3-1.1 0-2.1-.3-2.8-1-.7-.6-1-1.5-1-2.6v-5c0-.2 0-.3-.1-.3 0 0-.1-.1-.3-.1h-1.1c-.2 0-.3 0-.4-.1-.1-.1-.1-.2-.1-.5v-.5c0-.2.1-.4.2-.5l4.9-3.1c.1-.1.3-.1.5-.1h.9c.2 0 .3 0 .4.1.1.1.1.2.1.5v1.5c0 .2 0 .4.1.4.1.1.2.1.4.1h2c.3 0 .4 0 .5.1s.1.3.1.6v.6c0 .3 0 .6-.2.7-.1.1-.3.2-.5.2h-1.9c-.2 0-.3 0-.4.1 0 .4-.1.5-.1.7z" class="st1"/>
    <path d="M444.4 314.6v3.6c0 .4.1.8.3 1.1.2.3.5.4.8.4.3 0 .6-.1 1.1-.4.1-.1.2-.1.3-.1.2 0 .3.1.5.3.1.2.2.4.2.7 0 .4-.2.9-.7 1.3-1 .9-2.2 1.3-3.7 1.3-1.1 0-2.1-.3-2.8-1-.7-.6-1-1.5-1-2.6v-5c0-.2 0-.3-.1-.3 0 0-.1-.1-.3-.1h-1c-.2 0-.3 0-.4-.1-.1-.1-.1-.2-.1-.5v-.5c0-.2.1-.4.2-.5l4.9-3.1c.1-.1.3-.1.5-.1h.9c.2 0 .3 0 .4.1.1.1.1.2.1.5v1.5c0 .2 0 .4.1.4.1.1.2.1.4.1h2c.3 0 .4 0 .5.1s.1.3.1.6v.6c0 .3 0 .6-.2.7-.1.1-.3.2-.5.2H445c-.2 0-.3 0-.4.1-.2.4-.2.5-.2.7z" class="st1"/>
    <path d="M454.3 314v3.4c0 1.5 0 2.4.1 2.7 0 .3.2.4.5.6.3.1.4.2.5.3.1.1.1.2.1.4s-.1.5-.3.6c-.2.2-.4.3-.7.4-.5.2-1.4.2-2.6.2-1.4 0-2.4-.1-2.9-.3-.3-.1-.5-.2-.6-.4-.2-.2-.2-.4-.2-.6 0-.2 0-.3.1-.4.1-.1.3-.2.6-.3.3-.1.5-.5.5-1 .1-.9.2-2.3.2-4 0-1.7 0-2.9-.2-3.4-.1-.5-.4-.9-.8-1.1-.3-.2-.5-.3-.6-.5-.1-.2-.2-.3-.2-.6 0-.4.2-.7.5-.9.3-.3.9-.5 1.6-.7.5-.2 1.1-.3 1.9-.4.8-.1 1.4-.2 1.7-.2.6 0 .8.4.8 1.1 0 .2 0 .8-.1 1.6.2 1.2.2 2.4.1 3.5z" class="st1"/>
    <path d="M466.2 317.7h-5c-.2 0-.3.1-.3.3 0 .5.3.9.8 1.3s1 .6 1.6.6c.3 0 .7-.1 1.1-.2.4-.1.8-.3 1-.5.2-.2.4-.3.6-.3.2 0 .4.1.5.3.2.2.3.5.3.7 0 .5-.3 1-1 1.5-1.1.9-2.5 1.3-3.9 1.3-1.5 0-2.8-.4-3.8-1.3-.5-.4-.9-.9-1.2-1.6-.4-.8-.6-1.7-.6-2.6 0-1.2.4-2.3 1.1-3.2.6-.8 1.4-1.5 2.4-1.9.7-.3 1.5-.5 2.4-.5 1.4 0 2.5.4 3.5 1.2.5.4.9.8 1.2 1.4.3.6.5 1.2.5 1.8 0 .5-.1.8-.3 1.1-.4.4-.6.6-.9.6zm-4.8-2h1.1c.5 0 .7-.2.7-.6 0-.4-.1-.7-.3-.9-.2-.2-.5-.4-.9-.4s-.7.2-.9.5c-.2.3-.3.6-.3.9 0 .2.1.4.2.5 0-.1.1 0 .4 0z" class="st1"/>
    <path d="M478.7 311.9c.4 0 .7 0 .8.1s.2.3.2.6.1.4.3.4c.1 0 .3-.1.7-.4.3-.2.7-.4 1.2-.5.5-.1.9-.2 1.3-.2.9 0 1.7.3 2.4.9.5.5 1 1.1 1.3 1.8.3.8.5 1.6.5 2.4 0 1.8-.6 3.3-1.8 4.5-.9.9-2 1.4-3.2 1.4-.6 0-1.2-.1-1.9-.4-.1-.1-.2-.1-.3-.1-.2 0-.3.2-.3.6 0 .6.2 1 .6 1.2.4.2.6.4.6.5.1.1.1.2.1.4 0 .4-.2.8-.7 1-.5.2-1.2.3-2 .3-1.6 0-2.9-.3-4.1-.9-.6-.3-.9-.7-.9-1.2 0-.2 0-.4.1-.5.1-.1.3-.2.5-.3.4-.2.6-.5.7-.9.1-.5.1-1.7.2-3.9 0-1.8-.1-2.8-.2-3 0-.1-.1-.1-.1-.1-.1 0-.2-.1-.5-.1-.2 0-.4-.1-.6-.3-.1-.2-.2-.4-.2-.6 0-.3.1-.5.3-.8.2-.2.5-.4 1-.6 1.6-.9 2.9-1.3 4-1.3zm1 4l-.2 3v.4c0 .2.1.4.3.5.2.1.5.2.8.2 1 0 1.5-.8 1.5-2.4 0-1.1-.2-1.8-.6-2.2-.3-.3-.6-.4-.9-.4-.5-.1-.8.2-.9.9z" class="st1"/>
    <path d="M494.2 311.8c1.2 0 2.3.3 3.2.9.5.3.8.7 1 1.2.2.4.3 1 .3 1.8v1.6c0 1.1.1 1.8.2 2.2.1.2.2.3.2.3s.2.1.5.1c.2 0 .3.2.3.5s-.1.7-.4 1.1c-.3.4-.6.7-1.1.9-.5.3-1.1.5-1.7.5-.8 0-1.3-.3-1.8-.8-.2-.2-.3-.3-.4-.3-.1 0-.3.1-.6.3-.7.5-1.5.8-2.4.8-.9 0-1.7-.2-2.3-.6-.4-.3-.7-.6-.9-1-.2-.4-.3-.9-.3-1.3 0-.7.3-1.4.9-2 .9-.9 2.3-1.4 4.2-1.4.4 0 .7 0 .8-.1.1-.1.2-.3.2-.6 0-.8-.1-1.3-.2-1.6-.2-.3-.4-.5-.8-.5-.2 0-.4.1-.6.2-.2.1-.4.4-.6.7-.6.9-1.3 1.4-2 1.4-.4 0-.6-.1-.9-.3-.2-.2-.3-.5-.3-.8 0-.3.1-.7.4-1 .3-.3.6-.6 1.1-.9 1.2-1 2.6-1.3 4-1.3zm-.7 6.2c-.3 0-.6.1-.8.4-.2.3-.3.6-.3.9 0 .3.1.6.2.8.2.2.4.3.7.3.6 0 .9-.5.9-1.5 0-.4 0-.7-.1-.8-.2 0-.4-.1-.6-.1z" class="st1"/>
    <path d="M506.7 314v3.4c0 1.5 0 2.4.1 2.7 0 .3.2.4.5.6.3.1.4.2.5.3.1.1.1.2.1.4s-.1.5-.3.6c-.2.2-.4.3-.7.4-.5.2-1.4.2-2.6.2-1.4 0-2.4-.1-2.9-.3-.3-.1-.5-.2-.6-.4-.2-.2-.2-.4-.2-.6 0-.2 0-.3.1-.4.1-.1.3-.2.6-.3.3-.1.5-.5.5-1 .1-.9.2-2.3.2-4 0-1.7 0-2.9-.2-3.4-.1-.5-.4-.9-.8-1.1-.3-.2-.5-.3-.6-.5-.1-.2-.2-.3-.2-.6 0-.4.2-.7.5-.9.3-.3.9-.5 1.6-.7.5-.2 1.1-.3 1.9-.4.8-.1 1.4-.2 1.7-.2.6 0 .8.4.8 1.1 0 .2 0 .8-.1 1.6.1 1.2.1 2.4.1 3.5z" class="st1"/>
    <path d="M512.9 311.8c.4 0 .9.1 1.8.2h.4c.1 0 .4-.1.7-.2.2-.1.3-.1.4-.1.3 0 .7.2 1 .6.3.3.5.7.7 1.1.2.4.3.7.3 1 0 .3-.1.5-.3.7-.2.2-.5.3-.8.3-.3 0-.5-.1-.7-.2-.2-.1-.5-.4-1-.8s-.8-.7-1.1-.7c-.2 0-.4.1-.5.2-.1.1-.2.3-.2.5 0 .4.3.7 1 1 1.2.5 2.1 1.1 2.8 1.8.5.5.8 1.2.8 2 0 1-.4 1.8-1.3 2.5-.8.6-1.7.9-2.8.9-.3 0-.8 0-1.5-.1s-1.1-.1-1.2-.1h-.8c-.3 0-.6-.1-.8-.3-.3-.3-.6-.7-.8-1.3s-.4-1.1-.4-1.5c0-.7.3-1 .8-1 .2 0 .4.1.6.2.2.1.5.5 1.1 1.1.3.3.5.5.7.6s.4.2.6.2c.2 0 .4-.1.6-.2.1-.1.2-.3.2-.5 0-.3-.3-.6-.8-.9-1.2-.6-2-1.1-2.5-1.8-.5-.6-.8-1.3-.8-2.1 0-.9.3-1.6.8-2.2.7-.5 1.7-.9 3-.9z" class="st1"/>
    <path d="M330.2 338.3c.4 0 .6.1.7.2.1.1.2.5.2 1 0 .3.1.5.3.5.1 0 .3-.1.4-.3.6-.9 1.3-1.3 2.2-1.3.7 0 1.2.2 1.6.6.2.2.4.5.5.8.1.3.2.6.2.9 0 .3-.1.7-.2 1-.2.4-.4.6-.6.9-.5.4-1 .7-1.7.7-.4 0-.7-.1-.9-.2s-.6-.4-1-.8c-.2-.2-.3-.2-.4-.2-.2 0-.3.1-.4.3-.1.2-.1.7-.1 1.4 0 1.1 0 1.8.1 2.2 0 .2.1.4.2.4.1.1.3.2.6.3.6.2 1 .5 1 1 0 .3-.1.5-.3.8-.2.2-.5.4-.8.4-.7.1-1.7.2-3 .2s-2.2-.1-2.9-.3c-.6-.2-.9-.5-.9-1 0-.4.2-.7.6-1 .2-.1.4-.3.4-.4.1-.1.1-.3.2-.5.1-.7.2-1.9.2-3.6 0-.3 0-.6-.1-.7-.1-.1-.2-.3-.4-.3-.5-.2-.8-.5-.8-.9 0-.3.2-.6.5-.9.4-.2.9-.5 1.8-.7 1.1-.4 2-.5 2.8-.5z" class="st1"/>
    <path d="M346.6 344.1h-5c-.2 0-.3.1-.3.3 0 .5.3.9.8 1.3s1 .6 1.6.6c.3 0 .7-.1 1.1-.2.4-.1.8-.3 1-.5.2-.2.4-.3.6-.3.2 0 .4.1.5.3.2.2.3.5.3.7 0 .5-.3 1-1 1.5-1.1.9-2.5 1.3-3.9 1.3-1.5 0-2.8-.4-3.8-1.3-.5-.4-.9-.9-1.2-1.6-.4-.8-.6-1.7-.6-2.6 0-1.2.4-2.3 1.1-3.2.6-.8 1.4-1.5 2.4-1.9.7-.3 1.5-.5 2.4-.5 1.4 0 2.5.4 3.5 1.2.5.4.9.8 1.2 1.4.3.6.5 1.2.5 1.8 0 .5-.1.8-.3 1.1-.3.4-.6.6-.9.6zm-4.8-2h1.1c.5 0 .7-.2.7-.6 0-.4-.1-.7-.3-.9-.2-.2-.5-.4-.9-.4s-.7.2-.9.5c-.2.3-.3.6-.3.9 0 .2.1.4.2.5 0-.1.2 0 .4 0z" class="st1"/>
    <path d="M359.4 341.6l-2.8 5.4c-.4.8-.8 1.4-1.1 1.7s-.6.5-1 .5c-.3 0-.6-.1-.8-.4-.4-.5-.8-1-1.1-1.7l-3.1-5.8c-.2-.3-.3-.5-.5-.7l-.6-.3c-.5-.2-.8-.5-.8-.9s.3-.8 1-1c.7-.2 1.7-.3 3.2-.3 1.2 0 2.1.1 2.7.3.6.2.9.4.9.8 0 .3-.1.5-.4.7-.2.2-.3.3-.3.4-.1.1-.1.2-.1.3 0 .2.2.6.5 1.2s.6.8.9.8c.2 0 .3-.1.4-.2.1-.1.3-.5.6-1.1.2-.4.3-.7.3-.9 0-.2-.1-.4-.3-.6-.2-.3-.4-.5-.4-.7 0-.3.2-.6.7-.7.5-.2 1.2-.2 2.2-.2 1.5 0 2.2.3 2.2.9 0 .4-.3.6-.8.8-.4.1-.7.3-.8.4-.2.3-.4.7-.7 1.3z" class="st1"/>
    <path d="M371.2 344.1h-5c-.2 0-.3.1-.3.3 0 .5.3.9.8 1.3s1 .6 1.6.6c.3 0 .7-.1 1.1-.2.4-.1.8-.3 1-.5.2-.2.4-.3.6-.3.2 0 .4.1.5.3.2.2.3.5.3.7 0 .5-.3 1-1 1.5-1.1.9-2.5 1.3-3.9 1.3-1.5 0-2.8-.4-3.8-1.3-.5-.4-.9-.9-1.2-1.6-.4-.8-.6-1.7-.6-2.6 0-1.2.4-2.3 1.1-3.2.6-.8 1.4-1.5 2.4-1.9.7-.3 1.5-.5 2.4-.5 1.4 0 2.5.4 3.5 1.2.5.4.9.8 1.2 1.4.3.6.5 1.2.5 1.8 0 .5-.1.8-.3 1.1-.4.4-.6.6-.9.6zm-4.8-2h1.1c.5 0 .7-.2.7-.6 0-.4-.1-.7-.3-.9-.2-.2-.5-.4-.9-.4s-.7.2-.9.5c-.2.3-.3.6-.3.9 0 .2.1.4.2.5 0-.1.1 0 .4 0z" class="st1"/>
    <path d="M379 338.2c1.2 0 2.3.3 3.2.9.5.3.8.7 1 1.2.2.4.3 1 .3 1.8v1.6c0 1.1.1 1.8.2 2.2.1.2.2.3.2.3.1 0 .2.1.5.1.2 0 .3.2.3.5s-.1.7-.4 1.1c-.3.4-.6.7-1.1.9-.5.3-1.1.5-1.7.5-.8 0-1.3-.3-1.8-.8-.2-.2-.3-.3-.4-.3-.1 0-.3.1-.6.3-.7.5-1.5.8-2.4.8-.9 0-1.7-.2-2.3-.6-.4-.3-.7-.6-.9-1-.2-.4-.3-.9-.3-1.3 0-.7.3-1.4.9-2 .9-.9 2.3-1.4 4.2-1.4.4 0 .7 0 .8-.1.1-.1.2-.3.2-.6 0-.8-.1-1.3-.2-1.6-.2-.3-.4-.5-.8-.5-.2 0-.4.1-.6.2-.2.1-.4.4-.6.7-.6.9-1.3 1.4-2 1.4-.4 0-.6-.1-.9-.3-.2-.2-.3-.5-.3-.8 0-.3.1-.7.4-1 .3-.3.6-.6 1.1-.9 1.3-1 2.6-1.3 4-1.3zm-.7 6.2c-.3 0-.6.1-.8.4-.2.3-.3.6-.3.9 0 .3.1.6.2.8.2.2.4.3.7.3.6 0 .9-.5.9-1.5 0-.4 0-.7-.1-.8-.2 0-.4-.1-.6-.1z" class="st1"/>
    <path d="M391.5 340.4v3.4c0 1.5 0 2.4.1 2.7 0 .3.2.4.5.6.3.1.4.2.5.3.1.1.1.2.1.4s-.1.5-.3.6c-.2.2-.4.3-.7.4-.5.2-1.4.2-2.6.2-1.4 0-2.4-.1-2.9-.3-.3-.1-.5-.2-.6-.4-.2-.2-.2-.4-.2-.6 0-.2 0-.3.1-.4.1-.1.3-.2.6-.3.3-.1.5-.5.5-1 .1-.9.2-2.3.2-4 0-1.7-.1-2.9-.2-3.4s-.4-.9-.8-1.1c-.3-.2-.5-.3-.6-.5-.1-.2-.2-.3-.2-.6 0-.4.2-.7.5-.9.3-.3.9-.5 1.6-.7.5-.2 1.1-.3 1.9-.4.8-.1 1.4-.2 1.7-.2.6 0 .8.4.8 1.1 0 .2 0 .8-.1 1.6.2 1.2.1 2.4.1 3.5z" class="st1"/>
    <path d="M405 338.2c1.2 0 2.3.3 3.2.9.5.3.8.7 1 1.2.2.4.3 1 .3 1.8v1.6c0 1.1.1 1.8.2 2.2.1.2.2.3.2.3s.2.1.5.1c.2 0 .3.2.3.5s-.1.7-.4 1.1c-.3.4-.6.7-1.1.9-.5.3-1.1.5-1.7.5-.8 0-1.3-.3-1.8-.8-.2-.2-.3-.3-.4-.3-.1 0-.3.1-.6.3-.7.5-1.5.8-2.4.8-.9 0-1.7-.2-2.3-.6-.4-.3-.7-.6-.9-1-.2-.4-.3-.9-.3-1.3 0-.7.3-1.4.9-2 .9-.9 2.3-1.4 4.2-1.4.4 0 .7 0 .8-.1.1-.1.2-.3.2-.6 0-.8-.1-1.3-.2-1.6-.2-.3-.4-.5-.8-.5-.2 0-.4.1-.6.2-.2.1-.4.4-.6.7-.6.9-1.3 1.4-2 1.4-.4 0-.6-.1-.9-.3-.2-.2-.3-.5-.3-.8 0-.3.1-.7.4-1 .3-.3.6-.6 1.1-.9 1.3-1 2.6-1.3 4-1.3zm-.7 6.2c-.3 0-.6.1-.8.4-.2.3-.3.6-.3.9 0 .3.1.6.2.8.2.2.4.3.7.3.6 0 .9-.5.9-1.5 0-.4 0-.7-.1-.8-.2 0-.3-.1-.6-.1z" class="st1"/>
    <path d="M417.2 334.9l-.1 4.2v.2c0 .1 0 .2.1.2 0 0 .2-.1.4-.3.8-.7 1.8-1 2.8-1 1 0 1.9.4 2.7 1.1 1 .9 1.4 2.1 1.4 3.6 0 2.1-.8 3.7-2.3 5-1.1.9-2.4 1.4-3.9 1.4-.7 0-1.4-.1-2-.3-.6-.2-1.3-.5-2-1-.1-.1-.2-.1-.3-.1-.1 0-.3.1-.7.2-.2.1-.4.1-.7.1-.4 0-.7-.1-.7-.4 0-.1 0-.2.1-.3.1-.5.2-1 .3-1.7s.1-1.8.1-3.3v-3c0-.7 0-1.2-.1-1.4-.1-.2-.2-.3-.5-.4-.4-.2-.6-.3-.8-.5-.1-.2-.2-.3-.2-.6 0-.5.5-.9 1.5-1.4.6-.2 1.3-.5 2.1-.6.8-.2 1.5-.3 2.1-.3.5-.1.7.2.7.6zm.9 6.5c-.4 0-.7.1-.8.4-.1.2-.2.6-.2 1.2 0 1.7.1 2.8.2 3.4.1.5.4.8.9.8s.9-.2 1.2-.7c.3-.4.4-1.1.4-1.9 0-1.2-.2-2.2-.7-2.7-.3-.3-.6-.5-1-.5z" class="st1"/>
    <path d="M431.9 338.2c1.3 0 2.5.3 3.4 1 .7.5 1.3 1.1 1.7 1.9.4.8.7 1.7.7 2.6 0 1.6-.7 2.9-2.1 4-1.4 1-2.9 1.6-4.7 1.6-1.7 0-3.1-.5-4.2-1.5-1-.9-1.5-2.2-1.5-3.7 0-1.7.6-3.1 1.9-4.1 1.4-1.2 3-1.8 4.8-1.8zm-.8 2.5c-.3 0-.6.1-.8.3-.2.2-.3.5-.3.9s.1 1 .2 1.8c.2.7.4 1.4.6 2 .2.6.6.9 1.1.9.6 0 1-.4 1-1.2 0-.6-.1-1.3-.2-2.1-.2-.8-.4-1.4-.6-1.9-.3-.5-.6-.7-1-.7z" class="st1"/>
    <path d="M444.4 338.8v5.8c0 1.2.4 1.9 1.2 1.9.2 0 .4-.1.6-.2s.3-.3.4-.4c.2-.3.2-1.1.2-2.3 0-1.2 0-2-.1-2.4 0-.2-.1-.3-.2-.4-.1-.1-.2-.2-.4-.3-.4-.2-.6-.5-.6-.8 0-.4.4-.8 1.1-.9 1.3-.3 2.6-.5 3.9-.5.7 0 1.1.4 1.1 1.1v6.5c0 .2.2.5.6.7.4.2.5.4.5.8 0 .6-.8 1.1-2.3 1.5-.9.2-1.8.3-2.6.3-.3 0-.6 0-.7-.1-.1-.1-.2-.2-.2-.5 0-.4-.2-.7-.4-.7-.1 0-.2 0-.2.1-.1 0-.3.2-.7.4-.7.5-1.5.7-2.3.7-1.4 0-2.3-.4-2.9-1.2-.5-.7-.7-1.8-.7-3.4v-2c0-.6-.1-1.1-.2-1.4-.1-.3-.3-.5-.6-.7-.3-.1-.5-.3-.5-.3-.1-.1-.1-.2-.1-.4 0-.5.4-.9 1.2-1.1 1.4-.3 2.8-.5 4.2-.5.5.2.7.4.7.7z" class="st1"/>
    <path d="M459.8 341v3.6c0 .4.1.8.3 1.1.2.3.5.4.8.4.3 0 .6-.1 1.1-.4.1-.1.2-.1.3-.1.2 0 .3.1.5.3.1.2.2.4.2.7 0 .4-.2.9-.7 1.3-1 .9-2.2 1.3-3.7 1.3-1.1 0-2.1-.3-2.8-1-.7-.6-1-1.5-1-2.6v-5c0-.2 0-.3-.1-.3 0 0-.1-.1-.3-.1h-1.1c-.2 0-.3 0-.4-.1-.1-.1-.1-.2-.1-.5v-.5c0-.2.1-.4.2-.5l4.9-3.1c.1-.1.3-.1.5-.1h.9c.2 0 .3 0 .4.1.1.1.1.2.1.5v1.5c0 .2 0 .4.1.4.1.1.2.1.4.1h2c.3 0 .4 0 .5.1s.1.3.1.6v.6c0 .3 0 .6-.2.7-.1.1-.3.2-.5.2h-1.9c-.2 0-.3 0-.4.1 0 .4-.1.5-.1.7z" class="st1"/>
    <path d="M475 338.8v5.8c0 1.2.4 1.9 1.2 1.9.2 0 .4-.1.6-.2s.3-.3.4-.4c.2-.3.2-1.1.2-2.3 0-1.2 0-2-.1-2.4 0-.2-.1-.3-.2-.4-.1-.1-.2-.2-.4-.3-.4-.2-.6-.5-.6-.8 0-.4.4-.8 1.1-.9 1.3-.3 2.6-.5 3.9-.5.7 0 1.1.4 1.1 1.1v6.5c0 .2.2.5.6.7.4.2.5.4.5.8 0 .6-.8 1.1-2.3 1.5-.9.2-1.8.3-2.6.3-.3 0-.6 0-.7-.1-.1-.1-.2-.2-.2-.5 0-.4-.2-.7-.4-.7-.1 0-.2 0-.2.1-.1 0-.3.2-.7.4-.7.5-1.5.7-2.3.7-1.4 0-2.3-.4-2.9-1.2-.5-.7-.7-1.8-.7-3.4v-2c0-.6-.1-1.1-.2-1.4-.1-.3-.3-.5-.6-.7-.3-.1-.5-.3-.5-.3-.1-.1-.1-.2-.1-.4 0-.5.4-.9 1.2-1.1 1.4-.3 2.8-.5 4.2-.5.5.2.7.4.7.7z" class="st1"/>
    <path d="M488.3 338.2c.4 0 .9.1 1.8.2h.4c.1 0 .4-.1.7-.2.2-.1.3-.1.4-.1.3 0 .7.2 1 .6.3.3.5.7.7 1.1.2.4.3.7.3 1 0 .3-.1.5-.3.7-.2.2-.5.3-.8.3-.3 0-.5-.1-.7-.2-.2-.1-.5-.4-1-.8s-.8-.7-1.1-.7c-.2 0-.4.1-.5.2-.1.1-.2.3-.2.5 0 .4.3.7 1 1 1.2.5 2.1 1.1 2.8 1.8.5.5.8 1.2.8 2 0 1-.4 1.8-1.3 2.5-.8.6-1.7.9-2.8.9-.3 0-.8 0-1.5-.1s-1.1-.1-1.2-.1h-.8c-.3 0-.6-.1-.8-.3-.3-.3-.6-.7-.8-1.3s-.4-1.1-.4-1.5c0-.7.3-1 .8-1 .2 0 .4.1.6.2.2.1.5.5 1.1 1.1.3.3.5.5.7.6s.4.2.6.2c.2 0 .4-.1.6-.2.1-.1.2-.3.2-.5 0-.3-.3-.6-.8-.9-1.2-.6-2-1.1-2.5-1.8-.5-.6-.8-1.3-.8-2.1 0-.9.3-1.6.8-2.2.7-.5 1.7-.9 3-.9z" class="st1"/>
  </g>
</svg>
